<svg width="263" height="47" viewBox="0 0 263 47" fill="none" xmlns="http://www.w3.org/2000/svg">
<g clip-path="url(#clip0_295_356)">
<path d="M43.8449 32.7899L43.8271 11.6172H51.8401C53.1446 11.6172 54.4224 11.7972 55.6558 12.1572C56.7296 12.5172 57.6702 13.0744 58.4777 13.8116C59.862 15.0888 60.7405 16.3575 60.7405 18.7319V19.2634C60.7405 20.7292 60.2436 22.1093 59.2675 23.3865C58.5664 24.2951 57.9896 24.758 56.9603 25.2037L62.2313 32.7985H55.718L49.2046 24.5265V32.7985H43.8449V32.7899ZM55.1678 19.1691C55.1678 18.5176 54.8838 17.9604 54.307 17.4547C53.7391 17.0004 52.5145 16.7518 51.5207 16.7518H49.178V21.6807H51.1657V21.6978H52.3282C53.7924 21.6978 55.1589 20.6349 55.1589 19.1776L55.1678 19.1691Z" fill="#444346"/>
<path d="M64.3965 11.6172H79.473V16.7689H69.9958V19.6491H77.2812V24.8008H69.9958V27.681H79.473V32.8156H64.3965V11.6172Z" fill="#444346"/>
<path d="M93.9816 11.4453C97.3625 11.5996 100.069 13.0397 101.924 14.7627L102.27 15.0884L98.4184 18.7743L98.0546 18.4572C96.7236 17.2742 95.1795 16.6999 93.3604 16.6999C91.5413 16.6999 89.9706 17.2314 88.6839 18.32C87.3706 19.4258 86.7317 20.7116 86.7317 22.2288C86.7317 23.7461 87.3706 25.049 88.6751 26.1376C89.9706 27.2177 91.5058 27.7492 93.3515 27.7492C95.1973 27.7492 96.7502 27.1748 98.0546 25.9919L98.4184 25.6662L102.27 29.3521L101.932 29.6778C100.885 30.6808 99.643 31.478 98.17 32.0694C96.6792 32.6437 95.0642 32.9352 93.3427 32.9352C89.9351 32.9266 86.9979 31.8808 84.5843 29.8064C82.3215 27.7149 81.1768 25.1604 81.1768 22.2117C81.1768 19.2629 82.3215 16.7171 84.5843 14.6084C87.0157 12.5082 89.9529 11.4453 93.3427 11.4453H93.9993H93.9816Z" fill="#444346"/>
<path d="M103.201 11.6172H109.262L113.45 18.4319L117.639 11.6172H123.717L116.459 23.7636V32.7899H110.442V23.7636L103.201 11.6172Z" fill="#444346"/>
<path d="M136.15 11.4453C139.53 11.5996 142.237 13.0397 144.092 14.7627L144.438 15.0884L140.586 18.7743L140.223 18.4572C138.892 17.2742 137.347 16.6999 135.528 16.6999C133.709 16.6999 132.139 17.2314 130.852 18.32C129.539 19.4258 128.9 20.7116 128.9 22.2288C128.9 23.7461 129.539 25.049 130.843 26.1376C132.139 27.2177 133.674 27.7492 135.52 27.7492C137.365 27.7492 138.918 27.1748 140.223 25.9919L140.586 25.6662L144.438 29.3521L144.1 29.6778C143.053 30.6808 141.811 31.478 140.338 32.0694C138.847 32.6437 137.232 32.9352 135.511 32.9352C132.103 32.9266 129.166 31.8808 126.752 29.8064C124.489 27.7149 123.345 25.1604 123.345 22.2117C123.345 19.2629 124.489 16.7171 126.752 14.6084C129.184 12.5082 132.121 11.4453 135.511 11.4453H136.167H136.15Z" fill="#444346"/>
<path d="M146.7 11.6172H152.06V27.6382H161.821V32.7899H146.7V11.6172Z" fill="#444346"/>
<path d="M163.667 32.7876L174.236 11.6406H175.505L186.091 32.7876H180.279L178.655 29.5731H171.103L169.479 32.7876H163.676H163.667ZM173.464 25.3557H176.285L174.883 22.4927L173.464 25.3557Z" fill="#444346"/>
<path d="M189.481 11.6406L200.041 25.0472L210.583 11.6406H211.674V32.7876H206.341V25.0043L200.041 32.7705L193.723 24.9957V32.7876H188.381V11.6406H189.472H189.481Z" fill="#0097D6"/>
<path d="M215.569 32.7899V11.6172H220.929V32.7899H215.569Z" fill="#0097D6"/>
<path d="M225.934 11.6172L238.739 22.735V11.6172H244.258V32.7899H243.06L230.291 21.6978V32.7899H224.789V11.6172H225.943H225.934Z" fill="#0097D6"/>
<path d="M247.879 11.6172H262.964V16.7689H253.478V19.6491H260.764V24.8008H253.478V27.681H262.964V32.8156H247.879V11.6172Z" fill="#0097D6"/>
<path d="M36.5241 4.55859H29.221V8.09024H32.8681V36.3091H16.1322L18.2708 34.2433L15.6797 31.7488L10.9589 36.3091V36.3177L9.13086 38.0835L15.6797 44.4096L18.2619 41.9066L16.1234 39.8407H36.5241V4.55859Z" fill="#0097D6"/>
<path d="M3.65598 8.09192H20.3919L18.2533 10.1578L20.8355 12.6522L25.5653 8.09192L27.3932 6.3261L20.8444 0L18.2622 2.49444L20.4007 4.56028H0V39.8424H7.30309V36.3108H3.65598V8.09192Z" fill="#0097D6"/>
<path d="M112.696 41.2557H110.469V39.8242H116.538V41.2557H114.311V46.8961H112.696V41.2557Z" fill="#0097D6"/>
<path d="M120.15 39.8242H121.765V42.6272H124.738V39.8242H126.353V46.9047H124.738V44.0673H121.765V46.9047H120.15V39.8242Z" fill="#0097D6"/>
<path d="M130.479 39.8242H136.008V41.2129H132.086V42.653H135.538V44.0416H132.086V45.5246H136.061V46.9132H130.479V39.8328V39.8242Z" fill="#0097D6"/>
<path d="M145.378 39.825H148.368C150.117 39.825 151.173 40.8279 151.173 42.268V42.2851C151.173 43.9224 149.85 44.771 148.209 44.771H146.984V46.8968H145.369V39.8164L145.378 39.825ZM148.271 43.3909C149.078 43.3909 149.549 42.928 149.549 42.3194V42.3023C149.549 41.6079 149.043 41.2308 148.244 41.2308H147.002V43.3909H148.28H148.271Z" fill="#0097D6"/>
<path d="M154.749 39.8242H156.364V45.4903H160.02V46.9047H154.758V39.8242H154.749Z" fill="#0097D6"/>
<path d="M166.107 39.7734H167.598L170.739 46.9053H169.053L168.388 45.3195H165.291L164.625 46.9053H162.983L166.125 39.7734H166.107ZM167.802 43.9394L166.826 41.6421L165.85 43.9394H167.793H167.802Z" fill="#0097D6"/>
<path d="M174.244 39.8242H175.726L179.16 44.1788V39.8242H180.749V46.9047H179.382L175.833 42.4044V46.9047H174.244V39.8242Z" fill="#0097D6"/>
<path d="M184.884 39.8242H190.412V41.2129H186.49V42.653H189.942V44.0416H186.49V45.5246H190.465V46.9132H184.884V39.8328V39.8242Z" fill="#0097D6"/>
<path d="M195.976 41.2557H193.749V39.8242H199.819V41.2557H197.591V46.8961H195.976V41.2557Z" fill="#0097D6"/>
<path d="M209.021 39.8242H210.636V46.9047H209.021V39.8242Z" fill="#0097D6"/>
<path d="M214.336 45.8687L215.285 44.763C215.942 45.2859 216.634 45.6202 217.477 45.6202C218.134 45.6202 218.533 45.3716 218.533 44.9515V44.9344C218.533 44.5401 218.285 44.3344 217.06 44.0343C215.587 43.6743 214.629 43.28 214.629 41.8742V41.8571C214.629 40.5713 215.694 39.7227 217.193 39.7227C218.258 39.7227 219.172 40.0484 219.918 40.6227L219.083 41.7971C218.436 41.3599 217.797 41.1027 217.176 41.1027C216.554 41.1027 216.235 41.377 216.235 41.7199V41.7371C216.235 42.1999 216.546 42.3542 217.814 42.6628C219.296 43.04 220.139 43.5543 220.139 44.7887V44.8058C220.139 46.2116 219.03 47.0002 217.451 47.0002C216.341 47.0002 215.223 46.6231 214.345 45.8687H214.336Z" fill="#0097D6"/>
<path d="M229.421 39.8242H231.16L233.086 42.8158L235.011 39.8242H236.751V46.9047H235.153V42.2844L233.095 45.3103H233.05L231.009 42.3187V46.9047H229.43V39.8242H229.421Z" fill="#0097D6"/>
<path d="M240.957 39.8242H242.572V46.9047H240.957V39.8242Z" fill="#0097D6"/>
<path d="M246.778 39.8242H248.269L251.703 44.1788V39.8242H253.292V46.9047H251.925L248.376 42.4044V46.9047H246.787V39.8242H246.778Z" fill="#0097D6"/>
<path d="M257.418 39.8242H262.946V41.2129H259.024V42.653H262.476V44.0416H259.024V45.5246H263V46.9132H257.418V39.8328V39.8242Z" fill="#0097D6"/>
</g>
<defs>
<clipPath id="clip0_295_356">
<rect width="263" height="47" fill="white"/>
</clipPath>
</defs>
</svg>
