<svg width="170" height="32" viewBox="0 0 170 32" fill="none" xmlns="http://www.w3.org/2000/svg">
    <g clip-path="url(#clip0_521_1071)">
        <path d="M28.3411 22.1259L28.3296 8.16089H33.5091C34.3523 8.16089 35.1782 8.27962 35.9755 8.51708C36.6696 8.75454 37.2776 9.12204 37.7995 9.60827C38.6943 10.4507 39.2622 11.2875 39.2622 12.8536V13.2041C39.2622 14.1709 38.941 15.0812 38.31 15.9236C37.8569 16.5229 37.4841 16.8282 36.8187 17.1222L40.2258 22.1315H36.0157L31.8055 16.6756V22.1315H28.3411V22.1259ZM35.66 13.1419C35.66 12.7122 35.4765 12.3447 35.1037 12.0112C34.7366 11.7115 33.945 11.5475 33.3026 11.5475H31.7883V14.7985H33.0732V14.8098H33.8246C34.771 14.8098 35.6543 14.1087 35.6543 13.1476L35.66 13.1419Z" fill="white" />
        <path d="M41.6252 8.16089H51.3705V11.5588H45.2446V13.4585H49.9537V16.8565H45.2446V18.7562H51.3705V22.1428H41.6252V8.16089Z" fill="white" />
        <path d="M60.7488 8.04785C62.9342 8.14962 64.6836 9.09947 65.8824 10.2359L66.1061 10.4507L63.6167 12.8819L63.3816 12.6727C62.5212 11.8925 61.5231 11.5137 60.3473 11.5137C59.1714 11.5137 58.1562 11.8642 57.3245 12.5822C56.4756 13.3116 56.0626 14.1597 56.0626 15.1604C56.0626 16.1611 56.4756 17.0205 57.3187 17.7385C58.1562 18.4509 59.1485 18.8015 60.3415 18.8015C61.5346 18.8015 62.5384 18.4226 63.3816 17.6424L63.6167 17.4276L66.1061 19.8587L65.8881 20.0736C65.2113 20.7351 64.4083 21.2609 63.4561 21.651C62.4925 22.0298 61.4486 22.222 60.3358 22.222C58.1332 22.2164 56.2347 21.5266 54.6745 20.1584C53.2119 18.7788 52.4719 17.094 52.4719 15.1491C52.4719 13.2042 53.2119 11.525 54.6745 10.1341C56.2461 8.74893 58.1447 8.04785 60.3358 8.04785H60.7603H60.7488Z" fill="white" />
        <path d="M66.7083 8.16089H70.6259L73.3332 12.6557L76.0405 8.16089H79.9696L75.2777 16.1724V22.1259H71.3887V16.1724L66.7083 8.16089Z" fill="white" />
        <path d="M88.0056 8.04785C90.191 8.14962 91.9404 9.09947 93.1392 10.2359L93.3629 10.4507L90.8736 12.8819L90.6384 12.6727C89.778 11.8925 88.78 11.5137 87.6041 11.5137C86.4283 11.5137 85.413 11.8642 84.5813 12.5822C83.7324 13.3116 83.3194 14.1597 83.3194 15.1604C83.3194 16.1611 83.7324 17.0205 84.5756 17.7385C85.413 18.4509 86.4053 18.8015 87.5984 18.8015C88.7915 18.8015 89.7952 18.4226 90.6384 17.6424L90.8736 17.4276L93.3629 19.8587L93.145 20.0736C92.4681 20.7351 91.6651 21.2609 90.713 21.651C89.7493 22.0298 88.7054 22.222 87.5927 22.222C85.3901 22.2164 83.4915 21.5266 81.9313 20.1584C80.4687 18.7788 79.7288 17.094 79.7288 15.1491C79.7288 13.2042 80.4687 11.525 81.9313 10.1341C83.503 8.74893 85.4015 8.04785 87.5927 8.04785H88.0171H88.0056Z" fill="white" />
        <path d="M94.8257 8.16089H98.2902V18.7279H104.6V22.1259H94.8257V8.16089Z" fill="white" />
        <path d="M105.793 22.1259L112.624 8.17786H113.444L120.287 22.1259H116.53L115.481 20.0057H110.599L109.55 22.1259H105.798H105.793ZM112.125 17.224H113.949L113.043 15.3356L112.125 17.224Z" fill="white" />
        <path d="M122.478 8.17786L129.304 17.0205L136.118 8.17786H136.824V22.1259H133.377V16.9922L129.304 22.1146L125.22 16.9865V22.1259H121.767V8.17786H122.473H122.478Z" fill="#0097D6" />
        <path d="M139.342 22.1259V8.16089H142.806V22.1259H139.342Z" fill="#0097D6" />
        <path d="M146.041 8.16089L154.318 15.4939V8.16089H157.886V22.1259H157.111L148.858 14.8098V22.1259H145.301V8.16089H146.047H146.041Z" fill="#0097D6" />
        <path d="M160.226 8.16089H169.977V11.5588H163.845V13.4585H168.555V16.8565H163.845V18.7562H169.977V22.1428H160.226V8.16089Z" fill="#0097D6" />
        <path d="M23.6088 3.50781H18.8881V5.83719H21.2456V24.4496H10.4277L11.8101 23.0871L10.1352 21.4418L7.08369 24.4496V24.4553L5.9021 25.62L10.1352 29.7925L11.8043 28.1416L10.422 26.779H23.6088V3.50781Z" fill="#0097D6" />
        <path d="M2.36318 5.83722H13.1811L11.7987 7.1998L13.4678 8.84507L16.5251 5.83722L17.7067 4.67253L13.4736 0.5L11.8044 2.14527L13.1868 3.50784H0V26.779H4.72063V24.4497H2.36318V5.83722Z" fill="#0097D6" />
        <path d="M72.8457 27.712H71.406V26.7678H75.3293V27.712H73.8896V31.4322H72.8457V27.712Z" fill="#0097D6" />
        <path d="M77.6638 26.7678H78.7078V28.6166H80.6293V26.7678H81.6732V31.4379H80.6293V29.5665H78.7078V31.4379H77.6638V26.7678Z" fill="#0097D6" />
        <path d="M84.3403 26.7678H87.9138V27.6837H85.3785V28.6336H87.6098V29.5495H85.3785V30.5276H87.9482V31.4435H84.3403V26.7735V26.7678Z" fill="#0097D6" />
        <path d="M93.9711 26.7677H95.9041C97.034 26.7677 97.7166 27.4292 97.7166 28.3791V28.3904C97.7166 29.4703 96.8619 30.03 95.8008 30.03H95.0093V31.4322H93.9653V26.7621L93.9711 26.7677ZM95.841 29.1197C96.3629 29.1197 96.6669 28.8144 96.6669 28.413V28.4017C96.6669 27.9437 96.34 27.695 95.8238 27.695H95.0207V29.1197H95.8467H95.841Z" fill="#0097D6" />
        <path d="M100.028 26.7678H101.072V30.505H103.435V31.4379H100.034V26.7678H100.028Z" fill="#0097D6" />
        <path d="M107.37 26.7339H108.333L110.364 31.4379H109.274L108.844 30.3919H106.842L106.412 31.4379H105.351L107.381 26.7339H107.37ZM108.465 29.4817L107.834 27.9664L107.204 29.4817H108.46H108.465Z" fill="#0097D6" />
        <path d="M112.63 26.7678H113.588L115.808 29.64V26.7678H116.834V31.4379H115.951L113.657 28.4696V31.4379H112.63V26.7678Z" fill="#0097D6" />
        <path d="M119.507 26.7678H123.081V27.6837H120.545V28.6336H122.777V29.5495H120.545V30.5276H123.115V31.4435H119.507V26.7735V26.7678Z" fill="#0097D6" />
        <path d="M126.677 27.712H125.237V26.7678H129.161V27.712H127.721V31.4322H126.677V27.712Z" fill="#0097D6" />
        <path d="M135.109 26.7678H136.153V31.4379H135.109V26.7678Z" fill="#0097D6" />
        <path d="M138.544 30.7538L139.158 30.0244C139.583 30.3693 140.03 30.5898 140.575 30.5898C140.999 30.5898 141.258 30.4258 141.258 30.1488V30.1375C141.258 29.8774 141.097 29.7417 140.305 29.5438C139.353 29.3064 138.734 29.0463 138.734 28.1191V28.1078C138.734 27.2597 139.422 26.7 140.391 26.7C141.08 26.7 141.67 26.9148 142.152 27.2936L141.613 28.0682C141.194 27.7798 140.781 27.6102 140.38 27.6102C139.978 27.6102 139.772 27.7911 139.772 28.0173V28.0286C139.772 28.3339 139.973 28.4357 140.793 28.6392C141.751 28.888 142.296 29.2272 142.296 30.0414V30.0527C142.296 30.9799 141.579 31.5001 140.558 31.5001C139.841 31.5001 139.118 31.2513 138.55 30.7538H138.544Z" fill="#0097D6" />
        <path d="M148.295 26.7678H149.42L150.664 28.741L151.909 26.7678H153.033V31.4379H152.001V28.3905L150.67 30.3863H150.641L149.322 28.4131V31.4379H148.301V26.7678H148.295Z" fill="#0097D6" />
        <path d="M155.752 26.7678H156.796V31.4379H155.752V26.7678Z" fill="#0097D6" />
        <path d="M159.515 26.7678H160.479L162.698 29.64V26.7678H163.725V31.4379H162.842L160.547 28.4696V31.4379H159.521V26.7678H159.515Z" fill="#0097D6" />
        <path d="M166.392 26.7678H169.966V27.6837H167.43V28.6336H169.662V29.5495H167.43V30.5276H170V31.4435H166.392V26.7735V26.7678Z" fill="#0097D6" />
    </g>
    <defs>
        <clipPath id="clip0_521_1071">
            <rect width="170" height="31" fill="white" transform="translate(0 0.5)" />
        </clipPath>
    </defs>
</svg>