<svg width="99" height="110" viewBox="0 0 99 110" fill="none" xmlns="http://www.w3.org/2000/svg">
<path d="M44.6643 18.2771L53.331 33.2771C54.331 33.2771 55.2643 33.2771 56.2644 33.2771C58.7977 33.2771 61.331 33.3438 63.7977 33.4771L44.6643 0.34375L23.5977 36.7438C27.2643 35.9438 31.131 35.2104 35.131 34.6771L44.6643 18.2771ZM29.0643 32.8104L44.5977 5.87708L58.8644 30.5438C57.9977 30.5438 57.131 30.5438 56.2644 30.5438C55.7977 30.5438 55.331 30.5438 54.8644 30.5438L46.9977 16.8771L44.5977 12.7438L42.1977 16.8771L33.4643 32.0771C31.9977 32.2771 30.531 32.5438 29.0643 32.8104Z" fill="#B7B7B7"/>
<path d="M31.7193 82.9555C20.8526 78.2221 14.2526 71.8221 14.2526 64.8221C14.2526 62.4888 14.986 60.2221 16.386 58.0888H77.9861L66.786 38.6888C71.0527 38.3555 75.4527 38.1555 79.9861 38.1555C86.0527 38.1555 91.9861 38.4888 97.5861 39.1555C97.2527 39.0221 96.9194 38.9555 96.5861 38.8221C96.9194 38.9555 97.2527 39.0221 97.5861 39.1555C97.9861 39.2221 98.3194 39.2221 98.7194 39.2888C97.7194 39.0221 96.7194 38.8221 95.7194 38.5555C86.5861 36.4888 76.0527 35.3555 64.8527 35.3555C64.786 35.3555 64.7194 35.3555 64.6527 35.3555C62.1194 35.3555 59.586 35.4221 57.1194 35.5555C56.3194 35.6221 55.4527 35.6221 54.6527 35.6888C46.8527 36.1555 39.5193 37.2221 32.9193 38.7555C32.3193 38.8888 31.786 39.0221 31.2527 39.1555C27.3193 40.0888 23.7193 41.2221 20.386 42.4888C8.25262 47.1555 0.65261 53.7555 0.65261 61.0221C0.585943 70.2888 13.0526 78.4888 31.7193 82.9555ZM57.0527 39.8221L62.4527 49.1555H26.8526C34.386 44.8888 44.8527 41.6221 57.0527 39.8221Z" fill="#B7B7B7"/>
<path d="M6.53177 101.328C6.86511 101.195 7.19844 100.995 7.39844 100.728C7.66511 100.462 7.86511 100.195 7.99844 99.7951C8.13178 99.4617 8.19844 99.1284 8.19844 98.7284V97.9951H6.46511V98.5951C6.46511 98.8617 6.39844 99.0617 6.33177 99.1951C6.26511 99.3284 6.19844 99.4617 6.06511 99.5951C5.93178 99.6617 5.79844 99.7284 5.66511 99.7951C5.53177 99.8617 5.39844 99.8617 5.26511 99.8617C4.86511 99.8617 4.59844 99.7284 4.39844 99.5284C4.26511 99.2617 4.19844 98.9951 4.19844 98.6617V92.3951C4.19844 91.9951 4.26511 91.6617 4.39844 91.3951C4.53177 91.1284 4.86511 90.9951 5.26511 90.9951C5.59844 90.9951 5.86511 91.1284 6.06511 91.3951C6.26511 91.6617 6.33177 91.9284 6.33177 92.2617V92.8617H8.06511V92.195C8.06511 91.795 7.99844 91.3951 7.86511 90.9951C7.73177 90.6617 7.53178 90.3284 7.26511 90.0617C6.73178 89.5284 6.06511 89.2617 5.26511 89.2617C4.86511 89.2617 4.46511 89.3284 4.13177 89.4617C3.79844 89.5951 3.46511 89.7951 3.19844 90.0617C2.93177 90.3284 2.73177 90.5951 2.59844 90.9284C2.4651 91.2617 2.39844 91.6617 2.39844 92.0617V98.7951C2.39844 99.3284 2.4651 99.7951 2.6651 100.195C2.8651 100.528 3.0651 100.862 3.33177 101.062C3.59844 101.262 3.93177 101.462 4.26511 101.528C4.59844 101.595 4.93177 101.662 5.26511 101.662C5.86511 101.595 6.19844 101.528 6.53177 101.328Z" fill="#B7B7B7"/>
<path d="M22.3042 92.0781C22.3042 91.6115 22.2375 91.1448 22.0375 90.7448C21.8375 90.3448 21.6375 90.0781 21.3708 89.8115C21.1042 89.5448 20.7708 89.4115 20.4375 89.2781C20.1042 89.1448 19.7042 89.0781 19.3708 89.0781C19.0375 89.0781 18.6375 89.1448 18.3042 89.2781C17.9708 89.4115 17.6375 89.6115 17.3708 89.8115C17.1042 90.0781 16.8375 90.4115 16.7042 90.7448C16.5042 91.1448 16.4375 91.5448 16.4375 92.0781V98.5448C16.4375 99.0781 16.5042 99.4781 16.7042 99.8781C16.9042 100.278 17.1042 100.545 17.3708 100.811C17.6375 101.078 17.9708 101.278 18.3042 101.411C18.6375 101.545 19.0375 101.611 19.3708 101.611C19.7042 101.611 20.1042 101.545 20.4375 101.411C20.7708 101.278 21.1042 101.078 21.3708 100.811C21.6375 100.545 21.8375 100.278 22.0375 99.8781C22.2375 99.4781 22.3042 99.0781 22.3042 98.5448V92.0781ZM20.5708 98.6115C20.5708 99.0115 20.4375 99.3448 20.2375 99.5448C19.9708 99.7448 19.7042 99.8781 19.3708 99.8781C19.0375 99.8781 18.7708 99.7448 18.5042 99.5448C18.2375 99.3448 18.1708 99.0115 18.1708 98.6115V92.1448C18.1708 91.7448 18.3042 91.4115 18.5042 91.2115C18.7708 91.0115 19.0375 90.8781 19.3708 90.8781C19.7042 90.8781 19.9708 91.0115 20.2375 91.2115C20.5042 91.4115 20.5708 91.7448 20.5708 92.1448V98.6115Z" fill="#B7B7B7"/>
<path d="M34.8125 95.756H34.7458L32.4792 89.2227H30.8125V101.489H32.5458V94.0227H32.6125L34.3458 99.2893H35.2125L36.9458 94.0227H37.0125V101.489H38.7458V89.2227H37.0125L34.8125 95.756Z" fill="#B7B7B7"/>
<path d="M52.2068 90.0893C51.9401 89.756 51.6068 89.556 51.2068 89.4227C50.8068 89.2893 50.4068 89.2227 49.9401 89.2227H47.2734V101.489H49.0068V96.6893H49.8734C50.5401 96.6893 51.0734 96.556 51.4734 96.356C51.8734 96.156 52.2068 95.8227 52.4068 95.4227C52.6068 95.0893 52.7401 94.756 52.8068 94.356C52.8734 93.956 52.8734 93.4893 52.8734 92.956C52.8734 92.2227 52.8068 91.6227 52.6734 91.2227C52.6734 90.756 52.4734 90.4227 52.2068 90.0893ZM51.3401 93.8227C51.3401 94.0893 51.2734 94.2893 51.2068 94.4893C51.1401 94.6893 50.9401 94.8227 50.8068 94.8893C50.6068 95.0227 50.3401 95.0227 50.0068 95.0227H49.1401V90.8227H50.0734C50.4068 90.8227 50.6734 90.8893 50.8734 90.956C51.0734 91.0893 51.2068 91.2227 51.2734 91.4227C51.3401 91.6227 51.4068 91.8227 51.4068 92.0893C51.4068 92.356 51.4068 92.6227 51.4068 92.8893C51.3401 93.2893 51.3401 93.556 51.3401 93.8227Z" fill="#B7B7B7"/>
<path d="M62.4247 89.2227L59.6914 101.489H61.4247L61.9581 98.8227H64.3581L64.8914 101.489H66.6247L63.8914 89.2227H62.4247ZM62.2914 97.2227L63.1581 92.756H63.2247L64.0914 97.2227H62.2914Z" fill="#B7B7B7"/>
<path d="M80.5162 101.493V89.2266H78.7828V96.6266H78.7161L76.0495 89.2266H74.3828V101.493H76.1162V94.0932H76.1828L78.8495 101.493H80.5162Z" fill="#B7B7B7"/>
<path d="M92.4227 101.489V96.2893L94.8227 89.2227H92.956L91.556 94.0893L90.0893 89.2227H88.2227L90.6893 96.2893V101.489H92.4227Z" fill="#B7B7B7"/>
<path d="M3.95885 109.702V106.635H4.95885V106.102H2.49219V106.635H3.42552V109.702H3.95885Z" fill="#B7B7B7"/>
<path d="M8.87995 106.102L7.61328 109.635H8.21328L8.47995 108.835H9.81328L10.0799 109.635H10.6799L9.41328 106.102H8.87995ZM8.61328 108.435L9.14661 106.902L9.67995 108.435H8.61328Z" fill="#B7B7B7"/>
<path d="M14.5497 106.863C14.6164 106.796 14.6831 106.729 14.7497 106.663C14.8164 106.596 14.9497 106.596 15.0831 106.596C15.2831 106.596 15.4164 106.663 15.5497 106.729C15.6831 106.863 15.7497 106.929 15.8164 107.063H16.4164C16.3497 106.796 16.2164 106.529 16.0164 106.329C15.8164 106.129 15.5497 105.996 15.1497 105.996C14.8831 105.996 14.6164 106.063 14.4164 106.196C14.2164 106.329 14.0831 106.463 14.0164 106.663C13.9497 106.729 13.9497 106.863 13.8831 106.996C13.8831 107.129 13.8164 107.396 13.8164 107.796C13.8164 108.196 13.8164 108.463 13.8831 108.596C13.8831 108.663 13.8831 108.729 13.9497 108.796C13.9497 108.863 14.0164 108.929 14.0164 108.929C14.0831 109.063 14.2164 109.263 14.4164 109.396C14.6164 109.529 14.8164 109.596 15.1497 109.596C15.4831 109.596 15.8164 109.463 16.0831 109.196C16.3497 108.929 16.4164 108.663 16.4164 108.329V107.596H15.0831V108.129H15.8164V108.329C15.8164 108.529 15.7497 108.729 15.6164 108.863C15.4831 108.996 15.2831 109.063 15.0831 109.063C14.9497 109.063 14.8164 109.063 14.7497 108.996C14.6831 108.929 14.5497 108.863 14.5497 108.796C14.4831 108.729 14.4164 108.596 14.4164 108.463C14.4164 108.329 14.3497 108.129 14.3497 107.729C14.3497 107.396 14.3497 107.129 14.4164 106.996C14.4164 107.063 14.4831 106.929 14.5497 106.863Z" fill="#B7B7B7"/>
<path d="M19.9883 106.102V109.702H22.3216V109.168H20.5883V106.102H19.9883Z" fill="#B7B7B7"/>
<path d="M26.3576 106.102H25.8242V109.635H26.3576V106.102Z" fill="#B7B7B7"/>
<path d="M30.125 106.102V109.702H30.6583V107.168L32.2583 109.702H32.7917V106.102H32.2583V108.635H32.1917L30.5917 106.102H30.125Z" fill="#B7B7B7"/>
<path d="M38.7589 106.635V106.102H36.4922V109.702H38.7589V109.168H37.0255V108.168H38.4922V107.635H37.0255V106.635H38.7589Z" fill="#B7B7B7"/>
<path d="M46.4812 106.722C46.4146 106.789 46.4146 106.922 46.3479 107.055C46.3479 107.189 46.2812 107.455 46.2812 107.855C46.2812 108.255 46.2812 108.522 46.3479 108.655C46.3479 108.722 46.3479 108.789 46.4146 108.855C46.4146 108.922 46.4812 108.989 46.4812 108.989C46.5479 109.122 46.6812 109.322 46.8812 109.455C47.0812 109.589 47.2813 109.655 47.6146 109.655C47.9479 109.655 48.2812 109.522 48.5479 109.255C48.8146 108.989 48.8812 108.722 48.8812 108.389V107.655H47.6146V108.189H48.3479V108.389C48.3479 108.589 48.2812 108.789 48.1479 108.922C48.0146 109.055 47.8146 109.122 47.6146 109.122C47.4813 109.122 47.3479 109.122 47.2813 109.055C47.2146 108.989 47.0812 108.922 47.0812 108.855C47.0146 108.789 46.9479 108.655 46.9479 108.522C46.9479 108.389 46.8812 108.189 46.8812 107.789C46.8812 107.455 46.8813 107.189 46.9479 107.055C46.9479 106.922 47.0146 106.855 47.0812 106.789C47.1479 106.722 47.2146 106.655 47.2813 106.589C47.3479 106.522 47.4813 106.522 47.6146 106.522C47.8146 106.522 47.9479 106.589 48.0813 106.655C48.2146 106.789 48.2813 106.855 48.3479 106.989H48.9479C48.8813 106.722 48.7479 106.455 48.5479 106.255C48.3479 106.055 48.0813 105.922 47.6813 105.922C47.4146 105.922 47.1479 105.989 46.9479 106.122C46.7479 106.389 46.6146 106.522 46.4812 106.722Z" fill="#B7B7B7"/>
<path d="M52.5867 106.764C52.52 106.831 52.5201 106.964 52.4534 107.098C52.4534 107.231 52.3867 107.498 52.3867 107.898C52.3867 108.298 52.3867 108.564 52.4534 108.698C52.4534 108.764 52.4534 108.831 52.52 108.898C52.52 108.964 52.5867 109.031 52.5867 109.031C52.6534 109.164 52.7867 109.364 52.9867 109.498C53.1867 109.631 53.3867 109.698 53.72 109.698C53.9867 109.698 54.2534 109.631 54.4534 109.498C54.6534 109.364 54.7867 109.231 54.8534 109.031C54.92 108.964 54.9867 108.831 54.9867 108.698C54.9867 108.564 54.9867 108.298 54.9867 107.898C54.9867 107.498 54.9867 107.231 54.9867 107.098C54.9867 106.964 54.92 106.831 54.8534 106.764C54.7867 106.631 54.6534 106.431 54.4534 106.298C54.2534 106.164 54.0534 106.098 53.72 106.098C53.4534 106.098 53.1867 106.164 52.9867 106.298C52.8534 106.431 52.6534 106.564 52.5867 106.764ZM53.0534 107.164C53.0534 107.031 53.12 106.964 53.1867 106.898C53.2534 106.831 53.3201 106.764 53.3867 106.698C53.4534 106.631 53.5867 106.631 53.72 106.631C53.8534 106.631 53.9867 106.631 54.0534 106.698C54.12 106.764 54.1867 106.831 54.2534 106.898C54.32 106.964 54.3867 107.098 54.3867 107.164C54.3867 107.298 54.4534 107.498 54.4534 107.898C54.4534 108.231 54.4534 108.498 54.3867 108.631C54.3867 108.764 54.32 108.831 54.2534 108.964C54.1867 109.031 54.12 109.098 54.0534 109.164C53.9867 109.231 53.8534 109.231 53.72 109.231C53.5867 109.231 53.4534 109.231 53.3867 109.164C53.3201 109.098 53.1867 109.031 53.1867 108.964C53.12 108.898 53.0534 108.764 53.0534 108.631C53.0534 108.498 52.9867 108.298 52.9867 107.898C52.9867 107.564 52.9867 107.298 53.0534 107.164Z" fill="#B7B7B7"/>
<path d="M58.5977 109.702H60.931V109.168H59.1977V108.168H60.6643V107.635H59.1977V106.635H60.931V106.102H58.5977V109.702Z" fill="#B7B7B7"/>
<path d="M65.4935 109.122C65.0935 109.122 64.7602 108.989 64.4935 108.789L64.1602 109.189C64.5602 109.522 64.9602 109.655 65.4935 109.655C66.2935 109.655 66.6935 109.322 66.7602 108.589C66.7602 108.322 66.6935 108.122 66.4935 107.922C66.3602 107.722 66.0935 107.589 65.7602 107.589C65.5602 107.589 65.4268 107.522 65.3602 107.522C65.1602 107.522 65.0268 107.455 64.9602 107.322C64.8935 107.255 64.8268 107.122 64.8268 107.055C64.8268 106.855 64.8935 106.789 65.0268 106.655C65.1602 106.589 65.2935 106.522 65.4268 106.522C65.7602 106.522 66.0268 106.589 66.2935 106.789L66.6268 106.322C66.2935 106.055 65.8935 105.989 65.4935 105.922C65.0935 105.922 64.8268 105.989 64.6268 106.189C64.4268 106.389 64.2935 106.655 64.2935 106.922C64.2935 107.189 64.3602 107.389 64.5602 107.589C64.6935 107.789 64.9602 107.855 65.2268 107.922C65.4268 107.922 65.5602 107.989 65.6935 107.989C66.0268 108.055 66.1602 108.189 66.1602 108.455C66.2268 108.989 65.9602 109.122 65.4935 109.122Z" fill="#B7B7B7"/>
<path d="M77.006 109.702V106.102H76.4727V107.635H75.0727V106.102H74.4727V109.702H75.0727V108.168H76.4727V109.702H77.006Z" fill="#B7B7B7"/>
<path d="M82.9581 106.635V106.102H80.6914V109.702H82.9581V109.168H81.2247V108.168H82.6914V107.635H81.2247V106.635H82.9581Z" fill="#B7B7B7"/>
<path d="M88.3039 108.102C88.7706 107.902 88.9706 107.568 88.9706 107.102C88.9706 106.768 88.8372 106.502 88.6372 106.368C88.4372 106.235 88.2372 106.102 87.9039 106.102H86.5039V109.635H87.0372V108.102H87.7039L88.4372 109.635H89.1039L88.3039 108.102ZM87.0372 107.702V106.635H87.9039C88.1039 106.635 88.2372 106.702 88.3039 106.768C88.4372 106.835 88.5039 106.968 88.5039 107.168C88.5039 107.302 88.4372 107.435 88.3706 107.568C88.2372 107.702 88.1039 107.768 87.9039 107.768H87.0372V107.702Z" fill="#B7B7B7"/>
<path d="M94.8331 106.635V106.102H92.5664V109.702H94.8331V109.168H93.0997V108.168H94.5664V107.635H93.0997V106.635H94.8331Z" fill="#B7B7B7"/>
</svg>
