<svg width="114" height="105" viewBox="0 0 114 105" fill="none" xmlns="http://www.w3.org/2000/svg">
<path d="M34.3161 72.7359L31.5828 68.0026L9.84947 30.3359H4.38281L28.8495 72.7359H34.3161Z" fill="#B7B7B7"/>
<path d="M56.3828 72.7359L53.5828 68.0026L50.8495 63.2693L48.1162 58.4693L45.3828 53.7359L42.6495 49.0026L31.8495 30.3359H26.3828L39.9162 53.7359L42.6495 58.4693L45.3828 63.2693L48.1162 68.0026L50.8495 72.7359H56.3828Z" fill="#B7B7B7"/>
<path d="M64.5479 68.0026L61.8146 63.2693L59.0813 58.4693L56.3479 53.7359L53.5479 49.0026L50.8146 44.2693L48.0813 39.4693L42.8146 30.3359H37.2812L45.3479 44.2693L50.8146 53.7359L53.5479 58.4693L56.3479 63.2693L59.0813 68.0026L61.8146 72.7359H67.2813L64.5479 68.0026Z" fill="#B7B7B7"/>
<path d="M76.3651 0.0078125H70.8984L50.8984 34.6745L53.6318 39.4745L76.3651 0.0078125Z" fill="#B7B7B7"/>
<path d="M39.9123 72.7359H45.3789L42.6456 68.0026L39.9123 63.2693L37.1789 58.4693L20.8456 30.3359H15.3789L34.3789 63.2693L37.1789 68.0026L39.9123 72.7359Z" fill="#B7B7B7"/>
<path d="M59.0693 48.9411L87.336 0.0078125H81.8693L56.3359 44.2078V44.2745L59.0693 48.9411Z" fill="#B7B7B7"/>
<path d="M64.5185 58.4745L98.3185 0.0078125H92.7852L61.7852 53.6745L61.8518 53.7412L64.5185 58.4745Z" fill="#B7B7B7"/>
<path d="M109.265 0.0078125H103.799L67.332 63.2078V63.2745L70.0654 67.9411L109.265 0.0078125Z" fill="#B7B7B7"/>
<path d="M7.88749 92.6226C7.35416 93.0893 6.62083 93.4227 5.82083 93.4227C4.15416 93.4227 2.75416 92.0893 2.75416 90.356C2.75416 88.6893 4.15416 87.2893 5.82083 87.2893C6.62083 87.2893 7.35416 87.6227 7.88749 88.0893L9.35416 86.6226C8.42083 85.756 7.22083 85.2227 5.82083 85.2227C3.02083 85.2227 0.6875 87.4893 0.6875 90.356C0.6875 93.2227 2.95416 95.4893 5.82083 95.4893C7.15416 95.4893 8.42083 94.956 9.35416 94.0893L7.88749 92.6226Z" fill="#B7B7B7"/>
<path d="M22.8052 85.2188C20.0052 85.2188 17.6719 87.4854 17.6719 90.3521C17.6719 93.2187 19.9385 95.4854 22.8052 95.4854C25.6052 95.4854 27.9385 93.2187 27.9385 90.3521C27.9385 87.4854 25.6052 85.2188 22.8052 85.2188ZM22.8052 93.4187C21.1385 93.4187 19.7385 92.0187 19.7385 90.3521C19.7385 88.6854 21.1385 87.2854 22.8052 87.2854C24.4719 87.2854 25.8719 88.6854 25.8719 90.3521C25.8719 92.0854 24.4719 93.4187 22.8052 93.4187Z" fill="#B7B7B7"/>
<path d="M42.1531 92.756L39.1531 85.2227H36.9531V95.4893H39.0198V90.356L41.0865 95.4893H43.2865L45.2864 90.356V95.4893H47.3531V85.2227H45.1531L42.1531 92.756Z" fill="#B7B7B7"/>
<path d="M59.2026 85.2227H56.3359V95.4227H58.4026V91.356H59.2693C60.9359 91.356 62.3359 89.956 62.3359 88.2893C62.2693 86.6227 60.9359 85.2227 59.2026 85.2227ZM59.2026 89.356H58.4026V87.2893H59.2026C59.7359 87.2893 60.2026 87.756 60.2026 88.2893C60.2693 88.8893 59.8026 89.356 59.2026 89.356Z" fill="#B7B7B7"/>
<path d="M73.7018 85.2227L70.0352 95.4227H72.2352L73.3018 92.556H76.4352L77.5018 95.4227H79.7018L76.0352 85.2227H73.7018ZM73.9685 90.556L74.7685 88.2227L75.6352 90.556H73.9685Z" fill="#B7B7B7"/>
<path d="M96.8338 85.2227H94.8338V92.0893L90.7005 85.2227H88.3672V95.4893H90.3672V88.6893L94.5005 95.4893H96.8338V85.2227Z" fill="#B7B7B7"/>
<path d="M110.284 95.4854V90.6187L112.951 85.2188H110.684L109.284 88.0854L107.884 85.2188H105.617L108.284 90.6187V95.4854H110.284Z" fill="#B7B7B7"/>
<path d="M0.6875 100.408H1.8875V104.208H2.55417V100.408H3.75416V99.875H0.6875V100.408Z" fill="#B7B7B7"/>
<path d="M8.49844 99.875L6.89844 104.208H7.5651L7.89844 103.208H9.56511L9.89844 104.208H10.5651L8.96511 99.875H8.49844ZM8.16511 102.608L8.76511 100.742L9.36511 102.608H8.16511Z" fill="#B7B7B7"/>
<path d="M16.0023 102.396H16.869V102.596C16.869 102.863 16.8023 103.063 16.6023 103.263C16.469 103.463 16.2023 103.53 16.0023 103.53C15.869 103.53 15.7357 103.53 15.6023 103.463C15.469 103.396 15.4023 103.33 15.3357 103.263C15.269 103.196 15.2023 103.063 15.1357 102.93C15.1357 102.796 15.069 102.463 15.069 102.063C15.069 101.663 15.069 101.33 15.1357 101.196C15.1357 101.063 15.2023 100.93 15.3357 100.863C15.4023 100.796 15.469 100.73 15.6023 100.663C15.7357 100.596 15.869 100.596 16.0023 100.596C16.2023 100.596 16.4023 100.663 16.5357 100.796C16.669 100.93 16.8023 101.063 16.8023 101.263H17.469C17.4023 100.93 17.2023 100.596 17.0023 100.33C16.7357 100.063 16.4023 99.9297 16.0023 99.9297C15.669 99.9297 15.4023 99.9964 15.1357 100.196C14.9357 100.33 14.7357 100.53 14.6023 100.73C14.5357 100.863 14.469 100.996 14.469 101.13C14.469 101.33 14.4023 101.663 14.4023 102.13C14.4023 102.596 14.4023 102.93 14.469 103.13C14.469 103.196 14.5357 103.33 14.5357 103.33C14.5357 103.396 14.6023 103.463 14.6023 103.53C14.7357 103.73 14.869 103.93 15.1357 104.063C15.3357 104.196 15.669 104.33 16.0023 104.33C16.469 104.33 16.8023 104.196 17.069 103.863C17.3357 103.596 17.5357 103.196 17.5357 102.796V101.93H16.0023V102.396Z" fill="#B7B7B7"/>
<path d="M22.7096 99.875H22.043V104.208H24.7763V103.542H22.7096V99.875Z" fill="#B7B7B7"/>
<path d="M29.6628 99.875H28.9961V104.208H29.6628V99.875Z" fill="#B7B7B7"/>
<path d="M36.8185 102.942L34.8852 99.875H34.2852V104.208H34.8852V101.075H34.9518L36.8852 104.208H37.4852V99.875H36.8185V102.942Z" fill="#B7B7B7"/>
<path d="M42.0625 104.208H44.7958V103.542H42.7292V102.275H44.5292V101.675H42.7292V100.475H44.7958V99.875H42.0625V104.208Z" fill="#B7B7B7"/>
<path d="M55.6547 102.396H56.5214V102.596C56.5214 102.863 56.4547 103.063 56.2547 103.263C56.1214 103.463 55.8547 103.53 55.6547 103.53C55.5214 103.53 55.388 103.53 55.2547 103.463C55.1214 103.396 55.0547 103.33 54.988 103.263C54.9214 103.196 54.8547 103.063 54.788 102.93C54.788 102.796 54.7214 102.463 54.7214 102.063C54.7214 101.663 54.7214 101.33 54.788 101.196C54.788 101.063 54.8547 100.93 54.988 100.863C55.0547 100.796 55.1214 100.73 55.2547 100.663C55.388 100.596 55.5214 100.596 55.6547 100.596C55.8547 100.596 56.0547 100.663 56.188 100.796C56.3214 100.93 56.4547 101.063 56.4547 101.263H57.1214C57.0547 100.93 56.8547 100.596 56.6547 100.33C56.388 100.063 56.0547 99.9297 55.6547 99.9297C55.3214 99.9297 55.0547 99.9964 54.788 100.196C54.588 100.33 54.388 100.53 54.2547 100.73C54.188 100.863 54.1214 100.996 54.1214 101.13C54.1214 101.33 54.0547 101.663 54.0547 102.13C54.0547 102.596 54.0547 102.93 54.1214 103.13C54.1214 103.196 54.188 103.33 54.188 103.33C54.188 103.396 54.2547 103.463 54.2547 103.53C54.388 103.73 54.5214 103.93 54.788 104.063C54.988 104.196 55.3214 104.33 55.6547 104.33C56.1214 104.33 56.4547 104.196 56.7214 103.863C56.988 103.596 57.188 103.196 57.188 102.796V101.93H55.6547V102.396V102.396Z" fill="#B7B7B7"/>
<path d="M64.3747 100.632C64.2414 100.432 64.1081 100.232 63.9081 100.099C63.7081 99.9654 63.3747 99.832 63.0414 99.832C62.7081 99.832 62.4414 99.8987 62.1747 100.099C61.9747 100.232 61.7747 100.432 61.6414 100.632C61.5747 100.765 61.5081 100.899 61.5081 101.032C61.5081 101.232 61.4414 101.565 61.4414 102.032C61.4414 102.499 61.4414 102.832 61.5081 103.032C61.5081 103.099 61.5747 103.232 61.5747 103.232C61.5747 103.299 61.6414 103.365 61.6414 103.432C61.7747 103.632 61.9081 103.832 62.1747 103.965C62.3747 104.099 62.7081 104.232 63.0414 104.232C63.3747 104.232 63.6414 104.165 63.9081 103.965C64.1081 103.832 64.3081 103.632 64.3747 103.432C64.4414 103.299 64.5081 103.165 64.5081 103.032C64.5081 102.832 64.5747 102.499 64.5747 102.032C64.5747 101.499 64.5747 101.165 64.5081 101.032C64.5081 100.832 64.4414 100.699 64.3747 100.632ZM63.8414 102.899C63.8414 103.032 63.7747 103.165 63.6414 103.232C63.5747 103.299 63.5081 103.365 63.3747 103.432C63.2414 103.499 63.1081 103.499 62.9747 103.499C62.8414 103.499 62.7081 103.499 62.5747 103.432C62.4414 103.365 62.3747 103.299 62.3081 103.232C62.2414 103.165 62.1747 103.032 62.1081 102.899C62.1081 102.765 62.0414 102.432 62.0414 102.032C62.0414 101.632 62.0414 101.299 62.1081 101.165C62.1081 101.032 62.1747 100.899 62.3081 100.832C62.3747 100.765 62.4414 100.699 62.5747 100.632C62.7081 100.565 62.8414 100.565 62.9747 100.565C63.1081 100.565 63.2414 100.632 63.3747 100.632C63.5081 100.699 63.5747 100.765 63.6414 100.832C63.7081 100.899 63.7747 101.032 63.8414 101.165C63.8414 101.299 63.9081 101.632 63.9081 102.032C63.9081 102.432 63.9081 102.765 63.8414 102.899Z" fill="#B7B7B7"/>
<path d="M68.9844 104.208H71.7177V103.542H69.651V102.275H71.451V101.675H69.651V100.475H71.7177V99.875H68.9844V104.208Z" fill="#B7B7B7"/>
<path d="M77.6482 101.742C77.4482 101.742 77.2482 101.675 77.1815 101.675C76.9815 101.608 76.7815 101.542 76.7148 101.475C76.6482 101.342 76.5815 101.275 76.5815 101.142C76.5815 100.942 76.6482 100.808 76.7815 100.675C76.9148 100.542 77.1149 100.542 77.3149 100.542C77.7149 100.542 78.0482 100.675 78.3815 100.875L78.7148 100.342C78.3148 100.075 77.8482 99.875 77.3149 99.875C76.8482 99.875 76.5148 100.008 76.2482 100.208C75.9815 100.408 75.8482 100.742 75.8482 101.142C75.8482 101.475 75.9815 101.742 76.1815 101.942C76.3815 102.142 76.6482 102.275 77.0482 102.342C77.2482 102.342 77.4482 102.408 77.6482 102.408C78.0482 102.475 78.2482 102.675 78.1815 103.008C78.1815 103.408 77.9149 103.608 77.3149 103.608C76.8482 103.608 76.4482 103.475 76.1148 103.208L75.7148 103.675C76.1815 104.075 76.7148 104.275 77.3815 104.275C78.3815 104.275 78.8482 103.875 78.9149 103.008C78.9149 102.675 78.8482 102.408 78.6482 102.208C78.3149 101.942 78.0482 101.742 77.6482 101.742Z" fill="#B7B7B7"/>
<path d="M90.6578 101.675H88.9245V99.875H88.2578V104.208H88.9245V102.275H90.6578V104.208H91.3245V99.875H90.6578V101.675Z" fill="#B7B7B7"/>
<path d="M95.8164 104.208H98.6164V103.542H96.4831V102.275H98.2831V101.675H96.4831V100.475H98.6164V99.875H95.8164V104.208Z" fill="#B7B7B7"/>
<path d="M105.871 101.075C105.871 100.675 105.738 100.342 105.471 100.142C105.271 99.9417 104.938 99.875 104.604 99.875H102.871V104.208H103.538V102.342H104.404L105.271 104.208H106.071L105.071 102.275C105.604 102.075 105.871 101.675 105.871 101.075ZM103.538 101.742V100.408H104.538C104.738 100.408 104.938 100.475 105.004 100.542C105.138 100.675 105.204 100.808 105.204 101.008C105.204 101.208 105.138 101.342 105.004 101.475C104.871 101.608 104.671 101.675 104.471 101.675H103.538V101.742Z" fill="#B7B7B7"/>
<path d="M110.258 104.208H113.058V103.542H110.924V102.275H112.724V101.675H110.924V100.475H113.058V99.875H110.258V104.208Z" fill="#B7B7B7"/>
</svg>
