<svg width="89" height="118" viewBox="0 0 89 118" fill="none" xmlns="http://www.w3.org/2000/svg">
<path d="M63.0766 28.625L51.4766 40.2917L55.9432 44.7583L67.5433 33.1583L63.0766 28.625Z" fill="#B7B7B7"/>
<path d="M39.5925 52.1406L27.9258 63.7406L32.4591 68.2073L44.0591 56.6073L39.5925 52.1406Z" fill="#B7B7B7"/>
<path d="M48.5487 37.3206L60.2154 25.7206L55.682 21.2539L44.082 32.8539L48.5487 37.3206Z" fill="#B7B7B7"/>
<path d="M36.637 49.1971L32.1703 44.7305L20.5703 56.3305L25.037 60.8638L36.637 49.1971Z" fill="#B7B7B7"/>
<path d="M36.637 40.2917L25.037 28.625L20.5703 33.1583L32.1703 44.7583L36.637 40.2917Z" fill="#B7B7B7"/>
<path d="M39.5925 37.3206L44.0591 32.8539L32.4591 21.2539L27.9258 25.7206L39.5925 37.3206Z" fill="#B7B7B7"/>
<path d="M51.4766 49.1971L63.0766 60.8638L67.5433 56.3305L55.9432 44.7305L51.4766 49.1971Z" fill="#B7B7B7"/>
<path d="M60.2154 63.7406L48.5487 52.1406L44.082 56.6073L55.682 68.2073L60.2154 63.7406Z" fill="#B7B7B7"/>
<path d="M60.1925 72.7286L55.6591 68.1953L44.0591 79.862L32.4591 68.1953L27.9258 72.7286L44.0591 88.7953L60.1925 72.7286Z" fill="#B7B7B7"/>
<path d="M20.5961 33.1583L16.0628 28.625L-0.00390625 44.7583L16.0628 60.8917L20.5961 56.3583L8.92943 44.7583L20.5961 33.1583Z" fill="#B7B7B7"/>
<path d="M72.0529 28.625L67.5195 33.1583L79.1862 44.7583L67.5195 56.3583L72.0529 60.8917L88.1195 44.7583L72.0529 28.625Z" fill="#B7B7B7"/>
<path d="M55.6591 21.2797L60.1925 16.7464L44.0591 0.679688L27.9258 16.7464L32.4591 21.2797L44.0591 9.61302L55.6591 21.2797Z" fill="#B7B7B7"/>
<path d="M7.06275 108.96C7.72942 108.427 8.26275 107.627 8.46275 106.627V106.56L7.06275 106.227V106.293C6.86275 107.027 6.59609 107.627 6.12942 108.027C5.66275 108.427 5.06276 108.627 4.39609 108.627C3.86276 108.627 3.32942 108.493 2.86276 108.227C2.39609 107.96 2.06276 107.493 1.79609 106.96C1.52943 106.36 1.46276 105.693 1.46276 104.96C1.46276 104.36 1.52943 103.76 1.72943 103.227C1.92943 102.693 2.26276 102.227 2.72943 101.893C3.19609 101.56 3.79609 101.427 4.46276 101.427C5.06275 101.427 5.59609 101.56 5.99609 101.893C6.39609 102.16 6.72942 102.627 6.92942 103.293V103.36L8.32942 103.027V102.96C8.06275 102.093 7.59609 101.427 6.92942 100.96C6.26275 100.493 5.46275 100.227 4.52942 100.227C3.66276 100.227 2.92942 100.427 2.19609 100.76C1.52942 101.16 0.929427 101.693 0.596094 102.427C0.196095 103.16 -0.00390625 104.027 -0.00390625 104.96C-0.00390625 105.827 0.196093 106.693 0.529426 107.493C0.862759 108.293 1.39609 108.893 1.99609 109.293C2.66276 109.693 3.46276 109.893 4.52942 109.893C5.52942 109.76 6.39609 109.493 7.06275 108.96Z" fill="#B7B7B7"/>
<path d="M21.3732 107.4C21.7732 106.667 21.9732 105.8 21.9732 104.867C21.9732 103.933 21.7732 103.133 21.4398 102.333C21.0398 101.6 20.5065 101 19.8398 100.6C19.1065 100.2 18.3065 100 17.4398 100C16.1065 100 14.9732 100.467 14.1065 101.333C13.2398 102.2 12.8398 103.467 12.8398 105C12.8398 105.8 13.0398 106.6 13.3732 107.333C13.7065 108.067 14.3065 108.667 14.9732 109.067C15.7065 109.467 16.5065 109.733 17.3732 109.733C18.2398 109.733 18.9732 109.533 19.7065 109.133C20.4398 108.733 20.9732 108.2 21.3732 107.4ZM17.3732 108.533C16.5065 108.533 15.7065 108.2 15.1065 107.6C14.5065 107 14.2398 106.133 14.2398 105C14.2398 103.667 14.5732 102.667 15.1732 102.067C15.7732 101.467 16.5065 101.2 17.3732 101.2C17.9732 101.2 18.5065 101.333 19.0398 101.667C19.5065 101.933 19.9065 102.4 20.1065 102.933C20.3732 103.467 20.5065 104.133 20.5065 104.867C20.5065 106 20.2398 106.933 19.6398 107.533C19.0398 108.2 18.3065 108.533 17.3732 108.533Z" fill="#B7B7B7"/>
<path d="M35.9661 100.32H34.6328V109.72H35.9661V100.32Z" fill="#B7B7B7"/>
<path d="M32.0911 109.751L34.2245 103.818V100.485L31.9578 106.885C31.7578 107.418 31.6245 107.818 31.5578 108.151L31.1578 107.018L28.8911 100.418H28.7578V103.818L30.8245 109.818H32.0911V109.751Z" fill="#B7B7B7"/>
<path d="M28.2318 100.32H26.8984V109.72H28.2318V100.32Z" fill="#B7B7B7"/>
<path d="M47.4008 105.12C47.9341 104.587 48.2008 103.854 48.2008 103.054C48.2008 102.587 48.1341 102.12 47.9341 101.787C47.7341 101.387 47.4674 101.054 47.1341 100.854C46.8008 100.654 46.4008 100.454 45.9341 100.387C45.6008 100.32 45.1341 100.32 44.4674 100.32H42.8008V101.587H44.6008C45.1341 101.587 45.5341 101.587 45.7341 101.654C46.0674 101.72 46.2674 101.92 46.4674 102.187C46.6674 102.454 46.7341 102.787 46.7341 103.12C46.7341 103.654 46.6008 103.987 46.2674 104.32C45.9341 104.587 45.4008 104.72 44.6008 104.72H42.8008V105.987H44.6674C45.9341 105.987 46.8674 105.654 47.4008 105.12Z" fill="#B7B7B7"/>
<path d="M42.2242 100.32H40.8242V109.72H42.2242V100.32Z" fill="#B7B7B7"/>
<path d="M58.1489 100.32H56.6823L53.0156 109.72H54.4823L54.8823 108.654L55.949 105.787L56.149 105.187L56.949 103.12C57.149 102.654 57.2823 102.187 57.349 101.72C57.4823 102.187 57.6823 102.72 57.949 103.32L58.8823 105.787H56.4823L56.0823 106.92H59.3489L60.4156 109.72H62.0156L58.1489 100.32Z" fill="#B7B7B7"/>
<path d="M72.957 107.32V109.72H74.357V100.32H72.957V107.387V107.32Z" fill="#B7B7B7"/>
<path d="M68.099 100.32H66.7656V109.72H68.099V100.32Z" fill="#B7B7B7"/>
<path d="M72.4878 106.592L68.6211 100.926V103.326L72.4878 108.992V106.592Z" fill="#B7B7B7"/>
<path d="M86.5219 100.32L84.6552 103.054C84.3219 103.587 83.9885 104.12 83.7219 104.587L82.9219 105.787V109.72H84.3219V105.787L88.1219 100.387H86.5219V100.32Z" fill="#B7B7B7"/>
<path d="M82.8969 103.12L81.0302 100.32H79.2969L82.6969 105.32L83.4302 104.054L82.8969 103.12Z" fill="#B7B7B7"/>
<path d="M1.47812 117.353V114.42H2.41146V113.953H0.078125V114.42H1.01146V117.353H1.47812Z" fill="#B7B7B7"/>
<path d="M6.62396 113.953H6.15729L4.89062 117.353H5.49063L5.75729 116.62H7.02396L7.29063 117.353H7.82396L6.62396 113.953ZM5.89063 116.153L6.35729 114.686L6.82396 116.153H5.89063Z" fill="#B7B7B7"/>
<path d="M11.5383 114.698C11.6049 114.632 11.6716 114.565 11.7383 114.498C11.8049 114.432 11.9383 114.432 12.0716 114.432C12.2049 114.432 12.4049 114.498 12.4716 114.565C12.6049 114.632 12.6716 114.765 12.6716 114.898H13.2049C13.1383 114.632 13.0049 114.365 12.8049 114.165C12.6049 113.965 12.3383 113.898 12.0049 113.898C11.7383 113.898 11.5383 113.965 11.3383 114.098C11.1383 114.232 11.0049 114.365 10.9383 114.498C10.8716 114.565 10.8716 114.698 10.8049 114.832C10.8049 114.965 10.7383 115.232 10.7383 115.632C10.7383 116.032 10.7383 116.298 10.8049 116.432C10.8049 116.498 10.8049 116.565 10.8716 116.632C10.8716 116.698 10.9383 116.698 10.9383 116.765C11.0049 116.898 11.1383 117.032 11.3383 117.165C11.5383 117.298 11.7383 117.365 12.0049 117.365C12.3383 117.365 12.6716 117.232 12.8716 117.032C13.0716 116.832 13.2049 116.498 13.2049 116.165V115.498H12.0049V115.965H12.6716V116.165C12.6716 116.365 12.6049 116.565 12.4716 116.698C12.3383 116.832 12.2049 116.898 12.0049 116.898C11.8716 116.898 11.8049 116.898 11.6716 116.832C11.6049 116.765 11.5383 116.698 11.4716 116.632C11.4049 116.565 11.3383 116.432 11.3383 116.365C11.3383 116.232 11.2716 116.032 11.2716 115.698C11.2716 115.365 11.2716 115.165 11.3383 115.032C11.4716 114.832 11.4716 114.765 11.5383 114.698Z" fill="#B7B7B7"/>
<path d="M16.7539 113.953V117.353H18.9539V116.886H17.2872V113.953H16.7539Z" fill="#B7B7B7"/>
<path d="M22.7911 113.953H22.2578V117.353H22.7911V113.953Z" fill="#B7B7B7"/>
<path d="M26.9122 114.953L28.4456 117.353H28.9122V113.953H28.3789V116.353L26.8456 113.953H26.3789V117.353H26.9122V114.953Z" fill="#B7B7B7"/>
<path d="M34.7037 114.42V113.953H32.5703V117.353H34.7037V116.886H33.1036V115.886H34.5036V115.42H33.1036V114.42H34.7037Z" fill="#B7B7B7"/>
<path d="M42.0281 116.62C42.0281 116.686 42.0948 116.686 42.0948 116.753C42.1615 116.886 42.2948 117.02 42.4948 117.153C42.6948 117.286 42.8948 117.353 43.1615 117.353C43.4948 117.353 43.8281 117.22 44.0281 117.02C44.2281 116.82 44.3615 116.486 44.3615 116.153V115.486H43.1615V115.953H43.8281V116.153C43.8281 116.353 43.7615 116.553 43.6281 116.686C43.4948 116.82 43.3615 116.886 43.1615 116.886C43.0281 116.886 42.9615 116.886 42.8281 116.82C42.7615 116.753 42.6948 116.686 42.6281 116.62C42.5615 116.553 42.4948 116.42 42.4948 116.353C42.4948 116.22 42.4281 116.02 42.4281 115.686C42.4281 115.353 42.4281 115.153 42.4948 115.02C42.4948 114.886 42.5615 114.82 42.6281 114.753C42.6948 114.686 42.7615 114.62 42.8281 114.553C42.8948 114.486 43.0281 114.486 43.1615 114.486C43.2948 114.486 43.4948 114.553 43.5615 114.62C43.6948 114.686 43.7615 114.82 43.7615 114.953H44.2948C44.2281 114.686 44.0948 114.42 43.8948 114.22C43.6948 114.02 43.4281 113.953 43.0948 113.953C42.8281 113.953 42.6281 114.02 42.4281 114.153C42.2281 114.286 42.0948 114.42 42.0281 114.553C41.9615 114.62 41.9615 114.753 41.8948 114.886C41.8948 115.02 41.8281 115.286 41.8281 115.686C41.8281 116.086 41.8281 116.353 41.8948 116.486C42.0281 116.486 42.0281 116.553 42.0281 116.62Z" fill="#B7B7B7"/>
<path d="M47.8286 116.632C47.8286 116.698 47.8953 116.698 47.8953 116.765C47.962 116.898 48.0953 117.032 48.2953 117.165C48.4953 117.298 48.6953 117.365 48.962 117.365C49.2286 117.365 49.4286 117.298 49.6286 117.165C49.8286 117.032 49.962 116.898 50.0286 116.765C50.0953 116.698 50.0953 116.565 50.162 116.432C50.162 116.298 50.162 116.032 50.162 115.632C50.162 115.232 50.162 114.965 50.162 114.832C50.162 114.698 50.0953 114.565 50.0286 114.498C49.962 114.365 49.8286 114.232 49.6286 114.098C49.4286 113.965 49.2286 113.898 48.962 113.898C48.6953 113.898 48.4953 113.965 48.2953 114.098C48.0953 114.232 47.962 114.365 47.8953 114.498C47.8286 114.565 47.8286 114.698 47.762 114.832C47.762 114.965 47.6953 115.232 47.6953 115.632C47.6953 116.032 47.6953 116.298 47.762 116.432C47.8286 116.498 47.8286 116.565 47.8286 116.632ZM48.2953 114.965C48.2953 114.832 48.362 114.765 48.4286 114.698C48.4953 114.632 48.562 114.565 48.6286 114.498C48.6953 114.432 48.8286 114.432 48.962 114.432C49.0953 114.432 49.162 114.432 49.2953 114.498C49.362 114.565 49.4286 114.632 49.4953 114.698C49.562 114.765 49.6286 114.898 49.6286 114.965C49.6286 115.098 49.6953 115.298 49.6953 115.632C49.6953 115.965 49.6953 116.165 49.6286 116.298C49.6286 116.432 49.562 116.498 49.4953 116.565C49.4286 116.632 49.362 116.698 49.2953 116.765C49.2286 116.832 49.0953 116.832 48.962 116.832C48.8286 116.832 48.762 116.832 48.6286 116.765C48.562 116.698 48.4953 116.632 48.4286 116.565C48.362 116.498 48.2953 116.365 48.2953 116.298C48.2953 116.165 48.2286 115.965 48.2286 115.632C48.2953 115.298 48.2953 115.098 48.2953 114.965Z" fill="#B7B7B7"/>
<path d="M55.7742 114.42V113.953H53.5742V117.353H55.7742V116.886H54.1076V115.886H55.5075V115.42H54.1076V114.42H55.7742Z" fill="#B7B7B7"/>
<path d="M60.1299 116.898C59.7299 116.898 59.4633 116.765 59.1966 116.565L58.8633 116.965C59.1966 117.298 59.6633 117.432 60.1299 117.432C60.9299 117.432 61.3299 117.098 61.3299 116.432C61.3299 116.165 61.2633 115.965 61.1299 115.765C60.9966 115.565 60.7299 115.498 60.3966 115.432C60.2633 115.432 60.1299 115.365 59.9966 115.365C59.7966 115.365 59.7299 115.298 59.6633 115.165C59.5966 115.098 59.5299 114.965 59.5299 114.898C59.5299 114.765 59.5966 114.632 59.7299 114.498C59.8633 114.432 59.9966 114.365 60.1299 114.365C60.4633 114.365 60.7299 114.432 60.9966 114.632L61.2633 114.232C60.9299 114.032 60.5966 113.898 60.1299 113.898C59.7966 113.898 59.5299 113.965 59.33 114.165C59.13 114.365 59.0633 114.565 59.0633 114.898C59.0633 115.165 59.13 115.365 59.33 115.498C59.4633 115.698 59.7299 115.765 59.9966 115.832C60.1299 115.832 60.3299 115.898 60.4633 115.898C60.7299 115.965 60.9299 116.098 60.9299 116.365C60.7966 116.698 60.5966 116.898 60.1299 116.898Z" fill="#B7B7B7"/>
<path d="M71.1109 117.353V113.953H70.5776V115.42H69.2443V113.953H68.7109V117.353H69.2443V115.886H70.5776V117.353H71.1109Z" fill="#B7B7B7"/>
<path d="M76.8287 114.42V113.953H74.6953V117.353H76.8287V116.886H75.2286V115.886H76.6287V115.42H75.2286V114.42H76.8287Z" fill="#B7B7B7"/>
<path d="M82.599 114.886C82.599 114.553 82.4656 114.353 82.2656 114.153C82.0656 114.02 81.8656 113.953 81.599 113.953H80.2656V117.353H80.799V115.886H81.4656L82.199 117.353H82.799L81.999 115.82C82.399 115.686 82.599 115.353 82.599 114.886ZM81.999 115.286C81.9323 115.42 81.7323 115.42 81.5323 115.486H80.7323V114.486H81.5323C81.6656 114.486 81.799 114.553 81.9323 114.62C82.0656 114.686 82.1323 114.82 82.1323 115.02C82.1323 115.02 82.0656 115.153 81.999 115.286Z" fill="#B7B7B7"/>
<path d="M88.2156 114.42V113.953H86.0156V117.353H88.2156V116.886H86.549V115.886H87.949V115.42H86.549V114.42H88.2156Z" fill="#B7B7B7"/>
</svg>
