<svg width="97" height="110" viewBox="0 0 97 110" fill="none" xmlns="http://www.w3.org/2000/svg">
<path d="M82.4 8.81042C76.9334 3.34375 69.6667 0.34375 62 0.34375C54.2667 0.34375 47 3.34375 41.5333 8.81042C37.2667 13.0771 34.4667 18.4104 33.4667 24.2104C33.3333 24.8104 33.2667 25.4104 33.2 26.0104C33.1333 26.6104 33.0667 27.2104 33.0667 27.8104C33.0667 28.2771 33 28.7438 33 29.2104V33.1438V34.9438V36.7438V58.1438H54.4667H56.2667H58.0667C58.0667 57.6771 58.1334 57.1438 58.1334 56.6771V52.8104H56.4H38.4V36.6771V33.1438V29.2771C38.4 28.8104 38.4 28.2771 38.4667 27.8104C38.5333 27.2104 38.5333 26.6104 38.6667 26.0771C38.7333 25.4771 38.8667 24.8771 39 24.3438C40 19.8771 42.2 15.8104 45.4 12.6771C49.6667 8.41042 55.5333 5.74375 62.0667 5.74375C75.0667 5.74375 85.6 16.3438 85.6 29.2771C85.6 35.7438 82.9334 41.6771 78.6667 45.9438C75.5334 49.0771 71.5334 51.3438 67 52.3438V52.8104V56.7438C67 57.0771 67 57.4104 67 57.8104C72.8 56.8104 78.2 54.0104 82.4667 49.7438C87.9334 44.2771 90.9334 37.0104 90.9334 29.2771C90.8667 21.4771 87.8 14.2104 82.4 8.81042Z" fill="#B7B7B7"/>
<path d="M38.3859 33.0521H40.1193H41.8526H57.9859V49.1854V50.9188V52.6521V56.5188C57.9859 56.9854 57.9859 57.5188 57.9193 57.9854C57.8526 58.5854 57.8526 59.1854 57.7193 59.7188C57.6526 60.3188 57.5193 60.9188 57.3859 61.4521C56.3859 65.9188 54.1193 69.9854 50.9859 73.1188C46.7193 77.3854 40.8526 80.0521 34.3193 80.0521C21.5193 80.1854 10.9193 69.5854 10.9193 56.6521C10.9193 50.1854 13.5859 44.2521 17.8526 39.9854C20.9859 36.8521 24.9859 34.5854 29.5193 33.5854V29.1854C29.5193 28.8521 29.5193 28.5188 29.5193 28.1188C23.7193 29.1188 18.3193 31.9188 14.0526 36.1854C8.58594 41.6521 5.58594 48.9188 5.58594 56.6521C5.58594 64.3854 8.58594 71.6521 14.0526 77.0521C19.5193 82.5188 26.7859 85.5188 34.5193 85.5188C42.2526 85.5188 49.5193 82.5188 54.9859 77.0521C60.1193 71.9188 63.0526 65.2521 63.3859 58.0521C63.3859 57.8521 63.3859 57.5854 63.3859 57.3854C63.3859 57.2521 63.3859 57.1188 63.3859 56.9854C63.3859 56.8521 63.3859 56.7188 63.3859 56.6521V52.7188V27.7188H41.9193H40.1193H38.3193C38.3193 28.1854 38.2526 28.7188 38.2526 29.1854L38.3859 33.0521Z" fill="#B7B7B7"/>
<path d="M6.13333 99.6891C5.66666 100.089 5 100.356 4.33333 100.356C2.86666 100.356 1.66667 99.1557 1.66667 97.6891C1.66667 96.2224 2.86666 95.0224 4.33333 95.0224C5 95.0224 5.66666 95.2891 6.13333 95.7557L7.4 94.4891C6.6 93.7557 5.53333 93.2891 4.4 93.2891C2 93.2891 0 95.2891 0 97.6891C0 100.089 2 102.089 4.4 102.089C5.6 102.089 6.66666 101.622 7.4 100.889L6.13333 99.6891Z" fill="#B7B7B7"/>
<path d="M23.3234 97.7672C23.3234 95.3672 21.3234 93.3672 18.9234 93.3672C16.5234 93.3672 14.5234 95.3672 14.5234 97.7672C14.5234 100.167 16.5234 102.167 18.9234 102.167C21.3901 102.167 23.3234 100.234 23.3234 97.7672ZM18.9234 100.434C17.4568 100.434 16.2568 99.2339 16.2568 97.7672C16.2568 96.3005 17.4568 95.1005 18.9234 95.1005C20.3901 95.1005 21.5234 96.3005 21.5234 97.7672C21.5901 99.2339 20.3901 100.434 18.9234 100.434Z" fill="#B7B7B7"/>
<path d="M40.0896 102.167V93.3672H38.1563L35.6229 99.8339L33.0229 93.3672H31.1562V102.167H32.8896V97.7672L34.6896 102.167H36.5563L38.2896 97.7672V102.167H40.0896Z" fill="#B7B7B7"/>
<path d="M50.2831 93.3672H47.8164V102.167H49.5497V98.6339H50.2831C51.7497 98.6339 52.8831 97.4339 52.8831 96.0339C52.9497 94.5672 51.7497 93.3672 50.2831 93.3672ZM50.2831 96.9005H49.6164V95.1672H50.3497C50.8164 95.1672 51.2164 95.5672 51.2164 96.0339C51.1497 96.5005 50.7497 96.9005 50.2831 96.9005Z" fill="#B7B7B7"/>
<path d="M64.6214 93.3672H62.7547L59.5547 102.167H61.4214L62.288 99.7005H65.0214L65.888 102.167H67.7547L64.6214 93.3672ZM62.9547 97.9672L63.688 95.9672L64.4214 97.9672H62.9547Z" fill="#B7B7B7"/>
<path d="M80.8539 99.2339L77.3206 93.3672H75.2539V102.167H77.0539V96.3005L80.5872 102.167H82.5872V93.3672H80.8539V99.2339Z" fill="#B7B7B7"/>
<path d="M94.2151 102.167V97.9672L96.4818 93.3672H94.5484L93.3484 95.8339L92.1484 93.3672H90.1484L92.4818 97.9672V102.167H94.2151Z" fill="#B7B7B7"/>
<path d="M6.66927 105.922L5.33594 109.655H5.93594L6.20261 108.855H7.6026L7.86927 109.655H8.46927L7.13594 105.922H6.66927ZM6.33594 108.322L6.86927 106.722L7.40261 108.322H6.33594Z" fill="#B7B7B7"/>
<path d="M12.5068 106.749C12.5734 106.683 12.6401 106.616 12.7734 106.549C12.8401 106.483 12.9734 106.483 13.1068 106.483C13.3068 106.483 13.4401 106.549 13.5734 106.616C13.7068 106.749 13.7734 106.816 13.8401 107.016H14.4401C14.3734 106.683 14.2401 106.416 14.0401 106.216C13.8401 106.016 13.5068 105.883 13.1734 105.883C12.9068 105.883 12.6401 105.949 12.4401 106.083C12.2401 106.216 12.1068 106.349 11.9734 106.549C11.9068 106.616 11.9068 106.749 11.8401 106.883C11.8401 107.016 11.7734 107.349 11.7734 107.749C11.7734 108.149 11.7734 108.483 11.8401 108.616C11.8401 108.683 11.8401 108.749 11.9068 108.816C11.9068 108.883 11.9734 108.949 11.9734 108.949C12.0401 109.149 12.2401 109.283 12.4401 109.416C12.6401 109.549 12.9068 109.616 13.1734 109.616C13.5734 109.616 13.8401 109.483 14.1068 109.216C14.3734 108.949 14.5068 108.683 14.5068 108.283V107.549H13.1734V108.083H13.9068V108.283C13.9068 108.483 13.8401 108.683 13.7068 108.816C13.5734 108.949 13.3734 109.016 13.1734 109.016C13.0401 109.016 12.9068 109.016 12.8401 108.949C12.7734 108.883 12.6401 108.816 12.5734 108.749C12.5068 108.683 12.4401 108.549 12.4401 108.416C12.4401 108.283 12.3734 108.016 12.3734 107.683C12.3734 107.349 12.3734 107.083 12.4401 106.949C12.3734 106.949 12.4401 106.816 12.5068 106.749Z" fill="#B7B7B7"/>
<path d="M18.3047 105.922V109.655H20.7047V109.122H18.838V105.922H18.3047Z" fill="#B7B7B7"/>
<path d="M24.8536 105.922H24.3203V109.655H24.8536V105.922Z" fill="#B7B7B7"/>
<path d="M30.9891 108.522L29.3224 105.922H28.7891V109.655H29.3224V106.989H29.3891L31.0557 109.655H31.5891V105.922H30.9891V108.522Z" fill="#B7B7B7"/>
<path d="M37.8255 106.455V105.922H35.4922V109.655H37.8255V109.122H36.0255V107.989H37.5589V107.522H36.0255V106.455H37.8255Z" fill="#B7B7B7"/>
<path d="M46.4714 106.079C46.2714 106.213 46.138 106.346 46.0047 106.546C45.938 106.613 45.938 106.746 45.8714 106.879C45.8714 107.013 45.8047 107.346 45.8047 107.746C45.8047 108.146 45.8047 108.479 45.8714 108.613C45.8714 108.679 45.8714 108.746 45.938 108.813C45.938 108.879 46.0047 108.946 46.0047 108.946C46.0714 109.146 46.2714 109.279 46.4714 109.413C46.6714 109.546 46.938 109.613 47.2047 109.613C47.6047 109.613 47.8714 109.479 48.138 109.213C48.4047 108.946 48.538 108.679 48.538 108.279V107.546H47.2047V108.079H47.938V108.279C47.938 108.479 47.8713 108.679 47.738 108.813C47.6047 108.946 47.4047 109.013 47.2047 109.013C47.0714 109.013 46.938 109.013 46.8714 108.946C46.8047 108.879 46.6714 108.813 46.6047 108.746C46.538 108.679 46.4714 108.546 46.4714 108.413C46.4714 108.279 46.4047 108.013 46.4047 107.679C46.4047 107.346 46.4047 107.079 46.4714 106.946C46.4714 106.813 46.538 106.746 46.6047 106.613C46.6714 106.546 46.738 106.479 46.8714 106.413C46.938 106.346 47.0714 106.346 47.2047 106.346C47.4047 106.346 47.538 106.413 47.6714 106.479C47.8047 106.613 47.8714 106.679 47.938 106.879H48.538C48.4714 106.546 48.338 106.279 48.138 106.079C47.938 105.879 47.6047 105.746 47.2714 105.746C46.8714 105.879 46.6047 105.946 46.4714 106.079Z" fill="#B7B7B7"/>
<path d="M52.3641 106.549C52.2974 106.616 52.2974 106.749 52.2307 106.883C52.2307 107.016 52.1641 107.349 52.1641 107.749C52.1641 108.149 52.1641 108.483 52.2307 108.616C52.2307 108.683 52.2307 108.749 52.2974 108.816C52.2974 108.883 52.3641 108.949 52.3641 108.949C52.4307 109.149 52.6307 109.283 52.8307 109.416C53.0307 109.549 53.2974 109.616 53.5641 109.616C53.8307 109.616 54.0974 109.549 54.2974 109.416C54.4974 109.283 54.6307 109.149 54.6974 108.949C54.7641 108.883 54.8307 108.749 54.8307 108.616C54.8307 108.483 54.8307 108.149 54.8307 107.749C54.8307 107.349 54.8307 107.016 54.8307 106.883C54.8307 106.749 54.7641 106.616 54.6974 106.549C54.6307 106.349 54.4974 106.216 54.2974 106.083C54.0974 105.949 53.8307 105.883 53.5641 105.883C53.2974 105.883 53.0307 105.949 52.8307 106.083C52.5641 106.216 52.4307 106.416 52.3641 106.549ZM52.8307 107.016C52.8307 106.883 52.8974 106.816 52.9641 106.683C53.0307 106.616 53.0974 106.549 53.2307 106.483C53.2974 106.416 53.4307 106.416 53.5641 106.416C53.6974 106.416 53.8307 106.416 53.8974 106.483C53.9641 106.549 54.0974 106.616 54.0974 106.683C54.1641 106.749 54.2307 106.883 54.2307 107.016C54.2307 107.149 54.2974 107.416 54.2974 107.749C54.2974 108.083 54.2974 108.349 54.2307 108.483C54.2307 108.616 54.1641 108.749 54.0974 108.816C54.0307 108.883 53.9641 108.949 53.8974 109.016C53.8307 109.083 53.6974 109.083 53.5641 109.083C53.4307 109.083 53.2974 109.083 53.2307 109.016C53.1641 108.949 53.0307 108.883 52.9641 108.816C52.8974 108.749 52.8307 108.616 52.8307 108.483C52.8307 108.349 52.7641 108.083 52.7641 107.749C52.7641 107.416 52.7641 107.149 52.8307 107.016Z" fill="#B7B7B7"/>
<path d="M58.5938 109.655H60.9938V109.122H59.1938V107.989H60.7271V107.522H59.1938V106.455H60.9938V105.922H58.5938V109.655Z" fill="#B7B7B7"/>
<path d="M65.8339 109.149C65.4339 109.149 65.1005 109.016 64.7672 108.749L64.3672 109.149C64.7672 109.483 65.2339 109.683 65.7672 109.683C66.6339 109.683 67.0339 109.283 67.1005 108.616C67.1005 108.349 67.0339 108.149 66.8339 107.949C66.6339 107.749 66.4339 107.616 66.0339 107.549C65.8339 107.549 65.7005 107.483 65.6339 107.483C65.4339 107.416 65.3005 107.416 65.2339 107.283C65.1672 107.216 65.1005 107.083 65.1005 107.016C65.1005 106.816 65.1672 106.683 65.3005 106.616C65.4339 106.549 65.5672 106.483 65.7672 106.483C66.1005 106.483 66.4339 106.616 66.7005 106.749L67.0339 106.283C66.7005 106.016 66.3005 105.883 65.8339 105.883C65.4339 105.883 65.1672 106.016 64.9672 106.216C64.7672 106.416 64.6339 106.683 64.6339 107.016C64.6339 107.283 64.7005 107.549 64.9005 107.683C65.1005 107.883 65.3005 108.016 65.6339 108.016C65.8339 108.016 65.9672 108.083 66.1005 108.083C66.4339 108.149 66.5672 108.283 66.5672 108.616C66.5672 108.949 66.3005 109.149 65.8339 109.149Z" fill="#B7B7B7"/>
<path d="M75.1953 109.655H75.7953V107.989H77.262V109.655H77.7953V105.922H77.262V107.522H75.7953V105.922H75.1953V109.655Z" fill="#B7B7B7"/>
<path d="M84.1266 106.455V105.922H81.7266V109.655H84.1266V109.122H82.3266V107.989H83.8599V107.522H82.3266V106.455H84.1266Z" fill="#B7B7B7"/>
<path d="M90.3695 106.949C90.3695 106.616 90.2362 106.349 89.9695 106.149C89.7695 106.016 89.5029 105.883 89.2362 105.883H87.7695V109.616H88.3029V108.016H89.0362L89.8362 109.616H90.5029L89.6362 107.949C90.1029 107.816 90.3695 107.483 90.3695 106.949ZM88.3029 107.549V106.416H89.1695C89.3695 106.416 89.5029 106.483 89.5695 106.549C89.7029 106.616 89.7695 106.749 89.7695 106.949C89.7695 107.083 89.7029 107.216 89.6362 107.349C89.5029 107.483 89.3695 107.549 89.1695 107.549H88.3029Z" fill="#B7B7B7"/>
<path d="M94.1016 109.655H96.5016V109.122H94.6349V107.989H96.2349V107.522H94.6349V106.455H96.5016V105.922H94.1016V109.655Z" fill="#B7B7B7"/>
</svg>
