<svg width="96" height="104" viewBox="0 0 96 104" fill="none" xmlns="http://www.w3.org/2000/svg">
<path d="M29.2896 25.7547H30.6229V27.088V48.2213L36.8229 42.0214V19.5547H15.1562V63.7547L21.3563 57.488V27.088V25.7547H22.6896H29.2896Z" fill="#B7B7B7"/>
<path d="M53.6971 50.1648H55.0971V51.5648V58.0982V59.4982H53.6971H26.4305L20.2305 65.6982H61.2971V43.9648H41.9638L35.7638 50.1648H53.6971Z" fill="#B7B7B7"/>
<path d="M74.5899 24.6505V26.0505H73.1899H59.7898L53.5898 32.2505H80.7899V5.11719L74.5899 11.3172V24.6505Z" fill="#B7B7B7"/>
<path d="M72.6526 6.20781L78.8526 0.0078125H48.5859V30.3412L54.7859 24.1412V7.60782V6.20781H56.1193H72.6526Z" fill="#B7B7B7"/>
<path d="M0.691406 99.5411H1.82474V103.208H2.49141V99.5411H3.62474V99.0078H0.691406V99.5411Z" fill="#B7B7B7"/>
<path d="M9.50781 102.274H11.1078L11.4411 103.208H12.1078L10.5745 99.0078H10.0411L8.50781 103.208H9.17448L9.50781 102.274ZM10.3078 99.8745L10.9078 101.741H9.70781L10.3078 99.8745Z" fill="#B7B7B7"/>
<path d="M18.425 99.8745C18.4917 99.8078 18.5583 99.7411 18.6917 99.6745C18.825 99.6078 18.9583 99.6078 19.0917 99.6078C19.2917 99.6078 19.4917 99.6745 19.625 99.8078C19.7583 99.9411 19.825 100.074 19.8917 100.208H20.5583C20.4917 99.8745 20.3583 99.5411 20.0917 99.3411C19.825 99.0745 19.4917 99.0078 19.0917 99.0078C18.7583 99.0078 18.4917 99.0745 18.2917 99.2745C18.0917 99.4078 17.8917 99.6078 17.825 99.8078C17.7583 99.9411 17.6917 100.074 17.6917 100.208C17.6917 100.341 17.625 100.674 17.625 101.208C17.625 101.674 17.625 102.008 17.6917 102.208C17.6917 102.274 17.7583 102.341 17.7583 102.408C17.7583 102.474 17.825 102.541 17.825 102.608C17.9583 102.808 18.0917 102.941 18.2917 103.141C18.4917 103.274 18.7583 103.408 19.0917 103.408C19.4917 103.408 19.8917 103.274 20.1583 102.941C20.425 102.674 20.5583 102.274 20.5583 101.874V101.008H19.0917V101.608H19.9583V101.808C19.9583 102.074 19.8917 102.274 19.6917 102.474C19.5583 102.674 19.3583 102.741 19.0917 102.741C18.9583 102.741 18.825 102.741 18.6917 102.674C18.5583 102.608 18.4917 102.541 18.425 102.474C18.3583 102.408 18.2917 102.274 18.2917 102.141C18.2917 102.008 18.225 101.741 18.225 101.274C18.225 100.874 18.225 100.608 18.2917 100.408C18.2917 100.141 18.3583 100.008 18.425 99.8745Z" fill="#B7B7B7"/>
<path d="M28.1211 99.0078V103.208H30.7878V102.608H28.7211V99.0078H28.1211Z" fill="#B7B7B7"/>
<path d="M37.3971 99.0078H36.7305V103.208H37.3971V99.0078Z" fill="#B7B7B7"/>
<path d="M46.0409 102.008L44.1742 99.0078H43.5742V103.208H44.2409V100.208L46.1076 103.208H46.7075V99.0078H46.1076V102.008H46.0409Z" fill="#B7B7B7"/>
<path d="M55.5221 99.6078V99.0078H52.8555V103.208H55.5221V102.608H53.5221V101.341H55.2555V100.808H53.5221V99.6078H55.5221Z" fill="#B7B7B7"/>
<path d="M68.8513 103.208V99.0078H68.1846V100.808H66.518V99.0078H65.918V103.208H66.518V101.341H68.1846V103.208H68.8513Z" fill="#B7B7B7"/>
<path d="M77.694 99.6078V99.0078H75.0273V103.208H77.694V102.608H75.6274V101.341H77.4274V100.808H75.6274V99.6078H77.694Z" fill="#B7B7B7"/>
<path d="M85.7154 101.314C86.2487 101.114 86.5154 100.714 86.5154 100.18C86.5154 99.7802 86.382 99.5135 86.1154 99.3135C85.9154 99.1135 85.582 99.0469 85.2487 99.0469H83.582V103.247H84.2487V101.447H85.0487L85.9154 103.247H86.6487L85.7154 101.314ZM84.2487 100.78V99.5135H85.2487C85.4487 99.5135 85.582 99.5802 85.7154 99.6469C85.8487 99.7135 85.9154 99.9135 85.9154 100.114C85.9154 100.314 85.8487 100.447 85.7154 100.58C85.582 100.714 85.4487 100.78 85.182 100.78H84.2487V100.78Z" fill="#B7B7B7"/>
<path d="M92.5078 103.208H95.2411V102.608H93.1745V101.341H94.9078V100.808H93.1745V99.6078H95.2411V99.0078H92.5078V103.208Z" fill="#B7B7B7"/>
<path d="M6.77735 91.1365C6.44402 91.8031 5.91068 92.0698 5.17735 92.0698C4.44402 92.0698 3.91068 91.8698 3.44401 91.4031C3.04401 90.9365 2.84401 90.3365 2.84401 89.6031C2.84401 88.8698 3.04401 88.2698 3.44401 87.8031C3.84401 87.3365 4.44402 87.1365 5.17735 87.1365C5.91068 87.1365 6.44402 87.4698 6.77735 88.0698H9.31068C9.04402 87.1365 8.51069 86.4698 7.71068 85.9365C6.97735 85.4031 6.11068 85.2031 5.17735 85.2031C3.91068 85.2031 2.91068 85.6031 2.04401 86.4698C1.17735 87.3365 0.777344 88.3365 0.777344 89.6698C0.777344 90.9365 1.17735 92.0031 2.04401 92.8698C2.91068 93.7365 3.97735 94.1365 5.17735 94.1365C6.11068 94.1365 6.97735 93.8698 7.71068 93.4031C8.44402 92.8698 8.97735 92.2031 9.31068 91.2698H6.77735V91.1365Z" fill="#B7B7B7"/>
<path d="M23.8508 89.5917C23.8508 88.325 23.4508 87.2583 22.5841 86.3917C21.7174 85.525 20.6508 85.125 19.4508 85.125C18.1841 85.125 17.1841 85.525 16.3174 86.3917C15.4508 87.2583 15.0508 88.2583 15.0508 89.5917C15.0508 90.8583 15.4508 91.925 16.3174 92.7917C17.1841 93.6583 18.2508 94.0583 19.4508 94.0583C20.7174 94.0583 21.7174 93.6583 22.5841 92.7917C23.4508 91.925 23.8508 90.8583 23.8508 89.5917ZM21.1174 91.3917C20.7174 91.8583 20.1174 92.0583 19.4508 92.0583C18.7841 92.0583 18.1841 91.8583 17.7841 91.3917C17.3841 90.925 17.1841 90.325 17.1841 89.5917C17.1841 88.8583 17.3841 88.2583 17.7841 87.7917C18.1841 87.325 18.7841 87.125 19.4508 87.125C20.1174 87.125 20.7174 87.325 21.1174 87.7917C21.5174 88.2583 21.7174 88.8583 21.7174 89.5917C21.7174 90.3917 21.5174 90.9917 21.1174 91.3917Z" fill="#B7B7B7"/>
<path d="M39.9953 85.3359H37.5953L35.062 91.2693L32.5953 85.3359H30.1953V93.9359H32.262V89.0693L34.3286 93.9359H35.862L37.862 89.0693V93.9359H39.9953V85.3359Z" fill="#B7B7B7"/>
<path d="M48.8951 90.6026H50.2284C50.8284 90.6026 51.3617 90.5359 51.7617 90.3359C52.2284 90.1359 52.5617 89.9359 52.7617 89.6693C53.1617 89.1359 53.3617 88.5359 53.3617 88.0026C53.3617 87.2693 53.0951 86.6693 52.4951 86.1359C51.9617 85.6026 51.1617 85.3359 50.1617 85.3359H46.7617V94.0026H48.8951V90.6026V90.6026ZM48.8951 86.9359H50.2284C50.5617 86.9359 50.7617 87.0026 50.9617 87.2026C51.1617 87.4026 51.2284 87.6693 51.2284 87.9359C51.2284 88.2693 51.1617 88.4693 50.9617 88.6693C50.7617 88.8693 50.4951 88.9359 50.2284 88.9359H48.8951V86.9359Z" fill="#B7B7B7"/>
<path d="M64.3305 85.2812H61.7305L58.7305 93.9479H60.9971L61.4638 92.4812H64.5971L65.0638 93.9479H67.3305L64.3305 85.2812ZM61.9971 90.9479L62.9971 87.8813L63.9971 90.9479H61.9971Z" fill="#B7B7B7"/>
<path d="M81.0536 93.9479V85.2812H78.9203V90.7479L75.387 85.2812H73.3203V93.9479H75.387V88.5479L78.9203 93.9479H81.0536Z" fill="#B7B7B7"/>
<path d="M91.2385 89.2026L89.5719 85.3359H87.1719L90.1719 91.2026V93.9359H92.2385V91.2026L95.2385 85.3359H92.8385L91.2385 89.2026Z" fill="#B7B7B7"/>
</svg>
