<svg width="90" height="91" viewBox="0 0 90 91" fill="none" xmlns="http://www.w3.org/2000/svg">
<path d="M8.82603 79.7401V79.6734L7.42603 79.3401V79.4068C7.22603 80.1401 6.95937 80.7401 6.4927 81.1401C6.02604 81.5401 5.42604 81.7401 4.75937 81.7401C4.22604 81.7401 3.6927 81.6068 3.22604 81.3401C2.75937 81.0734 2.42604 80.6068 2.15937 80.0734C1.89271 79.4734 1.82604 78.8068 1.82604 78.0734C1.82604 77.4734 1.89271 76.8734 2.09271 76.3401C2.29271 75.8068 2.62604 75.3401 3.09271 75.0068C3.55937 74.6734 4.15937 74.5401 4.8927 74.5401C5.4927 74.5401 6.02604 74.6734 6.42604 75.0068C6.82604 75.2734 7.15937 75.8068 7.35937 76.4068V76.4734L8.75937 76.1401V76.0734C8.4927 75.2068 8.02603 74.5401 7.35937 74.0068C6.6927 73.5401 5.8927 73.2734 4.95937 73.2734C4.0927 73.2734 3.35937 73.4734 2.62604 73.8068C1.95937 74.2068 1.35937 74.7401 0.959375 75.4734C0.559376 76.2068 0.359375 77.0734 0.359375 78.0068C0.359375 78.8734 0.559374 79.7401 0.892707 80.5401C1.22604 81.3401 1.75937 81.9401 2.35937 82.3401C3.02604 82.7401 3.82604 82.9401 4.8927 82.9401C5.8927 82.9401 6.75937 82.6734 7.42603 82.1401C8.0927 81.6068 8.55937 80.8068 8.82603 79.7401Z" fill="#B7B7B7"/>
<path d="M20.2031 73.8031C19.4698 73.4031 18.6698 73.2031 17.8031 73.2031C16.4698 73.2031 15.3365 73.6698 14.4698 74.5365C13.6031 75.4031 13.2031 76.6698 13.2031 78.2031C13.2031 79.0031 13.4031 79.8031 13.7365 80.5365C14.0698 81.2698 14.6698 81.8698 15.3365 82.2698C16.0698 82.7365 16.8698 82.9365 17.7365 82.9365C18.6031 82.9365 19.3365 82.7365 20.0698 82.3365C20.8031 81.9365 21.3365 81.4031 21.7365 80.6031C22.1365 79.8698 22.3365 79.0031 22.3365 78.0698C22.3365 77.1365 22.1365 76.2698 21.8031 75.5365C21.4698 74.8031 20.9365 74.2031 20.2031 73.8031ZM20.0698 80.7365C19.4698 81.3365 18.7365 81.6698 17.8031 81.6698C16.9365 81.6698 16.1365 81.3365 15.5365 80.7365C14.9365 80.1365 14.6698 79.2698 14.6698 78.1365C14.6698 76.8031 15.0031 75.8031 15.6031 75.2031C16.2031 74.6031 17.0031 74.3365 17.8031 74.3365C18.4031 74.3365 18.9365 74.4698 19.4698 74.8031C19.9365 75.0698 20.3365 75.5365 20.6031 76.0698C20.8698 76.6031 21.0031 77.2698 21.0031 78.0031C20.9365 79.2031 20.6698 80.1365 20.0698 80.7365Z" fill="#B7B7B7"/>
<path d="M36.4974 73.4805H35.1641V82.9471H36.4974V73.4805Z" fill="#B7B7B7"/>
<path d="M31.9484 81.2138L31.5484 80.0805L29.2818 73.4805H29.1484V76.8805L31.2151 82.8805H32.4818L34.6151 76.8805V73.5471L32.3484 79.9471C32.2151 80.4805 32.0818 80.9471 31.9484 81.2138Z" fill="#B7B7B7"/>
<path d="M28.775 73.4805H27.375V82.9471H28.775V73.4805Z" fill="#B7B7B7"/>
<path d="M42.8141 73.4805H41.4141V82.9471H42.8141V73.4805Z" fill="#B7B7B7"/>
<path d="M47.7089 74.0138C47.3755 73.8138 46.9755 73.6138 46.5089 73.5471C46.1755 73.4805 45.7089 73.4805 45.0422 73.4805H43.3089V74.7471H45.1089C45.6422 74.7471 46.0422 74.7471 46.2422 74.8138C46.5755 74.8805 46.7755 75.0805 46.9755 75.3471C47.1755 75.6138 47.2422 75.9471 47.2422 76.2805C47.2422 76.8138 47.1089 77.1471 46.7755 77.4805C46.4422 77.7471 45.9089 77.8805 45.1089 77.8805H43.2422V79.1471H45.1089C46.4422 79.1471 47.4422 78.8805 47.9088 78.2805C48.4422 77.7471 48.7089 77.0138 48.7089 76.2138C48.7089 75.7471 48.6422 75.2805 48.4422 74.8805C48.3089 74.5471 48.0422 74.2805 47.7089 74.0138Z" fill="#B7B7B7"/>
<path d="M58.8599 73.4805H57.3932L53.7266 82.9471H55.1932L55.5932 81.8138L56.6599 78.9471L56.8599 78.3471L57.6599 76.2805C57.8599 75.8138 57.9932 75.3471 58.0599 74.8805C58.1932 75.3471 58.3932 75.8805 58.6599 76.4805L59.5932 78.9471H57.1932L56.7266 80.0805H59.9932L61.1265 82.8805H62.7265L58.8599 73.4805Z" fill="#B7B7B7"/>
<path d="M69.3672 76.5331L73.2339 82.1997V79.7997L69.3672 74.0664V76.5331Z" fill="#B7B7B7"/>
<path d="M73.7695 80.6138V80.5471V82.9471H75.1695V73.4805H73.7695V80.6138Z" fill="#B7B7B7"/>
<path d="M68.8919 73.4805H67.5586V82.9471H68.8919V73.4805Z" fill="#B7B7B7"/>
<path d="M85.5341 76.2724C85.2008 76.8057 84.8675 77.3391 84.6008 77.8057L83.8008 79.0057V83.0057H85.2008V79.0057L89.0675 73.5391H87.4008L85.5341 76.2724Z" fill="#B7B7B7"/>
<path d="M83.6234 76.3471L81.7568 73.4805H80.0234L83.4234 78.4805L84.2234 77.2805L83.6234 76.3471Z" fill="#B7B7B7"/>
<path d="M0.359375 87.2094H1.35938V90.1427H2.09271V87.2094H3.15938V86.6094H0.359375V87.2094Z" fill="#B7B7B7"/>
<path d="M9.89896 86.6094H9.16562L7.76562 90.1427H8.49896L8.76562 89.3427H10.1656L10.499 90.1427H11.299L9.89896 86.6094ZM9.03229 88.7427L9.49896 87.4094L9.96562 88.7427H9.03229Z" fill="#B7B7B7"/>
<path d="M17.9214 88.8727H18.7214V89.3393C18.4547 89.5393 18.188 89.606 17.8547 89.606C17.5214 89.606 17.2547 89.4727 17.1214 89.2727C16.9214 89.0727 16.8547 88.7393 16.8547 88.3393C16.8547 87.5393 17.188 87.1393 17.8547 87.1393C18.2547 87.1393 18.5214 87.3393 18.6547 87.6726L19.388 87.5393C19.2547 86.8727 18.7214 86.4727 17.8547 86.4727C17.388 86.4727 16.9214 86.606 16.588 86.9393C16.2547 87.2727 16.0547 87.6727 16.0547 88.2727C16.0547 88.806 16.188 89.2727 16.5214 89.606C16.8547 89.9393 17.2547 90.1393 17.8547 90.1393C18.4547 90.1393 18.988 89.9393 19.388 89.606V88.206H17.8547V88.8727H17.9214Z" fill="#B7B7B7"/>
<path d="M27.3036 86.6094H26.5703V90.1427H29.037V89.5427H27.3036V86.6094Z" fill="#B7B7B7"/>
<path d="M34.8661 86.6094H34.1328V90.1427H34.8661V86.6094Z" fill="#B7B7B7"/>
<path d="M42.1216 89.0094L40.6549 86.6094H39.9883V90.1427H40.6549V87.876L42.0549 90.1427H42.7883V86.6094H42.1216V89.0094Z" fill="#B7B7B7"/>
<path d="M48.788 88.6094H50.5214V88.0094H48.788V87.2094H50.6547V86.6094H48.0547V90.1427H50.7214V89.5427H48.788V88.6094Z" fill="#B7B7B7"/>
<path d="M64.4536 88.0094H63.0536V86.6094H62.3203V90.1427H63.0536V88.6094H64.4536V90.1427H65.187V86.6094H64.4536V88.0094Z" fill="#B7B7B7"/>
<path d="M71.0651 88.6094H72.8651V88.0094H71.0651V87.2094H72.9984V86.6094H70.3984V90.1427H73.0651V89.5427H71.0651V88.6094Z" fill="#B7B7B7"/>
<path d="M80.1328 88.6094C80.7328 88.5427 81.0661 88.2094 81.0661 87.6094C81.0661 87.2094 80.9328 86.9427 80.7328 86.8094C80.5328 86.676 80.1328 86.6094 79.6661 86.6094H78.1328V90.1427H78.8662V88.676H78.9995C79.1995 88.676 79.3328 88.676 79.4661 88.7427C79.5328 88.8094 79.6661 88.876 79.7328 89.0094L80.5328 90.1427H81.3995L80.9995 89.476C80.6661 89.0094 80.3995 88.7427 80.1328 88.6094ZM79.4661 88.1427H78.9328V87.276H79.4661C79.8661 87.276 80.0662 87.276 80.1995 87.3427C80.3328 87.4094 80.3328 87.5427 80.3328 87.676C80.3328 87.876 80.2661 88.0094 80.1328 88.076C80.0661 88.076 79.7995 88.1427 79.4661 88.1427Z" fill="#B7B7B7"/>
<path d="M87.0224 88.6094H88.8224V88.0094H87.0224V87.2094H88.9557V86.6094H86.2891V90.1427H89.0224V89.5427H87.0224V88.6094Z" fill="#B7B7B7"/>
<path d="M41.6177 52.8013V54.2013H41.551V54.268H40.151H22.551H20.8844L21.2177 52.6013C21.2844 52.3346 21.351 52.0013 21.4177 51.7346C21.4844 51.468 21.551 51.2013 21.6177 50.9346L21.6844 50.8013L21.751 50.668C21.8177 50.468 21.8844 50.268 21.951 50.068C22.0177 49.9346 22.0844 49.7346 22.0844 49.6013C22.151 49.4013 22.2177 49.268 22.2844 49.068C22.351 48.868 22.4844 48.6013 22.551 48.4013C22.6177 48.2013 22.6844 48.0013 22.8177 47.8013C22.8177 47.7346 22.8844 47.668 22.951 47.5346C23.0177 47.3346 23.0844 47.1346 23.2177 47.0013C23.2844 46.9346 23.2844 46.868 23.351 46.8013C23.4177 46.6013 23.551 46.468 23.6177 46.268C23.6177 46.2013 23.6844 46.1346 23.751 46.0013C23.8844 45.8013 24.0177 45.6013 24.0844 45.4013C24.2177 45.2013 24.2844 45.0013 24.4177 44.8013L24.4844 44.7346C24.551 44.668 24.551 44.6013 24.6177 44.5346L24.6844 44.468C24.8177 44.268 24.951 44.068 25.0844 43.868C25.2177 43.668 25.4177 43.4013 25.551 43.2013C25.6844 43.068 25.8177 42.868 25.951 42.668L26.0177 42.6013C26.0844 42.5346 26.151 42.468 26.151 42.4013C26.2844 42.2013 26.4177 42.068 26.551 41.868C26.6177 41.8013 26.6177 41.8013 26.6177 41.8013C26.751 41.6013 26.951 41.468 27.0844 41.268C27.151 41.2013 27.151 41.1346 27.2177 41.1346C27.351 40.9346 27.551 40.8013 27.751 40.5346C29.4844 38.8013 31.4177 37.4013 33.4844 36.268H23.2177C20.551 39.0013 18.4177 42.1346 16.8844 45.668C15.2844 49.4013 14.4844 53.3346 14.4844 57.4013V60.0679V60.5346H47.6844V34.868V33.468V32.668V28.468V8.33463V6.93463H47.751H49.151H66.8177H68.4843L68.151 8.6013C67.2177 13.2013 64.951 17.4013 61.6177 20.7346C60.8843 21.468 60.151 22.068 59.4177 22.668H68.151C69.8843 20.5346 71.351 18.1346 72.4177 15.5346C74.0177 11.8013 74.8177 7.86796 74.8177 3.8013V0.667969H41.6177V52.8013Z" fill="#B7B7B7"/>
<path d="M20.6844 27.281V25.881V8.34766V6.68099L22.351 7.01432C26.951 7.94766 31.2177 10.2143 34.5511 13.5477C34.7511 13.7477 35.0177 14.0143 35.2177 14.281V5.94766C33.4177 4.61432 31.4177 3.54766 29.3511 2.68099C25.6177 1.08099 21.6844 0.347656 17.6177 0.347656H14.4844V31.681H35.2177V27.281H22.0844H20.6844V27.281Z" fill="#B7B7B7"/>
<path d="M68.1682 31.693V33.093V52.493V54.1596L66.5016 53.8263C61.9016 52.893 57.7016 50.6263 54.3016 47.293C54.2349 47.2263 54.1682 47.1596 54.1016 47.093V55.1596C55.7682 56.293 57.5682 57.293 59.5016 58.093C63.2349 59.693 67.1683 60.4263 71.2349 60.4263H74.3683V27.293H54.1682V31.693H66.8349H68.1682V31.693Z" fill="#B7B7B7"/>
</svg>
