<svg width="90" height="103" viewBox="0 0 90 103" fill="none" xmlns="http://www.w3.org/2000/svg">
<path d="M1.46146 102.977H2.06146V99.5099H3.12813V98.9766H0.328125V99.5099H1.46146V102.977Z" fill="#B7B7B7"/>
<path d="M9.63281 98.9766H9.09948L7.63281 102.91H8.29948L8.63281 102.043H10.0995L10.4328 102.91H11.0328L9.63281 98.9766ZM8.83281 101.51L9.43281 99.7766L10.0328 101.51H8.83281Z" fill="#B7B7B7"/>
<path d="M17.0932 99.8432C17.1599 99.7766 17.2266 99.7099 17.3599 99.6432C17.4932 99.5766 17.5599 99.5766 17.6932 99.5766C17.8932 99.5766 18.0266 99.6432 18.1599 99.7099C18.2932 99.8432 18.3599 99.9766 18.4266 100.11H19.0932C19.0266 99.7766 18.8932 99.5099 18.6266 99.3099C18.3599 99.1099 18.0932 98.9766 17.6932 98.9766C17.3599 98.9766 17.0932 99.0432 16.8932 99.1766C16.6932 99.3099 16.5599 99.5099 16.4266 99.6432C16.3599 99.7099 16.2932 99.8432 16.2932 100.043C16.2932 100.177 16.2266 100.51 16.2266 100.977C16.2266 101.443 16.2266 101.71 16.2932 101.91C16.2932 101.977 16.2932 102.043 16.3599 102.11C16.3599 102.177 16.4266 102.243 16.4266 102.31C16.4932 102.51 16.6932 102.643 16.8932 102.777C17.0932 102.91 17.3599 102.977 17.6932 102.977C18.0932 102.977 18.4266 102.843 18.6932 102.577C18.9599 102.31 19.0932 101.977 19.0932 101.577V100.777H17.6932V101.377H18.4932V101.577C18.4932 101.843 18.4266 102.043 18.2932 102.177C18.1599 102.31 17.9599 102.443 17.6932 102.443C17.5599 102.443 17.4266 102.443 17.3599 102.377C17.2266 102.31 17.1599 102.243 17.0932 102.177C17.0266 102.11 16.9599 101.977 16.9599 101.843C16.9599 101.71 16.8932 101.443 16.8932 101.043C16.8932 100.643 16.8932 100.377 16.9599 100.243C16.9599 100.043 17.0266 99.9099 17.0932 99.8432Z" fill="#B7B7B7"/>
<path d="M26.5625 98.9766V102.977H29.0958V102.377H27.1625V98.9766H26.5625Z" fill="#B7B7B7"/>
<path d="M35.2211 98.9766H34.6211V102.91H35.2211V98.9766Z" fill="#B7B7B7"/>
<path d="M41.1484 98.9766V102.977H41.7484V100.11L43.4818 102.977H44.0818V98.9766H43.4818V101.777L41.6818 98.9766H41.1484Z" fill="#B7B7B7"/>
<path d="M52.3807 99.5766V98.9766H49.9141V102.977H52.3807V102.377H50.4474V101.243H52.1141V100.71H50.4474V99.5766H52.3807Z" fill="#B7B7B7"/>
<path d="M64.5695 102.977V98.9766H63.9695V100.71H62.3695V98.9766H61.7695V102.977H62.3695V101.243H63.9695V102.977H64.5695Z" fill="#B7B7B7"/>
<path d="M72.9005 99.5766V98.9766H70.3672V102.977H72.9005V102.377H70.9672V101.243H72.6339V100.71H70.9672V99.5766H72.9005Z" fill="#B7B7B7"/>
<path d="M80.3786 101.177C80.912 100.977 81.112 100.643 81.1786 100.11C81.1786 99.7766 81.0453 99.4432 80.7786 99.2432C80.5786 99.0432 80.312 98.9766 79.9786 98.9766H78.4453V102.91H79.0453V101.243H79.7786L80.5786 102.91H81.312L80.3786 101.177ZM78.9786 100.71V99.5099H79.912C80.112 99.5099 80.2453 99.5766 80.3786 99.6432C80.512 99.7099 80.5786 99.9099 80.5786 100.11C80.5786 100.31 80.512 100.443 80.3786 100.577C80.2453 100.71 80.112 100.777 79.8453 100.777H78.9786V100.71Z" fill="#B7B7B7"/>
<path d="M89.3419 99.5766V98.9766H86.8086V102.977H89.3419V102.377H87.4086V101.243H89.0753V100.71H87.4086V99.5766H89.3419Z" fill="#B7B7B7"/>
<path d="M4.52813 94.3185C5.46146 94.3185 6.26146 94.0518 6.92813 93.5852C7.66146 93.1185 8.12813 92.4518 8.3948 91.5852H5.99479C5.66146 92.1852 5.19479 92.4518 4.52813 92.4518C3.86146 92.4518 3.32813 92.2518 2.92813 91.7852C2.52813 91.3852 2.32813 90.7852 2.32813 90.0518C2.32813 89.3185 2.52813 88.7852 2.92813 88.3185C3.32813 87.9185 3.86146 87.6518 4.52813 87.6518C5.19479 87.6518 5.72813 87.9185 5.99479 88.5185H8.3948C8.12813 87.6518 7.59479 86.9852 6.92813 86.5185C6.19479 86.0518 5.39479 85.7852 4.52813 85.7852C3.32813 85.7852 2.39479 86.1852 1.52812 86.9852C0.728125 87.7852 0.328125 88.7852 0.328125 89.9852C0.328125 91.1852 0.728125 92.1852 1.52812 92.9852C2.39479 93.9852 3.39479 94.3185 4.52813 94.3185Z" fill="#B7B7B7"/>
<path d="M22.1536 90.2039C22.1536 89.0039 21.7536 88.0039 20.9536 87.2039C20.1536 86.4039 19.1536 86.0039 18.0203 86.0039C16.8203 86.0039 15.887 86.4039 15.0203 87.2039C14.2203 88.0039 13.8203 89.0039 13.8203 90.2039C13.8203 91.4039 14.2203 92.4039 15.0203 93.2039C15.8203 94.0039 16.8203 94.4039 18.0203 94.4039C19.2203 94.4039 20.1536 94.0039 20.9536 93.2039C21.7536 92.4039 22.1536 91.4039 22.1536 90.2039ZM19.5536 91.9372C19.1536 92.3372 18.6203 92.6039 17.9536 92.6039C17.287 92.6039 16.7536 92.4039 16.3536 91.9372C15.9536 91.5372 15.7536 90.9372 15.7536 90.2039C15.7536 89.4706 15.9536 88.9372 16.3536 88.4706C16.7536 88.0706 17.287 87.8039 17.9536 87.8039C18.6203 87.8039 19.1536 88.0039 19.5536 88.4706C19.9536 88.8706 20.1536 89.4706 20.1536 90.2039C20.1536 90.9372 19.9536 91.4706 19.5536 91.9372Z" fill="#B7B7B7"/>
<path d="M37.3526 86.1055H35.0859L32.7526 91.7055L30.4193 86.1055H28.0859V94.2388H30.0859V89.6388L32.0193 94.2388H33.4859L35.3526 89.6388V94.2388H37.3526V86.1055Z" fill="#B7B7B7"/>
<path d="M45.7773 91.1055H46.9773C47.5107 91.1055 48.044 91.0388 48.444 90.8388C48.844 90.7055 49.1773 90.4388 49.3773 90.1721C49.7773 89.6388 49.9773 89.1055 49.9773 88.5721C49.9773 87.9055 49.7107 87.3055 49.1773 86.8388C48.644 86.3721 47.9107 86.1055 46.9773 86.1055H43.7773V94.2388H45.7773V91.1055V91.1055ZM45.7773 87.6388H46.9773C47.244 87.6388 47.5107 87.7055 47.7107 87.9055C47.9107 88.1055 47.9773 88.3055 47.9773 88.6388C47.9773 88.9055 47.9107 89.1721 47.7107 89.3721C47.5107 89.5721 47.3107 89.6388 46.9773 89.6388H45.7773V87.6388Z" fill="#B7B7B7"/>
<path d="M57.937 86.1055L55.0703 94.3055H57.2036L57.6703 92.9055H60.6036L61.0703 94.3055H63.2036L60.4036 86.1055H57.937ZM58.137 91.3721L59.0703 88.4388L60.0036 91.3721H58.137Z" fill="#B7B7B7"/>
<path d="M76.056 94.2388V86.1055H74.056V91.2388L70.7227 86.1055H68.7227V94.2388H70.7227V89.1055L74.056 94.2388H76.056Z" fill="#B7B7B7"/>
<path d="M84.5776 91.6388V94.2388H86.5109V91.6388L89.3776 86.1055H87.1109L85.5776 89.7721L83.9776 86.1055H81.7109L84.5776 91.6388Z" fill="#B7B7B7"/>
<path d="M50.3309 10.4922C51.5976 12.2255 52.5976 14.2255 53.3309 16.2922C54.2643 16.4255 55.1309 16.5589 55.9976 16.7589C56.1309 16.8255 56.2643 16.8255 56.4643 16.8922C56.5309 16.8922 56.5309 16.8922 56.5976 16.8922C56.7976 16.9589 56.9976 16.9589 57.1309 17.0255C57.3309 17.0922 57.4643 17.1589 57.6643 17.1589C57.7976 17.2255 57.9976 17.2255 58.1309 17.2922C58.2643 17.3589 58.4643 17.4255 58.5976 17.4255C58.7309 17.4922 58.8643 17.5589 59.0643 17.5589C59.1976 17.6255 59.3309 17.6922 59.4643 17.6922C60.3309 18.0255 61.1309 18.3589 61.9309 18.8255C62.1309 18.8922 62.3309 19.0255 62.5309 19.1589C62.8643 19.3589 63.1976 19.4922 63.4643 19.6922C63.5976 19.7589 63.7309 19.8255 63.8643 19.9589C63.9309 20.0255 63.9976 20.0255 64.0643 20.0922C64.1976 20.1589 64.3309 20.2922 64.4643 20.3589C64.5976 20.4255 64.7309 20.5589 64.8643 20.6255C66.3976 21.6922 67.7976 22.8922 69.0642 24.2255C69.1976 24.3589 69.3309 24.5589 69.5309 24.6922C69.6643 24.8255 69.7309 24.9589 69.8643 25.0922C70.0643 25.2922 70.2642 25.4922 70.3976 25.7589C70.5309 25.8922 70.5976 26.0255 70.7309 26.1589C70.8642 26.3589 70.9976 26.4922 71.1309 26.6922C71.2642 26.8922 71.3976 27.0255 71.5309 27.2255C71.6643 27.4255 71.7976 27.5589 71.8643 27.7589C72.1309 28.0922 72.3309 28.4922 72.5309 28.8255C72.6643 29.0255 72.7309 29.1589 72.8643 29.3589C72.9976 29.5589 73.0643 29.7589 73.1976 29.8922C73.3976 30.2922 73.5976 30.6922 73.7976 31.0922C73.8642 31.2255 73.9309 31.4255 73.9976 31.5589C74.0642 31.6922 74.1309 31.8922 74.1976 32.0255C74.2642 32.1589 74.3309 32.2922 74.3976 32.4922C74.4642 32.6255 74.5309 32.7588 74.5309 32.8922C74.6642 33.2255 74.7976 33.5589 74.9309 33.9589C74.9976 34.1589 75.0642 34.3588 75.1309 34.5588C75.1976 34.7588 75.2642 34.9589 75.3309 35.1589C75.4642 35.7589 75.6642 36.2922 75.7309 36.8922C75.7309 37.0255 75.7976 37.1589 75.7976 37.3589C75.7976 37.4255 75.7976 37.5589 75.8642 37.6255C75.8642 37.7589 75.9309 37.8255 75.9309 37.9589C75.9309 38.0922 75.9976 38.2922 75.9976 38.4255C75.9976 38.5589 76.0642 38.7588 76.0642 38.8922C76.0642 38.9588 76.0642 39.0255 76.0642 39.0922C76.0642 39.2255 76.0642 39.3588 76.1309 39.4922C76.1309 39.6255 76.1309 39.7588 76.1309 39.8255C76.1309 40.0255 76.1976 40.1589 76.1976 40.3589C76.1976 40.5589 76.1976 40.7589 76.2642 41.0255C76.2642 41.2255 76.2642 41.4922 76.2642 41.6922C76.2642 41.8922 76.2642 42.1589 76.2642 42.3589C76.2642 57.0255 64.3309 68.8922 49.7309 68.8922C49.5309 68.8922 49.2643 68.8922 49.0643 68.8922C48.8643 68.8922 48.5976 68.8922 48.3976 68.8922C48.1976 68.8922 47.9309 68.8922 47.7309 68.8255C47.5309 68.8255 47.3309 68.7588 47.1309 68.7588C46.9309 68.7588 46.7976 68.6922 46.5976 68.6922C46.4643 68.6922 46.3976 68.6922 46.2643 68.6255C46.1309 68.6255 45.9309 68.5588 45.7976 68.5588C45.7976 68.5588 45.7976 68.5588 45.731 68.5588C45.5976 68.5588 45.3976 68.4922 45.2643 68.4922C45.1309 68.4922 44.9976 68.4255 44.8643 68.4255C44.6643 68.3588 44.4643 68.3588 44.2643 68.2922C43.1976 68.0922 42.1976 67.8255 41.1976 67.4255C40.9976 67.3588 40.7976 67.2922 40.5976 67.2255C40.3976 67.1588 40.1976 67.0922 40.0643 67.0255C39.7976 66.8922 39.531 66.8255 39.331 66.6922C39.1976 66.6255 38.9976 66.5588 38.8643 66.4922C38.6643 66.4255 38.531 66.3588 38.331 66.2255C38.131 66.0922 37.931 66.0255 37.6643 65.8922C37.4643 65.8255 37.331 65.6922 37.131 65.6255C36.931 65.4922 36.731 65.4255 36.531 65.2922C36.331 65.1588 36.131 65.0922 35.9976 64.9588C35.6643 64.7588 35.331 64.5588 34.9976 64.2922L34.931 64.2255C34.731 64.0922 34.5976 63.9588 34.3976 63.8922C34.1976 63.7588 34.0643 63.6255 33.8643 63.4922C33.6643 63.3588 33.531 63.2255 33.331 63.0922C33.1976 62.9588 33.0643 62.8922 32.931 62.7588C32.731 62.5588 32.531 62.4255 32.2643 62.2255C32.131 62.0922 31.9976 61.9588 31.8643 61.8255C31.731 61.6922 31.531 61.5588 31.3976 61.3588C31.2643 61.2255 31.0643 61.0922 30.931 60.8922C30.6643 60.6255 30.331 60.2922 30.0643 60.0255C29.931 59.8922 29.7976 59.6922 29.5976 59.4922C29.331 59.1588 29.0643 58.8255 28.7976 58.4922C28.6643 58.2922 28.4643 58.0922 28.331 57.8922C28.2643 57.7588 28.131 57.6255 28.0643 57.5588C28.0643 57.4922 27.9976 57.4922 27.9976 57.4255C27.8643 57.2922 27.7976 57.0922 27.6643 56.9589C27.531 56.8255 27.4643 56.6255 27.331 56.4922C27.1976 56.2922 27.0643 56.0922 26.931 55.8255C26.731 55.4922 26.531 55.0922 26.331 54.7588C25.931 54.0255 25.5976 53.3588 25.2643 52.5588C25.1976 52.3588 25.131 52.2255 25.0643 52.0255C24.9976 51.8922 24.931 51.7589 24.931 51.6255C24.8643 51.4922 24.8643 51.3589 24.7976 51.2922C24.731 51.1589 24.731 51.0255 24.6643 50.8922C24.5976 50.6922 24.531 50.5589 24.4643 50.3589C24.3976 50.1589 24.331 50.0255 24.2643 49.8255V49.7588C24.1976 49.5588 24.131 49.4255 24.131 49.2255C24.0643 49.0255 23.9976 48.8255 23.9976 48.6255C23.8643 48.0255 23.731 47.4255 23.5976 46.8255C23.531 46.6255 23.531 46.4255 23.4643 46.2255C23.4643 46.0255 23.3976 45.8255 23.3976 45.6255C21.331 44.8922 19.3977 43.8922 17.5977 42.6255C17.931 60.0922 32.131 74.1588 49.7309 74.1588C67.4643 74.1588 81.8642 59.7588 81.8642 42.0255C81.9309 25.0255 67.7976 10.7589 50.3309 10.4922ZM23.3976 40.0922C23.3976 39.8922 23.4643 39.6922 23.4643 39.4922C23.4643 39.2922 23.531 39.0922 23.531 38.8922C23.531 38.6922 23.5976 38.4922 23.5976 38.2922C23.5976 38.0922 23.6643 37.8922 23.6643 37.6922C23.7976 36.8922 23.9976 36.1589 24.1976 35.4255C24.2643 35.2255 24.331 35.0255 24.331 34.8922C24.3976 34.7588 24.3976 34.6255 24.4643 34.4922C24.4643 34.4255 24.531 34.3589 24.531 34.2922C24.5976 34.1589 24.6643 33.9589 24.6643 33.8255C24.731 33.6922 24.731 33.5589 24.7976 33.4255C24.7976 33.3589 24.8643 33.2255 24.8643 33.1589C24.9976 32.8255 25.131 32.5588 25.2643 32.2255C25.3976 31.8922 25.5976 31.4922 25.731 31.1589C25.7976 30.9589 25.8643 30.8255 25.9976 30.6922C26.0643 30.5589 26.131 30.4922 26.131 30.3589C26.1976 30.2255 26.2643 30.0922 26.331 29.9589C26.331 29.8922 26.3976 29.8922 26.3976 29.8255C26.4643 29.6255 26.5976 29.4922 26.6643 29.3589C26.731 29.2255 26.8643 29.0922 26.931 28.8922C26.9976 28.7589 27.0643 28.6255 27.131 28.4922C27.1976 28.3589 27.2643 28.2922 27.331 28.1589C27.6643 27.6922 27.931 27.2255 28.2643 26.7589C28.3976 26.6255 28.4643 26.4255 28.5976 26.2922C28.6643 26.1589 28.7976 26.0922 28.8643 25.9589C29.131 25.6255 29.3976 25.2922 29.6643 24.9589C29.7976 24.8255 29.931 24.6922 29.9976 24.5589C30.2643 24.2922 30.531 24.0255 30.7976 23.7589C30.931 23.6255 30.9976 23.5589 31.131 23.4255C31.331 23.2255 31.4643 23.0922 31.6643 22.9589C31.7976 22.8255 31.931 22.7589 32.0643 22.6255C32.2643 22.4255 32.531 22.2255 32.7976 22.0255C32.931 21.9589 33.0643 21.8255 33.1976 21.7589C33.731 21.3589 34.2643 20.9589 34.8643 20.5589C34.9976 20.4255 35.1976 20.3589 35.331 20.2255C35.4643 20.1589 35.5976 20.0255 35.731 19.9589C35.7976 19.8922 35.931 19.8255 36.0643 19.7589C36.1976 19.6922 36.331 19.5589 36.531 19.4922C36.731 19.3589 36.931 19.2922 37.0643 19.1589C37.2643 19.0255 37.4643 18.9589 37.6643 18.8255C37.8643 18.7589 38.0643 18.6255 38.2643 18.5589C38.5976 18.4255 38.931 18.2255 39.331 18.0922C39.5976 17.9589 39.8643 17.8922 40.131 17.7589C40.331 17.6922 40.4643 17.6255 40.6643 17.5589C40.7976 17.4922 40.9976 17.4255 41.131 17.3589C41.1976 17.3589 41.2643 17.2922 41.3976 17.2922C41.5976 17.2255 41.731 17.1589 41.931 17.0922C42.131 17.0255 42.331 16.9589 42.531 16.8922C42.731 16.8255 42.931 16.7589 43.131 16.6922C43.331 16.6255 43.531 16.6255 43.6643 16.5589C43.7976 16.5589 43.931 16.4922 44.0643 16.4922C44.131 16.4922 44.1976 16.4922 44.2643 16.4255C44.3976 16.4255 44.4643 16.3589 44.5976 16.3589C44.7976 16.2922 44.9976 16.2922 45.1976 16.2255C45.3309 16.2255 45.4643 16.1589 45.5976 16.1589C45.7309 16.1589 45.8643 16.0922 45.9976 16.0922C46.3976 16.0255 46.7309 16.0255 47.1309 15.9589C46.1976 14.0255 44.931 12.3589 43.3976 10.8922C30.731 13.4255 20.731 23.4255 18.1977 36.1589C19.7977 37.8922 21.4643 39.1589 23.3976 40.0922Z" fill="#B7B7B7"/>
<path d="M54.193 19.6995C52.793 19.4328 51.3263 19.2995 49.793 19.2995C49.3263 19.2995 48.8596 19.2995 48.393 19.3661C48.793 20.8328 48.993 22.4328 48.993 24.0328C48.993 33.8995 40.993 41.8995 31.1263 41.8995C29.5263 41.8995 27.993 41.6995 26.5263 41.2995C26.5263 41.7661 26.4596 42.1661 26.4596 42.6328C26.4596 44.1661 26.593 45.6328 26.8596 47.0995C28.2596 47.3661 29.6596 47.4995 31.1263 47.4995C44.0596 47.4995 54.5263 37.0328 54.5263 24.0995C54.593 22.5661 54.4596 21.0995 54.193 19.6995ZM31.193 0.632812C18.2596 0.632812 7.79297 11.0995 7.79297 24.0328C7.79297 30.4328 10.3263 36.2328 14.5263 40.4328C14.6596 37.8995 15.1263 35.3661 15.793 32.9661C14.2596 30.3661 13.393 27.2995 13.393 24.0328C13.393 14.1661 21.393 6.16614 31.2596 6.16614C34.5263 6.16614 37.5263 7.03281 40.1263 8.56614C42.5263 7.89948 45.0596 7.43281 47.593 7.29948C43.3263 3.16614 37.593 0.632812 31.193 0.632812Z" fill="#B7B7B7"/>
</svg>
