<svg width="88" height="115" viewBox="0 0 88 115" fill="none" xmlns="http://www.w3.org/2000/svg">
<path d="M1.61797 113.81H2.41797V109.21H3.68463V108.477H0.417969V109.21H1.61797V113.81Z" fill="#B7B7B7"/>
<path d="M7.89427 113.784L8.49427 112.451H10.8276L11.3609 113.784H12.2276L9.62761 108.051L6.96094 113.784H7.89427ZM9.69427 109.917L10.4943 111.784H8.82761L9.69427 109.917Z" fill="#B7B7B7"/>
<path d="M18.8547 109.058C19.5214 109.058 20.0547 109.324 20.4547 109.924L21.0547 109.391C20.7214 108.991 20.388 108.724 20.0547 108.524C19.7214 108.324 19.3214 108.258 18.8547 108.258C18.0547 108.258 17.388 108.524 16.8547 109.058C16.3214 109.591 16.0547 110.258 16.0547 111.058C16.0547 111.791 16.3214 112.458 16.8547 113.058C17.388 113.591 18.0547 113.858 18.788 113.858C19.588 113.858 20.188 113.591 20.7214 112.991C20.9214 112.724 21.1214 112.458 21.188 112.191C21.2547 111.858 21.3214 111.524 21.3214 111.124V110.924H19.1214V111.658H20.4547C20.388 112.058 20.2547 112.391 19.9214 112.658C19.588 112.924 19.2547 113.058 18.8547 113.058C18.388 113.058 17.9214 112.858 17.5214 112.524C17.1214 112.124 16.8547 111.658 16.8547 111.058C16.8547 110.458 17.0547 109.991 17.4547 109.591C17.788 109.258 18.2547 109.058 18.8547 109.058Z" fill="#B7B7B7"/>
<path d="M26.543 108.477V113.81H28.943V113.077H27.4096V108.477H26.543Z" fill="#B7B7B7"/>
<path d="M34.132 108.48H33.332V113.88H34.132V108.48Z" fill="#B7B7B7"/>
<path d="M38.9922 113.78H39.7922V110.047L43.7255 114.114V108.447H42.9255V112.18L38.9922 108.047V113.78Z" fill="#B7B7B7"/>
<path d="M48.5703 113.81H51.5703V113.077H49.3703V111.277H51.5036V110.477H49.3703V109.21H51.5703V108.477H48.5703V113.81Z" fill="#B7B7B7"/>
<path d="M63.5357 110.543H61.2023V108.477H60.4023V113.81H61.2023V111.343H63.5357V113.81H64.3357V108.477H63.5357V110.543Z" fill="#B7B7B7"/>
<path d="M72.168 109.21V108.477H69.168V113.81H72.168V113.077H69.968V111.277H72.1013V110.477H69.968V109.21H72.168Z" fill="#B7B7B7"/>
<path d="M78.6984 111.532C79.0318 111.465 79.3651 111.265 79.5651 110.998C79.7651 110.732 79.8984 110.398 79.8984 109.998C79.8984 109.532 79.6984 109.132 79.3651 108.798C79.0318 108.532 78.5651 108.398 77.8318 108.398H76.8984V113.798H77.6984V111.598H77.8318L79.3651 113.798H80.3651L78.6984 111.532ZM77.6318 110.932V109.198H77.8984C78.6318 109.198 79.0318 109.465 79.0318 109.998C79.0318 110.598 78.6318 110.865 77.8984 110.865H77.6318V110.932Z" fill="#B7B7B7"/>
<path d="M87.6755 109.214V108.48H84.7422V113.814H87.6755V113.08H85.5422V111.28H87.6089V110.48H85.5422V109.214H87.6755Z" fill="#B7B7B7"/>
<path d="M18.4023 50.3909L54.2023 14.6576V0.324219L18.4023 36.1242V50.3909Z" fill="#B7B7B7"/>
<path d="M18.4023 81.5365L54.2023 45.7365V34.2031L18.4023 70.0031V81.5365Z" fill="#B7B7B7"/>
<path d="M33.8672 50.3977L69.6672 14.6643V2.59766L33.8672 38.3977V50.3977Z" fill="#B7B7B7"/>
<path d="M69.6672 33.7031L33.8672 69.5031V81.5031L69.6672 45.7031V33.7031Z" fill="#B7B7B7"/>
<path d="M1.86537 101.526C2.33203 101.993 2.86537 102.326 3.53204 102.593C4.13204 102.86 4.86537 102.993 5.59871 102.993C6.33204 102.993 6.99871 102.86 7.66538 102.593C8.33204 102.326 8.86538 101.86 9.26538 101.26L7.79871 100.26C7.46537 100.66 7.13204 100.993 6.73204 101.193C6.33204 101.393 5.99871 101.46 5.59871 101.46C5.06537 101.46 4.5987 101.393 4.1987 101.193C3.7987 100.993 3.46537 100.726 3.13203 100.46C2.86537 100.126 2.5987 99.7263 2.46537 99.3263C2.33203 98.8596 2.1987 98.393 2.1987 97.8596C2.1987 97.393 2.26537 96.9263 2.46537 96.4596C2.5987 96.0596 2.86537 95.6596 3.13203 95.3263C3.3987 94.993 3.7987 94.7263 4.1987 94.593C4.5987 94.393 5.06537 94.3263 5.59871 94.3263C5.93204 94.3263 6.26537 94.393 6.59871 94.5263C6.93204 94.6596 7.26538 94.9263 7.66538 95.3263L8.99871 94.3263C8.53204 93.793 7.99871 93.393 7.39871 93.1263C6.79871 92.8596 6.19871 92.793 5.53204 92.793C4.7987 92.793 4.06537 92.9263 3.46537 93.193C2.86537 93.4596 2.26537 93.793 1.7987 94.2596C1.33203 94.7263 0.998698 95.2596 0.732031 95.9263C0.465364 96.593 0.332031 97.2596 0.332031 98.0596C0.332031 98.793 0.465364 99.5263 0.732031 100.126C1.06536 100.593 1.3987 101.126 1.86537 101.526Z" fill="#B7B7B7"/>
<path d="M14.0878 101.534C14.5544 102.001 15.0878 102.334 15.7544 102.601C16.3544 102.868 17.0878 103.001 17.8211 103.001C18.5544 103.001 19.2878 102.868 19.9544 102.601C20.6211 102.334 21.1544 102.001 21.6211 101.534C22.0878 101.068 22.4211 100.534 22.6878 99.9344C22.9544 99.3344 23.0878 98.601 23.0878 97.8677C23.0878 97.0677 22.9544 96.401 22.6878 95.7344C22.4211 95.0677 22.0878 94.5344 21.6211 94.0677C21.1544 93.601 20.6211 93.2677 19.9544 93.0677C19.2878 92.801 18.6211 92.7344 17.8211 92.7344C17.0878 92.7344 16.3544 92.8677 15.7544 93.1344C15.1544 93.401 14.5544 93.7344 14.0878 94.201C13.6211 94.6677 13.2878 95.201 13.0211 95.8677C12.7544 96.5344 12.6211 97.201 12.6211 98.001C12.6211 98.7344 12.7544 99.4677 13.0211 100.068C13.2211 100.601 13.6211 101.134 14.0878 101.534ZM14.6878 96.401C14.8211 96.001 15.0878 95.601 15.3544 95.2677C15.6211 94.9344 16.0211 94.6677 16.4211 94.5344C16.8211 94.3344 17.2878 94.2677 17.8211 94.2677C18.3544 94.2677 18.8211 94.3344 19.2211 94.5344C19.6211 94.7344 20.0211 94.9344 20.2878 95.2677C20.5544 95.601 20.8211 95.9344 20.9544 96.401C21.0878 96.801 21.2211 97.2677 21.2211 97.801C21.2211 98.3344 21.1544 98.801 20.9544 99.2677C20.8211 99.7344 20.5544 100.068 20.2878 100.401C20.0211 100.734 19.6211 101.001 19.2211 101.134C18.8211 101.334 18.3544 101.401 17.8211 101.401C17.2878 101.401 16.8211 101.334 16.4211 101.134C16.0211 100.934 15.6878 100.668 15.3544 100.401C15.0878 100.068 14.8211 99.6677 14.6878 99.2677C14.5544 98.801 14.4211 98.3344 14.4211 97.801C14.4211 97.2677 14.4878 96.801 14.6878 96.401Z" fill="#B7B7B7"/>
<path d="M30.2448 92.9297H27.5781V102.73H29.2448V94.5964L32.2448 102.73H33.4448L36.4448 94.5964V102.73H38.1115V92.9297H35.5115L32.8448 99.7964L30.2448 92.9297Z" fill="#B7B7B7"/>
<path d="M44.8148 98.6745H46.0815C46.6148 98.6745 47.0815 98.6078 47.5482 98.5411C48.0148 98.4745 48.4148 98.3412 48.8148 98.1412C49.1482 97.9412 49.4815 97.6078 49.6815 97.2745C49.8815 96.8745 50.0149 96.4078 50.0149 95.8078C50.0149 95.2745 49.9482 94.8078 49.7482 94.4745C49.5482 94.1412 49.2815 93.8078 48.9482 93.6078C48.6149 93.4078 48.2148 93.2078 47.8148 93.1412C47.3482 93.0745 46.9482 93.0078 46.4815 93.0078H43.2148V102.808H44.9482V98.6745H44.8148ZM44.8148 94.4078H46.0815C46.2815 94.4078 46.5482 94.4078 46.8148 94.4745C47.0815 94.4745 47.2815 94.5411 47.4815 94.6745C47.6815 94.7411 47.8815 94.9412 47.9482 95.0745C48.0815 95.2745 48.1482 95.4745 48.1482 95.8078C48.1482 96.1412 48.0815 96.4078 47.9482 96.6078C47.8149 96.8078 47.6148 96.9411 47.4148 97.0078C47.2148 97.0745 46.9482 97.1412 46.6815 97.1412C46.4148 97.1412 46.1482 97.1412 45.8815 97.1412H44.8148V94.4078V94.4078Z" fill="#B7B7B7"/>
<path d="M54.9602 100.463H59.2268L60.1602 102.73H62.1602L57.9602 92.9297H56.4268L52.1602 102.73H54.0935L54.9602 100.463ZM57.0935 94.9963L58.6268 98.9963H55.5602L57.0935 94.9963Z" fill="#B7B7B7"/>
<path d="M66.0742 92.9297V102.73H67.8076V95.1964L72.6742 102.73H74.8742V92.9297H73.1409V100.196L68.3409 92.9297H66.0742Z" fill="#B7B7B7"/>
<path d="M82.2646 102.73H83.9979V98.5297L87.6646 92.9297H85.5979L83.1313 96.7964L80.7313 92.9297H78.5312L82.2646 98.5297V102.73Z" fill="#B7B7B7"/>
</svg>
