<svg width="73" height="81" viewBox="0 0 73 81" fill="none" xmlns="http://www.w3.org/2000/svg">
<path d="M61.6605 6.46473C57.6227 2.42685 52.2552 0.210938 46.5923 0.210938C40.8802 0.210938 35.5128 2.42685 31.4749 6.46473C28.3234 9.61624 26.2552 13.5556 25.5166 17.8397C25.4181 18.2829 25.3688 18.7261 25.3196 19.1693C25.2704 19.6125 25.2211 20.0556 25.2211 20.4988C25.2211 20.8435 25.1719 21.1882 25.1719 21.5329V24.4382V25.7678V27.0973V42.9041H41.028H42.3575H43.687C43.687 42.5594 43.7363 42.1655 43.7363 41.8208V38.9647H42.456H29.1605V27.0481V24.4382V21.5822C29.1605 21.2375 29.1605 20.8435 29.2098 20.4988C29.259 20.0556 29.259 19.6125 29.3575 19.2185C29.4067 18.7753 29.5052 18.3322 29.6037 17.9382C30.3423 14.639 31.9673 11.6352 34.331 9.32079C37.4825 6.16927 41.8158 4.19957 46.6416 4.19957C56.2439 4.19957 64.0242 12.0291 64.0242 21.5822C64.0242 26.3587 62.0545 30.7412 58.903 33.8928C56.5886 36.2072 53.634 37.8814 50.2855 38.62V38.9647V41.87C50.2855 42.1163 50.2855 42.3625 50.2855 42.6579C54.5696 41.9193 58.5583 39.8511 61.7098 36.6996C65.7477 32.6617 67.9636 27.2943 67.9636 21.5822C67.9143 15.8208 65.6492 10.4534 61.6605 6.46473Z" fill="#B7B7B7"/>
<path d="M29.1492 24.3769H30.4295H31.7098H43.6264V36.2936V37.5739V38.8542V41.7102C43.6264 42.0549 43.6264 42.4489 43.5772 42.7936C43.528 43.2367 43.5279 43.6799 43.4295 44.0739C43.3802 44.5171 43.2817 44.9602 43.1833 45.3542C42.4446 48.6534 40.7704 51.6572 38.456 53.9716C35.3045 57.1231 30.9711 59.0928 26.1454 59.0928C16.6908 59.1913 8.86127 51.3617 8.86127 41.8087C8.86127 37.0322 10.831 32.6496 13.9825 29.4981C16.2969 27.1837 19.2514 25.5095 22.5999 24.7708V21.5208C22.5999 21.2746 22.5999 21.0284 22.5999 20.733C18.3158 21.4716 14.3272 23.5398 11.1757 26.6913C7.13779 30.7292 4.92188 36.0966 4.92188 41.8087C4.92188 47.5208 7.13779 52.8883 11.1757 56.8769C15.2135 60.9148 20.581 63.1307 26.2931 63.1307C32.0052 63.1307 37.3726 60.9148 41.4105 56.8769C45.2022 53.0852 47.3689 48.161 47.6151 42.8428C47.6151 42.6951 47.6151 42.4981 47.6151 42.3504C47.6151 42.2519 47.6151 42.1534 47.6151 42.0549C47.6151 41.9564 47.6151 41.858 47.6151 41.8087V38.9034V20.4375H31.759H30.4295H29.0999C29.0999 20.7822 29.0507 21.1761 29.0507 21.5208L29.1492 24.3769Z" fill="#B7B7B7"/>
<path d="M5.32717 73.5866C4.98248 73.8821 4.49005 74.0791 3.99763 74.0791C2.9143 74.0791 2.02793 73.1927 2.02793 72.1094C2.02793 71.026 2.9143 70.1397 3.99763 70.1397C4.49005 70.1397 4.98248 70.3366 5.32717 70.6813L6.26278 69.7457C5.67187 69.2041 4.88399 68.8594 4.04687 68.8594C2.27415 68.8594 0.796875 70.3366 0.796875 72.1094C0.796875 73.8821 2.27415 75.3594 4.04687 75.3594C4.93324 75.3594 5.72111 75.0147 6.26278 74.473L5.32717 73.5866Z" fill="#B7B7B7"/>
<path d="M18.0234 72.1641C18.0234 70.3913 16.5462 68.9141 14.7734 68.9141C13.0007 68.9141 11.5234 70.3913 11.5234 72.1641C11.5234 73.9368 13.0007 75.4141 14.7734 75.4141C16.5954 75.4141 18.0234 73.986 18.0234 72.1641ZM14.7734 74.1338C13.6901 74.1338 12.8037 73.2474 12.8037 72.1641C12.8037 71.0807 13.6901 70.1944 14.7734 70.1944C15.8568 70.1944 16.6939 71.0807 16.6939 72.1641C16.7431 73.2474 15.8568 74.1338 14.7734 74.1338Z" fill="#B7B7B7"/>
<path d="M30.409 75.4141V68.9141H28.981L27.1098 73.6906L25.1893 68.9141H23.8105V75.4141H25.0909V72.1641L26.4204 75.4141H27.7992L29.0795 72.1641V75.4141H30.409Z" fill="#B7B7B7"/>
<path d="M37.9392 68.9141H36.1172V75.4141H37.3975V72.8042H37.9392C39.0225 72.8042 39.8596 71.9179 39.8596 70.8838C39.9089 69.8004 39.0225 68.9141 37.9392 68.9141ZM37.9392 71.5239H37.4467V70.2436H37.9884C38.3331 70.2436 38.6286 70.5391 38.6286 70.8838C38.5793 71.2285 38.2839 71.5239 37.9392 71.5239Z" fill="#B7B7B7"/>
<path d="M48.5276 68.9141H47.1488L44.7852 75.4141H46.1639L46.8041 73.5921H48.823L49.4632 75.4141H50.842L48.5276 68.9141ZM47.2965 72.3118L47.8382 70.8345L48.3799 72.3118H47.2965Z" fill="#B7B7B7"/>
<path d="M60.5172 73.2474L57.9074 68.9141H56.3809V75.4141H57.7104V71.0807L60.3203 75.4141H61.7975V68.9141H60.5172V73.2474Z" fill="#B7B7B7"/>
<path d="M70.3866 75.4141V72.3118L72.0608 68.9141H70.6328L69.7465 70.736L68.8601 68.9141H67.3828L69.1063 72.3118V75.4141H70.3866Z" fill="#B7B7B7"/>
<path d="M5.72508 78.1992L4.74023 80.9568H5.18342L5.38039 80.3659H6.41448L6.61145 80.9568H7.05463L6.06978 78.1992H5.72508ZM5.47887 79.9719L5.87281 78.7901L6.26675 79.9719H5.47887Z" fill="#B7B7B7"/>
<path d="M10.0339 78.8042C10.0831 78.755 10.1323 78.7057 10.2308 78.6565C10.2801 78.6072 10.3785 78.6072 10.477 78.6072C10.6248 78.6072 10.7232 78.6565 10.8217 78.7057C10.9202 78.8042 10.9695 78.8535 11.0187 79.0012H11.4619C11.4126 78.755 11.3142 78.558 11.1664 78.4103C11.0187 78.2625 10.7725 78.1641 10.5263 78.1641C10.3293 78.1641 10.1323 78.2133 9.98461 78.3118C9.83688 78.4103 9.7384 78.5088 9.63991 78.6565C9.59067 78.7057 9.59067 78.8042 9.54143 78.9027C9.54143 79.0012 9.49219 79.2474 9.49219 79.5429C9.49219 79.8383 9.49219 80.0845 9.54143 80.183C9.54143 80.2322 9.54143 80.2815 9.59067 80.3307C9.59067 80.38 9.63991 80.4292 9.63991 80.4292C9.68916 80.5769 9.83688 80.6754 9.98461 80.7739C10.1323 80.8724 10.3293 80.9216 10.5263 80.9216C10.8217 80.9216 11.0187 80.8232 11.2157 80.6262C11.4126 80.4292 11.5111 80.2322 11.5111 79.9368V79.3951H10.5263V79.7891H11.0679V79.9368C11.0679 80.0845 11.0187 80.2322 10.9202 80.3307C10.8217 80.4292 10.674 80.4785 10.5263 80.4785C10.4278 80.4785 10.3293 80.4785 10.2801 80.4292C10.2308 80.38 10.1323 80.3307 10.0831 80.2815C10.0339 80.2322 9.98461 80.1338 9.98461 80.0353C9.98461 79.9368 9.93537 79.7398 9.93537 79.4936C9.93537 79.2474 9.93537 79.0504 9.98461 78.9519C9.93537 78.9519 9.98461 78.8535 10.0339 78.8042Z" fill="#B7B7B7"/>
<path d="M14.3164 78.1992V80.9568H16.0891V80.5628H14.7103V78.1992H14.3164Z" fill="#B7B7B7"/>
<path d="M19.1557 78.1992H18.7617V80.9568H19.1557V78.1992Z" fill="#B7B7B7"/>
<path d="M23.6875 80.1197L22.4564 78.1992H22.0625V80.9568H22.4564V78.9871H22.5057L23.7367 80.9568H24.1307V78.1992H23.6875V80.1197Z" fill="#B7B7B7"/>
<path d="M28.7352 78.5932V78.1992H27.0117V80.9568H28.7352V80.5628H27.4057V79.7257H28.5382V79.381H27.4057V78.5932H28.7352Z" fill="#B7B7B7"/>
<path d="M35.1213 78.3126C34.9736 78.4111 34.8751 78.5096 34.7766 78.6573C34.7274 78.7066 34.7274 78.805 34.6781 78.9035C34.6781 79.002 34.6289 79.2482 34.6289 79.5437C34.6289 79.8391 34.6289 80.0853 34.6781 80.1838C34.6781 80.2331 34.6781 80.2823 34.7274 80.3316C34.7274 80.3808 34.7766 80.43 34.7766 80.43C34.8259 80.5778 34.9736 80.6763 35.1213 80.7747C35.2691 80.8732 35.466 80.9225 35.663 80.9225C35.9585 80.9225 36.1554 80.824 36.3524 80.627C36.5494 80.43 36.6478 80.2331 36.6478 79.9376V79.3959H35.663V79.7899H36.2047V79.9376C36.2047 80.0853 36.1554 80.2331 36.0569 80.3316C35.9584 80.43 35.8107 80.4793 35.663 80.4793C35.5645 80.4793 35.466 80.4793 35.4168 80.43C35.3675 80.3808 35.2691 80.3316 35.2198 80.2823C35.1706 80.2331 35.1213 80.1346 35.1213 80.0361C35.1213 79.9376 35.0721 79.7406 35.0721 79.4944C35.0721 79.2482 35.0721 79.0513 35.1213 78.9528C35.1213 78.8543 35.1706 78.805 35.2198 78.7066C35.2691 78.6573 35.3183 78.6081 35.4168 78.5588C35.466 78.5096 35.5645 78.5096 35.663 78.5096C35.8107 78.5096 35.9092 78.5588 36.0077 78.6081C36.1062 78.7066 36.1554 78.7558 36.2047 78.9035H36.6478C36.5986 78.6573 36.5001 78.4603 36.3524 78.3126C36.2047 78.1649 35.9584 78.0664 35.7122 78.0664C35.4168 78.1649 35.2198 78.2141 35.1213 78.3126Z" fill="#B7B7B7"/>
<path d="M39.4759 78.6565C39.4266 78.7057 39.4266 78.8042 39.3774 78.9027C39.3774 79.0012 39.3281 79.2474 39.3281 79.5429C39.3281 79.8383 39.3281 80.0845 39.3774 80.183C39.3774 80.2322 39.3774 80.2815 39.4266 80.3307C39.4266 80.38 39.4759 80.4292 39.4759 80.4292C39.5251 80.5769 39.6728 80.6754 39.8205 80.7739C39.9683 80.8724 40.1652 80.9216 40.3622 80.9216C40.5592 80.9216 40.7562 80.8724 40.9039 80.7739C41.0516 80.6754 41.1501 80.5769 41.1993 80.4292C41.2486 80.38 41.2978 80.2815 41.2978 80.183C41.2978 80.0845 41.2978 79.8383 41.2978 79.5429C41.2978 79.2474 41.2978 79.0012 41.2978 78.9027C41.2978 78.8042 41.2486 78.7057 41.1993 78.6565C41.1501 78.5088 41.0516 78.4103 40.9039 78.3118C40.7562 78.2133 40.5592 78.1641 40.3622 78.1641C40.1652 78.1641 39.9683 78.2133 39.8205 78.3118C39.6236 78.4103 39.5251 78.558 39.4759 78.6565ZM39.8205 79.0012C39.8205 78.9027 39.8698 78.8535 39.919 78.755C39.9683 78.7057 40.0175 78.6565 40.116 78.6072C40.1652 78.558 40.2637 78.558 40.3622 78.558C40.4607 78.558 40.5592 78.558 40.6084 78.6072C40.6577 78.6565 40.7562 78.7057 40.7562 78.755C40.8054 78.8042 40.8546 78.9027 40.8546 79.0012C40.8546 79.0997 40.9039 79.2966 40.9039 79.5429C40.9039 79.7891 40.9039 79.986 40.8546 80.0845C40.8546 80.183 40.8054 80.2815 40.7562 80.3307C40.7069 80.38 40.6577 80.4292 40.6084 80.4785C40.5592 80.5277 40.4607 80.5277 40.3622 80.5277C40.2637 80.5277 40.1652 80.5277 40.116 80.4785C40.0668 80.4292 39.9683 80.38 39.919 80.3307C39.8698 80.2815 39.8205 80.183 39.8205 80.0845C39.8205 79.986 39.7713 79.7891 39.7713 79.5429C39.7713 79.2966 39.7713 79.0997 39.8205 79.0012Z" fill="#B7B7B7"/>
<path d="M44.0742 80.9568H45.8469V80.5628H44.5174V79.7257H45.65V79.381H44.5174V78.5932H45.8469V78.1992H44.0742V80.9568Z" fill="#B7B7B7"/>
<path d="M49.4232 80.5769C49.1277 80.5769 48.8815 80.4785 48.6353 80.2815L48.3398 80.5769C48.6353 80.8231 48.98 80.9709 49.3739 80.9709C50.0141 80.9709 50.3095 80.6754 50.3588 80.183C50.3588 79.986 50.3095 79.8383 50.1618 79.6906C50.0141 79.5429 49.8664 79.4444 49.5709 79.3951C49.4232 79.3951 49.3247 79.3459 49.2755 79.3459C49.1277 79.2966 49.0292 79.2966 48.98 79.1982C48.9308 79.1489 48.8815 79.0504 48.8815 79.0012C48.8815 78.8535 48.9308 78.755 49.0292 78.7057C49.1277 78.6565 49.2262 78.6072 49.3739 78.6072C49.6201 78.6072 49.8664 78.7057 50.0633 78.8042L50.3095 78.4595C50.0633 78.2626 49.7679 78.1641 49.4232 78.1641C49.1277 78.1641 48.9308 78.2625 48.783 78.4103C48.6353 78.558 48.5368 78.755 48.5368 79.0012C48.5368 79.1982 48.5861 79.3951 48.7338 79.4936C48.8815 79.6413 49.0292 79.7398 49.2755 79.7398C49.4232 79.7398 49.5217 79.7891 49.6201 79.7891C49.8664 79.8383 49.9648 79.9368 49.9648 80.183C49.9648 80.4292 49.7679 80.5769 49.4232 80.5769Z" fill="#B7B7B7"/>
<path d="M56.3398 80.9568H56.783V79.7257H57.8664V80.9568H58.2603V78.1992H57.8664V79.381H56.783V78.1992H56.3398V80.9568Z" fill="#B7B7B7"/>
<path d="M62.9368 78.5932V78.1992H61.1641V80.9568H62.9368V80.5628H61.6072V79.7257H62.7398V79.381H61.6072V78.5932H62.9368Z" fill="#B7B7B7"/>
<path d="M67.5474 78.9519C67.5474 78.7057 67.4489 78.5088 67.252 78.361C67.1042 78.2625 66.9073 78.1641 66.7103 78.1641H65.627V80.9216H66.0209V79.7398H66.5626L67.1535 80.9216H67.6459L67.0057 79.6906C67.3504 79.5921 67.5474 79.3459 67.5474 78.9519ZM66.0209 79.3951V78.558H66.661C66.8088 78.558 66.9073 78.6072 66.9565 78.6565C67.055 78.7057 67.1042 78.8042 67.1042 78.9519C67.1042 79.0504 67.055 79.1489 67.0057 79.2474C66.9073 79.3459 66.8088 79.3951 66.661 79.3951H66.0209Z" fill="#B7B7B7"/>
<path d="M70.3047 80.9568H72.0774V80.5628H70.6986V79.7257H71.8804V79.381H70.6986V78.5932H72.0774V78.1992H70.3047V80.9568Z" fill="#B7B7B7"/>
</svg>
