<svg width="66" height="87" viewBox="0 0 66 87" fill="none" xmlns="http://www.w3.org/2000/svg">
<path d="M46.8416 21.1445L38.2734 29.762L41.5727 33.0612L50.1409 24.493L46.8416 21.1445Z" fill="#B7B7B7"/>
<path d="M29.4963 38.5156L20.8789 47.0838L24.2274 50.3831L32.7956 41.8149L29.4963 38.5156Z" fill="#B7B7B7"/>
<path d="M36.1117 27.5784L44.7292 19.0102L41.3807 15.7109L32.8125 24.2791L36.1117 27.5784Z" fill="#B7B7B7"/>
<path d="M27.3147 36.3422L24.0155 33.043L15.4473 41.6112L18.7465 44.9596L27.3147 36.3422Z" fill="#B7B7B7"/>
<path d="M27.3147 29.762L18.7465 21.1445L15.4473 24.493L24.0155 33.0612L27.3147 29.762Z" fill="#B7B7B7"/>
<path d="M29.4963 27.5784L32.7956 24.2791L24.2274 15.7109L20.8789 19.0102L29.4963 27.5784Z" fill="#B7B7B7"/>
<path d="M38.2734 36.3422L46.8416 44.9596L50.1409 41.6112L41.5727 33.043L38.2734 36.3422Z" fill="#B7B7B7"/>
<path d="M44.7292 47.0838L36.1117 38.5156L32.8125 41.8149L41.3807 50.3831L44.7292 47.0838Z" fill="#B7B7B7"/>
<path d="M44.7122 53.7274L41.3638 50.3789L32.7956 58.9963L24.2274 50.3789L20.8789 53.7274L32.7956 65.5948L44.7122 53.7274Z" fill="#B7B7B7"/>
<path d="M15.4659 24.493L12.1174 21.1445L0.25 33.0612L12.1174 44.9779L15.4659 41.6294L6.84849 33.0612L15.4659 24.493Z" fill="#B7B7B7"/>
<path d="M53.4715 21.1445L50.123 24.493L58.7405 33.0612L50.123 41.6294L53.4715 44.9779L65.339 33.0612L53.4715 21.1445Z" fill="#B7B7B7"/>
<path d="M41.3638 15.7237L44.7122 12.3752L32.7956 0.507812L20.8789 12.3752L24.2274 15.7237L32.7956 7.1063L41.3638 15.7237Z" fill="#B7B7B7"/>
<path d="M5.46969 80.4898C5.96211 80.0959 6.35605 79.505 6.50378 78.7663V78.7171L5.46969 78.4709V78.5201C5.32196 79.0618 5.12499 79.505 4.7803 79.8004C4.4356 80.0959 3.99242 80.2436 3.5 80.2436C3.10606 80.2436 2.71212 80.1451 2.36742 79.9482C2.02272 79.7512 1.77651 79.4065 1.57954 79.0126C1.38257 78.5694 1.33333 78.0769 1.33333 77.5353C1.33333 77.0921 1.38258 76.6489 1.5303 76.255C1.67803 75.861 1.92424 75.5163 2.26894 75.2701C2.61363 75.0239 3.05681 74.9254 3.54924 74.9254C3.99242 74.9254 4.38636 75.0239 4.68181 75.2701C4.97727 75.4671 5.22348 75.8118 5.37121 76.3042V76.3535L6.40529 76.1073V76.058C6.20833 75.4179 5.86363 74.9254 5.37121 74.5807C4.87878 74.236 4.28787 74.0391 3.59848 74.0391C2.95833 74.0391 2.41666 74.1868 1.875 74.433C1.38257 74.7285 0.939394 75.1224 0.693182 75.6641C0.397728 76.2057 0.25 76.8459 0.25 77.5353C0.25 78.1754 0.397727 78.8156 0.643938 79.4065C0.89015 79.9974 1.28409 80.4406 1.72727 80.736C2.21969 81.0315 2.8106 81.1792 3.59848 81.1792C4.33712 81.0807 4.97727 80.8838 5.46969 80.4898Z" fill="#B7B7B7"/>
<path d="M16.0394 79.337C16.3348 78.7953 16.4825 78.1552 16.4825 77.4658C16.4825 76.7764 16.3348 76.1855 16.0886 75.5946C15.7931 75.0529 15.3992 74.6097 14.9068 74.3143C14.3651 74.0188 13.7742 73.8711 13.1341 73.8711C12.1492 73.8711 11.3121 74.2158 10.6719 74.8559C10.0318 75.4961 9.73633 76.4317 9.73633 77.5643C9.73633 78.1552 9.88406 78.7461 10.1303 79.2878C10.3765 79.8294 10.8197 80.2726 11.3121 80.5681C11.8538 80.8635 12.4447 81.0605 13.0848 81.0605C13.725 81.0605 14.2666 80.9128 14.8083 80.6173C15.35 80.3218 15.7439 79.9279 16.0394 79.337ZM13.0848 80.1741C12.4447 80.1741 11.8538 79.9279 11.4106 79.4847C10.9674 79.0415 10.7704 78.4014 10.7704 77.5643C10.7704 76.5794 11.0166 75.8408 11.4598 75.3976C11.903 74.9544 12.4447 74.7575 13.0848 74.7575C13.528 74.7575 13.9219 74.8559 14.3159 75.1022C14.6606 75.2991 14.956 75.6438 15.1038 76.0378C15.3007 76.4317 15.3992 76.9241 15.3992 77.4658C15.3992 78.3029 15.2022 78.9923 14.7591 79.4355C14.3159 79.9279 13.7742 80.1741 13.0848 80.1741Z" fill="#B7B7B7"/>
<path d="M26.8169 74.1094H25.832V81.0525H26.8169V74.1094Z" fill="#B7B7B7"/>
<path d="M23.9582 81.0658L25.534 76.6832V74.2211L23.8597 78.9484C23.712 79.3423 23.6135 79.6378 23.5643 79.884L23.2688 79.0469L21.5946 74.1719H21.4961V76.6832L23.0226 81.1151H23.9582V81.0658Z" fill="#B7B7B7"/>
<path d="M21.102 74.1094H20.1172V81.0525H21.102V74.1094Z" fill="#B7B7B7"/>
<path d="M35.263 77.6548C35.6569 77.2609 35.8539 76.7192 35.8539 76.1283C35.8539 75.7836 35.8046 75.4389 35.6569 75.1927C35.5092 74.8973 35.3122 74.651 35.066 74.5033C34.8198 74.3556 34.5243 74.2079 34.1796 74.1586C33.9334 74.1094 33.5887 74.1094 33.0963 74.1094H31.8652V75.045H33.1948C33.5887 75.045 33.8842 75.045 34.0319 75.0942C34.2781 75.1435 34.4258 75.2912 34.5736 75.4882C34.7213 75.6851 34.7705 75.9313 34.7705 76.1776C34.7705 76.5715 34.672 76.8177 34.4258 77.0639C34.1796 77.2609 33.7857 77.3594 33.1948 77.3594H31.8652V78.295H33.244C34.1796 78.295 34.869 78.0488 35.263 77.6548Z" fill="#B7B7B7"/>
<path d="M31.4403 74.1094H30.4062V81.0525H31.4403V74.1094Z" fill="#B7B7B7"/>
<path d="M43.2057 74.1094H42.1224L39.4141 81.0525H40.4974L40.7928 80.2647L41.5807 78.1473L41.7285 77.7041L42.3194 76.1776C42.4671 75.8329 42.5656 75.4882 42.6148 75.1435C42.7133 75.4882 42.861 75.8821 43.058 76.3253L43.7474 78.1473H41.9747L41.6792 78.9844H44.0921L44.88 81.0525H46.0618L43.2057 74.1094Z" fill="#B7B7B7"/>
<path d="M54.1406 79.2798V81.0525H55.1747V74.1094H54.1406V79.3291V79.2798Z" fill="#B7B7B7"/>
<path d="M50.5552 74.1094H49.5703V81.0525H50.5552V74.1094Z" fill="#B7B7B7"/>
<path d="M53.7936 78.7403L50.9375 74.5547V76.3274L53.7936 80.513V78.7403Z" fill="#B7B7B7"/>
<path d="M64.163 74.1094L62.7842 76.1283C62.538 76.5222 62.2918 76.9162 62.0948 77.2609L61.5039 78.1473V81.0525H62.538V78.1473L65.3448 74.1586H64.163V74.1094Z" fill="#B7B7B7"/>
<path d="M61.4833 76.1776L60.1045 74.1094H58.8242L61.3356 77.8026L61.8772 76.8669L61.4833 76.1776Z" fill="#B7B7B7"/>
<path d="M1.34659 86.6832V84.5166H2.03598V84.1719H0.3125V84.5166H1.00189V86.6832H1.34659Z" fill="#B7B7B7"/>
<path d="M5.14749 84.1719H4.8028L3.86719 86.6832H4.31037L4.50734 86.1416H5.44295L5.63992 86.6832H6.03386L5.14749 84.1719ZM4.60582 85.7969L4.95052 84.7135L5.29522 85.7969H4.60582Z" fill="#B7B7B7"/>
<path d="M8.7745 84.7237C8.82374 84.6745 8.87299 84.6252 8.92223 84.576C8.97147 84.5268 9.06996 84.5268 9.16844 84.5268C9.26693 84.5268 9.41465 84.576 9.4639 84.6252C9.56238 84.6745 9.61162 84.773 9.61162 84.8714H10.0056C9.95632 84.6745 9.85784 84.4775 9.71011 84.3298C9.56238 84.1821 9.36541 84.1328 9.1192 84.1328C8.92223 84.1328 8.7745 84.1821 8.62677 84.2805C8.47905 84.379 8.38056 84.4775 8.33132 84.576C8.28208 84.6252 8.28208 84.7237 8.23284 84.8222C8.23284 84.9207 8.18359 85.1177 8.18359 85.4131C8.18359 85.7086 8.18359 85.9055 8.23284 86.004C8.23284 86.0533 8.23283 86.1025 8.28208 86.1518C8.28208 86.201 8.33132 86.201 8.33132 86.2502C8.38056 86.3487 8.47905 86.4472 8.62677 86.5457C8.7745 86.6442 8.92223 86.6934 9.1192 86.6934C9.36541 86.6934 9.61162 86.5949 9.75935 86.4472C9.90708 86.2995 10.0056 86.0533 10.0056 85.8071V85.3146H9.1192V85.6593H9.61162V85.8071C9.61162 85.9548 9.56238 86.1025 9.4639 86.201C9.36541 86.2995 9.26693 86.3487 9.1192 86.3487C9.02071 86.3487 8.97147 86.3487 8.87299 86.2995C8.82374 86.2502 8.7745 86.201 8.72526 86.1518C8.67602 86.1025 8.62677 86.004 8.62677 85.9548C8.62677 85.8563 8.57753 85.7086 8.57753 85.4624C8.57753 85.2162 8.57753 85.0684 8.62677 84.9699C8.72526 84.8222 8.72526 84.773 8.7745 84.7237Z" fill="#B7B7B7"/>
<path d="M12.6289 84.1719V86.6832H14.2539V86.3385H13.0228V84.1719H12.6289Z" fill="#B7B7B7"/>
<path d="M17.0853 84.1719H16.6914V86.6832H17.0853V84.1719Z" fill="#B7B7B7"/>
<path d="M20.1322 84.9105L21.2648 86.6832H21.6095V84.1719H21.2156V85.9446L20.083 84.1719H19.7383V86.6832H20.1322V84.9105Z" fill="#B7B7B7"/>
<path d="M25.8844 84.5166V84.1719H24.3086V86.6832H25.8844V86.3385H24.7025V85.5999H25.7366V85.2552H24.7025V84.5166H25.8844Z" fill="#B7B7B7"/>
<path d="M31.2981 86.1416C31.2981 86.1908 31.3474 86.1908 31.3474 86.2401C31.3966 86.3385 31.4951 86.437 31.6428 86.5355C31.7905 86.634 31.9383 86.6832 32.1352 86.6832C32.3815 86.6832 32.6277 86.5848 32.7754 86.437C32.9231 86.2893 33.0216 86.0431 33.0216 85.7969V85.3045H32.1352V85.6491H32.6277V85.7969C32.6277 85.9446 32.5784 86.0923 32.4799 86.1908C32.3815 86.2893 32.283 86.3385 32.1352 86.3385C32.0368 86.3385 31.9875 86.3385 31.889 86.2893C31.8398 86.2401 31.7905 86.1908 31.7413 86.1416C31.6921 86.0923 31.6428 85.9938 31.6428 85.9446C31.6428 85.8461 31.5936 85.6984 31.5936 85.4522C31.5936 85.206 31.5936 85.0582 31.6428 84.9598C31.6428 84.8613 31.6921 84.812 31.7413 84.7628C31.7905 84.7135 31.8398 84.6643 31.889 84.6151C31.9383 84.5658 32.0368 84.5658 32.1352 84.5658C32.2337 84.5658 32.3815 84.6151 32.4307 84.6643C32.5292 84.7135 32.5784 84.812 32.5784 84.9105H32.9724C32.9231 84.7135 32.8246 84.5166 32.6769 84.3688C32.5292 84.2211 32.3322 84.1719 32.086 84.1719C31.889 84.1719 31.7413 84.2211 31.5936 84.3196C31.4458 84.4181 31.3474 84.5166 31.2981 84.6151C31.2489 84.6643 31.2489 84.7628 31.1996 84.8613C31.1996 84.9598 31.1504 85.1567 31.1504 85.4522C31.1504 85.7476 31.1504 85.9446 31.1996 86.0431C31.2981 86.0431 31.2981 86.0923 31.2981 86.1416Z" fill="#B7B7B7"/>
<path d="M35.579 86.1518C35.579 86.201 35.6282 86.201 35.6282 86.2502C35.6774 86.3487 35.7759 86.4472 35.9236 86.5457C36.0714 86.6442 36.2191 86.6934 36.4161 86.6934C36.613 86.6934 36.7608 86.6442 36.9085 86.5457C37.0562 86.4472 37.1547 86.3487 37.204 86.2502C37.2532 86.201 37.2532 86.1025 37.3024 86.004C37.3024 85.9055 37.3024 85.7086 37.3024 85.4131C37.3024 85.1177 37.3024 84.9207 37.3024 84.8222C37.3024 84.7237 37.2532 84.6252 37.204 84.576C37.1547 84.4775 37.0562 84.379 36.9085 84.2805C36.7608 84.1821 36.613 84.1328 36.4161 84.1328C36.2191 84.1328 36.0714 84.1821 35.9236 84.2805C35.7759 84.379 35.6774 84.4775 35.6282 84.576C35.579 84.6252 35.579 84.7237 35.5297 84.8222C35.5297 84.9207 35.4805 85.1177 35.4805 85.4131C35.4805 85.7086 35.4805 85.9055 35.5297 86.004C35.579 86.0533 35.579 86.1025 35.579 86.1518ZM35.9236 84.9207C35.9236 84.8222 35.9729 84.773 36.0221 84.7237C36.0714 84.6745 36.1206 84.6252 36.1699 84.576C36.2191 84.5268 36.3176 84.5268 36.4161 84.5268C36.5146 84.5268 36.5638 84.5268 36.6623 84.576C36.7115 84.6252 36.7608 84.6745 36.81 84.7237C36.8593 84.773 36.9085 84.8715 36.9085 84.9207C36.9085 85.0192 36.9577 85.1669 36.9577 85.4131C36.9577 85.6593 36.9577 85.8071 36.9085 85.9055C36.9085 86.004 36.8593 86.0533 36.81 86.1025C36.7608 86.1518 36.7115 86.201 36.6623 86.2502C36.613 86.2995 36.5146 86.2995 36.4161 86.2995C36.3176 86.2995 36.2683 86.2995 36.1699 86.2502C36.1206 86.201 36.0714 86.1518 36.0221 86.1025C35.9729 86.0533 35.9236 85.9548 35.9236 85.9055C35.9236 85.8071 35.8744 85.6593 35.8744 85.4131C35.9236 85.1669 35.9236 85.0192 35.9236 84.9207Z" fill="#B7B7B7"/>
<path d="M41.4473 84.5166V84.1719H39.8223V86.6832H41.4473V86.3385H40.2162V85.5999H41.2503V85.2552H40.2162V84.5166H41.4473Z" fill="#B7B7B7"/>
<path d="M44.6661 86.3487C44.3706 86.3487 44.1736 86.2502 43.9767 86.1025L43.7305 86.398C43.9767 86.6442 44.3214 86.7427 44.6661 86.7427C45.257 86.7427 45.5524 86.4965 45.5524 86.004C45.5524 85.8071 45.5032 85.6593 45.4047 85.5116C45.3062 85.3639 45.1093 85.3146 44.863 85.2654C44.7646 85.2654 44.6661 85.2162 44.5676 85.2162C44.4199 85.2162 44.3706 85.1669 44.3214 85.0684C44.2721 85.0192 44.2229 84.9207 44.2229 84.8714C44.2229 84.773 44.2721 84.6745 44.3706 84.576C44.4691 84.5268 44.5676 84.4775 44.6661 84.4775C44.9123 84.4775 45.1093 84.5268 45.3062 84.6745L45.5032 84.379C45.257 84.2313 45.0108 84.1328 44.6661 84.1328C44.4199 84.1328 44.2229 84.1821 44.0752 84.3298C43.9274 84.4775 43.8782 84.6252 43.8782 84.8714C43.8782 85.0684 43.9274 85.2162 44.0752 85.3146C44.1737 85.4624 44.3706 85.5116 44.5676 85.5608C44.6661 85.5608 44.8138 85.6101 44.9123 85.6101C45.1093 85.6593 45.257 85.7578 45.257 85.9548C45.1585 86.201 45.0108 86.3487 44.6661 86.3487Z" fill="#B7B7B7"/>
<path d="M52.7786 86.6832V84.1719H52.3847V85.2552H51.3998V84.1719H51.0059V86.6832H51.3998V85.5999H52.3847V86.6832H52.7786Z" fill="#B7B7B7"/>
<path d="M57.0015 84.5166V84.1719H55.4258V86.6832H57.0015V86.3385H55.8197V85.5999H56.8538V85.2552H55.8197V84.5166H57.0015Z" fill="#B7B7B7"/>
<path d="M61.2625 84.8613C61.2625 84.6151 61.1641 84.4673 61.0163 84.3196C60.8686 84.2211 60.7209 84.1719 60.5239 84.1719H59.5391V86.6832H59.933V85.5999H60.4254L60.9671 86.6832H61.4103L60.8194 85.5507C61.1148 85.4522 61.2625 85.206 61.2625 84.8613ZM60.8194 85.1567C60.7701 85.2552 60.6224 85.2552 60.4747 85.3045H59.8838V84.5658H60.4747C60.5732 84.5658 60.6716 84.6151 60.7701 84.6643C60.8686 84.7135 60.9179 84.812 60.9179 84.9598C60.9179 84.9598 60.8686 85.0582 60.8194 85.1567Z" fill="#B7B7B7"/>
<path d="M65.4141 84.5166V84.1719H63.7891V86.6832H65.4141V86.3385H64.183V85.5999H65.2171V85.2552H64.183V84.5166H65.4141Z" fill="#B7B7B7"/>
</svg>
