<svg width="67" height="77" viewBox="0 0 67 77" fill="none" xmlns="http://www.w3.org/2000/svg">
<path d="M1.09103 76.2475H1.53421V73.6869H2.32209V73.293H0.253906V73.6869H1.09103V76.2475Z" fill="#B7B7B7"/>
<path d="M7.12571 73.293H6.73177L5.64844 76.1983H6.14086L6.38707 75.5581H7.47041L7.71662 76.1983H8.1598L7.12571 73.293ZM6.5348 75.1642L6.97798 73.8839L7.42117 75.1642H6.5348Z" fill="#B7B7B7"/>
<path d="M12.6362 73.9331C12.6855 73.8839 12.7347 73.8346 12.8332 73.7854C12.9317 73.7362 12.9809 73.7361 13.0794 73.7361C13.2272 73.7361 13.3256 73.7854 13.4241 73.8346C13.5226 73.9331 13.5719 74.0316 13.6211 74.1301H14.1135C14.0643 73.8839 13.9658 73.6869 13.7688 73.5392C13.5719 73.3915 13.3749 73.293 13.0794 73.293C12.8332 73.293 12.6362 73.3422 12.4885 73.4407C12.3408 73.5392 12.2423 73.6869 12.1438 73.7854C12.0946 73.8346 12.0453 73.9331 12.0453 74.0808C12.0453 74.1793 11.9961 74.4255 11.9961 74.7702C11.9961 75.1149 11.9961 75.3119 12.0453 75.4596C12.0453 75.5089 12.0453 75.5581 12.0946 75.6074C12.0946 75.6566 12.1438 75.7058 12.1438 75.7551C12.1931 75.9028 12.3408 76.0013 12.4885 76.0998C12.6362 76.1983 12.8332 76.2475 13.0794 76.2475C13.3749 76.2475 13.6211 76.149 13.8181 75.9521C14.015 75.7551 14.1135 75.5089 14.1135 75.2134V74.6225H13.0794V75.0657H13.6703V75.2134C13.6703 75.4104 13.6211 75.5581 13.5226 75.6566C13.4241 75.7551 13.2764 75.8536 13.0794 75.8536C12.9809 75.8536 12.8825 75.8536 12.8332 75.8043C12.7347 75.7551 12.6855 75.7058 12.6362 75.6566C12.587 75.6074 12.5378 75.5089 12.5378 75.4104C12.5378 75.3119 12.4885 75.1149 12.4885 74.8195C12.4885 74.524 12.4885 74.3271 12.5378 74.2286C12.5378 74.0808 12.587 73.9824 12.6362 73.9331Z" fill="#B7B7B7"/>
<path d="M19.6328 73.293V76.2475H21.504V75.8043H20.076V73.293H19.6328Z" fill="#B7B7B7"/>
<path d="M26.0272 73.293H25.584V76.1983H26.0272V73.293Z" fill="#B7B7B7"/>
<path d="M30.4062 73.293V76.2475H30.8494V74.1301L32.1297 76.2475H32.5729V73.293H32.1297V75.3611L30.8002 73.293H30.4062Z" fill="#B7B7B7"/>
<path d="M38.7009 73.7361V73.293H36.8789V76.2475H38.7009V75.8043H37.2728V74.9672H38.5039V74.5733H37.2728V73.7361H38.7009Z" fill="#B7B7B7"/>
<path d="M47.703 76.2475V73.293H47.2598V74.5733H46.0779V73.293H45.6348V76.2475H46.0779V74.9672H47.2598V76.2475H47.703Z" fill="#B7B7B7"/>
<path d="M53.8595 73.7361V73.293H51.9883V76.2475H53.8595V75.8043H52.4315V74.9672H53.6625V74.5733H52.4315V73.7361H53.8595Z" fill="#B7B7B7"/>
<path d="M59.3812 74.918C59.7751 74.7702 59.9228 74.524 59.9721 74.1301C59.9721 73.8839 59.8736 73.6377 59.6766 73.4899C59.5289 73.3422 59.3319 73.293 59.0857 73.293H57.9531V76.1983H58.3963V74.9672H58.938L59.5289 76.1983H60.0705L59.3812 74.918ZM58.3471 74.5733V73.6869H59.0365C59.1842 73.6869 59.2827 73.7362 59.3812 73.7854C59.4796 73.8346 59.5289 73.9824 59.5289 74.1301C59.5289 74.2778 59.4796 74.3763 59.3812 74.4748C59.2827 74.5733 59.1842 74.6225 58.9872 74.6225H58.3471V74.5733Z" fill="#B7B7B7"/>
<path d="M66.0021 73.7361V73.293H64.1309V76.2475H66.0021V75.8043H64.574V74.9672H65.8051V74.5733H64.574V73.7361H66.0021Z" fill="#B7B7B7"/>
<path d="M3.35618 69.8538C4.04557 69.8538 4.63648 69.6568 5.12891 69.3121C5.67057 68.9674 6.01527 68.475 6.21224 67.8349H4.43951C4.1933 68.2781 3.8486 68.475 3.35618 68.475C2.86375 68.475 2.46982 68.3273 2.17436 67.9826C1.87891 67.6871 1.73118 67.244 1.73118 66.7023C1.73118 66.1606 1.87891 65.7667 2.17436 65.422C2.46982 65.1265 2.86375 64.9296 3.35618 64.9296C3.8486 64.9296 4.24254 65.1265 4.43951 65.5697H6.21224C6.01527 64.9296 5.62133 64.4371 5.12891 64.0925C4.58724 63.7478 3.99633 63.5508 3.35618 63.5508C2.46982 63.5508 1.78042 63.8462 1.14027 64.4371C0.54936 65.0281 0.253906 65.7667 0.253906 66.6531C0.253906 67.5394 0.54936 68.2781 1.14027 68.869C1.78042 69.6076 2.51906 69.8538 3.35618 69.8538Z" fill="#B7B7B7"/>
<path d="M16.3741 66.8132C16.3741 65.9268 16.0786 65.1882 15.4877 64.5973C14.8968 64.0064 14.1581 63.7109 13.321 63.7109C12.4347 63.7109 11.7453 64.0064 11.1051 64.5973C10.5142 65.1882 10.2188 65.9268 10.2188 66.8132C10.2188 67.6996 10.5142 68.4382 11.1051 69.0291C11.696 69.62 12.4347 69.9155 13.321 69.9155C14.2074 69.9155 14.8968 69.62 15.4877 69.0291C16.0786 68.4382 16.3741 67.6996 16.3741 66.8132ZM14.4536 68.0935C14.1581 68.389 13.7642 68.5859 13.2718 68.5859C12.7794 68.5859 12.3854 68.4382 12.09 68.0935C11.7945 67.7981 11.6468 67.3549 11.6468 66.8132C11.6468 66.2715 11.7945 65.8776 12.09 65.5329C12.3854 65.2375 12.7794 65.0405 13.2718 65.0405C13.7642 65.0405 14.1581 65.1882 14.4536 65.5329C14.7491 65.8284 14.8968 66.2715 14.8968 66.8132C14.8968 67.3549 14.7491 67.7488 14.4536 68.0935Z" fill="#B7B7B7"/>
<path d="M27.6025 63.7891H25.9283L24.2048 67.9254L22.4813 63.7891H20.7578V69.7966H22.2351V66.3989L23.6631 69.7966H24.7465L26.1252 66.3989V69.7966H27.6025V63.7891Z" fill="#B7B7B7"/>
<path d="M33.823 67.4822H34.7093C35.1033 67.4822 35.4972 67.433 35.7927 67.2853C36.0881 67.1868 36.3343 66.9898 36.4821 66.7929C36.7775 66.3989 36.9252 66.005 36.9252 65.611C36.9252 65.1186 36.7283 64.6754 36.3343 64.3307C35.9404 63.986 35.3987 63.7891 34.7093 63.7891H32.3457V69.7966H33.823V67.4822V67.4822ZM33.823 64.9216H34.7093C34.9063 64.9216 35.1033 64.9709 35.251 65.1186C35.3987 65.2663 35.448 65.4141 35.448 65.6603C35.448 65.8572 35.3987 66.0542 35.251 66.2019C35.1033 66.3497 34.9556 66.3989 34.7093 66.3989H33.823V64.9216Z" fill="#B7B7B7"/>
<path d="M42.8049 63.7891L40.6875 69.8459H42.2633L42.608 68.8118H44.7746L45.1193 69.8459H46.6951L44.6269 63.7891H42.8049ZM42.9526 67.6792L43.642 65.5125L44.3314 67.6792H42.9526Z" fill="#B7B7B7"/>
<path d="M56.1882 69.7966V63.7891H54.7109V67.5807L52.2488 63.7891H50.7715V69.7966H52.2488V66.005L54.7109 69.7966H56.1882Z" fill="#B7B7B7"/>
<path d="M62.4846 67.8762V69.7966H63.9126V67.8762L66.0301 63.7891H64.3558L63.2233 66.4974L62.0414 63.7891H60.3672L62.4846 67.8762Z" fill="#B7B7B7"/>
<path d="M37.1878 7.94922C38.1234 9.22952 38.862 10.7068 39.4037 12.2333C40.0931 12.3318 40.7332 12.4303 41.3734 12.578C41.4718 12.6272 41.5703 12.6272 41.7181 12.6765C41.7673 12.6765 41.7673 12.6765 41.8165 12.6765C41.9643 12.7257 42.112 12.7257 42.2105 12.775C42.3582 12.8242 42.4567 12.8735 42.6044 12.8735C42.7029 12.9227 42.8506 12.9227 42.9491 12.9719C43.0476 13.0212 43.1953 13.0704 43.2938 13.0704C43.3923 13.1197 43.4908 13.1689 43.6385 13.1689C43.737 13.2182 43.8355 13.2674 43.934 13.2674C44.5741 13.5136 45.165 13.7598 45.7559 14.1045C45.9037 14.1538 46.0514 14.2522 46.1991 14.3507C46.4453 14.4985 46.6915 14.5969 46.8885 14.7447C46.987 14.7939 47.0855 14.8432 47.184 14.9416C47.2332 14.9909 47.2824 14.9909 47.3317 15.0401C47.4302 15.0894 47.5287 15.1879 47.6271 15.2371C47.7256 15.2863 47.8241 15.3848 47.9226 15.4341C49.0552 16.2219 50.0893 17.1083 51.0249 18.0932C51.1233 18.1916 51.2218 18.3394 51.3696 18.4379C51.468 18.5363 51.5173 18.6348 51.6158 18.7333C51.7635 18.881 51.9112 19.0288 52.0097 19.2257C52.1082 19.3242 52.1574 19.4227 52.2559 19.5212C52.3544 19.6689 52.4529 19.7674 52.5514 19.9151C52.6499 20.0629 52.7483 20.1613 52.8468 20.3091C52.9453 20.4568 53.0438 20.5553 53.093 20.703C53.29 20.9492 53.4377 21.2447 53.5855 21.4909C53.684 21.6386 53.7332 21.7371 53.8317 21.8848C53.9302 22.0326 53.9794 22.1803 54.0779 22.2788C54.2256 22.5742 54.3733 22.8697 54.5211 23.1651C54.5703 23.2636 54.6196 23.4113 54.6688 23.5098C54.718 23.6083 54.7673 23.756 54.8165 23.8545C54.8658 23.953 54.915 24.0515 54.9642 24.1992C55.0135 24.2977 55.0627 24.3962 55.0627 24.4947C55.1612 24.7409 55.2597 24.9871 55.3582 25.2826C55.4074 25.4303 55.4567 25.578 55.5059 25.7257C55.5552 25.8735 55.6044 26.0212 55.6536 26.1689C55.7521 26.6121 55.8999 27.006 55.9491 27.4492C55.9491 27.5477 55.9983 27.6462 55.9983 27.7939C55.9983 27.8432 55.9983 27.9416 56.0476 27.9909C56.0476 28.0894 56.0968 28.1386 56.0968 28.2371C56.0968 28.3356 56.1461 28.4833 56.1461 28.5818C56.1461 28.6803 56.1953 28.828 56.1953 28.9265C56.1953 28.9757 56.1953 29.025 56.1953 29.0742C56.1953 29.1727 56.1953 29.2712 56.2446 29.3697C56.2446 29.4682 56.2446 29.5666 56.2446 29.6159C56.2446 29.7636 56.2938 29.8621 56.2938 30.0098C56.2938 30.1575 56.2938 30.3053 56.343 30.5022C56.343 30.65 56.343 30.8469 56.343 30.9947C56.343 31.1424 56.343 31.3394 56.343 31.4871C56.343 42.3204 47.5287 51.0856 36.7446 51.0856C36.5969 51.0856 36.3999 51.0856 36.2522 51.0856C36.1044 51.0856 35.9075 51.0856 35.7597 51.0856C35.612 51.0856 35.415 51.0856 35.2673 51.0363C35.1196 51.0363 34.9719 50.9871 34.8241 50.9871C34.6764 50.9871 34.5779 50.9378 34.4302 50.9378C34.3317 50.9378 34.2825 50.9378 34.184 50.8886C34.0855 50.8886 33.9378 50.8394 33.8393 50.8394C33.8393 50.8394 33.8393 50.8394 33.79 50.8394C33.6916 50.8394 33.5438 50.7901 33.4453 50.7901C33.3469 50.7901 33.2484 50.7409 33.1499 50.7409C33.0022 50.6916 32.8544 50.6916 32.7067 50.6424C31.9188 50.4947 31.1802 50.2977 30.4416 50.0022C30.2938 49.953 30.1461 49.9038 29.9984 49.8545C29.8506 49.8053 29.7029 49.756 29.6044 49.7068C29.4075 49.6083 29.2105 49.5591 29.0628 49.4606C28.9643 49.4113 28.8166 49.3621 28.7181 49.3128C28.5703 49.2636 28.4719 49.2144 28.3241 49.1159C28.1764 49.0174 28.0287 48.9681 27.8317 48.8697C27.684 48.8204 27.5855 48.7219 27.4378 48.6727C27.29 48.5742 27.1423 48.525 26.9946 48.4265C26.8469 48.328 26.6991 48.2788 26.6007 48.1803C26.3544 48.0325 26.1082 47.8848 25.862 47.6878L25.8128 47.6386C25.665 47.5401 25.5666 47.4416 25.4188 47.3924C25.2711 47.2939 25.1726 47.1954 25.0249 47.0969C24.8772 46.9985 24.7787 46.9 24.631 46.8015C24.5325 46.703 24.434 46.6538 24.3355 46.5553C24.1878 46.4075 24.0401 46.3091 23.8431 46.1613C23.7446 46.0628 23.6461 45.9644 23.5476 45.8659C23.4491 45.7674 23.3014 45.6689 23.2029 45.5212C23.1044 45.4227 22.9567 45.3242 22.8582 45.1765C22.6613 44.9795 22.4151 44.7333 22.2181 44.5363C22.1196 44.4378 22.0211 44.2901 21.8734 44.1424C21.6764 43.8962 21.4795 43.65 21.2825 43.4038C21.184 43.256 21.0363 43.1083 20.9378 42.9606C20.8885 42.8621 20.7901 42.7636 20.7408 42.7144C20.7408 42.6651 20.6916 42.6651 20.6916 42.6159C20.5931 42.5174 20.5438 42.3697 20.4454 42.2712C20.3469 42.1727 20.2976 42.025 20.1992 41.9265C20.1007 41.7788 20.0022 41.631 19.9037 41.4341C19.756 41.1878 19.6082 40.8924 19.4605 40.6462C19.1651 40.1045 18.9188 39.6121 18.6726 39.0212C18.6234 38.8735 18.5742 38.775 18.5249 38.6272C18.4757 38.5288 18.4264 38.4303 18.4264 38.3318C18.3772 38.2333 18.3772 38.1348 18.3279 38.0856C18.2787 37.9871 18.2787 37.8886 18.2295 37.7901C18.1802 37.6424 18.131 37.5439 18.0817 37.3962C18.0325 37.2485 17.9832 37.15 17.934 37.0022V36.953C17.8848 36.8053 17.8355 36.7068 17.8355 36.5591C17.7863 36.4113 17.737 36.2636 17.737 36.1159C17.6385 35.6727 17.5401 35.2295 17.4416 34.7863C17.3923 34.6386 17.3923 34.4909 17.3431 34.3432C17.3431 34.1954 17.2939 34.0477 17.2939 33.9C15.7673 33.3583 14.3393 32.6197 13.0098 31.6841C13.256 44.5856 23.7446 54.9757 36.7446 54.9757C49.843 54.9757 60.4794 44.3394 60.4794 31.2409C60.5286 18.6841 50.0893 8.14619 37.1878 7.94922ZM17.2939 29.8129C17.2939 29.6651 17.3431 29.5174 17.3431 29.3697C17.3431 29.2219 17.3923 29.0742 17.3923 28.9265C17.3923 28.7788 17.4416 28.631 17.4416 28.4833C17.4416 28.3356 17.4908 28.1879 17.4908 28.0401C17.5893 27.4492 17.737 26.9075 17.8848 26.3659C17.934 26.2182 17.9832 26.0704 17.9832 25.9719C18.0325 25.8735 18.0325 25.775 18.0817 25.6765C18.0817 25.6272 18.131 25.578 18.131 25.5288C18.1802 25.4303 18.2295 25.2825 18.2295 25.1841C18.2787 25.0856 18.2787 24.9871 18.3279 24.8886C18.3279 24.8394 18.3772 24.7409 18.3772 24.6916C18.4757 24.4454 18.5741 24.2485 18.6726 24.0022C18.7711 23.756 18.9188 23.4606 19.0173 23.2144C19.0666 23.0666 19.1158 22.9682 19.2143 22.8697C19.2635 22.7712 19.3128 22.7219 19.3128 22.6235C19.362 22.525 19.4113 22.4265 19.4605 22.328C19.4605 22.2788 19.5098 22.2788 19.5098 22.2295C19.559 22.0818 19.6575 21.9833 19.7067 21.8848C19.756 21.7863 19.8545 21.6879 19.9037 21.5401C19.9529 21.4416 20.0022 21.3432 20.0514 21.2447C20.1007 21.1462 20.1499 21.0969 20.1992 20.9985C20.4454 20.6538 20.6423 20.3091 20.8885 19.9644C20.987 19.8659 21.0363 19.7182 21.1348 19.6197C21.184 19.5212 21.2825 19.4719 21.3317 19.3735C21.5287 19.1272 21.7257 18.881 21.9226 18.6348C22.0211 18.5363 22.1196 18.4379 22.1688 18.3394C22.3658 18.1424 22.5628 17.9454 22.7598 17.7485C22.8582 17.65 22.9075 17.6007 23.006 17.5022C23.1537 17.3545 23.2522 17.256 23.3999 17.1576C23.4984 17.0591 23.5969 17.0098 23.6954 16.9113C23.8431 16.7636 24.0401 16.6159 24.237 16.4682C24.3355 16.4189 24.434 16.3204 24.5325 16.2712C24.9264 15.9757 25.3204 15.6803 25.7635 15.3848C25.862 15.2863 26.0097 15.2371 26.1082 15.1386C26.2067 15.0894 26.3052 14.9909 26.4037 14.9416C26.4529 14.8924 26.5514 14.8432 26.6499 14.7939C26.7484 14.7447 26.8469 14.6462 26.9946 14.5969C27.1423 14.4985 27.29 14.4492 27.3885 14.3507C27.5363 14.2522 27.684 14.203 27.8317 14.1045C27.9794 14.0553 28.1272 13.9568 28.2749 13.9076C28.5211 13.8091 28.7673 13.6613 29.0628 13.5629C29.2597 13.4644 29.4567 13.4151 29.6537 13.3166C29.8014 13.2674 29.8999 13.2182 30.0476 13.1689C30.1461 13.1197 30.2938 13.0704 30.3923 13.0212C30.4416 13.0212 30.4908 12.9719 30.5893 12.9719C30.737 12.9227 30.8355 12.8735 30.9832 12.8242C31.1309 12.775 31.2787 12.7257 31.4264 12.6765C31.5741 12.6272 31.7219 12.578 31.8696 12.5288C32.0173 12.4795 32.165 12.4795 32.2635 12.4303C32.362 12.4303 32.4605 12.381 32.559 12.381C32.6082 12.381 32.6575 12.381 32.7067 12.3318C32.8052 12.3318 32.8544 12.2826 32.9529 12.2826C33.1006 12.2333 33.2484 12.2333 33.3961 12.1841C33.4946 12.1841 33.5931 12.1348 33.6916 12.1348C33.79 12.1348 33.8885 12.0856 33.987 12.0856C34.2825 12.0363 34.5287 12.0363 34.8241 11.9871C34.1347 10.5591 33.1991 9.32801 32.0666 8.24467C22.7105 10.1159 15.3242 17.5022 13.4529 26.9075C14.6348 28.1879 15.8658 29.1235 17.2939 29.8129Z" fill="#B7B7B7"/>
<path d="M40.0403 14.7474C39.0062 14.5504 37.9229 14.4519 36.7903 14.4519C36.4456 14.4519 36.1009 14.4519 35.7562 14.5012C36.0517 15.5845 36.1994 16.7663 36.1994 17.9481C36.1994 25.236 30.2903 31.1451 23.0024 31.1451C21.8206 31.1451 20.688 30.9974 19.6047 30.7019C19.6047 31.0466 19.5555 31.3421 19.5555 31.6868C19.5555 32.8194 19.6539 33.9027 19.8509 34.986C20.885 35.183 21.9191 35.2815 23.0024 35.2815C32.5555 35.2815 40.2865 27.5504 40.2865 17.9974C40.3358 16.8648 40.2373 15.7815 40.0403 14.7474ZM23.0517 0.664062C13.4986 0.664062 5.76758 8.39512 5.76758 17.9481C5.76758 22.6754 7.63879 26.9595 10.7411 30.0618C10.8395 28.1906 11.1842 26.3194 11.6767 24.5466C10.5441 22.6262 9.90394 20.361 9.90394 17.9481C9.90394 10.6603 15.813 4.75118 23.1009 4.75118C25.5138 4.75118 27.7297 5.39133 29.6502 6.52391C31.4229 6.03149 33.2941 5.68679 35.1653 5.5883C32.0138 2.53527 27.7789 0.664062 23.0517 0.664062Z" fill="#B7B7B7"/>
</svg>
