<svg width="84" height="78" viewBox="0 0 84 78" fill="none" xmlns="http://www.w3.org/2000/svg">
<path d="M25.7348 54.1736L23.7159 50.6774L7.66287 22.8555H3.625L21.6969 54.1736H25.7348Z" fill="#B7B7B7"/>
<path d="M42.0341 54.1736L39.9659 50.6774L37.947 47.1812L35.928 43.6358L33.9091 40.1396L31.8902 36.6433L23.9129 22.8555H19.875L29.8712 40.1396L31.8902 43.6358L33.9091 47.1812L35.928 50.6774L37.947 54.1736H42.0341Z" fill="#B7B7B7"/>
<path d="M48.064 50.6774L46.0451 47.1812L44.0261 43.6358L42.0072 40.1396L39.939 36.6433L37.92 33.1471L35.9011 29.6017L32.011 22.8555H27.9238L33.8822 33.1471L37.92 40.1396L39.939 43.6358L42.0072 47.1812L44.0261 50.6774L46.0451 54.1736H50.0829L48.064 50.6774Z" fill="#B7B7B7"/>
<path d="M56.7969 0.453125H52.759L37.9863 26.0592L40.0053 29.6046L56.7969 0.453125Z" fill="#B7B7B7"/>
<path d="M29.8712 54.1736H33.9091L31.8902 50.6774L29.8712 47.1812L27.8523 43.6358L15.7879 22.8555H11.75L25.7841 47.1812L27.8523 50.6774L29.8712 54.1736Z" fill="#B7B7B7"/>
<path d="M44.017 36.5971L64.8958 0.453125H60.8579L41.998 33.1009V33.1501L44.017 36.5971Z" fill="#B7B7B7"/>
<path d="M48.0463 43.6387L73.0122 0.453125H68.9251L46.0273 40.0933L46.0766 40.1425L48.0463 43.6387Z" fill="#B7B7B7"/>
<path d="M81.0965 0.453125H77.0586L50.123 47.1349V47.1842L52.142 50.6312L81.0965 0.453125Z" fill="#B7B7B7"/>
<path d="M6.21466 68.8565C5.82072 69.2012 5.27906 69.4474 4.68815 69.4474C3.45709 69.4474 2.423 68.4626 2.423 67.1823C2.423 65.9512 3.45709 64.9171 4.68815 64.9171C5.27906 64.9171 5.82072 65.1634 6.21466 65.5081L7.29799 64.4247C6.6086 63.7846 5.72224 63.3906 4.68815 63.3906C2.61997 63.3906 0.896484 65.0649 0.896484 67.1823C0.896484 69.2997 2.57072 70.974 4.68815 70.974C5.67299 70.974 6.6086 70.58 7.29799 69.9399L6.21466 68.8565Z" fill="#B7B7B7"/>
<path d="M17.2331 63.3906C15.1649 63.3906 13.4414 65.0649 13.4414 67.1823C13.4414 69.2997 15.1156 70.974 17.2331 70.974C19.3012 70.974 21.0247 69.2997 21.0247 67.1823C21.0247 65.0649 19.3012 63.3906 17.2331 63.3906ZM17.2331 69.4474C16.002 69.4474 14.9679 68.4133 14.9679 67.1823C14.9679 65.9512 16.002 64.9171 17.2331 64.9171C18.4641 64.9171 19.4982 65.9512 19.4982 67.1823C19.4982 68.4626 18.4641 69.4474 17.2331 69.4474Z" fill="#B7B7B7"/>
<path d="M31.5265 68.955L29.3105 63.3906H27.6855V70.974H29.2121V67.1823L30.7386 70.974H32.3636L33.8408 67.1823V70.974H35.3674V63.3906H33.7424L31.5265 68.955Z" fill="#B7B7B7"/>
<path d="M44.1155 63.3906H41.998V70.9247H43.5246V67.9209H44.1647C45.3958 67.9209 46.4299 66.8868 46.4299 65.6558C46.3806 64.4247 45.3958 63.3906 44.1155 63.3906ZM44.1155 66.4437H43.5246V64.9171H44.1155C44.5094 64.9171 44.8541 65.2618 44.8541 65.6558C44.9033 66.099 44.5587 66.4437 44.1155 66.4437Z" fill="#B7B7B7"/>
<path d="M54.8294 63.3906L52.1211 70.9247H53.7461L54.534 68.8073H56.8484L57.6362 70.9247H59.2612L56.5529 63.3906H54.8294ZM55.0264 67.33L55.6173 65.6065L56.2575 67.33H55.0264Z" fill="#B7B7B7"/>
<path d="M71.912 63.3906H70.4347V68.4626L67.3817 63.3906H65.6582V70.974H67.1355V65.9512L70.1885 70.974H71.912V63.3906Z" fill="#B7B7B7"/>
<path d="M81.8493 70.974V67.3793L83.819 63.3906H82.1448L81.1107 65.5081L80.0766 63.3906H78.4023L80.372 67.3793V70.974H81.8493Z" fill="#B7B7B7"/>
<path d="M0.896484 74.6166H1.78285V77.4234H2.27527V74.6166H3.16163V74.2227H0.896484V74.6166Z" fill="#B7B7B7"/>
<path d="M6.66815 74.2227L5.48633 77.4234H5.97875L6.22497 76.6848H7.45603L7.70224 77.4234H8.19466L7.01285 74.2227H6.66815ZM6.42194 76.2416L6.86512 74.8628L7.3083 76.2416H6.42194Z" fill="#B7B7B7"/>
<path d="M12.2092 76.0798H12.8493V76.2275C12.8493 76.4245 12.8001 76.5722 12.6523 76.7199C12.5539 76.8677 12.3569 76.9169 12.2092 76.9169C12.1107 76.9169 12.0122 76.9169 11.9137 76.8677C11.8152 76.8184 11.766 76.7692 11.7167 76.7199C11.6675 76.6707 11.6183 76.5722 11.569 76.4737C11.569 76.3752 11.5198 76.129 11.5198 75.8336C11.5198 75.5381 11.5198 75.2919 11.569 75.1934C11.569 75.0949 11.6183 74.9965 11.7167 74.9472C11.766 74.898 11.8152 74.8487 11.9137 74.7995C12.0122 74.7502 12.1107 74.7502 12.2092 74.7502C12.3569 74.7502 12.5046 74.7995 12.6031 74.898C12.7016 74.9965 12.8001 75.0949 12.8001 75.2427H13.2925C13.2433 74.9964 13.0955 74.7502 12.9478 74.5533C12.7508 74.3563 12.5046 74.2578 12.2092 74.2578C11.963 74.2578 11.766 74.3071 11.569 74.4548C11.4213 74.5533 11.2736 74.701 11.1751 74.8487C11.1258 74.9472 11.0766 75.0457 11.0766 75.1442C11.0766 75.2919 11.0273 75.5381 11.0273 75.8828C11.0273 76.2275 11.0273 76.4737 11.0766 76.6214C11.0766 76.6707 11.1258 76.7692 11.1258 76.7692C11.1258 76.8184 11.1751 76.8677 11.1751 76.9169C11.2736 77.0646 11.372 77.2124 11.569 77.3108C11.7167 77.4093 11.963 77.5078 12.2092 77.5078C12.5539 77.5078 12.8001 77.4093 12.997 77.1631C13.194 76.9661 13.3417 76.6707 13.3417 76.3752V75.7351H12.2092V76.0798Z" fill="#B7B7B7"/>
<path d="M17.1623 74.2227H16.6699V77.4234H18.6889V76.931H17.1623V74.2227Z" fill="#B7B7B7"/>
<path d="M22.2971 74.2227H21.8047V77.4234H22.2971V74.2227Z" fill="#B7B7B7"/>
<path d="M27.5861 76.4878L26.158 74.2227H25.7148V77.4234H26.158V75.109H26.2073L27.6353 77.4234H28.0785V74.2227H27.5861V76.4878Z" fill="#B7B7B7"/>
<path d="M31.459 77.4234H33.4779V76.931H31.9514V75.9954H33.281V75.5522H31.9514V74.6658H33.4779V74.2227H31.459V77.4234Z" fill="#B7B7B7"/>
<path d="M41.4982 76.0798H42.1384V76.2275C42.1384 76.4245 42.0891 76.5722 41.9414 76.7199C41.8429 76.8677 41.646 76.9169 41.4982 76.9169C41.3997 76.9169 41.3013 76.9169 41.2028 76.8677C41.1043 76.8184 41.055 76.7692 41.0058 76.7199C40.9566 76.6707 40.9073 76.5722 40.8581 76.4737C40.8581 76.3752 40.8088 76.129 40.8088 75.8336C40.8088 75.5381 40.8088 75.2919 40.8581 75.1934C40.8581 75.0949 40.9073 74.9965 41.0058 74.9472C41.055 74.898 41.1043 74.8487 41.2028 74.7995C41.3013 74.7502 41.3997 74.7502 41.4982 74.7502C41.646 74.7502 41.7937 74.7995 41.8922 74.898C41.9907 74.9965 42.0891 75.0949 42.0891 75.2427H42.5816C42.5323 74.9964 42.3846 74.7502 42.2369 74.5533C42.0399 74.3563 41.7937 74.2578 41.4982 74.2578C41.252 74.2578 41.055 74.3071 40.8581 74.4548C40.7103 74.5533 40.5626 74.701 40.4641 74.8487C40.4149 74.9472 40.3657 75.0457 40.3657 75.1442C40.3657 75.2919 40.3164 75.5381 40.3164 75.8828C40.3164 76.2275 40.3164 76.4737 40.3657 76.6214C40.3657 76.6707 40.4149 76.7692 40.4149 76.7692C40.4149 76.8184 40.4641 76.8677 40.4641 76.9169C40.5626 77.0646 40.6611 77.2124 40.8581 77.3108C41.0058 77.4093 41.252 77.5078 41.4982 77.5078C41.8429 77.5078 42.0891 77.4093 42.2861 77.1631C42.4831 76.9661 42.6308 76.6707 42.6308 76.3752V75.7351H41.4982V76.0798V76.0798Z" fill="#B7B7B7"/>
<path d="M47.9401 74.7706C47.8416 74.6229 47.7431 74.4751 47.5954 74.3767C47.4477 74.2782 47.2015 74.1797 46.9553 74.1797C46.709 74.1797 46.5121 74.2289 46.3151 74.3767C46.1674 74.4751 46.0196 74.6229 45.9212 74.7706C45.8719 74.8691 45.8227 74.9676 45.8227 75.0661C45.8227 75.2138 45.7734 75.46 45.7734 75.8047C45.7734 76.1494 45.7734 76.3956 45.8227 76.5433C45.8227 76.5926 45.8719 76.6911 45.8719 76.6911C45.8719 76.7403 45.9212 76.7895 45.9212 76.8388C46.0196 76.9865 46.1181 77.1342 46.3151 77.2327C46.4628 77.3312 46.709 77.4297 46.9553 77.4297C47.2015 77.4297 47.3984 77.3804 47.5954 77.2327C47.7431 77.1342 47.8909 76.9865 47.9401 76.8388C47.9893 76.7403 48.0386 76.6418 48.0386 76.5433C48.0386 76.3956 48.0878 76.1494 48.0878 75.8047C48.0878 75.4107 48.0878 75.1645 48.0386 75.0661C48.0386 74.9183 47.9893 74.8198 47.9401 74.7706ZM47.5462 76.4448C47.5462 76.5433 47.4969 76.6418 47.3984 76.6911C47.3492 76.7403 47.2999 76.7895 47.2015 76.8388C47.103 76.888 47.0045 76.888 46.906 76.888C46.8075 76.888 46.709 76.888 46.6106 76.8388C46.5121 76.7895 46.4628 76.7403 46.4136 76.6911C46.3643 76.6418 46.3151 76.5433 46.2659 76.4448C46.2659 76.3464 46.2166 76.1001 46.2166 75.8047C46.2166 75.5092 46.2166 75.263 46.2659 75.1645C46.2659 75.0661 46.3151 74.9676 46.4136 74.9183C46.4628 74.8691 46.5121 74.8198 46.6106 74.7706C46.709 74.7214 46.8075 74.7214 46.906 74.7214C47.0045 74.7214 47.103 74.7706 47.2015 74.7706C47.2999 74.8198 47.3492 74.8691 47.3984 74.9183C47.4477 74.9676 47.4969 75.0661 47.5462 75.1645C47.5462 75.263 47.5954 75.5092 47.5954 75.8047C47.5954 76.1001 47.5954 76.3464 47.5462 76.4448Z" fill="#B7B7B7"/>
<path d="M51.3457 77.4234H53.3646V76.931H51.8381V75.9954H53.1677V75.5522H51.8381V74.6658H53.3646V74.2227H51.3457V77.4234Z" fill="#B7B7B7"/>
<path d="M57.7405 75.6014C57.5928 75.6014 57.4451 75.5522 57.3958 75.5522C57.2481 75.503 57.1004 75.4537 57.0511 75.4045C57.0019 75.306 56.9527 75.2567 56.9527 75.1583C56.9527 75.0105 57.0019 74.912 57.1004 74.8136C57.1989 74.7151 57.3466 74.7151 57.4943 74.7151C57.7898 74.7151 58.036 74.8136 58.2822 74.9613L58.5284 74.5674C58.233 74.3704 57.8883 74.2227 57.4943 74.2227C57.1496 74.2227 56.9034 74.3211 56.7064 74.4689C56.5095 74.6166 56.411 74.8628 56.411 75.1583C56.411 75.4045 56.5095 75.6014 56.6572 75.7492C56.8049 75.8969 57.0019 75.9954 57.2974 76.0446C57.4451 76.0446 57.5928 76.0939 57.7405 76.0939C58.036 76.1431 58.1837 76.2908 58.1345 76.537C58.1345 76.8325 57.9375 76.9802 57.4943 76.9802C57.1496 76.9802 56.8542 76.8817 56.608 76.6848L56.3125 77.0295C56.6572 77.3249 57.0511 77.4727 57.5436 77.4727C58.2822 77.4727 58.6269 77.1772 58.6761 76.537C58.6761 76.2908 58.6269 76.0939 58.4792 75.9461C58.233 75.7492 58.036 75.6014 57.7405 75.6014Z" fill="#B7B7B7"/>
<path d="M67.3509 75.5522H66.0705V74.2227H65.5781V77.4234H66.0705V75.9954H67.3509V77.4234H67.8433V74.2227H67.3509V75.5522Z" fill="#B7B7B7"/>
<path d="M71.1641 77.4234H73.2323V76.931H71.6565V75.9954H72.986V75.5522H71.6565V74.6658H73.2323V74.2227H71.1641V77.4234Z" fill="#B7B7B7"/>
<path d="M78.587 75.109C78.587 74.8136 78.4885 74.5674 78.2915 74.4196C78.1438 74.2719 77.8976 74.2227 77.6514 74.2227H76.3711V77.4234H76.8635V76.0446H77.5037L78.1438 77.4234H78.7347L77.9961 75.9954C78.39 75.8477 78.587 75.5522 78.587 75.109ZM76.8635 75.6014V74.6166H77.6022C77.7499 74.6166 77.8976 74.6658 77.9469 74.7151C78.0453 74.8136 78.0946 74.912 78.0946 75.0598C78.0946 75.2075 78.0453 75.306 77.9469 75.4045C77.8484 75.503 77.7006 75.5522 77.5529 75.5522H76.8635V75.6014Z" fill="#B7B7B7"/>
<path d="M81.8281 77.4234H83.8963V76.931H82.3205V75.9954H83.6501V75.5522H82.3205V74.6658H83.8963V74.2227H81.8281V77.4234Z" fill="#B7B7B7"/>
</svg>
