<svg width="66" height="85" viewBox="0 0 66 85" fill="none" xmlns="http://www.w3.org/2000/svg">
<path d="M1.68324 83.8261H2.27415V80.4284H3.20975V79.8867H0.796875V80.4284H1.68324V83.8261Z" fill="#B7B7B7"/>
<path d="M6.3183 83.813L6.76148 82.8281H8.48497L8.87891 83.813H9.51906L7.59861 79.5781L5.62891 83.813H6.3183ZM7.64785 80.9569L8.23876 82.3357H7.0077L7.64785 80.9569Z" fill="#B7B7B7"/>
<path d="M14.4158 80.3214C14.9083 80.3214 15.3022 80.5183 15.5977 80.9615L16.0408 80.5676C15.7946 80.2721 15.5484 80.0752 15.3022 79.9274C15.056 79.7797 14.7605 79.7305 14.4158 79.7305C13.8249 79.7305 13.3325 79.9274 12.9386 80.3214C12.5446 80.7153 12.3477 81.2077 12.3477 81.7986C12.3477 82.3403 12.5446 82.8327 12.9386 83.2759C13.3325 83.6699 13.8249 83.8668 14.3666 83.8668C14.9575 83.8668 15.4007 83.6699 15.7946 83.2267C15.9424 83.0297 16.0901 82.8327 16.1393 82.6358C16.1886 82.3896 16.2378 82.1433 16.2378 81.8479V81.7002H14.6128V82.2418H15.5977C15.5484 82.5373 15.4499 82.7835 15.2037 82.9805C14.9575 83.1774 14.7113 83.2759 14.4158 83.2759C14.0711 83.2759 13.7264 83.1282 13.431 82.882C13.1355 82.5865 12.9386 82.2418 12.9386 81.7986C12.9386 81.3555 13.0863 81.0108 13.3817 80.7153C13.628 80.4691 13.9727 80.3214 14.4158 80.3214Z" fill="#B7B7B7"/>
<path d="M20.0938 79.8867V83.8261H21.8665V83.2844H20.7339V79.8867H20.0938Z" fill="#B7B7B7"/>
<path d="M25.6983 79.8867H25.1074V83.8754H25.6983V79.8867Z" fill="#B7B7B7"/>
<path d="M29.2891 83.813H29.88V81.0554L32.7853 84.0592V79.8736H32.1944V82.6312L29.2891 79.5781V83.813Z" fill="#B7B7B7"/>
<path d="M36.3613 83.8261H38.5772V83.2844H36.9522V81.9549H38.528V81.364H36.9522V80.4284H38.5772V79.8867H36.3613V83.8261Z" fill="#B7B7B7"/>
<path d="M47.416 81.4132H45.6925V79.8867H45.1016V83.8261H45.6925V82.0041H47.416V83.8261H48.0069V79.8867H47.416V81.4132Z" fill="#B7B7B7"/>
<path d="M53.794 80.4284V79.8867H51.5781V83.8261H53.794V83.2844H52.169V81.9549H53.7448V81.364H52.169V80.4284H53.794Z" fill="#B7B7B7"/>
<path d="M58.6186 82.1425C58.8648 82.0933 59.111 81.9455 59.2588 81.7486C59.4065 81.5516 59.505 81.3054 59.505 81.0099C59.505 80.6652 59.3572 80.3698 59.111 80.1236C58.8648 79.9266 58.5201 79.8281 57.9785 79.8281H57.2891V83.8168H57.88V82.1918H57.9785L59.111 83.8168H59.8497L58.6186 82.1425ZM57.8307 81.6993V80.419H58.0277C58.5694 80.419 58.8648 80.616 58.8648 81.0099C58.8648 81.4531 58.5694 81.6501 58.0277 81.6501H57.8307V81.6993Z" fill="#B7B7B7"/>
<path d="M65.2467 80.4284V79.8867H63.0801V83.8261H65.2467V83.2844H63.671V81.9549H65.1975V81.364H63.671V80.4284H65.2467Z" fill="#B7B7B7"/>
<path d="M14.0781 36.9889L40.5213 10.5949V0.0078125L14.0781 26.451V36.9889Z" fill="#B7B7B7"/>
<path d="M14.0781 59.9895L40.5213 33.5463V25.0273L14.0781 51.4705V59.9895Z" fill="#B7B7B7"/>
<path d="M25.5 36.9982L51.9432 10.6043V1.69141L25.5 28.1346V36.9982Z" fill="#B7B7B7"/>
<path d="M51.9432 24.668L25.5 51.1111V59.9748L51.9432 33.5316V24.668Z" fill="#B7B7B7"/>
<path d="M1.865 74.7515C2.2097 75.0962 2.60364 75.3424 3.09606 75.5394C3.53924 75.7364 4.08091 75.8349 4.62258 75.8349C5.16425 75.8349 5.65667 75.7364 6.1491 75.5394C6.64152 75.3424 7.03546 74.9978 7.33092 74.5546L6.24758 73.8159C6.00137 74.1114 5.75516 74.3576 5.4597 74.5053C5.16425 74.6531 4.91803 74.7023 4.62258 74.7023C4.22864 74.7023 3.88394 74.6531 3.58849 74.5053C3.29303 74.3576 3.04682 74.1606 2.80061 73.9637C2.60364 73.7174 2.40667 73.422 2.30818 73.1265C2.2097 72.7818 2.11121 72.4371 2.11121 72.0432C2.11121 71.6985 2.16045 71.3538 2.30818 71.0091C2.40667 70.7137 2.60364 70.4182 2.80061 70.172C2.99758 69.9258 3.29303 69.7288 3.58849 69.6303C3.88394 69.4826 4.22864 69.4334 4.62258 69.4334C4.86879 69.4334 5.115 69.4826 5.36122 69.5811C5.60743 69.6796 5.85364 69.8765 6.1491 70.172L7.13395 69.4334C6.78925 69.0394 6.39531 68.744 5.95213 68.547C5.50894 68.35 5.06576 68.3008 4.57334 68.3008C4.03167 68.3008 3.49 68.3993 3.04682 68.5962C2.60364 68.7932 2.16045 69.0394 1.81576 69.3841C1.47106 69.7288 1.22485 70.1227 1.02788 70.6152C0.830906 71.1076 0.732422 71.6 0.732422 72.1909C0.732422 72.7326 0.830906 73.2743 1.02788 73.7174C1.27409 74.0621 1.5203 74.4561 1.865 74.7515Z" fill="#B7B7B7"/>
<path d="M10.8939 74.7656C11.2386 75.1103 11.6325 75.3565 12.1249 75.5535C12.5681 75.7505 13.1098 75.849 13.6515 75.849C14.1931 75.849 14.7348 75.7505 15.2272 75.5535C15.7196 75.3565 16.1136 75.1103 16.4583 74.7656C16.803 74.4209 17.0492 74.027 17.2462 73.5838C17.4431 73.1406 17.5416 72.599 17.5416 72.0573C17.5416 71.4664 17.4431 70.974 17.2462 70.4815C17.0492 69.9891 16.803 69.5952 16.4583 69.2505C16.1136 68.9058 15.7196 68.6596 15.2272 68.5118C14.7348 68.3149 14.2424 68.2656 13.6515 68.2656C13.1098 68.2656 12.5681 68.3641 12.1249 68.5611C11.6818 68.7581 11.2386 69.0043 10.8939 69.349C10.5492 69.6937 10.303 70.0876 10.106 70.58C9.90903 71.0724 9.81055 71.5649 9.81055 72.1558C9.81055 72.6974 9.90903 73.2391 10.106 73.6823C10.2537 74.0762 10.5492 74.4702 10.8939 74.7656ZM11.3371 70.974C11.4355 70.6785 11.6325 70.3831 11.8295 70.1368C12.0265 69.8906 12.3219 69.6937 12.6174 69.5952C12.9128 69.4474 13.2575 69.3982 13.6515 69.3982C14.0454 69.3982 14.3901 69.4474 14.6855 69.5952C14.981 69.7429 15.2765 69.8906 15.4734 70.1368C15.6704 70.3831 15.8674 70.6293 15.9658 70.974C16.0643 71.2694 16.1628 71.6141 16.1628 72.0081C16.1628 72.402 16.1136 72.7467 15.9658 73.0914C15.8674 73.4361 15.6704 73.6823 15.4734 73.9285C15.2765 74.1747 14.981 74.3717 14.6855 74.4702C14.3901 74.6179 14.0454 74.6671 13.6515 74.6671C13.2575 74.6671 12.9128 74.6179 12.6174 74.4702C12.3219 74.3224 12.0757 74.1255 11.8295 73.9285C11.6325 73.6823 11.4355 73.3868 11.3371 73.0914C11.2386 72.7467 11.1401 72.402 11.1401 72.0081C11.1401 71.6141 11.1893 71.2694 11.3371 70.974Z" fill="#B7B7B7"/>
<path d="M22.8252 68.4023H20.8555V75.641H22.0865V69.6334L24.3024 75.641H25.1888L27.4047 69.6334V75.641H28.6358V68.4023H26.7153L24.7456 73.4743L22.8252 68.4023Z" fill="#B7B7B7"/>
<path d="M33.5881 72.6465H34.5237C34.9176 72.6465 35.2623 72.5973 35.607 72.5481C35.9517 72.4988 36.2472 72.4003 36.5426 72.2526C36.7888 72.1049 37.035 71.8587 37.1828 71.6125C37.3305 71.317 37.429 70.9723 37.429 70.5291C37.429 70.1352 37.3797 69.7905 37.232 69.5443C37.0843 69.2981 36.8873 69.0519 36.6411 68.9041C36.3949 68.7564 36.0994 68.6087 35.804 68.5594C35.4593 68.5102 35.1638 68.4609 34.8191 68.4609H32.4062V75.6996H33.6866V72.6465H33.5881ZM33.5881 69.495H34.5237C34.6714 69.495 34.8684 69.495 35.0653 69.5443C35.2623 69.5443 35.41 69.5935 35.5578 69.692C35.7055 69.7412 35.8532 69.889 35.9025 69.9875C36.001 70.1352 36.0502 70.2829 36.0502 70.5291C36.0502 70.7753 36.001 70.9723 35.9025 71.12C35.804 71.2678 35.6563 71.3662 35.5085 71.4155C35.3608 71.4647 35.1638 71.514 34.9669 71.514C34.7699 71.514 34.5729 71.514 34.3759 71.514H33.5881V69.495V69.495Z" fill="#B7B7B7"/>
<path d="M41.0819 73.9667H44.2334L44.9228 75.641H46.4L43.2978 68.4023H42.1652L39.0137 75.641H40.4417L41.0819 73.9667ZM42.6576 69.9289L43.7902 72.8834H41.525L42.6576 69.9289Z" fill="#B7B7B7"/>
<path d="M49.293 68.4023V75.641H50.5733V70.0766L54.168 75.641H55.793V68.4023H54.5127V73.7698L50.9672 68.4023H49.293Z" fill="#B7B7B7"/>
<path d="M61.2498 75.641H62.5301V72.5387L65.2384 68.4023H63.7119L61.8899 71.2584L60.1172 68.4023H58.4922L61.2498 72.5387V75.641Z" fill="#B7B7B7"/>
</svg>
