<svg width="71" height="77" viewBox="0 0 71 77" fill="none" xmlns="http://www.w3.org/2000/svg">
<path d="M21.4277 19.4741H22.4125V20.4589V36.0688L26.9921 31.4892V14.8945H10.9883V47.5423L15.5678 42.9135V20.4589V19.4741H16.5527H21.4277Z" fill="#B7B7B7"/>
<path d="M39.454 37.4936H40.4881V38.5277V43.3535V44.3876H39.454H19.3139L14.7344 48.9671H45.0677V32.9141H30.7874L26.2079 37.4936H39.454Z" fill="#B7B7B7"/>
<path d="M54.8864 18.6585V19.6926H53.8523H43.9545L39.375 24.2721H59.4659V4.23047L54.8864 8.81001V18.6585Z" fill="#B7B7B7"/>
<path d="M53.4562 5.03267L58.0357 0.453125H35.6797V22.8584L40.2592 18.2789V6.06676V5.03267H41.2441H53.4562Z" fill="#B7B7B7"/>
<path d="M0.306641 73.9721H1.14376V76.6804H1.63619V73.9721H2.47331V73.5781H0.306641V73.9721Z" fill="#B7B7B7"/>
<path d="M6.82067 75.991H8.00248L8.2487 76.6804H8.74112L7.60854 73.5781H7.21461L6.08203 76.6804H6.57446L6.82067 75.991ZM7.41157 74.2183L7.85476 75.5971H6.96839L7.41157 74.2183Z" fill="#B7B7B7"/>
<path d="M13.4034 74.2183C13.4527 74.169 13.5019 74.1198 13.6004 74.0705C13.6989 74.0213 13.7974 74.0213 13.8958 74.0213C14.0436 74.0213 14.1913 74.0705 14.2898 74.169C14.3883 74.2675 14.4375 74.366 14.4867 74.4645H14.9792C14.9299 74.2183 14.8314 73.9721 14.6345 73.8243C14.4375 73.6274 14.1913 73.5781 13.8958 73.5781C13.6496 73.5781 13.4527 73.6274 13.3049 73.7751C13.1572 73.8736 13.0095 74.0213 12.9602 74.169C12.911 74.2675 12.8617 74.366 12.8617 74.4645C12.8617 74.563 12.8125 74.8092 12.8125 75.2031C12.8125 75.5478 12.8125 75.794 12.8617 75.9418C12.8617 75.991 12.911 76.0402 12.911 76.0895C12.911 76.1387 12.9602 76.188 12.9602 76.2372C13.0587 76.3849 13.1572 76.4834 13.3049 76.6312C13.4527 76.7296 13.6496 76.8281 13.8958 76.8281C14.1913 76.8281 14.4867 76.7296 14.6837 76.4834C14.8807 76.2865 14.9792 75.991 14.9792 75.6956V75.0554H13.8958V75.4986H14.536V75.6463C14.536 75.8433 14.4867 75.991 14.339 76.1387C14.2405 76.2865 14.0928 76.3357 13.8958 76.3357C13.7974 76.3357 13.6989 76.3357 13.6004 76.2865C13.5019 76.2372 13.4527 76.188 13.4034 76.1387C13.3542 76.0895 13.3049 75.991 13.3049 75.8925C13.3049 75.794 13.2557 75.5971 13.2557 75.2524C13.2557 74.9569 13.2557 74.7599 13.3049 74.6122C13.3049 74.4152 13.3542 74.3168 13.4034 74.2183Z" fill="#B7B7B7"/>
<path d="M20.5684 73.5781V76.6804H22.5381V76.2372H21.0115V73.5781H20.5684Z" fill="#B7B7B7"/>
<path d="M27.4182 73.5781H26.9258V76.6804H27.4182V73.5781Z" fill="#B7B7B7"/>
<path d="M33.8024 75.794L32.4237 73.5781H31.9805V76.6804H32.4729V74.4645L33.8517 76.6804H34.2949V73.5781H33.8517V75.794H33.8024Z" fill="#B7B7B7"/>
<path d="M40.8056 74.0213V73.5781H38.8359V76.6804H40.8056V76.2372H39.3284V75.3016H40.6087V74.9077H39.3284V74.0213H40.8056Z" fill="#B7B7B7"/>
<path d="M50.651 76.6804V73.5781H50.1586V74.9077H48.9276V73.5781H48.4844V76.6804H48.9276V75.3016H50.1586V76.6804H50.651Z" fill="#B7B7B7"/>
<path d="M57.1845 74.0213V73.5781H55.2148V76.6804H57.1845V76.2372H55.658V75.3016H56.9876V74.9077H55.658V74.0213H57.1845Z" fill="#B7B7B7"/>
<path d="M63.109 75.2914C63.5029 75.1437 63.6999 74.8483 63.6999 74.4543C63.6999 74.1589 63.6014 73.9619 63.4044 73.8142C63.2567 73.6664 63.0105 73.6172 62.7643 73.6172H61.5332V76.7195H62.0256V75.3899H62.6165L63.2567 76.7195H63.7984L63.109 75.2914ZM62.0256 74.8975V73.9619H62.7643C62.912 73.9619 63.0105 74.0111 63.109 74.0604C63.2074 74.1096 63.2567 74.2573 63.2567 74.4051C63.2567 74.5528 63.2074 74.6513 63.109 74.7498C63.0105 74.8482 62.912 74.8975 62.715 74.8975H62.0256Z" fill="#B7B7B7"/>
<path d="M68.127 76.6804H70.1459V76.2372H68.6194V75.3016H69.8997V74.9077H68.6194V74.0213H70.1459V73.5781H68.127V76.6804Z" fill="#B7B7B7"/>
<path d="M4.80292 67.7732C4.5567 68.2656 4.16277 68.4626 3.6211 68.4626C3.07943 68.4626 2.68549 68.3149 2.34079 67.9702C2.04534 67.6255 1.89761 67.1823 1.89761 66.6406C1.89761 66.099 2.04534 65.6558 2.34079 65.3111C2.63625 64.9664 3.07943 64.8187 3.6211 64.8187C4.16277 64.8187 4.5567 65.0649 4.80292 65.508H6.67413C6.47716 64.8186 6.08322 64.3262 5.49231 63.9323C4.95064 63.5383 4.31049 63.3906 3.6211 63.3906C2.68549 63.3906 1.94685 63.6861 1.3067 64.3262C0.666549 64.9664 0.371094 65.705 0.371094 66.6899C0.371094 67.6255 0.666549 68.4134 1.3067 69.0535C1.94685 69.6937 2.73473 69.9891 3.6211 69.9891C4.31049 69.9891 4.95064 69.7921 5.49231 69.4474C6.03398 69.0535 6.42792 68.5611 6.67413 67.8717H4.80292V67.7732Z" fill="#B7B7B7"/>
<path d="M17.4141 66.6274C17.4141 65.6918 17.1186 64.9039 16.4785 64.2637C15.8383 63.6236 15.0504 63.3281 14.1641 63.3281C13.2285 63.3281 12.4898 63.6236 11.8497 64.2637C11.2095 64.9039 10.9141 65.6425 10.9141 66.6274C10.9141 67.563 11.2095 68.3509 11.8497 68.991C12.4898 69.6312 13.2777 69.9266 14.1641 69.9266C15.0997 69.9266 15.8383 69.6312 16.4785 68.991C17.1186 68.3509 17.4141 67.563 17.4141 66.6274ZM15.3951 67.9569C15.0997 68.3016 14.6565 68.4493 14.1641 68.4493C13.6716 68.4493 13.2285 68.3016 12.933 67.9569C12.6375 67.6122 12.4898 67.169 12.4898 66.6274C12.4898 66.0857 12.6375 65.6425 12.933 65.2978C13.2285 64.9531 13.6716 64.8054 14.1641 64.8054C14.6565 64.8054 15.0997 64.9531 15.3951 65.2978C15.6906 65.6425 15.8383 66.0857 15.8383 66.6274C15.8383 67.2183 15.6906 67.6615 15.3951 67.9569Z" fill="#B7B7B7"/>
<path d="M29.3383 63.4805H27.5655L25.6943 67.863L23.8723 63.4805H22.0996V69.8327H23.6261V66.238L25.1526 69.8327H26.2852L27.7625 66.238V69.8327H29.3383V63.4805Z" fill="#B7B7B7"/>
<path d="M35.9117 67.3706H36.8965C37.3397 67.3706 37.7337 67.3214 38.0291 67.1736C38.3738 67.0259 38.62 66.8782 38.7678 66.6812C39.0632 66.2873 39.2109 65.8441 39.2109 65.4502C39.2109 64.9085 39.014 64.4653 38.5708 64.0714C38.1769 63.6774 37.5859 63.4805 36.8473 63.4805H34.3359V69.882H35.9117V67.3706V67.3706ZM35.9117 64.6623H36.8965C37.1428 64.6623 37.2905 64.7115 37.4382 64.8593C37.5859 65.007 37.6352 65.2039 37.6352 65.4009C37.6352 65.6471 37.5859 65.7949 37.4382 65.9426C37.2905 66.0903 37.0935 66.1396 36.8965 66.1396H35.9117V64.6623Z" fill="#B7B7B7"/>
<path d="M47.3121 63.4453H45.3917L43.1758 69.8468H44.85L45.1947 68.7635H47.5091L47.8538 69.8468H49.5281L47.3121 63.4453ZM45.5887 67.6309L46.3273 65.3658L47.0659 67.6309H45.5887Z" fill="#B7B7B7"/>
<path d="M59.6652 69.8468V63.4453H58.0895V67.4832L55.4796 63.4453H53.9531V69.8468H55.4796V65.8582L58.0895 69.8468H59.6652Z" fill="#B7B7B7"/>
<path d="M67.1874 66.3365L65.9563 63.4805H64.1836L66.3995 67.8138V69.8327H67.926V67.8138L70.1419 63.4805H68.3692L67.1874 66.3365Z" fill="#B7B7B7"/>
</svg>
