<svg width="73" height="82" viewBox="0 0 73 82" fill="none" xmlns="http://www.w3.org/2000/svg">
<path d="M32.8067 13.7306L39.2082 24.8101C39.9469 24.8101 40.6363 24.8101 41.3749 24.8101C43.2461 24.8101 45.1173 24.8594 46.9393 24.9579L32.8067 0.484375L17.2461 27.3707C19.9544 26.7798 22.8105 26.2382 25.765 25.8442L32.8067 13.7306ZM21.284 24.4654L32.7575 4.5715L43.2954 22.7912C42.6552 22.7912 42.0151 22.7912 41.3749 22.7912C41.0302 22.7912 40.6855 22.7912 40.3408 22.7912L34.5302 12.6965L32.7575 9.64347L30.9847 12.6965L24.534 23.9238C23.4506 24.0715 22.3673 24.2685 21.284 24.4654Z" fill="#B7B7B7"/>
<path d="M23.246 61.5067C15.2195 58.0105 10.3445 53.2833 10.3445 48.1128C10.3445 46.3893 10.8862 44.7151 11.9203 43.1393H57.4203L49.1476 28.8098C52.2991 28.5636 55.5491 28.4158 58.8976 28.4158C63.3787 28.4158 67.7612 28.6621 71.8976 29.1545C71.6514 29.056 71.4052 29.0067 71.159 28.9083C71.4052 29.0067 71.6514 29.056 71.8976 29.1545C72.1931 29.2037 72.4393 29.2037 72.7347 29.253C71.9961 29.056 71.2575 28.9083 70.5188 28.7113C63.7726 27.1848 55.9923 26.3477 47.7196 26.3477C47.6703 26.3477 47.6211 26.3477 47.5718 26.3477C45.7006 26.3477 43.8294 26.3969 42.0074 26.4954C41.4165 26.5446 40.7764 26.5446 40.1855 26.5939C34.4241 26.9386 29.0074 27.7264 24.1324 28.859C23.6892 28.9575 23.2953 29.056 22.9013 29.1545C19.996 29.8439 17.3369 30.681 14.8748 31.6166C5.91267 35.0636 0.299025 39.9386 0.299025 45.306C0.249782 52.1507 9.45813 58.2075 23.246 61.5067ZM41.9582 29.6469L45.9468 36.5408H19.6513C25.2157 33.3893 32.9468 30.9764 41.9582 29.6469Z" fill="#B7B7B7"/>
<path d="M4.64288 75.0769C4.88909 74.9785 5.1353 74.8307 5.28303 74.6338C5.48 74.4368 5.62773 74.2398 5.72621 73.9444C5.8247 73.6982 5.87394 73.4519 5.87394 73.1565V72.6148H4.59363V73.058C4.59363 73.255 4.54439 73.4027 4.49515 73.5012C4.44591 73.5997 4.39667 73.6982 4.29818 73.7966C4.1997 73.8459 4.10121 73.8951 4.00272 73.9444C3.90424 73.9936 3.80576 73.9936 3.70727 73.9936C3.41182 73.9936 3.21485 73.8951 3.06712 73.7474C2.96863 73.5504 2.91939 73.3535 2.91939 73.1072V68.4785C2.91939 68.183 2.96863 67.9368 3.06712 67.7398C3.1656 67.5428 3.41182 67.4444 3.70727 67.4444C3.95348 67.4444 4.15045 67.5428 4.29818 67.7398C4.44591 67.9368 4.49515 68.1338 4.49515 68.38V68.8232H5.77546V68.3307C5.77546 68.0353 5.72621 67.7398 5.62773 67.4444C5.52924 67.1982 5.38151 66.9519 5.18455 66.755C4.79061 66.361 4.29818 66.1641 3.70727 66.1641C3.41182 66.1641 3.11636 66.2133 2.87015 66.3118C2.62394 66.4103 2.37772 66.558 2.18075 66.755C1.98378 66.9519 1.83606 67.1489 1.73757 67.3951C1.63909 67.6413 1.58984 67.9368 1.58984 68.2322V73.2057C1.58984 73.5997 1.63909 73.9444 1.78681 74.2398C1.93454 74.486 2.08227 74.7322 2.27924 74.88C2.47621 75.0277 2.72242 75.1754 2.96863 75.2247C3.21485 75.2739 3.46106 75.3232 3.70727 75.3232C4.15045 75.2739 4.39666 75.2247 4.64288 75.0769Z" fill="#B7B7B7"/>
<path d="M16.2943 68.2393C16.2943 67.8946 16.245 67.55 16.0973 67.2545C15.9496 66.959 15.8019 66.7621 15.6049 66.5651C15.4079 66.3681 15.1617 66.2697 14.9155 66.1712C14.6693 66.0727 14.3738 66.0234 14.1276 66.0234C13.8814 66.0234 13.5859 66.0727 13.3397 66.1712C13.0935 66.2697 12.8473 66.4174 12.6503 66.5651C12.4534 66.7621 12.2564 67.0083 12.1579 67.2545C12.0102 67.55 11.9609 67.8454 11.9609 68.2393V73.0159C11.9609 73.4098 12.0102 73.7053 12.1579 74.0007C12.3056 74.2962 12.4534 74.4931 12.6503 74.6901C12.8473 74.8871 13.0935 75.0348 13.3397 75.1333C13.5859 75.2318 13.8814 75.281 14.1276 75.281C14.3738 75.281 14.6693 75.2318 14.9155 75.1333C15.1617 75.0348 15.4079 74.8871 15.6049 74.6901C15.8019 74.4931 15.9496 74.2962 16.0973 74.0007C16.245 73.7053 16.2943 73.4098 16.2943 73.0159V68.2393ZM15.014 73.0651C15.014 73.3606 14.9155 73.6068 14.7678 73.7545C14.5708 73.9022 14.3738 74.0007 14.1276 74.0007C13.8814 74.0007 13.6844 73.9022 13.4875 73.7545C13.2905 73.6068 13.2412 73.3606 13.2412 73.0651V68.2886C13.2412 67.9931 13.3397 67.7469 13.4875 67.5992C13.6844 67.4515 13.8814 67.353 14.1276 67.353C14.3738 67.353 14.5708 67.4515 14.7678 67.5992C14.9647 67.7469 15.014 67.9931 15.014 68.2886V73.0651Z" fill="#B7B7B7"/>
<path d="M25.5327 70.9547H25.4834L23.8092 66.1289H22.5781V75.1895H23.8584V69.6744H23.9077L25.188 73.5645H25.8281L27.1084 69.6744H27.1577V75.1895H28.438V66.1289H27.1577L25.5327 70.9547Z" fill="#B7B7B7"/>
<path d="M38.3803 66.7691C38.1833 66.5228 37.9371 66.3751 37.6416 66.2766C37.3462 66.1782 37.0507 66.1289 36.706 66.1289H34.7363V75.1895H36.0166V71.6441H36.6568C37.1492 71.6441 37.5431 71.5456 37.8386 71.3979C38.1341 71.2501 38.3803 71.0039 38.528 70.7085C38.6757 70.4622 38.7742 70.216 38.8235 69.9206C38.8727 69.6251 38.8727 69.2804 38.8727 68.8865C38.8727 68.3448 38.8235 67.9016 38.725 67.6062C38.725 67.2615 38.5772 67.0153 38.3803 66.7691ZM37.7401 69.5266C37.7401 69.7236 37.6909 69.8713 37.6416 70.0191C37.5924 70.1668 37.4447 70.2653 37.3462 70.3145C37.1985 70.413 37.0015 70.413 36.7553 70.413H36.1151V67.3107H36.8045C37.0507 67.3107 37.2477 67.36 37.3954 67.4092C37.5431 67.5077 37.6416 67.6062 37.6909 67.7539C37.7401 67.9016 37.7894 68.0494 37.7894 68.2463C37.7894 68.4433 37.7894 68.6403 37.7894 68.8372C37.7401 69.1327 37.7401 69.3297 37.7401 69.5266Z" fill="#B7B7B7"/>
<path d="M45.9252 66.1289L43.9062 75.1895H45.1866L45.5805 73.2198H47.3532L47.7472 75.1895H49.0275L47.0085 66.1289H45.9252ZM45.8267 72.038L46.4669 68.7388H46.5161L47.1563 72.038H45.8267Z" fill="#B7B7B7"/>
<path d="M59.2901 75.1895V66.1289H58.0098V71.5948H57.9605L55.9908 66.1289H54.7598V75.1895H56.0401V69.7236H56.0893L58.059 75.1895H59.2901Z" fill="#B7B7B7"/>
<path d="M68.0827 75.1895V71.3486L69.8555 66.1289H68.4767L67.4426 69.7236L66.3593 66.1289H64.9805L66.8024 71.3486V75.1895H68.0827Z" fill="#B7B7B7"/>
<path d="M2.74349 81.2528V78.9877H3.48212V78.5938H1.66016V78.9877H2.34955V81.2528H2.74349Z" fill="#B7B7B7"/>
<path d="M6.37701 78.5938L5.44141 81.2036H5.88459L6.08156 80.6127H7.06641L7.26338 81.2036H7.70656L6.77095 78.5938H6.37701ZM6.18004 80.3172L6.57398 79.1847L6.96792 80.3172H6.18004Z" fill="#B7B7B7"/>
<path d="M10.5651 79.1675C10.6143 79.1182 10.6636 79.069 10.7128 79.0198C10.7621 78.9705 10.8606 78.9705 10.959 78.9705C11.1068 78.9705 11.2053 79.0198 11.3037 79.069C11.4022 79.1675 11.4515 79.2167 11.5007 79.3152H11.9439C11.8946 79.1182 11.7962 78.9213 11.6484 78.7736C11.5007 78.6258 11.3037 78.5273 11.0083 78.5273C10.8113 78.5273 10.6143 78.5766 10.4666 78.6751C10.3189 78.7735 10.2204 78.872 10.1712 79.0198C10.1219 79.069 10.1219 79.1675 10.0727 79.266C10.0727 79.3645 10.0234 79.5614 10.0234 79.8569C10.0234 80.1523 10.0234 80.3493 10.0727 80.4478C10.0727 80.497 10.0727 80.5463 10.1219 80.5955C10.1219 80.6448 10.1712 80.694 10.1712 80.694C10.2204 80.7925 10.3189 80.9402 10.4666 81.0387C10.6143 81.1372 10.7621 81.1864 11.0083 81.1864C11.2545 81.1864 11.5007 81.0879 11.6977 80.891C11.8946 80.694 11.9439 80.497 11.9439 80.2508V79.7092H10.959V80.1031H11.5007V80.2508C11.5007 80.3986 11.4515 80.5463 11.353 80.6448C11.2545 80.7432 11.1068 80.7925 10.959 80.7925C10.8606 80.7925 10.7621 80.7925 10.7128 80.7433C10.6636 80.694 10.5651 80.6448 10.5651 80.5955C10.5159 80.5463 10.4666 80.4478 10.4666 80.3493C10.4666 80.2508 10.4174 80.1031 10.4174 79.8076C10.4174 79.5614 10.4174 79.3645 10.4666 79.266C10.4666 79.3152 10.5159 79.2167 10.5651 79.1675Z" fill="#B7B7B7"/>
<path d="M14.582 78.5938V81.2528H16.3055V80.8589H15.0252V78.5938H14.582Z" fill="#B7B7B7"/>
<path d="M19.2865 78.5938H18.8926V81.2036H19.2865V78.5938Z" fill="#B7B7B7"/>
<path d="M22.0703 78.5938V81.2528H22.4643V79.3816L23.6461 81.2528H24.04V78.5938H23.6461V80.465H23.5968L22.415 78.5938H22.0703Z" fill="#B7B7B7"/>
<path d="M28.4438 78.9877V78.5938H26.7695V81.2528H28.4438V80.8589H27.1635V80.1203H28.2468V79.7263H27.1635V78.9877H28.4438Z" fill="#B7B7B7"/>
<path d="M34.1516 79.0636C34.1024 79.1128 34.1024 79.2113 34.0531 79.3098C34.0531 79.4083 34.0039 79.6052 34.0039 79.9007C34.0039 80.1961 34.0039 80.3931 34.0531 80.4916C34.0531 80.5408 34.0531 80.5901 34.1024 80.6393C34.1024 80.6886 34.1516 80.7378 34.1516 80.7378C34.2009 80.8363 34.2994 80.984 34.4471 81.0825C34.5948 81.181 34.7425 81.2302 34.9888 81.2302C35.235 81.2302 35.4812 81.1317 35.6781 80.9348C35.8751 80.7378 35.9244 80.5408 35.9244 80.2946V79.753H34.9888V80.1469H35.5304V80.2946C35.5304 80.4424 35.4812 80.5901 35.3827 80.6886C35.2842 80.7871 35.1365 80.8363 34.9888 80.8363C34.8903 80.8363 34.7918 80.8363 34.7425 80.787C34.6933 80.7378 34.5948 80.6886 34.5948 80.6393C34.5456 80.5901 34.4963 80.4916 34.4963 80.3931C34.4963 80.2946 34.4471 80.1469 34.4471 79.8514C34.4471 79.6052 34.4471 79.4083 34.4963 79.3098C34.4963 79.2113 34.5456 79.1621 34.5948 79.1128C34.6441 79.0636 34.6933 79.0143 34.7425 78.9651C34.7918 78.9158 34.8903 78.9158 34.9888 78.9158C35.1365 78.9158 35.235 78.9651 35.3335 79.0143C35.4319 79.1128 35.4812 79.1621 35.5304 79.2605H35.9736C35.9244 79.0636 35.8259 78.8666 35.6781 78.7189C35.5304 78.5711 35.3335 78.4727 35.038 78.4727C34.841 78.4727 34.6441 78.5219 34.4963 78.6204C34.3486 78.8174 34.2501 78.9158 34.1516 79.0636Z" fill="#B7B7B7"/>
<path d="M38.6575 79.0862C38.6082 79.1354 38.6082 79.2339 38.559 79.3324C38.559 79.4309 38.5098 79.6278 38.5098 79.9233C38.5098 80.2187 38.5098 80.4157 38.559 80.5142C38.559 80.5635 38.559 80.6127 38.6082 80.6619C38.6082 80.7112 38.6575 80.7604 38.6575 80.7604C38.7067 80.8589 38.8052 81.0066 38.9529 81.1051C39.1007 81.2036 39.2484 81.2528 39.4946 81.2528C39.6916 81.2528 39.8886 81.2036 40.0363 81.1051C40.184 81.0066 40.2825 80.9081 40.3317 80.7604C40.381 80.7112 40.4302 80.6127 40.4302 80.5142C40.4302 80.4157 40.4302 80.2187 40.4302 79.9233C40.4302 79.6278 40.4302 79.4309 40.4302 79.3324C40.4302 79.2339 40.381 79.1354 40.3317 79.0862C40.2825 78.9877 40.184 78.84 40.0363 78.7415C39.8886 78.643 39.7408 78.5938 39.4946 78.5938C39.2976 78.5938 39.1007 78.643 38.9529 78.7415C38.8545 78.84 38.7067 78.9384 38.6575 79.0862ZM39.0022 79.3816C39.0022 79.2831 39.0514 79.2339 39.1007 79.1847C39.1499 79.1354 39.1992 79.0862 39.2484 79.0369C39.2976 78.9877 39.3961 78.9877 39.4946 78.9877C39.5931 78.9877 39.6916 78.9877 39.7408 79.0369C39.7901 79.0862 39.8393 79.1354 39.8885 79.1847C39.9378 79.2339 39.987 79.3324 39.987 79.3816C39.987 79.4801 40.0363 79.6278 40.0363 79.9233C40.0363 80.1695 40.0363 80.3665 39.987 80.465C39.987 80.5634 39.9378 80.6127 39.8885 80.7112C39.8393 80.7604 39.7901 80.8097 39.7408 80.8589C39.6916 80.9081 39.5931 80.9081 39.4946 80.9081C39.3961 80.9081 39.2976 80.9081 39.2484 80.8589C39.1992 80.8097 39.1007 80.7604 39.1007 80.7112C39.0514 80.6619 39.0022 80.5634 39.0022 80.465C39.0022 80.3665 38.9529 80.2187 38.9529 79.9233C38.9529 79.6771 38.9529 79.4801 39.0022 79.3816Z" fill="#B7B7B7"/>
<path d="M43.0996 81.2528H44.8231V80.8589H43.5428V80.1203H44.6261V79.7263H43.5428V78.9877H44.8231V78.5938H43.0996V81.2528Z" fill="#B7B7B7"/>
<path d="M48.1919 80.8363C47.8964 80.8363 47.6502 80.7378 47.4532 80.5901L47.207 80.8855C47.5025 81.1317 47.7979 81.2302 48.1919 81.2302C48.7828 81.2302 49.0782 80.984 49.1275 80.4424C49.1275 80.2454 49.0782 80.0977 48.9305 79.9499C48.832 79.8022 48.6351 79.7037 48.3888 79.7037C48.2411 79.7037 48.1426 79.6545 48.0934 79.6545C47.9457 79.6545 47.8472 79.6052 47.7979 79.5068C47.7487 79.4575 47.6995 79.359 47.6995 79.3098C47.6995 79.162 47.7487 79.1128 47.8472 79.0143C47.9457 78.9651 48.0442 78.9158 48.1426 78.9158C48.3888 78.9158 48.5858 78.9651 48.7828 79.1128L49.029 78.7681C48.7828 78.5711 48.4873 78.5219 48.1919 78.4727C47.8964 78.4727 47.6995 78.5219 47.5517 78.6696C47.404 78.8174 47.3055 79.0143 47.3055 79.2113C47.3055 79.4083 47.3548 79.556 47.5025 79.7037C47.601 79.8514 47.7979 79.9007 47.9949 79.9499C48.1426 79.9499 48.2411 79.9992 48.3396 79.9992C48.5858 80.0484 48.6843 80.1469 48.6843 80.3439C48.7335 80.7378 48.5366 80.8363 48.1919 80.8363Z" fill="#B7B7B7"/>
<path d="M56.6954 81.2528V78.5938H56.3015V79.7263H55.2674V78.5938H54.8242V81.2528H55.2674V80.1203H56.3015V81.2528H56.6954Z" fill="#B7B7B7"/>
<path d="M61.0922 78.9877V78.5938H59.418V81.2528H61.0922V80.8589H59.8119V80.1203H60.8952V79.7263H59.8119V78.9877H61.0922Z" fill="#B7B7B7"/>
<path d="M65.0405 80.071C65.3852 79.9233 65.5329 79.6771 65.5329 79.3324C65.5329 79.0862 65.4344 78.8892 65.2867 78.7907C65.139 78.6922 64.9912 78.5938 64.745 78.5938H63.7109V81.2036H64.1049V80.071H64.5973L65.139 81.2036H65.6314L65.0405 80.071ZM64.1049 79.7756V78.9877H64.745C64.8928 78.9877 64.9912 79.0369 65.0405 79.0862C65.139 79.1354 65.1882 79.2339 65.1882 79.3816C65.1882 79.4801 65.139 79.5786 65.0897 79.6771C64.9912 79.7756 64.8928 79.8248 64.745 79.8248H64.1049V79.7756Z" fill="#B7B7B7"/>
<path d="M69.8637 78.9877V78.5938H68.1895V81.2528H69.8637V80.8589H68.5834V80.1203H69.6667V79.7263H68.5834V78.9877H69.8637Z" fill="#B7B7B7"/>
</svg>
