<svg width="67" height="67" viewBox="0 0 67 67" fill="none" xmlns="http://www.w3.org/2000/svg">
<path d="M7.02917 59.2492V59.1999L5.99508 58.9537V59.003C5.84735 59.5446 5.65038 59.9878 5.30569 60.2833C4.96099 60.5787 4.51781 60.7264 4.02539 60.7264C3.63145 60.7264 3.23751 60.628 2.89281 60.431C2.54812 60.234 2.3019 59.8893 2.10493 59.4954C1.90797 59.0522 1.85872 58.5598 1.85872 58.0181C1.85872 57.5749 1.90797 57.1317 2.05569 56.7378C2.20342 56.3439 2.44963 55.9992 2.79433 55.753C3.13902 55.5067 3.5822 55.4083 4.12387 55.4083C4.56705 55.4083 4.96099 55.5067 5.25645 55.753C5.5519 55.9499 5.79811 56.3439 5.94584 56.787V56.8363L6.97993 56.5901V56.5408C6.78296 55.9007 6.43826 55.4083 5.94584 55.0143C5.45341 54.6696 4.86251 54.4727 4.17311 54.4727C3.53296 54.4727 2.9913 54.6204 2.44963 54.8666C1.95721 55.1621 1.51403 55.556 1.21857 56.0977C0.923118 56.6393 0.775391 57.2795 0.775391 57.9689C0.775391 58.609 0.923117 59.2492 1.16933 59.8401C1.41554 60.431 1.80948 60.8742 2.25266 61.1696C2.74509 61.4651 3.33599 61.6128 4.12387 61.6128C4.86251 61.6128 5.50266 61.4158 5.99508 61.0219C6.48751 60.628 6.8322 60.037 7.02917 59.2492Z" fill="#B7B7B7"/>
<path d="M15.4322 54.8651C14.8905 54.5696 14.2996 54.4219 13.6594 54.4219C12.6746 54.4219 11.8375 54.7666 11.1973 55.4067C10.5572 56.0469 10.2617 56.9825 10.2617 58.1151C10.2617 58.706 10.4094 59.2969 10.6557 59.8385C10.9019 60.3802 11.3451 60.8234 11.8375 61.1188C12.3791 61.4635 12.9701 61.6113 13.6102 61.6113C14.2504 61.6113 14.792 61.4635 15.3337 61.1681C15.8754 60.8726 16.2693 60.4787 16.5647 59.8878C16.8602 59.3461 17.0079 58.706 17.0079 58.0166C17.0079 57.3272 16.8602 56.687 16.614 56.1454C16.3678 55.6037 15.9738 55.1605 15.4322 54.8651ZM15.3337 59.9863C14.8905 60.4295 14.3488 60.6757 13.6594 60.6757C13.0193 60.6757 12.4284 60.4295 11.9852 59.9863C11.542 59.5431 11.3451 58.9029 11.3451 58.0658C11.3451 57.081 11.5913 56.3423 12.0344 55.8991C12.4776 55.456 13.0685 55.259 13.6594 55.259C14.1026 55.259 14.4966 55.3575 14.8905 55.6037C15.2352 55.8007 15.5307 56.1454 15.7276 56.5393C15.9246 56.9332 16.0231 57.4257 16.0231 57.9673C15.9738 58.8537 15.7769 59.5431 15.3337 59.9863Z" fill="#B7B7B7"/>
<path d="M27.4692 54.6211H26.4844V61.6135H27.4692V54.6211Z" fill="#B7B7B7"/>
<path d="M24.1072 60.3332L23.8118 59.4961L22.1375 54.6211H22.0391V57.1325L23.5656 61.5643H24.5012L26.0769 57.1325V54.6703L24.4027 59.3976C24.3042 59.7915 24.2057 60.1362 24.1072 60.3332Z" fill="#B7B7B7"/>
<path d="M21.7646 54.6211H20.7305V61.6135H21.7646V54.6211Z" fill="#B7B7B7"/>
<path d="M32.1337 54.6211H31.0996V61.6135H32.1337V54.6211Z" fill="#B7B7B7"/>
<path d="M35.7485 55.015C35.5022 54.8673 35.2068 54.7196 34.8621 54.6703C34.6159 54.6211 34.2712 54.6211 33.7788 54.6211H32.4985V55.5567H33.828C34.2219 55.5567 34.5174 55.5567 34.6651 55.6059C34.9113 55.6552 35.0591 55.8029 35.2068 55.9999C35.3545 56.1968 35.4038 56.4431 35.4038 56.6893C35.4038 57.0832 35.3053 57.3294 35.0591 57.5756C34.8129 57.7726 34.4189 57.8711 33.828 57.8711H32.4492V58.8067H33.828C34.8129 58.8067 35.5515 58.6097 35.8962 58.1665C36.2901 57.7726 36.4871 57.2309 36.4871 56.64C36.4871 56.2953 36.4379 55.9506 36.2901 55.6552C36.1916 55.409 35.9947 55.212 35.7485 55.015Z" fill="#B7B7B7"/>
<path d="M43.987 54.6211H42.9036L40.1953 61.6135H41.2786L41.5741 60.7764L42.362 58.659L42.5097 58.2158L43.1006 56.6893C43.2483 56.3446 43.3468 55.9999 43.3961 55.6552C43.4945 55.9999 43.6423 56.3938 43.8392 56.837L44.5286 58.659H42.7559L42.4112 59.4961H44.8241L45.6612 61.5643H46.843L43.987 54.6211Z" fill="#B7B7B7"/>
<path d="M51.7461 56.8845L54.6022 61.0701V59.2974L51.7461 55.0625V56.8845Z" fill="#B7B7B7"/>
<path d="M54.998 59.89V59.8408V61.6135H56.0321V54.6211H54.998V59.89Z" fill="#B7B7B7"/>
<path d="M51.395 54.6211H50.4102V61.6135H51.395V54.6211Z" fill="#B7B7B7"/>
<path d="M63.6885 56.6869C63.4423 57.0809 63.1961 57.4748 62.9991 57.8195L62.4082 58.7058V61.6604H63.4423V58.7058L66.2984 54.668H65.0673L63.6885 56.6869Z" fill="#B7B7B7"/>
<path d="M62.2763 56.7385L60.8975 54.6211H59.6172L62.1285 58.3143L62.7195 57.4279L62.2763 56.7385Z" fill="#B7B7B7"/>
<path d="M0.775391 64.7635H1.51403V66.9302H2.0557V64.7635H2.84357V64.3203H0.775391V64.7635Z" fill="#B7B7B7"/>
<path d="M7.8238 64.3203H7.28214L6.24805 66.9302H6.78971L6.98668 66.3392H8.02077L8.26698 66.9302H8.85789L7.8238 64.3203ZM7.18365 65.8961L7.52835 64.9112L7.87305 65.8961H7.18365Z" fill="#B7B7B7"/>
<path d="M13.746 65.9954H14.3369V66.3401C14.1399 66.4878 13.9429 66.537 13.6967 66.537C13.4505 66.537 13.2536 66.4386 13.1551 66.2908C13.0073 66.1431 12.9581 65.8969 12.9581 65.6014C12.9581 65.0105 13.2043 64.7151 13.6967 64.7151C13.9922 64.7151 14.1892 64.8628 14.2876 65.109L14.8293 65.0105C14.7308 64.5181 14.3369 64.2227 13.6967 64.2227C13.352 64.2227 13.0073 64.3211 12.7611 64.5674C12.5149 64.8136 12.3672 65.109 12.3672 65.5522C12.3672 65.9461 12.4657 66.2908 12.7119 66.537C12.9581 66.7833 13.2536 66.931 13.6967 66.931C14.1399 66.931 14.5339 66.7833 14.8293 66.537V65.503H13.6967V65.9954H13.746Z" fill="#B7B7B7"/>
<path d="M20.6784 64.3203H20.1367V66.9302H21.9587V66.487H20.6784V64.3203Z" fill="#B7B7B7"/>
<path d="M26.2643 64.3203H25.7227V66.9302H26.2643V64.3203Z" fill="#B7B7B7"/>
<path d="M31.6226 66.093L30.5393 64.3203H30.0469V66.9302H30.5393V65.2559L31.5734 66.9302H32.1151V64.3203H31.6226V66.093Z" fill="#B7B7B7"/>
<path d="M36.5456 65.7976H37.8259V65.3544H36.5456V64.7635H37.9244V64.3203H36.0039V66.9302H37.9736V66.487H36.5456V65.7976Z" fill="#B7B7B7"/>
<path d="M48.1187 65.3544H47.0846V64.3203H46.543V66.9302H47.0846V65.7976H48.1187V66.9302H48.6604V64.3203H48.1187V65.3544Z" fill="#B7B7B7"/>
<path d="M53.0002 65.7976H54.3298V65.3544H53.0002V64.7635H54.4283V64.3203H52.5078V66.9302H54.4775V66.487H53.0002V65.7976Z" fill="#B7B7B7"/>
<path d="M59.6999 65.7976C60.1431 65.7483 60.3893 65.5021 60.3893 65.0589C60.3893 64.7635 60.2908 64.5665 60.1431 64.468C59.9954 64.3696 59.6999 64.3203 59.3552 64.3203H58.2227V66.9302H58.7643V65.8468H58.8628C59.0105 65.8468 59.109 65.8468 59.2075 65.8961C59.2567 65.9453 59.3552 65.9946 59.4045 66.093L59.9954 66.9302H60.6355L60.3401 66.4377C60.0939 66.093 59.8969 65.8961 59.6999 65.7976ZM59.2075 65.4529H58.8136V64.8127H59.2075C59.503 64.8127 59.6507 64.8127 59.7492 64.862C59.8477 64.9112 59.8477 65.0097 59.8477 65.1082C59.8477 65.2559 59.7984 65.3544 59.6999 65.4036C59.6507 65.4036 59.4537 65.4529 59.2075 65.4529Z" fill="#B7B7B7"/>
<path d="M64.7878 65.7976H66.1173V65.3544H64.7878V64.7635H66.2158V64.3203H64.2461V66.9302H66.265V66.487H64.7878V65.7976Z" fill="#B7B7B7"/>
<path d="M31.2506 39.3474V40.3815H31.2014V40.4307H30.1673H17.1673H15.9363L16.1825 39.1997C16.2317 39.0027 16.281 38.7565 16.3302 38.5595C16.3794 38.3626 16.4287 38.1656 16.4779 37.9686L16.5272 37.8701L16.5764 37.7717C16.6257 37.6239 16.6749 37.4762 16.7241 37.3285C16.7734 37.23 16.8226 37.0823 16.8226 36.9838C16.8719 36.836 16.9211 36.7376 16.9703 36.5898C17.0196 36.4421 17.1181 36.2451 17.1673 36.0974C17.2166 35.9497 17.2658 35.802 17.3643 35.6542C17.3643 35.605 17.4135 35.5557 17.4628 35.4573C17.512 35.3095 17.5613 35.1618 17.6597 35.0633C17.709 35.0141 17.709 34.9648 17.7582 34.9156C17.8075 34.7679 17.906 34.6694 17.9552 34.5217C17.9552 34.4724 18.0044 34.4232 18.0537 34.3247C18.1522 34.177 18.2506 34.0292 18.2999 33.8815C18.3984 33.7338 18.4476 33.586 18.5461 33.4383L18.5953 33.3891C18.6446 33.3398 18.6446 33.2906 18.6938 33.2413L18.7431 33.1921C18.8416 33.0444 18.94 32.8967 19.0385 32.7489C19.137 32.6012 19.2847 32.4042 19.3832 32.2565C19.4817 32.158 19.5802 32.0103 19.6787 31.8626L19.7279 31.8133C19.7772 31.7641 19.8264 31.7148 19.8264 31.6656C19.9249 31.5179 20.0234 31.4194 20.1219 31.2717C20.1711 31.2224 20.1711 31.2224 20.1711 31.2224C20.2696 31.0747 20.4173 30.9762 20.5158 30.8285C20.565 30.7792 20.565 30.73 20.6143 30.73C20.7128 30.5823 20.8605 30.4838 21.0082 30.2868C22.2885 29.0065 23.7166 27.9724 25.2431 27.1353H17.6597C15.69 29.1542 14.1143 31.4686 12.9817 34.0785C11.7999 36.836 11.209 39.7413 11.209 42.7451V44.7148V45.0595H35.7317V26.1012V25.0671V24.4762V21.3739V6.50272V5.46863H35.7809H36.815H49.8643H51.0953L50.8491 6.69969C50.1597 10.0974 48.4855 13.1997 46.0234 15.6618C45.4817 16.2035 44.94 16.6467 44.3984 17.0898H50.8491C52.1294 15.5141 53.2128 13.7414 54.0006 11.8209C55.1825 9.06333 55.7734 6.15802 55.7734 3.15424V0.839844H31.2506V39.3474Z" fill="#B7B7B7"/>
<path d="M15.7885 20.4955V19.4614V6.51065V5.27959L17.0196 5.52581C20.4173 6.2152 23.5688 7.88944 26.031 10.3516C26.1787 10.4993 26.3757 10.6963 26.5234 10.8932V4.73793C25.1938 3.75308 23.7166 2.9652 22.1901 2.32505C19.4325 1.14323 16.5272 0.601562 13.5234 0.601562H11.209V23.7455H26.5234V20.4955H16.8226H15.7885V20.4955Z" fill="#B7B7B7"/>
<path d="M50.8628 23.75V24.7841V39.1136V40.3447L49.6318 40.0985C46.234 39.4091 43.1317 37.7349 40.6204 35.2727C40.5711 35.2235 40.5219 35.1742 40.4727 35.125V41.0833C41.7037 41.9205 43.0333 42.6591 44.4613 43.25C47.2189 44.4318 50.1242 44.9735 53.128 44.9735H55.4424V20.5H40.5219V23.75H49.878H50.8628V23.75Z" fill="#B7B7B7"/>
</svg>
