<svg width="162" height="107" viewBox="0 0 162 107" fill="none" xmlns="http://www.w3.org/2000/svg">
<g clip-path="url(#clip0_848_274)">
<path d="M161.114 43.2112L135.732 2.69212C134.048 -1.13913e-05 130.495 -0.812546 127.819 0.89084L118.349 6.89185C117.055 7.71417 116.149 8.9966 115.809 10.4944C115.624 11.3069 115.624 12.1293 115.789 12.9222C111.809 13.9599 101.103 16.6129 91.4286 17.6212C90.2996 17.7387 89.1609 17.8464 87.9929 17.9443C80.382 18.6393 72.1092 19.3931 64.693 24.1019L45.8895 13.9893C46.9503 11.4342 46.0549 8.40923 43.6607 6.89185L34.1908 0.89084C31.5143 -0.812546 27.9619 -1.13913e-05 26.2782 2.69212L0.88569 43.2112C0.0681474 44.5132 -0.194634 46.0599 0.146009 47.5675C0.486651 49.0751 1.38206 50.3478 2.68623 51.1701L12.1561 57.1711C13.1002 57.7682 14.161 58.0619 15.2024 58.0619C16.7694 58.0619 18.3071 57.406 19.4167 56.2019L28.8476 62.5651L26.3268 66.5299C25.0908 68.478 24.6723 70.7982 25.1687 73.0693C25.665 75.3405 26.9984 77.2789 28.9352 78.5221C30.3756 79.4521 31.9815 79.8927 33.5777 79.8927C33.8891 79.8927 34.1908 79.8731 34.5023 79.8339C34.3076 80.9499 34.3271 82.0953 34.5704 83.2407C35.0668 85.5119 36.4001 87.4502 38.3369 88.6935C39.7384 89.5941 41.3346 90.064 42.9697 90.064C43.3201 90.064 43.6802 90.0347 44.0305 89.9955C43.8748 91.0234 43.904 92.0905 44.1376 93.138C44.634 95.4091 45.9673 97.3475 47.9041 98.5907C49.3056 99.4914 50.9018 99.9613 52.5369 99.9613C53.1598 99.9613 53.7827 99.8928 54.4153 99.7557C56.5273 99.2858 58.3473 98.0719 59.5833 96.3294C60.2646 97.8761 61.3741 99.1977 62.8146 100.128C64.2161 101.028 65.8122 101.498 67.4473 101.498C68.0702 101.498 68.6931 101.43 69.3257 101.293C71.5837 100.793 73.5107 99.4522 74.7468 97.5041L74.7857 97.4454L84.8006 104.357C86.8347 106.109 89.3847 106.99 91.8276 106.99C94.0856 106.99 96.2559 106.227 97.8326 104.699C99.5942 102.996 100.49 100.421 100.295 97.651C100.285 97.4454 100.246 97.2496 100.217 97.0538C100.957 97.2202 101.706 97.3181 102.465 97.3181C102.923 97.3181 103.38 97.2887 103.838 97.2202C106.553 96.8482 108.869 95.4189 110.222 93.3044C111.273 91.6499 111.78 89.5941 111.604 87.5383C112.334 87.6852 113.074 87.7733 113.833 87.7733C114.057 87.7733 114.281 87.7635 114.505 87.7537C116.938 87.6069 119.021 86.6573 120.373 85.0909C121.921 83.2994 122.593 80.8129 122.242 78.2578C123.196 78.4732 124.169 78.5809 125.133 78.5809C126.174 78.5809 127.206 78.4536 128.199 78.1991C130.778 77.5334 132.792 76.0454 133.727 74.1168C135.128 71.2191 134.398 66.9704 131.517 63.6714L141.386 54.43L141.96 55.3502C143.051 57.0928 144.919 58.0424 146.827 58.0424C147.868 58.0424 148.929 57.7585 149.873 57.1515L159.343 51.1505C160.637 50.3282 161.543 49.0457 161.883 47.5479C162.195 46.0697 161.932 44.523 161.114 43.2112ZM14.2292 53.8622L4.75929 47.8612C4.34078 47.5969 4.0488 47.1857 3.94174 46.706C3.83468 46.2263 3.91254 45.7271 4.17533 45.3061L29.5678 4.7773C30.1128 3.91582 31.2516 3.6515 32.108 4.19971L41.5779 10.2007C42.4344 10.7489 42.6972 11.8943 42.1521 12.7558L17.5285 52.0609C17.4215 52.1588 17.3339 52.2665 17.2463 52.3938C17.149 52.5406 17.0808 52.707 17.0224 52.8637L16.7596 53.2846C16.2243 54.1461 15.0856 54.4104 14.2292 53.8622ZM31.0374 75.2328C29.9766 74.5476 29.2466 73.4805 28.9741 72.2372C28.7016 70.9842 28.9255 69.7115 29.6067 68.6445L37.1009 56.8774C38.006 55.4579 39.534 54.6845 41.101 54.6845C41.9769 54.6845 42.8626 54.9293 43.651 55.4383C45.8505 56.8578 46.4929 59.8045 45.0914 62.0169L37.5875 73.7938C36.1666 76.0062 33.2273 76.6523 31.0374 75.2328ZM40.4392 85.414C39.3783 84.7287 38.6484 83.6617 38.3759 82.4184C38.1034 81.1653 38.3272 79.8927 39.0085 78.8256L40.8577 75.9181C40.8577 75.9181 40.8577 75.9083 40.8674 75.9083L48.3616 64.151C48.3616 64.1412 48.3713 64.1413 48.3713 64.1315L50.7266 60.431C51.6317 59.0115 53.1598 58.2381 54.7267 58.2381C55.6027 58.2381 56.4883 58.4829 57.2767 58.9919C58.3375 59.6772 59.0675 60.7443 59.34 61.9875C59.6028 63.1917 59.3887 64.4056 58.7755 65.4531L46.9017 84.0924C46.2204 85.0909 45.2082 85.7958 44.0111 86.0601C42.7653 86.3244 41.5 86.0895 40.4392 85.414ZM56.5467 93.8722C55.8654 94.9392 54.8046 95.6735 53.5685 95.9476C52.3228 96.2217 51.0575 95.9965 49.9967 95.3112C48.9358 94.626 48.2058 93.5589 47.9333 92.3156C47.6608 91.0626 47.8847 89.7899 48.566 88.7229L50.094 86.3146C50.1524 86.2363 50.2108 86.158 50.2594 86.0797L61.9775 67.6851C62.0262 67.6068 62.0749 67.5187 62.1235 67.4305L63.1844 65.7565C63.8657 64.6895 64.9265 63.9553 66.1626 63.6811C66.5032 63.6028 66.8536 63.5637 67.1943 63.5637C68.0897 63.5637 68.9656 63.8182 69.7345 64.3077C70.7953 64.9929 71.5253 66.06 71.7978 67.3033C72.0703 68.5563 71.8465 69.829 71.1652 70.8961L67.7295 76.2901C67.7101 76.3195 67.6906 76.3489 67.6712 76.3684L60.177 88.1257C60.1575 88.1551 60.1478 88.1844 60.1283 88.2138L56.5467 93.8722ZM68.479 97.4747C67.2332 97.7488 65.9679 97.5237 64.9071 96.8384C63.8462 96.1531 63.1163 95.0861 62.8438 93.8428C62.5712 92.6093 62.7951 91.3563 63.4569 90.299L71.0094 78.4536C71.6907 77.4061 72.7321 76.6915 73.9584 76.4174C74.2991 76.3391 74.6495 76.2999 74.9901 76.2999C75.8855 76.2999 76.7615 76.5544 77.5303 77.0439C78.5912 77.7292 79.3211 78.7962 79.5937 80.0395C79.8662 81.2926 79.6423 82.5652 78.961 83.6323L71.4669 95.3896C70.7759 96.4664 69.715 97.2006 68.479 97.4747ZM130.203 72.4232C129.775 73.3043 128.656 74.0483 127.206 74.4301C124.773 75.0664 121.999 74.528 119.712 73.0302C119.157 72.4428 118.544 71.9142 117.853 71.4736L101.658 60.8911C100.752 60.3037 99.5553 60.5583 98.9616 61.4687C98.3777 62.3791 98.6307 63.593 99.5359 64.1804L115.76 74.7825C116.072 74.9783 116.364 75.2133 116.626 75.458C116.763 75.6832 116.938 75.8887 117.171 76.0454C117.171 76.0454 117.181 76.0454 117.181 76.0552C117.804 76.8383 118.223 77.7683 118.378 78.7767C118.592 80.2059 118.232 81.6156 117.424 82.5456C116.772 83.2994 115.624 83.7791 114.261 83.8672C112.441 83.9749 110.621 83.368 109.376 82.2422C109.298 82.1736 109.22 82.1149 109.132 82.066C108.626 81.5275 108.042 81.0185 107.361 80.5682L95.9542 72.6386C95.0686 72.0219 93.8617 72.247 93.2486 73.1379C92.6354 74.0287 92.8593 75.2426 93.7449 75.8594L105.171 83.7889C108.013 85.6783 108.295 89.0361 106.923 91.1996C106.203 92.3254 104.85 93.1282 103.293 93.3435C101.473 93.5981 99.6332 93.0205 98.2414 91.7772C98.076 91.6304 97.891 91.5227 97.6964 91.4444C97.1514 90.808 96.5285 90.2207 95.8277 89.7116L89.2095 84.8462C88.3433 84.2099 87.1267 84.3959 86.4844 85.2671C85.8517 86.1384 86.0367 87.3621 86.9029 87.9984L93.5211 92.8736C95.1854 94.0876 96.2268 95.928 96.363 97.9348C96.4701 99.5306 95.9932 101.009 95.088 101.89C93.4335 103.495 89.8811 103.662 87.2338 101.332C87.1754 101.283 87.117 101.234 87.0586 101.195L76.849 94.1561L82.202 85.7468C83.438 83.7987 83.8566 81.4786 83.3602 79.2074C82.8638 76.9362 81.5304 74.9979 79.5937 73.7546C78.1046 72.7952 76.4403 72.3547 74.7954 72.3841C75.7493 70.573 76.0315 68.5074 75.5935 66.481C75.0972 64.2098 73.7638 62.2714 71.827 61.0282C69.8902 59.7751 67.5836 59.3737 65.3256 59.8632C64.508 60.0394 63.7294 60.3429 63.0189 60.7345C62.4544 58.6493 61.1795 56.8676 59.3595 55.6929C56.099 53.5881 51.9432 53.9797 49.1207 56.3781C48.4881 54.6943 47.3396 53.1965 45.724 52.1588C41.7142 49.5744 36.3612 50.7589 33.7918 54.7824L30.9207 59.2856L21.5481 52.9616L43.8554 17.3569L61.1892 26.6766C58.6587 28.8303 56.2742 31.5616 54.0941 35.0564C52.6731 37.3374 52.1768 40.0785 52.7413 42.565C53.3252 45.1299 54.8922 46.8137 57.5297 47.6948C61.3449 48.9772 65.637 48.429 69.2965 46.197C70.0362 45.7467 70.7759 45.2768 71.5253 44.7971C76.158 41.8406 80.5377 39.0506 84.4405 40.9791C85.7155 41.6057 87.1462 42.4867 88.6645 43.4167C92.1877 45.5802 96.3727 48.1451 101.482 49.4569L125.824 64.1412C129.892 66.3341 131.128 70.5143 130.203 72.4232ZM128.49 61.1554C128.267 61.0086 128.033 60.8715 127.799 60.7345L110.388 50.2205C113.269 50.0051 116.383 49.3198 119.76 48.008C120.763 47.6165 121.259 46.4809 120.87 45.4725C120.481 44.4642 119.352 43.965 118.349 44.3565C105.745 49.2807 97.4239 44.1705 90.7375 40.0589C89.1414 39.08 87.6328 38.1499 86.1924 37.4451C80.3333 34.567 74.5716 38.2381 69.4814 41.4784C68.7515 41.9385 68.0313 42.4084 67.311 42.8391C64.6248 44.474 61.5201 44.8852 58.795 43.9747C57.4324 43.5146 56.8484 42.9175 56.5662 41.684C56.2255 40.2058 56.537 38.5415 57.4227 37.1318C65.676 23.9061 77.1994 22.8586 88.3433 21.8503C89.521 21.7426 90.6889 21.6349 91.8276 21.5175C102.65 20.3819 114.349 17.3667 117.59 16.4954L139.255 51.0722L128.49 61.1554ZM158.058 46.706C157.951 47.1857 157.659 47.5969 157.241 47.8612L147.771 53.8622C146.914 54.4104 145.766 54.1461 145.231 53.2846L143.625 50.7198C143.537 50.475 143.401 50.2401 143.216 50.0443C143.206 50.0345 143.187 50.0247 143.177 50.0149L119.838 12.7656C119.575 12.3446 119.488 11.8454 119.605 11.3657C119.712 10.886 120.004 10.4748 120.422 10.2105L129.892 4.2095C130.194 4.01371 130.534 3.92561 130.875 3.92561C131.488 3.92561 132.092 4.22908 132.442 4.78709L157.834 45.3061C158.087 45.7271 158.175 46.2165 158.058 46.706Z" fill="#1CA596"/>
</g>
<defs>
<clipPath id="clip0_848_274">
<rect width="162" height="107" fill="white"/>
</clipPath>
</defs>
</svg>
