<svg width="132" height="137" viewBox="0 0 132 137" fill="none" xmlns="http://www.w3.org/2000/svg">
<g clip-path="url(#clip0_848_285)">
<path d="M39.1615 119.468C39.0624 119.477 38.922 119.493 38.7238 119.51C29.1198 120.534 20.0608 118.51 13.2232 113.812C12.9011 113.589 12.5956 113.366 12.29 113.143C3.70172 106.701 1.13348 94.9256 6.17085 85.1233L30.5732 37.6812L36.2712 53.3301C36.5107 53.999 37.1466 54.4201 37.8237 54.4201C38.0137 54.4201 38.2036 54.3871 38.3853 54.321C39.2441 54.0072 39.6818 53.0576 39.368 52.207L32.4478 33.1971C32.1505 32.3878 31.2917 31.9501 30.4659 32.1649L10.6715 37.5325C9.78785 37.772 9.2676 38.6804 9.50708 39.5558C9.74656 40.4394 10.6549 40.9514 11.5303 40.7201L27.5178 36.3847L3.23101 83.6204C-2.54958 94.8512 0.423294 108.386 10.3081 115.793C10.6467 116.049 10.9935 116.297 11.3486 116.545C17.5834 120.823 25.445 123.085 33.8929 123.085C35.6023 123.085 37.3282 122.994 39.0789 122.805C39.2358 122.788 39.3514 122.771 39.4258 122.771C40.3341 122.697 41.0113 121.904 40.937 120.996C40.8627 120.079 40.0534 119.377 39.1615 119.468Z" fill="#1CA596"/>
<path d="M55.917 5.12821C65.744 0.817539 77.2721 4.36847 83.3252 13.5679L112.641 58.1362L96.2077 55.4111C95.2993 55.2624 94.457 55.8735 94.3084 56.7654C94.1597 57.6655 94.7708 58.5161 95.6627 58.6647L115.622 61.9762C115.713 61.9927 115.804 62.001 115.895 62.001C116.638 62.001 117.307 61.4972 117.497 60.754L122.551 40.877C122.774 39.9934 122.237 39.0933 121.353 38.8703C120.47 38.6474 119.57 39.1841 119.347 40.0677L115.259 56.1295L86.0751 11.7594C79.1384 1.19741 65.8926 -2.85727 54.5874 2.10578C54.1993 2.2792 53.8112 2.45262 53.4231 2.65081C45.2642 6.64768 38.4844 14.1294 34.3471 23.7169C34.2893 23.8573 34.2398 23.9647 34.2067 24.039C33.8269 24.8648 34.182 25.8475 35.0078 26.2356C35.8336 26.6155 36.8163 26.2604 37.2044 25.4346C37.2457 25.3438 37.3035 25.2116 37.3778 25.03C41.2095 16.1609 47.4195 9.27372 54.8765 5.62369C55.2233 5.44201 55.5701 5.27685 55.917 5.12821Z" fill="#1CA596"/>
<path d="M124.285 72.1253C124.202 71.9931 124.136 71.894 124.095 71.828C123.616 71.0517 122.6 70.8122 121.824 71.2995C121.048 71.7784 120.808 72.8024 121.295 73.5704C121.345 73.653 121.428 73.7769 121.535 73.942C126.845 82.0018 129.207 90.9783 128.166 99.2197C128.117 99.5996 128.059 99.9795 128.001 100.351C126.217 110.93 116.927 118.626 105.911 118.634L52.5642 118.7L63.8611 106.462C64.4805 105.793 64.4392 104.744 63.7703 104.125C63.1014 103.506 62.0526 103.547 61.4333 104.216L47.7003 119.097C47.114 119.724 47.1139 120.699 47.692 121.335L61.5407 136.463C61.8627 136.818 62.3086 137 62.7628 137C63.1592 137 63.5639 136.86 63.8777 136.571C64.5466 135.951 64.5961 134.911 63.985 134.234L52.7954 122.012L105.903 121.946C118.537 121.929 129.198 113.077 131.246 100.904C131.321 100.483 131.378 100.062 131.436 99.6326C132.568 90.6149 130.032 80.8457 124.285 72.1253Z" fill="#1CA596"/>
</g>
<defs>
<clipPath id="clip0_848_285">
<rect width="131.401" height="137" fill="white" transform="translate(0.299438)"/>
</clipPath>
</defs>
</svg>
