<svg width="168" height="137" viewBox="0 0 168 137" fill="none" xmlns="http://www.w3.org/2000/svg">
<g clip-path="url(#clip0_848_225)">
<path d="M75.3199 111.724C75.3199 113.164 76.4899 114.334 77.9299 114.334C79.3699 114.334 80.5399 113.164 80.5399 111.724C80.5399 110.284 79.3699 109.114 77.9299 109.114C76.4899 109.114 75.3199 110.284 75.3199 111.724Z" fill="#1CA596"/>
<path d="M151.65 115.193C151.65 116.723 150.4 117.973 148.87 117.973H6.97999C5.44999 117.973 4.19999 116.723 4.19999 115.193V25.9062C4.19999 24.3764 5.44999 23.1266 6.97999 23.1266H103V19.0472H6.97999C3.18999 19.0472 0.109985 22.1268 0.109985 25.9162V115.203C0.109985 118.993 3.18999 122.072 6.97999 122.072H59V132.931H51.87C50.74 132.931 49.83 133.84 49.83 134.97C49.83 136.1 50.74 137.01 51.87 137.01H103.99C105.12 137.01 106.03 136.1 106.03 134.97C106.03 133.84 105.12 132.931 103.99 132.931H95.66V122.072H148.88C152.67 122.072 155.75 118.993 155.75 115.203V65.8604H151.67V115.193H151.65ZM63.08 132.921V122.062H91.57V132.921H63.08Z" fill="#1CA596"/>
<path d="M143.99 97.5857V67.2802H139.91V97.5857C139.91 98.7056 138.95 99.6255 137.79 99.6255H18.07C16.9 99.6255 15.95 98.7056 15.95 97.5857V38.4744C15.95 37.3545 16.91 36.4347 18.07 36.4347H103V32.5052H18.07C14.65 32.5052 11.86 35.1849 11.86 38.4744V97.5857C11.86 100.875 14.64 103.555 18.07 103.555H137.79C141.2 103.565 143.99 100.885 143.99 97.5857Z" fill="#1CA596"/>
<path d="M164.38 20.647C163.54 20.527 162.83 19.9671 162.53 19.1872C162.09 18.0474 162.9 16.9075 162.94 16.8675C164.23 15.2478 164.05 12.9681 162.59 11.4983L159.68 8.58875L156.66 5.56919C155.87 4.7793 154.82 4.36936 153.77 4.36936C152.97 4.36936 152.16 4.60933 151.45 5.08926C151.45 5.08926 150.65 5.57919 149.7 5.57919C149.35 5.57919 149.02 5.5092 148.7 5.36922C147.42 4.7993 147.09 3.34951 147.08 3.28952C146.67 1.40979 145 0 143.08 0H135.2C133.15 0 131.41 1.52978 131.15 3.55948C131.05 4.36936 130.51 5.05926 129.75 5.35922C129.5 5.4592 129.23 5.5092 128.95 5.5092C128.43 5.5092 127.92 5.32922 127.52 4.99927C126.76 4.37936 125.84 4.06941 124.92 4.06941C123.87 4.06941 122.83 4.46935 122.03 5.26923L118.06 9.23865L116.07 11.2284C114.65 12.6482 114.47 14.8778 115.65 16.5076C115.66 16.5176 116.48 17.7674 115.96 19.0472C115.44 20.337 113.94 20.647 113.87 20.667C111.89 20.9869 110.5 22.6867 110.5 24.6864V32.6952C110.5 34.6849 111.94 36.3947 113.91 36.7246C114.74 36.8646 115.44 37.4345 115.72 38.2044C116.13 39.3143 115.36 40.4141 115.33 40.4541C114.07 42.0839 114.25 44.3435 115.71 45.7933L118.72 48.8029L121.73 51.8124C122.52 52.6023 123.57 53.0123 124.62 53.0123C125.53 53.0123 126.44 52.7123 127.19 52.1024C127.54 51.8224 127.98 51.6625 128.43 51.6625C128.71 51.6625 128.98 51.7224 129.23 51.8424C129.87 52.1424 130.3 52.7923 130.33 53.5122C130.44 55.6919 132.23 57.3916 134.41 57.3916H143.19C145.17 57.3916 146.86 55.9718 147.21 54.0321C147.22 54.0021 147.54 52.5223 148.85 51.9624C149.17 51.8224 149.49 51.7624 149.83 51.7624C150.77 51.7624 151.55 52.2524 151.56 52.2624C152.25 52.7423 153.04 52.9723 153.83 52.9723C154.88 52.9723 155.93 52.5623 156.72 51.7624L159.52 48.9628L162.31 46.1733C163.73 44.7535 163.91 42.5138 162.72 40.884C162.13 40.0641 162.01 39.0143 162.41 38.1344C162.98 36.9046 164.42 36.6147 164.48 36.6047C166.45 36.2747 167.87 34.575 167.87 32.5852V24.7164C167.89 22.6567 166.4 20.9269 164.38 20.647ZM163.81 32.5552C163.53 32.6052 160.19 33.2151 158.72 36.3947C157.7 38.6144 157.97 41.254 159.43 43.2537C157.57 45.1134 155.7 46.9831 153.84 48.8429C153.7 48.7429 152.05 47.653 149.83 47.653C149.03 47.653 148.15 47.793 147.25 48.183C143.92 49.6028 143.24 53.0323 143.2 53.2822C140.27 53.2822 137.34 53.2822 134.42 53.2822C134.31 51.0525 132.98 49.0528 130.97 48.113C130.16 47.733 129.3 47.5531 128.44 47.5531C127.08 47.5531 125.73 48.013 124.63 48.9029C122.62 46.8932 120.62 44.8934 118.61 42.8837C118.74 42.7138 120.75 40.0142 119.57 36.7746C118.78 34.6249 116.88 33.0552 114.6 32.6652V24.6564C114.79 24.6264 118.37 23.9865 119.76 20.557C121.13 17.1775 119.1 14.2779 118.97 14.0979C120.96 12.1082 122.94 10.1285 124.93 8.13881C126.08 9.08867 127.51 9.5786 128.95 9.5786C129.72 9.5786 130.49 9.43862 131.22 9.15866C133.37 8.32878 134.9 6.36907 135.2 4.06941C137.83 4.06941 140.45 4.06941 143.08 4.06941C143.14 4.36936 143.84 7.65888 147.05 9.08867C147.98 9.49861 148.88 9.64859 149.71 9.64859C151.96 9.64859 153.65 8.52875 153.78 8.43877C155.75 10.4085 157.73 12.3882 159.7 14.3579C159.6 14.4879 157.45 17.2875 158.72 20.617C159.55 22.7867 161.5 24.3364 163.81 24.6664C163.81 27.306 163.81 29.9256 163.81 32.5552Z" fill="#1CA596"/>
<path d="M139.2 16.6576C132.57 16.6576 127.17 22.0568 127.17 28.6858C127.17 35.3148 132.57 40.7141 139.2 40.7141C145.83 40.7141 151.23 35.3148 151.23 28.6858C151.23 22.0568 145.84 16.6576 139.2 16.6576ZM139.2 36.6346C134.81 36.6346 131.25 33.0752 131.25 28.6858C131.25 24.2964 134.81 20.737 139.2 20.737C143.59 20.737 147.15 24.2964 147.15 28.6858C147.15 33.0752 143.59 36.6346 139.2 36.6346Z" fill="#1CA596"/>
</g>
<defs>
<clipPath id="clip0_848_225">
<rect width="167.78" height="137" fill="white" transform="translate(0.109985)"/>
</clipPath>
</defs>
</svg>
