<svg width="116" height="137" viewBox="0 0 116 137" fill="none" xmlns="http://www.w3.org/2000/svg">
<g clip-path="url(#clip0_848_250)">
<path d="M35.8844 136.819H5.2628C2.48499 136.819 0.224945 134.559 0.224945 131.781V80.2358C0.224945 77.458 2.48499 75.198 5.2628 75.198H35.8762C38.654 75.198 40.914 77.458 40.914 80.2358V131.773C40.9222 134.559 38.6622 136.819 35.8844 136.819ZM5.2628 78.4853C4.30125 78.4853 3.51229 79.2743 3.51229 80.2358V131.773C3.51229 132.743 4.30125 133.524 5.2628 133.524H35.8762C36.8459 133.524 37.6267 132.735 37.6267 131.773V80.2358C37.6267 79.2661 36.8377 78.4853 35.8762 78.4853H5.2628Z" fill="#1CA596"/>
<path d="M109.866 42.0204H80.9785C77.724 42.0204 75.0777 44.6668 75.0777 47.9212V59.9365C74.4038 59.6324 73.6559 59.468 72.867 59.468H43.1083C40.0922 59.468 37.6349 61.9253 37.6349 64.9414V131.354C37.6349 134.37 40.0922 136.827 43.1083 136.827H72.867C74.3792 136.827 75.7516 136.211 76.746 135.208C77.8227 136.318 79.3184 137.008 80.9785 137.008H109.874C113.129 137.008 115.775 134.362 115.775 131.107V47.9212C115.775 44.6668 113.12 42.0204 109.866 42.0204ZM75.0448 131.346C75.0448 132.546 74.0669 133.532 72.8588 133.532H43.1083C41.9084 133.532 40.9222 132.554 40.9222 131.346V64.9332C40.9222 63.7333 41.9002 62.7471 43.1083 62.7471H72.867C74.0669 62.7471 75.0531 63.7251 75.0531 64.9332V131.346H75.0448ZM112.488 131.099C112.488 132.537 111.312 133.713 109.874 133.713H80.9785C79.5403 133.713 78.3651 132.537 78.3651 131.099V47.9212C78.3651 46.483 79.5403 45.3078 80.9785 45.3078H109.874C111.312 45.3078 112.488 46.483 112.488 47.9212V131.099Z" fill="#1CA596"/>
<path d="M84.4549 28.641C84.2165 29.5203 84.7261 30.4244 85.6054 30.6627C85.7534 30.7038 85.8931 30.7202 86.041 30.7202C86.7642 30.7202 87.4217 30.2436 87.6272 29.5121L93.5444 7.90606C93.6594 7.48692 93.6019 7.03492 93.3882 6.65687C93.1745 6.27883 92.8129 5.9994 92.3856 5.88435L70.7466 0.0575307C69.8673 -0.180802 68.9715 0.345173 68.7331 1.21632C68.4948 2.08746 69.0208 2.99148 69.8919 3.22982L87.7751 8.03755L5.04089 55.2685C4.25193 55.7205 3.98072 56.7231 4.42451 57.5121C4.72859 58.0463 5.27922 58.3421 5.85451 58.3421C6.13393 58.3421 6.41335 58.2764 6.66812 58.1284L89.2955 10.9633L84.4549 28.641Z" fill="#1CA596"/>
</g>
<defs>
<clipPath id="clip0_848_250">
<rect width="115.55" height="137" fill="white" transform="translate(0.224945)"/>
</clipPath>
</defs>
</svg>
