<?xml version="1.0" encoding="UTF-8"?>
<svg xmlns="http://www.w3.org/2000/svg" version="1.1" xmlns:xlink="http://www.w3.org/1999/xlink" viewBox="0 0 1495.2 495.9">
  <defs>
    <style>
      .cls-1 {
        fill: #4dbfff;
        isolation: isolate;
        opacity: .3;
      }

      .cls-2 {
        stroke: url(#linear-gradient-9);
      }

      .cls-2, .cls-3, .cls-4, .cls-5, .cls-6, .cls-7, .cls-8 {
        fill: none;
        stroke-linecap: round;
        stroke-linejoin: round;
        stroke-width: 4px;
      }

      .cls-9 {
        fill: #fcfcfc;
      }

      .cls-3 {
        stroke: url(#linear-gradient-7);
      }

      .cls-10 {
        fill: #0092f0;
      }

      .cls-11 {
        fill: #444346;
      }

      .cls-12 {
        fill: url(#linear-gradient-5);
      }

      .cls-4 {
        stroke: url(#linear-gradient-8);
      }

      .cls-13 {
        fill: url(#linear-gradient-6);
      }

      .cls-5 {
        stroke: url(#linear-gradient);
      }

      .cls-6 {
        stroke: url(#linear-gradient-3);
      }

      .cls-7 {
        stroke: url(#linear-gradient-2);
      }

      .cls-8 {
        stroke: url(#linear-gradient-4);
      }
    </style>
    <linearGradient id="linear-gradient" x1="445" y1="496.5" x2="445" y2="459" gradientTransform="translate(0 519.3) scale(1 -1)" gradientUnits="userSpaceOnUse">
      <stop offset="0" stop-color="#fff"/>
      <stop offset="1" stop-color="#bdbdbd"/>
    </linearGradient>
    <linearGradient id="linear-gradient-2" x1="647" y1="314.5" x2="647" y2="272.9" gradientTransform="translate(0 519.3) scale(1 -1)" gradientUnits="userSpaceOnUse">
      <stop offset="0" stop-color="#fff"/>
      <stop offset="1" stop-color="#bdbdbd"/>
    </linearGradient>
    <linearGradient id="linear-gradient-3" x1="278" y1="314.5" x2="278" y2="277" gradientTransform="translate(0 519.3) scale(1 -1)" gradientUnits="userSpaceOnUse">
      <stop offset="0" stop-color="#fff"/>
      <stop offset="1" stop-color="#bdbdbd"/>
    </linearGradient>
    <linearGradient id="linear-gradient-4" x1="444.9" y1="132.6" x2="444.9" y2="90.9" gradientTransform="translate(0 519.3) scale(1 -1)" gradientUnits="userSpaceOnUse">
      <stop offset="0" stop-color="#fff"/>
      <stop offset="1" stop-color="#bdbdbd"/>
    </linearGradient>
    <linearGradient id="linear-gradient-5" x1="1180.1" y1="136.9" x2="1180.1" y2="86.1" gradientTransform="translate(0 519.3) scale(1 -1)" gradientUnits="userSpaceOnUse">
      <stop offset="0" stop-color="#fff"/>
      <stop offset="1" stop-color="#bdbdbd"/>
    </linearGradient>
    <linearGradient id="linear-gradient-6" x1="1168.9" y1="142.8" x2="1168.9" y2="91.9" gradientTransform="translate(0 519.3) scale(1 -1)" gradientUnits="userSpaceOnUse">
      <stop offset="0" stop-color="#fff"/>
      <stop offset="1" stop-color="#bdbdbd"/>
    </linearGradient>
    <linearGradient id="linear-gradient-7" x1="812" y1="134.5" x2="812" y2="92.9" gradientTransform="translate(0 519.3) scale(1 -1)" gradientUnits="userSpaceOnUse">
      <stop offset="0" stop-color="#fff"/>
      <stop offset="1" stop-color="#bdbdbd"/>
    </linearGradient>
    <linearGradient id="linear-gradient-8" x1="810.7" y1="498.8" x2="810.7" y2="457.1" gradientTransform="translate(0 519.3) scale(1 -1)" gradientUnits="userSpaceOnUse">
      <stop offset="0" stop-color="#fff"/>
      <stop offset="1" stop-color="#bdbdbd"/>
    </linearGradient>
    <linearGradient id="linear-gradient-9" x1="99" y1="498" x2="99" y2="459" gradientTransform="translate(0 519.3) scale(1 -1)" gradientUnits="userSpaceOnUse">
      <stop offset="0" stop-color="#fff"/>
      <stop offset="1" stop-color="#bdbdbd"/>
    </linearGradient>
  </defs>
  <!-- Generator: Adobe Illustrator 28.7.1, SVG Export Plug-In . SVG Version: 1.2.0 Build 142)  -->
  <g>
    <g id="Layer_1">
      <path class="cls-10" d="M457.1,97.6h-128.1v6h128.1v-6Z"/>
      <path class="cls-10" d="M128.1,97.6H0v6h128.1v-6Z"/>
      <path class="cls-10" d="M808.1,97.6h-128.1v6h128.1v-6Z"/>
      <path class="cls-10" d="M808.1,468.9h-128.1v6h128.1v-6Z"/>
      <path class="cls-10" d="M956.5,282h-128.1v6h128.1v-6Z"/>
      <path class="cls-10" d="M442.5,468.9h-128.1v6h128.1v-6Z"/>
      <path class="cls-10" d="M641.2,282h-128.1v6h128.1v-6Z"/>
      <path class="cls-10" d="M950.5,114.6v173.3h6V114.6h-6Z"/>
      <path class="cls-10" d="M314.3,301.5v173.3h6v-173.3h-6Z"/>
      <path class="cls-9" d="M438.9,47.7h185.7c38.4,0,69.5,31.1,69.5,69.4v10.3h-255.2V47.7h0Z"/>
      <path class="cls-10" d="M484.8,14.7v54.4c0,3-1.1,5.8-2.9,7.9-2.2,2.6-5.5,4.2-9.2,4.2h-54.5c-6.7,0-12.2-5.4-12.2-12.1V14.7c0-3.6,1.6-6.9,4.1-9.1,2.1-1.9,5-3.1,8.1-3.1h54.5c6.7,0,12.2,5.4,12.2,12.1Z"/>
      <path class="cls-1" d="M484.5,14.7v54.4c0,3-1.1,5.8-2.9,7.9L409.8,5.6c2.1-1.9,5-3.1,8.1-3.1h54.5c6.7,0,12.2,5.4,12.2,12.1h0Z"/>
      <path class="cls-5" d="M463.8,60.3l-12.5-12.5M463.8,60.3v-10M463.8,60.3h-10M426.2,50.3v10M426.2,60.3h10M426.2,60.3l12.5-12.5M463.8,32.8v-10M463.8,22.8h-10M463.8,22.8l-12.5,12.5M426.2,32.8v-10M426.2,22.8h10M426.2,22.8l12.5,12.5"/>
      <path class="cls-9" d="M641.2,231.1h185.7c38.4,0,69.5,31.1,69.5,69.4v10.3h-255.2v-79.7h0Z"/>
      <path class="cls-10" d="M686.8,197.7v54.4c0,3-1.1,5.8-2.9,7.9-2.2,2.6-5.5,4.2-9.2,4.2h-54.5c-6.7,0-12.2-5.4-12.2-12.1v-54.4c0-3.6,1.6-6.9,4.1-9.1,2.2-1.9,5-3.1,8.1-3.1h54.5c6.7,0,12.2,5.4,12.2,12.1h0Z"/>
      <path class="cls-1" d="M686.8,198.1v54.4c0,3-1.1,5.8-2.9,7.9l-71.8-71.4c2.1-1.9,5-3.1,8.1-3.1h54.5c6.7,0,12.2,5.4,12.2,12.1h0Z"/>
      <path class="cls-7" d="M666.2,233.7c-1.3,3.1-3.4,5.9-6,8-2.6,2.1-5.8,3.6-9.1,4.3s-6.8.5-10-.5c-3.3-1-6.2-2.7-8.6-5.1-2.4-2.4-4.2-5.3-5.2-8.6-1-3.2-1.2-6.7-.6-10,.6-3.3,2.1-6.5,4.2-9.2,2.1-2.7,4.9-4.8,8-6.1M665.8,225.6c1.2,0,2.1-.9,2-2.1-.5-4.8-2.6-9.3-6-12.7-3.4-3.4-7.9-5.5-12.7-6-1.1-.1-2.1.8-2.1,2v16.7c0,.6.2,1.1.6,1.5.4.4.9.6,1.5.6h16.7Z"/>
      <path class="cls-9" d="M269.3,231.1h185.7c38.4,0,69.5,31.1,69.5,69.4v10.3h-255.1v-79.7h0Z"/>
      <path class="cls-10" d="M315,198.1v54.4c0,3-1.1,5.8-2.9,7.9-2.2,2.6-5.5,4.2-9.2,4.2h-54.5c-6.7,0-12.2-5.4-12.2-12.1v-54.4c0-3.6,1.6-6.9,4.1-9.1,2.1-1.9,5-3.1,8.1-3.1h54.5c6.7,0,12.2,5.4,12.2,12.1h0Z"/>
      <path class="cls-1" d="M314.7,197.7v54.4c0,3-1.1,5.8-2.9,7.9l-71.8-71.4c2.1-1.9,5-3.1,8.1-3.1h54.5c6.7,0,12.2,5.4,12.2,12.1h0Z"/>
      <path class="cls-6" d="M273.8,242.3v-27.1c0-.6-.2-1.1-.6-1.5-.4-.4-.9-.6-1.5-.6h-10.4c-.6,0-1.1.2-1.5.6-.4.4-.6.9-.6,1.5v25c0,.6.2,1.1.6,1.5.4.4.9.6,1.5.6h25c.6,0,1.1-.2,1.5-.6.4-.4.6-.9.6-1.5v-10.4c0-.6-.2-1.1-.6-1.5-.4-.4-.9-.6-1.5-.6h-27.1M284.2,204.8h10.4c1.1,0,2.1.9,2.1,2.1v10.4c0,1.2-.9,2.1-2.1,2.1h-10.4c-1.2,0-2.1-.9-2.1-2.1v-10.4c0-1.2.9-2.1,2.1-2.1Z"/>
      <path class="cls-9" d="M438.9,413h185.7c38.4,0,69.5,31.1,69.5,69.4v10.3h-255.2v-79.7h0Z"/>
      <path class="cls-10" d="M484.8,379.7v54.4c0,3-1.1,5.8-2.9,7.9-2.2,2.6-5.5,4.2-9.2,4.2h-54.5c-6.7,0-12.2-5.4-12.2-12.1v-54.4c0-3.6,1.6-6.9,4.1-9.1,2.1-1.9,5-3.1,8.1-3.1h54.5c6.7,0,12.2,5.4,12.2,12.2h0Z"/>
      <path class="cls-1" d="M484.5,380v54.4c0,3-1.1,5.8-2.9,7.9l-71.8-71.4c2.1-1.9,5-3.1,8.1-3.1h54.5c6.7,0,12.2,5.4,12.2,12.1h0Z"/>
      <path class="cls-8" d="M440.8,403.4v-2.1c0-1.1.4-2.2,1.2-3,.8-.8,1.8-1.2,2.9-1.2s2.2.4,2.9,1.2c.8.8,1.2,1.8,1.2,3v2.1c0-1.1.4-2.2,1.2-2.9.8-.8,1.8-1.2,2.9-1.2s2.2.4,2.9,1.2c.8.8,1.2,1.8,1.2,2.9v2.1c0-1.1.4-2.2,1.2-2.9.8-.8,1.8-1.2,2.9-1.2s2.2.4,2.9,1.2c.8.8,1.2,1.8,1.2,2.9v6.2c0,4.4-1.8,8.7-4.9,11.8-3.1,3.1-7.4,4.9-11.8,4.9h-4.2c-5.8,0-9.4-1.8-12.5-4.9l-7.5-7.5c-.7-.8-1.1-1.8-1.1-2.9,0-1.1.5-2.1,1.2-2.8.8-.8,1.8-1.2,2.8-1.2,1.1,0,2.1.4,2.9,1.1l3.7,3.7M440.8,402.4v-11.5c0-1.1-.4-2.2-1.2-2.9-.8-.8-1.8-1.2-2.9-1.2s-2.2.4-2.9,1.2c-.8.8-1.2,1.8-1.2,2.9v20.8"/>
      <path class="cls-10" d="M1170.6,468.9h-128.1v6h128.1v-6Z"/>
      <path class="cls-10" d="M1495.2,468.9h-128.2v6h128.2v-6Z"/>
      <path class="cls-9" d="M1166.5,413h185.7c38.3,0,69.5,31.1,69.5,69.4v10.3h-255.2v-79.7h0Z"/>
      <path class="cls-10" d="M1212.1,380v54.4c0,3-1.1,5.8-2.9,7.9-2.2,2.6-5.5,4.2-9.2,4.2h-54.5c-6.7,0-12.2-5.4-12.2-12.2v-54.4c0-3.6,1.6-6.9,4.1-9.1,2.1-1.9,5-3.1,8.1-3.1h54.5c6.7,0,12.2,5.4,12.2,12.1h0Z"/>
      <path class="cls-1" d="M1211.7,379.7v54.4c0,3-1.1,5.8-2.9,7.9l-71.8-71.4c2.2-1.9,5-3.1,8.1-3.1h54.5c6.7,0,12.2,5.4,12.2,12.2h0Z"/>
      <path class="cls-12" d="M1197,382.4h-9v4.5h4.5v36h-20.6l2.6-2.6-3.2-3.2-5.8,5.8h0s-2.2,2.3-2.2,2.3l8.1,8.1,3.2-3.2-2.6-2.6h25.1v-45Z"/>
      <path class="cls-13" d="M1156.5,386.9h20.6l-2.6,2.6,3.2,3.2,5.8-5.8,2.2-2.2-8.1-8.1-3.2,3.2,2.6,2.6h-25.1v45h9v-4.5h-4.5v-36Z"/>
      <path class="cls-9" d="M804,413h185.7c38.4,0,69.5,31.1,69.5,69.4v10.3h-255.2v-79.7h0Z"/>
      <path class="cls-10" d="M849.7,380v54.4c0,3-1.1,5.8-2.9,7.9-2.2,2.6-5.5,4.2-9.2,4.2h-54.5c-6.7,0-12.2-5.4-12.2-12.2v-54.4c0-3.6,1.6-6.9,4.1-9.1,2.2-1.9,5-3.1,8.1-3.1h54.5c6.7,0,12.2,5.4,12.2,12.1h0Z"/>
      <path class="cls-1" d="M849.7,379.7v54.4c0,3-1.1,5.8-2.9,7.9l-71.8-71.4c2.2-1.9,5-3.1,8.1-3.1h54.5c6.7,0,12.2,5.4,12.2,12.2h0Z"/>
      <path class="cls-3" d="M831.2,413.7c-1.3,3.1-3.4,5.9-6,8-2.6,2.1-5.8,3.6-9.1,4.3-3.3.7-6.8.5-10-.5-3.3-1-6.2-2.7-8.6-5.1s-4.2-5.3-5.2-8.6c-1-3.2-1.2-6.7-.6-10,.6-3.3,2.1-6.5,4.2-9.2,2.1-2.7,4.9-4.8,8-6.1M830.8,405.6c1.2,0,2.1-.9,2-2.1-.5-4.8-2.6-9.2-6-12.6-3.4-3.4-7.9-5.5-12.7-6-1.1-.1-2.1.8-2.1,2v16.7c0,.6.2,1.1.6,1.5.4.4.9.6,1.5.6h16.7Z"/>
      <path class="cls-9" d="M92.7,47.7h185.7c38.4,0,69.5,31.1,69.5,69.4v10.3H92.7V47.7Z"/>
      <path class="cls-10" d="M138.3,14.7v54.4c0,3-1.1,5.8-2.9,7.9-2.2,2.6-5.5,4.2-9.2,4.2h-54.5c-6.7,0-12.2-5.4-12.2-12.1V14.7c0-3.6,1.6-6.9,4.1-9.1,2.1-1.9,5-3.1,8.1-3.1h54.5c6.7,0,12.2,5.4,12.2,12.1h0Z"/>
      <path class="cls-1" d="M138.3,14.7v54.4c0,3-1.1,5.8-2.9,7.9L63.6,5.6c2.1-1.9,5-3.1,8.1-3.1h54.5c6.7,0,12.2,5.4,12.2,12.1h0Z"/>
      <path class="cls-9" d="M804,47.7h185.7c38.4,0,69.5,31.1,69.5,69.4v10.3h-255.2V47.7h0Z"/>
      <path class="cls-10" d="M849.8,14.7v54.4c0,3-1.1,5.8-2.9,7.9-2.2,2.6-5.5,4.2-9.2,4.2h-54.5c-6.7,0-12.2-5.4-12.2-12.1V14.7c0-3.6,1.6-6.9,4.1-9.1,2.2-1.9,5-3.1,8.1-3.1h54.5c6.7,0,12.2,5.4,12.2,12.1Z"/>
      <path class="cls-1" d="M849.7,14.7v54.4c0,3-1.1,5.8-2.9,7.9L774.9,5.6c2.1-1.9,5-3.1,8.1-3.1h54.5c6.7,0,12.2,5.4,12.2,12.1h0Z"/>
      <path class="cls-4" d="M804.4,41.4l4.2,4.2,8.3-8.3M827.3,43.5c0,10.4-7.3,15.6-16,18.6-.5.2-.9.1-1.4,0-8.7-3-16-8.2-16-18.6v-14.6c0-.6.2-1.1.6-1.5.4-.4.9-.6,1.5-.6,4.2,0,9.4-2.5,13-5.7.4-.4,1-.6,1.6-.6s1.1.2,1.6.6c3.6,3.2,8.8,5.7,13,5.7s1.1.2,1.5.6.6.9.6,1.5v14.6Z"/>
      <path class="cls-11" d="M142.2,87.6v-8.4h6.2v1.3h-4.8v2.2h4.2v1.3h-4.2v2.3h4.8v1.3h-6.3ZM150.3,87.6v-8.4h6.3v1.3h-4.8v2.3h4.2v1.3h-4.2v3.4h-1.5ZM158.1,87.6v-8.4h6.3v1.3h-4.8v2.3h4.2v1.3h-4.2v3.4h-1.5ZM169.9,87.7c-2.6,0-4.4-2-4.4-4.3h0c0-2.4,1.8-4.4,4.4-4.4s4.4,2,4.4,4.3h0c0,2.4-1.8,4.4-4.4,4.4ZM170,86.4c1.7,0,2.8-1.3,2.8-3h0c0-1.7-1.2-3-2.9-3s-2.8,1.3-2.8,3h0c0,1.7,1.2,3,2.9,3ZM176.1,87.6v-8.4h3.7c1.1,0,1.9.3,2.4.8.4.5.7,1.1.7,1.8h0c0,1.4-.8,2.2-2,2.6l2.3,3.2h-1.8l-2.1-2.9h-1.8v2.9h-1.5ZM177.6,83.3h2.2c1.1,0,1.7-.6,1.7-1.4h0c0-.9-.6-1.4-1.7-1.4h-2.1v2.8ZM186.8,87.6v-7h-2.7v-1.4h6.8v1.4h-2.7v7h-1.5ZM192.6,87.6v-8.4h1.5v7.1h4.4v1.3h-5.9ZM200,87.6v-8.4h6.2v1.3h-4.8v2.2h4.2v1.3h-4.2v2.3h4.8v1.3h-6.3ZM211,87.7c-1.3,0-2.5-.4-3.5-1.3l.9-1.1c.8.7,1.6,1.1,2.7,1.1s1.5-.4,1.5-1.1h0c0-.6-.3-.9-1.9-1.3-1.8-.4-2.8-1-2.8-2.5h0c0-1.5,1.2-2.5,2.9-2.5s2.2.4,3,1.1l-.8,1.1c-.8-.6-1.5-.9-2.3-.9s-1.4.4-1.4,1h0c0,.7.4,1,2,1.3,1.8.4,2.7,1.1,2.7,2.5h0c0,1.6-1.2,2.5-3,2.5ZM218.5,87.7c-1.3,0-2.5-.4-3.5-1.3l.9-1.1c.8.7,1.6,1.1,2.7,1.1s1.5-.4,1.5-1.1h0c0-.6-.3-.9-1.9-1.3-1.8-.4-2.8-1-2.8-2.5h0c0-1.5,1.2-2.5,2.9-2.5s2.2.4,3,1.1l-.8,1.1c-.8-.6-1.5-.9-2.3-.9s-1.4.4-1.4,1h0c0,.7.4,1,2,1.3,1.8.4,2.7,1.1,2.7,2.5h0c0,1.6-1.2,2.5-3,2.5ZM226.9,87.6v-8.4h1.5v8.4h-1.5ZM230.7,87.6v-8.4h1.4l4.5,5.8v-5.8h1.5v8.4h-1.2l-4.6-6v6h-1.5ZM242.2,87.6v-7h-2.7v-1.4h6.8v1.4h-2.7v7h-1.5ZM247.9,87.6v-8.4h6.2v1.3h-4.8v2.2h4.2v1.3h-4.2v2.3h4.8v1.3h-6.3ZM259.9,87.7c-2.6,0-4.4-1.9-4.4-4.3h0c0-2.4,1.8-4.4,4.3-4.4s2.4.4,3.2,1.1l-.9,1.1c-.6-.6-1.3-.9-2.4-.9-1.5,0-2.7,1.4-2.7,3h0c0,1.8,1.1,3,2.9,3s1.5-.3,2-.6v-1.6h-2.1v-1.3h3.6v3.5c-.8.7-2,1.3-3.5,1.3ZM265.4,87.6v-8.4h3.7c1.1,0,1.9.3,2.4.8.4.5.7,1.1.7,1.8h0c0,1.4-.8,2.2-2,2.6l2.3,3.2h-1.8l-2.1-2.9h-1.8v2.9h-1.5ZM266.9,83.3h2.2c1.1,0,1.7-.6,1.7-1.4h0c0-.9-.6-1.4-1.7-1.4h-2.1v2.8ZM273.3,87.6l3.7-8.5h1.4l3.7,8.5h-1.6l-.9-2h-4l-.9,2h-1.5ZM276.2,84.2h2.9l-1.5-3.4-1.4,3.4ZM284.5,87.6v-7h-2.7v-1.4h6.8v1.4h-2.7v7h-1.5ZM290.3,87.6v-8.4h1.5v8.4h-1.5ZM298,87.7c-2.6,0-4.4-2-4.4-4.3h0c0-2.4,1.8-4.4,4.4-4.4s4.4,2,4.4,4.3h0c0,2.4-1.8,4.4-4.4,4.4ZM298.1,86.4c1.7,0,2.8-1.3,2.8-3h0c0-1.7-1.2-3-2.9-3s-2.8,1.3-2.8,3h0c0,1.7,1.2,3,2.9,3ZM304.2,87.6v-8.4h1.4l4.5,5.8v-5.8h1.5v8.4h-1.2l-4.6-6v6h-1.5ZM313.2,89.3l-.2-.6c.7-.1,1.1-.5,1-1.1h-.6v-1.7h1.6v1.4c0,1.3-.6,1.9-1.8,2ZM157.6,101.6v-8.4h1.6l2.6,4,2.6-4h1.6v8.4h-1.5v-6l-2.7,4h0l-2.6-3.9v6h-1.5ZM167.3,101.6l3.7-8.5h1.4l3.7,8.5h-1.6l-.9-2h-4l-.9,2h-1.5ZM170.2,98.2h2.9l-1.5-3.4-1.4,3.4ZM182.7,93.2h1.7l-2.9,4.1,3,4.3h-1.7l-2.2-3.2-2.2,3.2h-1.7l3-4.3-2.9-4.1h1.7l2.1,3,2.1-3ZM186.1,101.6v-8.4h1.5v8.4h-1.5ZM189.9,101.6v-8.4h1.6l2.6,4,2.6-4h1.6v8.4h-1.5v-6l-2.7,4h0l-2.6-3.9v6h-1.5ZM203.7,101.7c-2.2,0-3.6-1.3-3.6-3.7v-4.8h1.5v4.8c0,1.6.8,2.4,2.1,2.4s2.1-.8,2.1-2.3v-4.8h1.5v4.8c0,2.5-1.4,3.8-3.6,3.8ZM209.4,101.6v-8.4h1.6l2.6,4,2.6-4h1.6v8.4h-1.5v-6l-2.7,4h0l-2.6-3.9v6h-1.5ZM222.7,101.6l3.7-8.5h1.4l3.7,8.5h-1.6l-.9-2h-4l-.9,2h-1.5ZM225.6,98.2h2.9l-1.5-3.4-1.4,3.4ZM232.9,101.6v-8.4h3.1c2.6,0,4.5,1.8,4.5,4.2h0c0,2.4-1.8,4.2-4.5,4.2h-3.1ZM236,94.5h-1.7v5.7h1.7c1.8,0,2.9-1.2,2.9-2.8h0c0-1.7-1.2-2.9-2.9-2.9ZM244.5,101.6l-3.5-8.5h1.6l2.5,6.5,2.5-6.5h1.6l-3.5,8.5h-1.3ZM248.8,101.6l3.7-8.5h1.4l3.7,8.5h-1.6l-.9-2h-4l-.9,2h-1.5ZM251.7,98.2h2.9l-1.5-3.4-1.4,3.4ZM259,101.6v-8.4h1.4l4.5,5.8v-5.8h1.5v8.4h-1.2l-4.6-6v6h-1.5ZM270.5,101.6v-7h-2.7v-1.4h6.8v1.4h-2.7v7h-1.5ZM274.5,101.6l3.7-8.5h1.4l3.7,8.5h-1.6l-.9-2h-4l-.9,2h-1.5ZM277.4,98.2h2.9l-1.5-3.4-1.4,3.4ZM288.1,101.7c-2.6,0-4.4-1.9-4.4-4.3h0c0-2.4,1.8-4.4,4.3-4.4s2.4.4,3.2,1.1l-.9,1.1c-.6-.6-1.3-.9-2.4-.9-1.5,0-2.7,1.4-2.7,3h0c0,1.8,1.1,3,2.9,3s1.5-.3,2-.6v-1.6h-2.1v-1.3h3.6v3.5c-.8.7-2,1.3-3.5,1.3ZM293.5,101.6v-8.4h6.2v1.3h-4.8v2.2h4.2v1.3h-4.2v2.3h4.8v1.3h-6.3Z"/>
      <path class="cls-11" d="M325.9,282.6l-3.5-8.5h1.6l2.5,6.5,2.5-6.5h1.6l-3.5,8.5h-1.3ZM330.2,282.6l3.7-8.5h1.4l3.7,8.5h-1.6l-.9-2h-4l-.9,2h-1.5ZM333.2,279.2h2.9l-1.5-3.4-1.4,3.4ZM340.4,282.6v-8.4h1.5v7.1h4.4v1.3h-5.9ZM351.1,282.7c-2.2,0-3.6-1.3-3.6-3.7v-4.8h1.5v4.8c0,1.6.8,2.4,2.1,2.4s2.1-.8,2.1-2.3v-4.8h1.5v4.8c0,2.5-1.4,3.8-3.6,3.8ZM356.7,282.6v-8.4h6.2v1.3h-4.8v2.2h4.2v1.3h-4.2v2.3h4.8v1.3h-6.3ZM367.6,282.6l3.7-8.5h1.4l3.7,8.5h-1.6l-.9-2h-4l-.9,2h-1.5ZM370.6,279.2h2.9l-1.5-3.4-1.4,3.4ZM378.8,282.6v-7h-2.7v-1.4h6.8v1.4h-2.7v7h-1.5ZM390.2,282.6v-7h-2.7v-1.4h6.8v1.4h-2.7v7h-1.5ZM395.9,282.6v-8.4h1.5v3.5h4v-3.5h1.5v8.4h-1.5v-3.5h-4v3.5h-1.5ZM405,282.6v-8.4h6.2v1.3h-4.8v2.2h4.2v1.3h-4.2v2.3h4.8v1.3h-6.3ZM416.7,282.6v-8.4h6.2v1.3h-4.8v2.2h4.2v1.3h-4.2v2.3h4.8v1.3h-6.3ZM424.7,282.6v-8.4h1.4l4.5,5.8v-5.8h1.5v8.4h-1.2l-4.6-6v6h-1.5ZM434.2,282.6v-8.4h3.1c2.6,0,4.5,1.8,4.5,4.2h0c0,2.4-1.8,4.2-4.5,4.2h-3.1ZM437.3,275.5h-1.7v5.7h1.7c1.8,0,2.9-1.2,2.9-2.8h0c0-1.7-1.2-2.9-2.9-2.9ZM451.2,282.7c-2.6,0-4.4-2-4.4-4.3h0c0-2.4,1.8-4.4,4.4-4.4s4.4,2,4.4,4.3h0c0,2.4-1.8,4.4-4.4,4.4ZM451.2,281.4c1.7,0,2.8-1.3,2.8-3h0c0-1.7-1.2-3-2.9-3s-2.8,1.3-2.8,3h0c0,1.7,1.2,3,2.9,3ZM457.4,282.6v-8.4h6.3v1.3h-4.8v2.3h4.2v1.3h-4.2v3.4h-1.5ZM468.8,282.6v-8.4h1.5v7.1h4.4v1.3h-5.9ZM476.4,282.6v-8.4h1.5v8.4h-1.5ZM480.1,282.6v-8.4h6.3v1.3h-4.8v2.3h4.2v1.3h-4.2v3.4h-1.5ZM488,282.6v-8.4h6.2v1.3h-4.8v2.2h4.2v1.3h-4.2v2.3h4.8v1.3h-6.3Z"/>
      <path class="cls-11" d="M495,460.7c-2.4,0-4.3-1.9-4.3-4.3h0c0-2.4,1.8-4.4,4.3-4.4s2.5.5,3.3,1.3l-.9,1.1c-.7-.6-1.4-1-2.4-1-1.6,0-2.8,1.3-2.8,3h0c0,1.7,1.2,3,2.8,3s1.7-.4,2.4-1.1l.9,1c-.9.9-1.8,1.5-3.4,1.5ZM500,460.6v-8.4h6.2v1.3h-4.8v2.2h4.2v1.3h-4.2v2.2h4.8v1.3h-6.3ZM508,460.6v-8.4h3.7c1.1,0,1.9.3,2.4.8.4.5.7,1.1.7,1.8h0c0,1.4-.8,2.2-2,2.6l2.3,3.2h-1.8l-2.1-2.9h-1.8v2.9h-1.5ZM509.5,456.4h2.2c1.1,0,1.7-.6,1.7-1.4h0c0-.9-.6-1.4-1.7-1.4h-2.1v2.8ZM518.7,460.6v-7h-2.7v-1.4h6.8v1.4h-2.7v7h-1.5ZM524.5,460.6v-8.4h1.5v8.4h-1.5ZM528.3,460.6v-8.4h6.3v1.3h-4.8v2.3h4.2v1.3h-4.2v3.4h-1.5ZM536.2,460.6v-8.4h1.5v8.4h-1.5ZM540,460.6v-8.4h6.2v1.3h-4.8v2.2h4.2v1.3h-4.2v2.2h4.8v1.3h-6.3ZM548,460.6v-8.4h3.1c2.6,0,4.5,1.8,4.5,4.2h0c0,2.4-1.8,4.2-4.5,4.2h-3.1ZM551.1,453.5h-1.7v5.7h1.7c1.8,0,2.9-1.2,2.9-2.8h0c0-1.7-1.2-2.9-2.9-2.9ZM561,460.6v-8.4h6.3v1.3h-4.8v2.3h4.2v1.3h-4.2v3.4h-1.5ZM572.8,460.7c-2.6,0-4.4-2-4.4-4.3h0c0-2.4,1.8-4.4,4.4-4.4s4.4,2,4.4,4.3h0c0,2.4-1.8,4.4-4.4,4.4ZM572.8,459.4c1.7,0,2.8-1.3,2.8-2.9h0c0-1.7-1.2-3-2.9-3s-2.8,1.3-2.8,3h0c0,1.7,1.2,3,2.9,3ZM579,460.6v-8.4h3.7c1.1,0,1.9.3,2.4.8.4.5.7,1.1.7,1.8h0c0,1.4-.8,2.2-2,2.6l2.3,3.2h-1.8l-2.1-2.9h-1.8v2.9h-1.5ZM580.5,456.4h2.2c1.1,0,1.7-.6,1.7-1.4h0c0-.9-.6-1.4-1.7-1.4h-2.1v2.8ZM593.3,460.6v-7h-2.7v-1.4h6.8v1.4h-2.7v7h-1.5ZM599,460.6v-8.4h3.7c1.1,0,1.9.3,2.4.8.4.5.7,1.1.7,1.8h0c0,1.4-.8,2.2-2,2.6l2.3,3.2h-1.8l-2.1-2.9h-1.8v2.9h-1.5ZM600.5,456.4h2.2c1.1,0,1.7-.6,1.7-1.4h0c0-.9-.6-1.4-1.7-1.4h-2.1v2.8ZM611.1,460.7c-2.2,0-3.6-1.3-3.6-3.7v-4.8h1.5v4.8c0,1.6.8,2.4,2.1,2.4s2.1-.8,2.1-2.3v-4.8h1.5v4.8c0,2.5-1.4,3.8-3.6,3.8ZM619.7,460.7c-1.3,0-2.5-.4-3.5-1.3l.9-1.1c.8.7,1.6,1.1,2.7,1.1s1.5-.4,1.5-1.1h0c0-.6-.3-1-1.9-1.3-1.8-.4-2.8-1-2.8-2.5h0c0-1.5,1.2-2.5,2.9-2.5s2.2.4,3,1.1l-.8,1.1c-.8-.6-1.5-.9-2.3-.9s-1.4.5-1.4,1h0c0,.7.4,1,2,1.3,1.8.4,2.7,1.1,2.7,2.5h0c0,1.6-1.2,2.5-3,2.5ZM626.3,460.6v-7h-2.7v-1.4h6.8v1.4h-2.7v7h-1.5ZM634.9,460.6l3.7-8.5h1.4l3.7,8.5h-1.6l-.9-2h-4l-.9,2h-1.5ZM637.9,457.3h2.9l-1.5-3.4-1.4,3.4ZM645.1,460.6v-8.4h1.4l4.5,5.8v-5.8h1.5v8.4h-1.2l-4.6-6v6h-1.5ZM654.6,460.6v-8.4h3.1c2.6,0,4.5,1.8,4.5,4.2h0c0,2.4-1.8,4.2-4.5,4.2h-3.1ZM657.8,453.5h-1.7v5.7h1.7c1.8,0,2.9-1.2,2.9-2.8h0c0-1.7-1.2-2.9-2.9-2.9ZM536.4,474.6v-8.4h6.2v1.3h-4.8v2.2h4.2v1.3h-4.2v2.2h4.8v1.3h-6.3ZM549.9,466.2h1.7l-2.9,4.1,3,4.3h-1.7l-2.2-3.2-2.2,3.2h-1.7l3-4.3-2.9-4.1h1.7l2.1,3.1,2.1-3.1ZM556.5,474.7c-2.4,0-4.3-1.9-4.3-4.3h0c0-2.4,1.8-4.4,4.3-4.4s2.5.5,3.3,1.3l-.9,1.1c-.7-.6-1.4-1-2.4-1-1.6,0-2.8,1.3-2.8,3h0c0,1.7,1.2,3,2.8,3s1.7-.4,2.4-1.1l.9,1c-.9.9-1.8,1.5-3.4,1.5ZM561.4,474.6v-8.4h6.2v1.3h-4.8v2.2h4.2v1.3h-4.2v2.2h4.8v1.3h-6.3ZM569.5,474.6v-8.4h1.5v7.1h4.4v1.3h-5.9ZM576.9,474.6v-8.4h1.5v7.1h4.4v1.3h-5.9ZM584.3,474.6v-8.4h6.2v1.3h-4.8v2.2h4.2v1.3h-4.2v2.2h4.8v1.3h-6.3ZM592.4,474.6v-8.4h1.4l4.5,5.8v-5.8h1.5v8.4h-1.2l-4.6-6v6h-1.5ZM605.8,474.7c-2.4,0-4.3-1.9-4.3-4.3h0c0-2.4,1.8-4.4,4.3-4.4s2.5.5,3.3,1.3l-.9,1.1c-.7-.6-1.4-1-2.4-1-1.6,0-2.8,1.3-2.8,3h0c0,1.7,1.2,3,2.8,3s1.7-.4,2.4-1.1l.9,1c-.9.9-1.8,1.5-3.4,1.5ZM610.7,474.6v-8.4h6.2v1.3h-4.8v2.2h4.2v1.3h-4.2v2.2h4.8v1.3h-6.3Z"/>
      <path class="cls-11" d="M902.9,454.6v-1.1l5-6h-4.8v-1.3h6.7v1.1l-5,6h5v1.3h-6.9ZM911.6,454.6v-8.4h6.2v1.3h-4.8v2.2h4.2v1.3h-4.2v2.2h4.8v1.3h-6.3ZM919.7,454.6v-8.4h3.7c1.1,0,1.9.3,2.4.8.4.5.7,1.1.7,1.8h0c0,1.4-.8,2.2-2,2.6l2.3,3.2h-1.8l-2.1-2.9h-1.8v2.9h-1.5ZM921.1,450.4h2.2c1.1,0,1.7-.6,1.7-1.4h0c0-.9-.6-1.4-1.7-1.4h-2.1v2.8ZM932.3,454.7c-2.6,0-4.4-2-4.4-4.3h0c0-2.4,1.8-4.4,4.4-4.4s4.4,2,4.4,4.3h0c0,2.4-1.8,4.4-4.4,4.4ZM932.4,453.4c1.7,0,2.8-1.3,2.8-2.9h0c0-1.7-1.2-3-2.9-3s-2.8,1.3-2.8,3h0c0,1.7,1.2,3,2.9,3ZM938.1,451.6v-1.4h3.6v1.4h-3.6ZM945.3,454.6l-2.9-8.5h1.6l2,6.2,2.1-6.2h1.2l2.1,6.2,2-6.2h1.5l-2.9,8.5h-1.3l-2.1-6-2.1,6h-1.3ZM954.6,454.6l3.7-8.5h1.4l3.7,8.5h-1.6l-.9-2h-4l-.9,2h-1.5ZM957.5,451.3h2.9l-1.5-3.4-1.4,3.4ZM967.6,454.7c-1.3,0-2.5-.4-3.5-1.3l.9-1.1c.8.7,1.6,1.1,2.7,1.1s1.5-.4,1.5-1.1h0c0-.6-.3-1-1.9-1.3-1.8-.4-2.8-1-2.8-2.5h0c0-1.5,1.2-2.5,2.9-2.5s2.2.4,3,1.1l-.8,1.1c-.8-.6-1.5-.9-2.3-.9s-1.4.5-1.4,1h0c0,.7.4,1,2,1.3,1.8.4,2.7,1.1,2.7,2.5h0c0,1.6-1.2,2.5-3,2.5ZM974.2,454.6v-7h-2.7v-1.4h6.8v1.4h-2.7v7h-1.5ZM979.9,454.6v-8.4h6.2v1.3h-4.8v2.2h4.2v1.3h-4.2v2.2h4.8v1.3h-6.3ZM889.9,468.6v-8.4h1.6l2.6,4,2.6-4h1.6v8.4h-1.5v-6l-2.7,4h0l-2.6-3.9v6h-1.5ZM899.6,468.6l3.7-8.5h1.4l3.7,8.5h-1.6l-.9-2h-4l-.9,2h-1.5ZM902.5,465.3h2.9l-1.5-3.4-1.4,3.4ZM909.8,468.6v-8.4h1.4l4.5,5.8v-5.8h1.5v8.4h-1.2l-4.6-6v6h-1.5ZM922.7,468.7c-2.2,0-3.6-1.3-3.6-3.7v-4.8h1.5v4.8c0,1.6.8,2.4,2.1,2.4s2.1-.8,2.1-2.3v-4.8h1.5v4.8c0,2.5-1.4,3.8-3.6,3.8ZM928.3,468.6v-8.4h6.3v1.3h-4.8v2.3h4.2v1.3h-4.2v3.4h-1.5ZM934.5,468.6l3.7-8.5h1.4l3.7,8.5h-1.6l-.9-2h-4l-.9,2h-1.5ZM937.4,465.3h2.9l-1.5-3.4-1.4,3.4ZM948.1,468.7c-2.4,0-4.3-1.9-4.3-4.3h0c0-2.4,1.8-4.4,4.3-4.4s2.5.5,3.3,1.3l-.9,1.1c-.7-.6-1.4-1-2.4-1-1.6,0-2.8,1.3-2.8,3h0c0,1.7,1.2,3,2.8,3s1.7-.4,2.4-1.1l.9,1c-.9.9-1.8,1.5-3.4,1.5ZM955.1,468.6v-7h-2.7v-1.4h6.8v1.4h-2.7v7h-1.5ZM964.3,468.7c-2.2,0-3.6-1.3-3.6-3.7v-4.8h1.5v4.8c0,1.6.8,2.4,2.1,2.4s2.1-.8,2.1-2.3v-4.8h1.5v4.8c0,2.5-1.4,3.8-3.6,3.8ZM969.9,468.6v-8.4h3.7c1.1,0,1.9.3,2.4.8.4.5.7,1.1.7,1.8h0c0,1.4-.8,2.2-2,2.6l2.3,3.2h-1.8l-2.1-2.9h-1.8v2.9h-1.5ZM971.4,464.4h2.2c1.1,0,1.7-.6,1.7-1.4h0c0-.9-.6-1.4-1.7-1.4h-2.1v2.8ZM978.7,468.6v-8.4h1.5v8.4h-1.5ZM982.4,468.6v-8.4h1.4l4.5,5.8v-5.8h1.5v8.4h-1.2l-4.6-6v6h-1.5ZM995.9,468.7c-2.6,0-4.4-1.9-4.4-4.3h0c0-2.4,1.8-4.4,4.3-4.4s2.4.4,3.2,1.1l-.9,1.1c-.6-.6-1.3-.9-2.4-.9-1.5,0-2.7,1.3-2.7,3h0c0,1.8,1.1,3,2.9,3s1.5-.2,2-.6v-1.6h-2.1v-1.3h3.6v3.5c-.8.7-2,1.3-3.5,1.3Z"/>
      <path class="cls-11" d="M1235.8,457.6v-8.4h6.2v1.3h-4.8v2.2h4.2v1.3h-4.2v2.2h4.8v1.3h-6.3ZM1243.9,457.6v-8.4h6.2v1.3h-4.8v2.3h4.2v1.3h-4.2v3.4h-1.5ZM1251.8,457.6v-8.4h6.3v1.3h-4.8v2.3h4.2v1.3h-4.2v3.4h-1.5ZM1259.7,457.6v-8.4h1.5v8.4h-1.5ZM1267.3,457.7c-2.4,0-4.3-1.9-4.3-4.3h0c0-2.4,1.8-4.4,4.3-4.4s2.5.5,3.3,1.3l-.9,1.1c-.7-.6-1.4-1-2.3-1-1.6,0-2.8,1.3-2.8,3h0c0,1.7,1.2,3,2.8,3s1.7-.4,2.4-1.1l.9,1c-.9.9-1.8,1.5-3.4,1.5ZM1272.4,457.6v-8.4h1.5v8.4h-1.5ZM1276.1,457.6v-8.4h6.2v1.3h-4.8v2.2h4.2v1.3h-4.2v2.2h4.8v1.3h-6.3ZM1284.1,457.6v-8.4h1.4l4.5,5.8v-5.8h1.4v8.4h-1.2l-4.6-6v6h-1.5ZM1295.7,457.6v-7h-2.7v-1.4h6.8v1.4h-2.7v7h-1.5ZM1305,457.6v-8.4h3.8c1.1,0,1.9.3,2.4.8.4.5.7,1.1.7,1.8h0c0,1.4-.8,2.2-2,2.6l2.3,3.2h-1.8l-2.1-2.9h-1.8v2.9h-1.5ZM1306.5,453.4h2.2c1.1,0,1.7-.6,1.7-1.4h0c0-.9-.7-1.4-1.7-1.4h-2.2v2.8ZM1313.7,457.6v-8.4h6.2v1.3h-4.8v2.2h4.2v1.3h-4.2v2.2h4.8v1.3h-6.3ZM1325.6,457.7c-2.4,0-4.3-1.9-4.3-4.3h0c0-2.4,1.8-4.4,4.3-4.4s2.5.5,3.3,1.3l-.9,1.1c-.7-.6-1.4-1-2.3-1-1.6,0-2.8,1.3-2.8,3h0c0,1.7,1.2,3,2.8,3s1.7-.4,2.4-1.1l1,1c-.9.9-1.8,1.5-3.4,1.5ZM1332.9,457.6v-3.3l-3.3-5.1h1.8l2.3,3.7,2.4-3.7h1.7l-3.3,5.1v3.3h-1.5ZM1342.2,457.7c-2.4,0-4.3-1.9-4.3-4.3h0c0-2.4,1.8-4.4,4.3-4.4s2.5.5,3.3,1.3l-.9,1.1c-.7-.6-1.4-1-2.3-1-1.6,0-2.8,1.3-2.8,3h0c0,1.7,1.2,3,2.8,3s1.7-.4,2.4-1.1l1,1c-.9.9-1.8,1.5-3.4,1.5ZM1347.2,457.6v-8.4h1.5v7.1h4.4v1.3h-5.9ZM1354.7,457.6v-8.4h1.5v8.4h-1.5ZM1358.4,457.6v-8.4h1.4l4.5,5.8v-5.8h1.4v8.4h-1.2l-4.6-6v6h-1.4ZM1371.9,457.7c-2.6,0-4.3-1.9-4.3-4.3h0c0-2.4,1.8-4.4,4.3-4.4s2.4.4,3.2,1.1l-.9,1.1c-.7-.6-1.3-.9-2.3-.9-1.6,0-2.7,1.3-2.7,3h0c0,1.8,1.1,3,2.8,3s1.5-.2,2-.6v-1.6h-2.2v-1.3h3.6v3.5c-.8.7-2,1.3-3.5,1.3ZM1277.1,471.6v-8.4h3.3c2,0,3.2,1.1,3.2,2.8h0c0,1.9-1.5,2.9-3.4,2.9h-1.7v2.7h-1.5ZM1278.6,467.6h1.7c1.1,0,1.8-.6,1.8-1.5h0c0-1-.7-1.5-1.8-1.5h-1.7v3ZM1285.1,471.6v-8.4h3.7c1.1,0,1.9.3,2.4.8.4.5.7,1.1.7,1.8h0c0,1.4-.8,2.2-2,2.6l2.3,3.2h-1.8l-2.1-2.9h-1.8v2.9h-1.5ZM1286.6,467.4h2.2c1.1,0,1.7-.6,1.7-1.4h0c0-.9-.6-1.4-1.7-1.4h-2.1v2.8ZM1297.8,471.7c-2.6,0-4.4-2-4.4-4.3h0c0-2.4,1.8-4.4,4.4-4.4s4.4,2,4.4,4.3h0c0,2.4-1.8,4.4-4.4,4.4ZM1297.8,470.4c1.7,0,2.8-1.3,2.8-2.9h0c0-1.7-1.2-3-2.8-3s-2.8,1.3-2.8,3h0c0,1.7,1.2,3,2.9,3ZM1307.9,471.7c-2.4,0-4.3-1.9-4.3-4.3h0c0-2.4,1.8-4.4,4.3-4.4s2.5.5,3.3,1.3l-.9,1.1c-.7-.6-1.4-1-2.4-1-1.6,0-2.8,1.3-2.8,3h0c0,1.7,1.2,3,2.8,3s1.7-.4,2.4-1.1l.9,1c-.9.9-1.8,1.5-3.4,1.5ZM1312.8,471.6v-8.4h6.2v1.3h-4.8v2.2h4.2v1.3h-4.2v2.2h4.8v1.3h-6.3ZM1323.8,471.7c-1.3,0-2.5-.4-3.5-1.3l.9-1.1c.8.7,1.6,1.1,2.6,1.1s1.5-.4,1.5-1.1h0c0-.6-.3-1-1.9-1.3-1.8-.4-2.8-1-2.8-2.5h0c0-1.5,1.2-2.5,2.9-2.5s2.2.4,3.1,1.1l-.8,1.1c-.8-.6-1.5-.9-2.3-.9s-1.4.5-1.4,1h0c0,.7.4,1,2,1.3,1.8.4,2.7,1.1,2.7,2.5h0c0,1.6-1.2,2.5-3,2.5ZM1331.3,471.7c-1.3,0-2.5-.4-3.5-1.3l.9-1.1c.8.7,1.6,1.1,2.7,1.1s1.5-.4,1.5-1.1h0c0-.6-.3-1-1.9-1.3-1.8-.4-2.8-1-2.8-2.5h0c0-1.5,1.2-2.5,2.9-2.5s2.2.4,3,1.1l-.8,1.1c-.8-.6-1.5-.9-2.3-.9s-1.4.5-1.4,1h0c0,.7.4,1,2,1.3,1.8.4,2.7,1.1,2.7,2.5h0c0,1.6-1.2,2.5-3,2.5Z"/>
      <path class="cls-11" d="M713.8,282.6v-8.4h3.3c2,0,3.2,1.1,3.2,2.8h0c0,1.9-1.5,2.9-3.4,2.9h-1.7v2.7h-1.5ZM715.2,278.6h1.7c1.1,0,1.8-.6,1.8-1.5h0c0-1-.7-1.5-1.8-1.5h-1.7v3ZM721.8,282.6v-8.4h6.2v1.3h-4.8v2.2h4.2v1.3h-4.2v2.3h4.8v1.3h-6.3ZM729.8,282.6v-8.4h3.7c1.1,0,1.9.3,2.4.8.4.5.7,1.1.7,1.8h0c0,1.4-.8,2.2-2,2.6l2.3,3.2h-1.8l-2.1-2.9h-1.8v2.9h-1.5ZM731.3,278.3h2.2c1.1,0,1.7-.6,1.7-1.4h0c0-.9-.6-1.4-1.7-1.4h-2.1v2.8ZM738.5,282.6v-8.4h6.3v1.3h-4.8v2.3h4.2v1.3h-4.2v3.4h-1.5ZM750.3,282.7c-2.6,0-4.4-2-4.4-4.3h0c0-2.4,1.8-4.4,4.4-4.4s4.4,2,4.4,4.3h0c0,2.4-1.8,4.4-4.4,4.4ZM750.3,281.4c1.7,0,2.8-1.3,2.8-3h0c0-1.7-1.2-3-2.9-3s-2.8,1.3-2.8,3h0c0,1.7,1.2,3,2.9,3ZM756.5,282.6v-8.4h3.7c1.1,0,1.9.3,2.4.8.4.5.7,1.1.7,1.8h0c0,1.4-.8,2.2-2,2.6l2.3,3.2h-1.8l-2.1-2.9h-1.8v2.9h-1.5ZM758,278.3h2.2c1.1,0,1.7-.6,1.7-1.4h0c0-.9-.6-1.4-1.7-1.4h-2.1v2.8ZM765.1,282.6v-8.4h1.6l2.6,4,2.6-4h1.6v8.4h-1.5v-6l-2.7,4h0l-2.6-3.9v6h-1.5ZM774.8,282.6l3.7-8.5h1.4l3.7,8.5h-1.6l-.9-2h-4l-.9,2h-1.5ZM777.8,279.2h2.9l-1.5-3.4-1.4,3.4ZM785,282.6v-8.4h1.4l4.5,5.8v-5.8h1.5v8.4h-1.2l-4.6-6v6h-1.5ZM798.4,282.7c-2.4,0-4.3-1.9-4.3-4.3h0c0-2.4,1.8-4.4,4.3-4.4s2.5.5,3.3,1.3l-.9,1.1c-.7-.6-1.4-1-2.4-1-1.6,0-2.8,1.3-2.8,3h0c0,1.7,1.2,3,2.8,3s1.7-.4,2.4-1.1l.9,1c-.9.9-1.8,1.5-3.4,1.5ZM803.4,282.6v-8.4h6.2v1.3h-4.8v2.2h4.2v1.3h-4.2v2.3h4.8v1.3h-6.3ZM815,282.6v-8.4h3.1c2.6,0,4.5,1.8,4.5,4.2h0c0,2.4-1.8,4.2-4.5,4.2h-3.1ZM818.2,275.5h-1.7v5.7h1.7c1.8,0,2.9-1.2,2.9-2.8h0c0-1.7-1.2-2.9-2.9-2.9ZM824.4,282.6v-8.4h3.7c1.1,0,1.9.3,2.4.8.4.5.7,1.1.7,1.8h0c0,1.4-.8,2.2-2,2.6l2.3,3.2h-1.8l-2.1-2.9h-1.8v2.9h-1.5ZM825.9,278.3h2.2c1.1,0,1.7-.6,1.7-1.4h0c0-.9-.6-1.4-1.7-1.4h-2.1v2.8ZM833.2,282.6v-8.4h1.5v8.4h-1.5ZM839.7,282.6l-3.5-8.5h1.6l2.5,6.5,2.5-6.5h1.6l-3.5,8.5h-1.3ZM845.9,282.6v-8.4h6.2v1.3h-4.8v2.2h4.2v1.3h-4.2v2.3h4.8v1.3h-6.3ZM853.9,282.6v-8.4h1.4l4.5,5.8v-5.8h1.5v8.4h-1.2l-4.6-6v6h-1.5Z"/>
      <path class="cls-11" d="M498.7,94.6l-3.5-8.5h1.6l2.5,6.5,2.5-6.5h1.6l-3.5,8.5h-1.3ZM505,94.6v-8.4h6.2v1.3h-4.8v2.2h4.2v1.3h-4.2v2.3h4.8v1.3h-6.3ZM513,94.6v-8.4h3.7c1.1,0,1.9.3,2.4.8.4.5.7,1.1.7,1.8h0c0,1.4-.8,2.2-2,2.6l2.3,3.2h-1.8l-2.1-2.9h-1.8v2.9h-1.5ZM514.5,90.3h2.2c1.1,0,1.7-.6,1.7-1.4h0c0-.9-.6-1.4-1.7-1.4h-2.1v2.8ZM524.6,94.7c-1.3,0-2.5-.4-3.5-1.3l.9-1.1c.8.7,1.6,1.1,2.7,1.1s1.5-.4,1.5-1.1h0c0-.6-.3-.9-1.9-1.3-1.8-.4-2.8-1-2.8-2.5h0c0-1.5,1.2-2.5,2.9-2.5s2.2.4,3,1.1l-.8,1.1c-.8-.6-1.5-.9-2.3-.9s-1.4.4-1.4,1h0c0,.7.4,1,2,1.3,1.8.4,2.7,1.1,2.7,2.5h0c0,1.6-1.2,2.5-3,2.5ZM528.5,94.6l3.7-8.5h1.4l3.7,8.5h-1.6l-.9-2h-4l-.9,2h-1.5ZM531.4,91.2h2.9l-1.5-3.4-1.4,3.4ZM539.6,94.6v-7h-2.7v-1.4h6.8v1.4h-2.7v7h-1.5ZM545.4,94.6v-8.4h1.5v8.4h-1.5ZM549.2,94.6v-8.4h1.5v7.1h4.4v1.3h-5.9ZM556.6,94.6v-8.4h6.2v1.3h-4.8v2.2h4.2v1.3h-4.2v2.3h4.8v1.3h-6.3ZM567.5,94.6l3.7-8.5h1.4l3.7,8.5h-1.6l-.9-2h-4l-.9,2h-1.5ZM570.4,91.2h2.9l-1.5-3.4-1.4,3.4ZM577.7,94.6v-8.4h3.3c2,0,3.2,1.1,3.2,2.8h0c0,1.9-1.5,2.9-3.4,2.9h-1.7v2.7h-1.5ZM579.2,90.6h1.7c1.1,0,1.8-.6,1.8-1.5h0c0-1-.7-1.5-1.8-1.5h-1.7v3ZM585.7,94.6v-8.4h3.3c2,0,3.2,1.1,3.2,2.8h0c0,1.9-1.5,2.9-3.4,2.9h-1.7v2.7h-1.5ZM587.2,90.6h1.7c1.1,0,1.8-.6,1.8-1.5h0c0-1-.7-1.5-1.8-1.5h-1.7v3ZM593.8,94.6v-8.4h1.5v7.1h4.4v1.3h-5.9ZM601.3,94.6v-8.4h1.5v8.4h-1.5ZM608.9,94.7c-2.4,0-4.3-1.9-4.3-4.3h0c0-2.4,1.8-4.4,4.3-4.4s2.5.5,3.3,1.3l-.9,1.1c-.7-.6-1.4-1-2.4-1-1.6,0-2.8,1.3-2.8,3h0c0,1.7,1.2,3,2.8,3s1.7-.4,2.4-1.1l.9,1c-.9.9-1.8,1.5-3.4,1.5ZM613.1,94.6l3.7-8.5h1.4l3.7,8.5h-1.6l-.9-2h-4l-.9,2h-1.5ZM616,91.2h2.9l-1.5-3.4-1.4,3.4ZM624.3,94.6v-7h-2.7v-1.4h6.8v1.4h-2.7v7h-1.5ZM630.1,94.6v-8.4h1.5v8.4h-1.5ZM637.8,94.7c-2.6,0-4.4-2-4.4-4.3h0c0-2.4,1.8-4.4,4.4-4.4s4.4,2,4.4,4.3h0c0,2.4-1.8,4.4-4.4,4.4ZM637.9,93.4c1.7,0,2.8-1.3,2.8-3h0c0-1.7-1.2-3-2.9-3s-2.8,1.3-2.8,3h0c0,1.7,1.2,3,2.9,3ZM644,94.6v-8.4h1.4l4.5,5.8v-5.8h1.5v8.4h-1.2l-4.6-6v6h-1.5ZM656.5,94.7c-1.3,0-2.5-.4-3.5-1.3l.9-1.1c.8.7,1.6,1.1,2.7,1.1s1.5-.4,1.5-1.1h0c0-.6-.3-.9-1.9-1.3-1.8-.4-2.8-1-2.8-2.5h0c0-1.5,1.2-2.5,2.9-2.5s2.2.4,3,1.1l-.8,1.1c-.8-.6-1.5-.9-2.3-.9s-1.4.4-1.4,1h0c0,.7.4,1,2,1.3,1.8.4,2.7,1.1,2.7,2.5h0c0,1.6-1.2,2.5-3,2.5Z"/>
      <path class="cls-11" d="M874,87.6l-3.5-8.5h1.6l2.5,6.5,2.5-6.5h1.6l-3.5,8.5h-1.3ZM878.4,87.6l3.7-8.5h1.4l3.7,8.5h-1.6l-.9-2h-4l-.9,2h-1.5ZM881.3,84.2h2.9l-1.5-3.4-1.4,3.4ZM888.6,87.6v-8.4h1.5v7.1h4.4v1.3h-5.9ZM899.2,87.7c-2.2,0-3.6-1.3-3.6-3.7v-4.8h1.5v4.8c0,1.6.8,2.4,2.1,2.4s2.1-.8,2.1-2.3v-4.8h1.5v4.8c0,2.5-1.4,3.8-3.6,3.8ZM903.8,87.6l3.7-8.5h1.4l3.7,8.5h-1.6l-.9-2h-4l-.9,2h-1.5ZM906.7,84.2h2.9l-1.5-3.4-1.4,3.4ZM914,87.6v-8.4h3.8c1,0,1.7.3,2.2.7s.6.8.6,1.4h0c0,1-.6,1.6-1.2,1.9,1,.3,1.7.9,1.7,2h0c0,1.5-1.2,2.3-3.1,2.3h-3.9ZM919.1,81.6h0c0-.7-.5-1.1-1.5-1.1h-2.1v2.2h2c.9,0,1.6-.4,1.6-1.1ZM919.5,85.1c0-.7-.6-1.1-1.7-1.1h-2.3v2.3h2.4c1,0,1.6-.4,1.6-1.2h0ZM922.7,87.6v-8.4h1.5v7.1h4.4v1.3h-5.9ZM930.1,87.6v-8.4h6.2v1.3h-4.8v2.2h4.2v1.3h-4.2v2.3h4.8v1.3h-6.3ZM941.7,87.6v-8.4h3.7c1.1,0,1.9.3,2.4.8.4.5.7,1.1.7,1.8h0c0,1.4-.8,2.2-2,2.6l2.3,3.2h-1.8l-2.1-2.9h-1.8v2.9h-1.5ZM943.2,83.3h2.2c1.1,0,1.7-.6,1.7-1.4h0c0-.9-.6-1.4-1.7-1.4h-2.1v2.8ZM950.4,87.6v-8.4h6.2v1.3h-4.8v2.2h4.2v1.3h-4.2v2.3h4.8v1.3h-6.3ZM962.4,87.7c-2.4,0-4.3-1.9-4.3-4.3h0c0-2.4,1.8-4.4,4.3-4.4s2.5.5,3.3,1.3l-.9,1.1c-.7-.6-1.4-1-2.4-1-1.6,0-2.8,1.3-2.8,3h0c0,1.7,1.2,3,2.8,3s1.7-.4,2.4-1.1l.9,1c-.9.9-1.8,1.5-3.4,1.5ZM971.1,87.7c-2.6,0-4.4-2-4.4-4.3h0c0-2.4,1.8-4.4,4.4-4.4s4.4,2,4.4,4.3h0c0,2.4-1.8,4.4-4.4,4.4ZM971.1,86.4c1.7,0,2.8-1.3,2.8-3h0c0-1.7-1.2-3-2.9-3s-2.8,1.3-2.8,3h0c0,1.7,1.2,3,2.9,3ZM979.5,87.6l-3.5-8.5h1.6l2.5,6.5,2.5-6.5h1.6l-3.5,8.5h-1.3ZM985.7,87.6v-8.4h6.2v1.3h-4.8v2.2h4.2v1.3h-4.2v2.3h4.8v1.3h-6.3ZM993.8,87.6v-8.4h3.7c1.1,0,1.9.3,2.4.8.4.5.7,1.1.7,1.8h0c0,1.4-.8,2.2-2,2.6l2.3,3.2h-1.8l-2.1-2.9h-1.8v2.9h-1.5ZM995.3,83.3h2.2c1.1,0,1.7-.6,1.7-1.4h0c0-.9-.6-1.4-1.7-1.4h-2.1v2.8ZM1002.5,87.6v-8.4h6.2v1.3h-4.8v2.2h4.2v1.3h-4.2v2.3h4.8v1.3h-6.3ZM1010.5,87.6v-8.4h3.1c2.6,0,4.5,1.8,4.5,4.2h0c0,2.4-1.8,4.2-4.5,4.2h-3.1ZM1013.6,80.5h-1.7v5.7h1.7c1.8,0,2.9-1.2,2.9-2.8h0c0-1.7-1.1-2.9-2.9-2.9ZM913.6,101.6v-8.4h1.6l2.6,4,2.6-4h1.6v8.4h-1.5v-6l-2.7,4h0l-2.6-3.9v6h-1.5ZM923.3,101.6l3.7-8.5h1.4l3.7,8.5h-1.6l-.9-2h-4l-.9,2h-1.5ZM926.2,98.2h2.9l-1.5-3.4-1.4,3.4ZM934.4,101.6v-7h-2.7v-1.4h6.8v1.4h-2.7v7h-1.5ZM940.2,101.6v-8.4h6.2v1.3h-4.8v2.2h4.2v1.3h-4.2v2.3h4.8v1.3h-6.3ZM948.2,101.6v-8.4h3.7c1.1,0,1.9.3,2.4.8.4.5.7,1.1.7,1.8h0c0,1.4-.8,2.2-2,2.6l2.3,3.2h-1.8l-2.1-2.9h-1.8v2.9h-1.5ZM949.7,97.3h2.2c1.1,0,1.7-.6,1.7-1.4h0c0-.9-.6-1.4-1.7-1.4h-2.1v2.8ZM957,101.6v-8.4h1.5v8.4h-1.5ZM960,101.6l3.7-8.5h1.4l3.7,8.5h-1.6l-.9-2h-4l-.9,2h-1.5ZM962.9,98.2h2.9l-1.5-3.4-1.4,3.4ZM970.2,101.6v-8.4h1.5v7.1h4.4v1.3h-5.9Z"/>
      <path class="cls-2" d="M99,52v8.3M105.7,26.8l-1.9-.8M105.7,31.4l-1.9.8M109.2,23.3l-.8-1.9M109.2,34.9l-.8,1.9M114.6,21.4l-.8,1.9M114.6,36.8l-.8-1.9M119.2,26l-1.9.8M119.2,32.2l-1.9-.8M119.8,43.7v4.2c0,1.1-.4,2.2-1.2,2.9-.8.8-1.8,1.2-2.9,1.2h-33.3c-1.1,0-2.2-.4-2.9-1.2-.8-.8-1.2-1.8-1.2-2.9v-20.8c0-1.1.4-2.2,1.2-2.9.8-.8,1.8-1.2,2.9-1.2h14.6M90.7,60.3h16.7M117.7,29.1c0,3.5-2.8,6.2-6.2,6.2s-6.2-2.8-6.2-6.2,2.8-6.2,6.2-6.2,6.2,2.8,6.2,6.2Z"/>
    </g>
  </g>
</svg>