<svg width="152" height="137" viewBox="0 0 152 137" fill="none" xmlns="http://www.w3.org/2000/svg">
<g clip-path="url(#clip0_848_259)">
<path d="M14.8364 68.3364C13.8636 68.3364 13.0545 67.5636 13.0182 66.5818C12.3818 49.2727 18.6182 32.7273 30.6 20.0182C42.3818 7.50909 58.1 0.399998 74.8364 0.0181802C91.8455 -0.390911 108.664 6.54545 120.955 19C133.436 31.6455 140.227 48.9909 139.591 66.5818C139.555 67.5818 138.682 68.3636 137.709 68.3364C136.709 68.3 135.918 67.4546 135.955 66.4546C136.555 49.8545 130.145 33.4909 118.364 21.5545C106.773 9.80909 90.9364 3.27273 74.9182 3.65454C59.1546 4.01818 44.3545 10.7091 33.2455 22.5091C21.9364 34.5091 16.0455 50.1182 16.6545 66.4546C16.6909 67.4546 15.9091 68.3 14.9091 68.3364C14.8818 68.3364 14.8545 68.3364 14.8364 68.3364Z" fill="#1CA596"/>
<path d="M89.5363 64.1091C88.9545 64.1091 88.3818 63.9727 87.8363 63.6909L76.2999 57.6273L64.7636 63.6909C63.5272 64.3364 62.0636 64.2364 60.9363 63.4182C59.809 62.6 59.2545 61.2364 59.4909 59.8636L61.6908 47.0182L52.3545 37.9091C51.3545 36.9364 50.9999 35.5091 51.4363 34.1818C51.8636 32.8545 52.9908 31.9091 54.3727 31.7091L67.2727 29.8364L73.0454 18.1455C73.6636 16.8909 74.909 16.1182 76.309 16.1182C77.6999 16.1182 78.9545 16.8909 79.5727 18.1455L85.3454 29.8364L98.2454 31.7091C99.6272 31.9091 100.745 32.8545 101.182 34.1818C101.609 35.5091 101.264 36.9364 100.264 37.9091L90.909 47.0091L93.109 59.8545C93.3454 61.2273 92.7909 62.5909 91.6636 63.4091C91.0272 63.8727 90.2818 64.1091 89.5363 64.1091ZM76.2999 53.7545C76.5908 53.7545 76.8818 53.8273 77.1454 53.9636L89.5272 60.4727L87.1636 46.6818C87.0636 46.0909 87.2545 45.4909 87.6908 45.0727L97.709 35.3091L83.8636 33.3C83.2727 33.2182 82.7636 32.8455 82.4909 32.3091L76.2999 19.7636L76.2908 19.7545L70.109 32.3091C69.8454 32.8455 69.3363 33.2182 68.7363 33.3L54.8908 35.3091L64.909 45.0727C65.3363 45.4909 65.5363 46.0909 65.4363 46.6818L63.0727 60.4727L75.4545 53.9636C75.7181 53.8182 76.009 53.7545 76.2999 53.7545Z" fill="#1CA596"/>
<path d="M24.3728 137C22.4819 137 20.6455 136.018 19.6364 134.273L1.48186 102.827C-0.0181423 100.227 0.872767 96.8818 3.48186 95.3727L17.7455 87.1364C20.3546 85.6364 23.6909 86.5273 25.2 89.1364L43.3546 120.582C44.0819 121.845 44.2728 123.309 43.9 124.718C43.5273 126.127 42.6182 127.3 41.3546 128.027L27.091 136.264C26.2364 136.764 25.2909 137 24.3728 137ZM20.4637 90.0545C20.1546 90.0545 19.8455 90.1364 19.5546 90.3L5.30004 98.5273C4.4364 99.0273 4.1364 100.145 4.6364 101.009L22.7909 132.455C23.2909 133.327 24.4091 133.618 25.2728 133.118L39.5364 124.882C40.4091 124.382 40.7 123.264 40.2 122.4L22.0455 90.9545C21.7091 90.3727 21.091 90.0545 20.4637 90.0545Z" fill="#1CA596"/>
<path d="M109.255 103.527C109.1 103.527 108.945 103.509 108.791 103.464C107.818 103.209 107.245 102.209 107.5 101.236C108.4 97.8273 108.273 95.3273 107.109 93.8C105.109 91.1727 99.9637 91.1091 95.8273 91.0546C94.1182 91.0364 92.5 91.0091 91.1909 90.8182C82.2182 89.4727 76.3909 86.8818 70.7637 84.3818C66.7364 82.5909 62.9364 80.9 58.0455 79.6455C46.7455 76.8182 26.7818 94.0909 26.5818 94.2636C25.8273 94.9273 24.6818 94.8455 24.0182 94.0909C23.3546 93.3364 23.4364 92.1818 24.1909 91.5273C25.0637 90.7546 45.7909 72.8273 58.9364 76.1091C64.1364 77.4455 68.2546 79.2727 72.2364 81.0455C77.6455 83.4546 83.2364 85.9364 91.7182 87.2091C92.7818 87.3636 94.2728 87.3909 95.8546 87.4091C100.782 87.4727 106.918 87.5455 109.991 91.5909C111.891 94.1 112.227 97.5545 111 102.164C110.791 102.982 110.064 103.527 109.255 103.527Z" fill="#1CA596"/>
<path d="M96.3637 123.609C86.1455 123.609 78.791 121.736 72.6 120.164C62.7819 117.664 55.691 115.864 43.0364 121.909C42.1273 122.336 41.0455 121.955 40.6091 121.055C40.1728 120.145 40.5637 119.064 41.4637 118.627C55.3091 112.018 63.7364 114.155 73.491 116.636C81.6728 118.718 90.9546 121.073 106.055 119.418C109.755 119.009 113.355 118.136 116.755 116.809C147.946 104.636 148.882 97.1 147.036 91.0091C144.318 86.7273 141.382 87.8909 130.482 94.4364C127.655 96.1364 124.445 98.0636 120.791 100.045C104.182 109.064 74.9637 104.182 73.7273 103.964C72.7364 103.791 72.0728 102.855 72.2455 101.864C72.4182 100.873 73.3546 100.2 74.3455 100.382C74.6364 100.427 103.564 105.264 119.064 96.8455C122.646 94.9 125.818 92.9909 128.618 91.3182C138.336 85.4818 145.355 81.2636 150.264 89.3C150.336 89.4273 150.4 89.5636 150.446 89.7C153.455 99.2455 149.1 108.091 118.082 120.191C114.382 121.636 110.473 122.591 106.455 123.027C102.8 123.445 99.4546 123.609 96.3637 123.609Z" fill="#1CA596"/>
</g>
<defs>
<clipPath id="clip0_848_259">
<rect width="150.491" height="137" fill="white" transform="translate(0.754517)"/>
</clipPath>
</defs>
</svg>
