<svg width="110" height="137" viewBox="0 0 110 137" fill="none" xmlns="http://www.w3.org/2000/svg">
<g clip-path="url(#clip0_848_241)">
<path d="M55.9117 137C55.2382 137 54.5564 136.86 53.9322 136.581C43.443 131.94 28.4362 122.864 16.526 105.951C5.01007 89.5892 1.42058 72.9971 0.434911 61.9494C0.426697 61.9083 0.426697 61.859 0.426697 61.8098V24.2229C0.426697 22.7197 1.10024 21.3151 2.27483 20.3787C3.44942 19.4341 4.969 19.0892 6.4475 19.4177C12.8954 20.8634 22.7768 21.5944 33.2742 16.8303C42.0384 12.8548 47.5418 6.63685 50.6138 2.12741C51.5173 0.79675 52.9629 0.0246418 54.5729 0C54.5975 0 54.6222 0 54.6468 0C56.2321 0 57.727 0.763895 58.6634 2.04527C62.7868 7.71287 67.9451 12.1812 73.9906 15.3272C85.9008 21.5287 97.7042 20.4937 103.684 19.3356C105.138 19.0481 106.633 19.4259 107.783 20.3705C108.924 21.3069 109.573 22.6951 109.573 24.1654V61.8837C109.187 72.4879 106.28 92.9734 91.1495 111.767C80.0935 125.501 66.8938 132.868 57.7681 136.622C57.1767 136.877 56.5442 137 55.9117 137ZM3.71227 61.7358C4.67329 72.3729 8.13957 88.3325 19.2119 104.062C30.6868 120.359 45.1433 129.106 55.2546 133.575C55.6571 133.747 56.1171 133.756 56.5196 133.591C65.292 129.977 77.9743 122.905 88.5867 109.713C103.125 91.6592 105.91 71.9622 106.28 61.8262V24.1654C106.28 23.4918 105.91 23.0893 105.688 22.9004C105.302 22.5801 104.801 22.4569 104.308 22.5554C97.9095 23.8039 85.2683 24.9046 72.471 18.2349C65.9656 14.8508 60.4294 10.0456 56.0021 3.96732C55.6818 3.53199 55.2053 3.27735 54.6304 3.28557C54.1047 3.29378 53.6283 3.54841 53.3326 3.97554C50.0224 8.83818 44.0919 15.5243 34.6295 19.8202C23.3025 24.9539 12.6572 24.1818 5.72468 22.6211C5.23184 22.5144 4.72258 22.6294 4.32831 22.9415C4.09832 23.1304 3.71227 23.5411 3.71227 24.2229V61.7358Z" fill="#1CA596"/>
<path d="M52.5522 85.1455C51.0655 85.1455 49.6856 84.4884 48.741 83.3302L30.7196 61.2594C30.1447 60.553 30.2514 59.5181 30.9496 58.9513C31.6478 58.3763 32.691 58.4831 33.2577 59.1813L51.2791 81.2521C51.6076 81.6546 52.0923 81.8435 52.6015 81.8517C53.119 81.8353 53.5872 81.5889 53.8829 81.17L80.6521 43.7391C81.1778 42.9999 82.2045 42.8274 82.9438 43.3613C83.683 43.887 83.8555 44.9137 83.3216 45.653L56.5524 83.0838C55.6489 84.3406 54.2443 85.0962 52.7001 85.1455C52.659 85.1455 52.6015 85.1455 52.5522 85.1455Z" fill="#1CA596"/>
</g>
<defs>
<clipPath id="clip0_848_241">
<rect width="109.147" height="137" fill="white" transform="translate(0.426697)"/>
</clipPath>
</defs>
</svg>
