<svg width="120" height="137" viewBox="0 0 120 137" fill="none" xmlns="http://www.w3.org/2000/svg">
<path d="M59.8874 137H59.8788C58.9179 137 57.9916 136.593 57.3424 135.883L40.6957 117.8C39.7521 116.769 39.5097 115.341 40.0724 114.06C40.6351 112.779 41.847 111.991 43.2407 111.991H50.8932L50.9624 111.238V84.056L26.7152 98.2788L30.6453 104.979C31.3552 106.182 31.2859 107.637 30.4549 108.771C29.6325 109.905 28.2734 110.415 26.9056 110.112L3.0739 104.806C2.13899 104.598 1.3166 104.001 0.831832 103.17C0.34706 102.339 0.234524 101.335 0.511537 100.417L7.67924 76.8883C8.0861 75.5552 9.20281 74.6202 10.5879 74.4644C11.9729 74.2999 13.2714 74.9492 13.9813 76.1525L17.8508 82.7575L18.5347 82.4285L42.1933 68.5433L17.643 54.3551L13.7562 61.0813C13.055 62.2932 11.7565 62.9424 10.3628 62.7866C8.96908 62.6308 7.85237 61.6959 7.44551 60.3628L0.295121 37.0158C0.00945148 36.0982 0.130644 35.094 0.615416 34.263C1.10019 33.4319 1.91391 32.8346 2.84883 32.6269L26.8364 27.2511C28.1955 26.9395 29.5546 27.4589 30.3856 28.5756C31.208 29.7009 31.2946 31.1466 30.5934 32.3585L26.7671 38.9809L27.3904 39.4137L50.9538 53.0219V23.5287H43.3619C41.9682 23.5287 40.713 22.6977 40.1676 21.4079C39.6222 20.118 39.9079 18.6464 40.8861 17.6422L57.126 1.0388C58.4591 -0.320297 60.6492 -0.346267 62.0083 0.969543L78.7849 17.2267C79.8064 18.2136 80.118 19.7025 79.5813 21.0183C79.0446 22.3341 77.7894 23.1825 76.3697 23.1825H68.7518V52.9527L94.1677 38.0459L90.3242 31.4929C89.6143 30.2896 89.7009 28.7833 90.5406 27.6666C91.3803 26.5499 92.7913 26.0392 94.1504 26.3768L116.692 31.9776C118.536 32.4364 119.67 34.3149 119.22 36.1588L113.697 58.8652C113.36 60.2416 112.243 61.2631 110.84 61.4708C109.429 61.6786 108.07 61.0207 107.352 59.8001L103.5 53.2297L77.5989 68.4221L103.335 83.2855L107.135 76.7065C107.837 75.4946 109.178 74.828 110.563 75.0011C111.948 75.1743 113.091 76.1611 113.463 77.5029L119.722 99.8717C120.233 101.707 119.168 103.611 117.333 104.131L94.8603 110.528C93.5012 110.918 92.0555 110.441 91.1812 109.325C90.3069 108.208 90.203 106.693 90.9128 105.464L94.7218 98.8675L68.7518 83.8742V112.19H76.5168C77.9192 112.19 79.1312 112.986 79.6938 114.268C80.2565 115.549 80.0055 116.986 79.0532 118.007L62.4152 135.875C61.7659 136.593 60.8483 137 59.8874 137ZM43.2407 115.454C43.2321 115.454 43.2234 115.454 43.2234 115.454L59.8874 133.537L76.5255 115.67H67.0292C66.0769 115.67 65.2978 114.891 65.2978 113.939V83.8829C65.2978 82.6276 65.9471 81.5109 67.0292 80.8877C68.1113 80.2644 69.4097 80.2644 70.4918 80.8877L97.9593 96.7553C98.7904 97.2314 99.0674 98.2962 98.5913 99.1185L93.9167 107.212L116.389 100.815L110.131 78.4465L105.465 86.5231C104.989 87.3542 103.924 87.6398 103.101 87.1551L75.8676 71.4173C74.7855 70.794 74.1363 69.6773 74.1363 68.4307C74.1363 67.1842 74.7682 66.0675 75.8503 65.4355L103.24 49.3688C104.062 48.8841 105.127 49.1611 105.612 49.9834L110.338 58.0428L115.87 35.3451L93.328 29.7442L98.0459 37.7862C98.5307 38.6086 98.2537 39.6734 97.4313 40.1582L70.5178 55.9392C69.4357 56.5798 68.1372 56.5798 67.0465 55.9565C65.9557 55.3332 65.3065 54.2079 65.3065 52.9527V21.4512C65.3065 20.4989 66.0856 19.7198 67.0378 19.7198H76.387L59.6018 3.46266L43.3533 20.0661H52.6765C53.6287 20.0661 54.4078 20.8452 54.4078 21.7974V53.0306C54.4078 54.2858 53.7585 55.4025 52.6765 56.0258C51.5944 56.6491 50.2959 56.6491 49.2138 56.0258L25.5812 42.3829C25.5379 42.3569 25.4946 42.331 25.4513 42.2963L23.4689 40.9026C22.7331 40.3832 22.5167 39.3964 22.9669 38.6173L27.5895 30.6185L3.61061 36.003L10.761 59.3499L15.5135 51.1261C15.7472 50.7279 16.1195 50.4422 16.5609 50.3211C17.0024 50.1999 17.4786 50.2605 17.8768 50.4942L43.9333 65.5394C45.0153 66.1627 45.6559 67.2794 45.6646 68.526C45.6646 69.7725 45.0326 70.8892 43.9506 71.5212L20.2227 85.4497C20.1794 85.4757 20.1361 85.5016 20.0842 85.519L17.8941 86.5578C17.0803 86.9386 16.1108 86.6443 15.6607 85.8652L10.9861 77.9011L3.81837 101.413L27.6501 106.719L22.8457 98.5299C22.3609 97.7075 22.6379 96.6427 23.4603 96.158L49.1965 81.0608C50.2786 80.4288 51.5771 80.4202 52.6678 81.0435C53.7585 81.6668 54.4078 82.7921 54.4078 84.0473V111.307C54.4078 111.359 54.4078 111.411 54.3991 111.463L54.1827 113.878C54.1048 114.77 53.3517 115.454 52.46 115.454H43.2407Z" fill="#1CA596"/>
</svg>
