<svg width="136" height="137" viewBox="0 0 136 137" fill="none" xmlns="http://www.w3.org/2000/svg">
<g clip-path="url(#clip0_848_279)">
<path d="M135.475 131.231C134.471 125.712 131.234 115.569 120.908 109.676C109.886 103.377 98.7557 106.547 94.863 108.008C92.29 104.364 83.9817 94.4292 69.7969 93.7901C69.6724 92.8937 68.8839 87.1086 68.5519 79.2734C82.6371 81.9875 94.946 79.7631 105.155 72.65C119.298 62.7896 124.17 47.3516 124.693 43.7577C125.39 39.035 129.516 31.8637 131.914 28.0125C132.62 26.8754 132.711 25.4727 132.155 24.2526C131.599 23.0408 130.47 22.1942 129.15 21.9867C120.244 20.6255 98.515 18.4177 82.7201 25.896C82.6703 25.8213 82.6288 25.7466 82.5707 25.6802C57.239 -3.2536 20.9929 -1.0624 6.58405 1.2201C4.89085 1.4857 3.49645 2.5896 2.84075 4.17491C2.18505 5.75191 2.39255 7.52811 3.38855 8.90591C6.44295 13.1389 11.7799 21.2978 13.1411 28.3528C16.0212 43.3344 30.1395 69.9857 64.7671 74.8246C64.8418 74.8329 64.9248 74.8412 64.9995 74.8412C65.0244 74.8412 65.041 74.8329 65.0576 74.8329C65.1987 84.1538 66.1449 91.6404 66.4437 93.8233C56.3343 94.4458 47.0549 99.8906 41.4358 108.597C37.5431 106.639 26.5622 102.264 15.2742 108.149C6.29355 112.839 0.608043 122.201 0.442043 132.601C0.425443 133.771 0.865343 134.875 1.68704 135.714C2.50875 136.544 3.59605 137 4.76635 137H130.669C132.122 137 133.491 136.361 134.421 135.24C135.35 134.12 135.732 132.659 135.475 131.231ZM128.636 25.2652C128.943 25.315 129.076 25.5142 129.134 25.6387C129.192 25.7632 129.258 25.9956 129.092 26.2612C125.996 31.2412 122.153 38.2299 121.406 43.2763C120.95 46.3722 116.294 60.8474 103.254 69.9276C93.6346 76.634 81.915 78.6343 68.4357 75.8704V75.8621C68.6432 75.6712 68.8176 75.4388 68.9006 75.1483C76.6777 49.825 100.565 50.4226 101.578 50.4641C102.499 50.5056 103.263 49.7918 103.304 48.8705C103.346 47.9492 102.632 47.1856 101.71 47.1441C101.461 47.1275 79.01 46.4884 68.5021 67.2467C69.0499 52.73 72.096 36.4288 82.1557 29.88C97.1787 21.5966 119.663 23.8874 128.636 25.2652ZM16.3947 27.7303C14.992 20.4346 10.012 12.4085 6.07775 6.96371C5.61295 6.32461 5.80385 5.68551 5.90345 5.44481C6.00305 5.20411 6.32675 4.62311 7.10695 4.49861C20.9099 2.3074 55.5292 0.1992 79.7487 27.5228C71.3988 33.3743 67.5642 44.9529 65.9955 56.8634C57.5793 33.1088 31.4758 22.1444 30.2308 21.6298C29.3842 21.2812 28.4131 21.6879 28.0645 22.5345C27.7159 23.3811 28.1226 24.3522 28.9692 24.7008C29.3012 24.8336 61.9949 38.5785 65.0327 67.5206C65.0493 67.6451 65.0742 67.7613 65.1157 67.8775C65.0742 69.1059 65.0493 70.3177 65.041 71.5046C32.4054 66.8649 19.1005 41.8238 16.3947 27.7303ZM131.873 133.116C131.698 133.323 131.308 133.68 130.669 133.68H4.76635C4.50075 133.68 4.24345 133.572 4.05255 133.381C3.86165 133.19 3.75375 132.925 3.76205 132.651C3.91145 123.471 8.90805 115.221 16.8014 111.104C20.4285 109.212 24.0556 108.548 27.359 108.548C35.0863 108.548 41.054 112.175 41.1453 112.233C41.5271 112.473 41.9836 112.54 42.4235 112.432C42.8551 112.324 43.2286 112.042 43.461 111.652C48.8726 102.298 58.816 96.7034 69.3819 97.0935C84.4963 97.6331 92.4892 110.382 92.8212 110.921C93.2611 111.635 94.1658 111.909 94.9294 111.56C96.2159 110.971 107.819 106.008 119.273 112.548C128.428 117.777 131.317 126.866 132.221 131.821C132.321 132.452 132.047 132.9 131.873 133.116Z" fill="#1CA596"/>
</g>
<defs>
<clipPath id="clip0_848_279">
<rect width="135.116" height="137" fill="white" transform="translate(0.442047)"/>
</clipPath>
</defs>
</svg>
