<?xml version="1.0" encoding="UTF-8"?>
<svg id="Layer_2" xmlns="http://www.w3.org/2000/svg" version="1.1" viewBox="0 0 270.3 266.7">
  <!-- Generator: Adobe Illustrator 29.5.1, SVG Export Plug-In . SVG Version: 2.1.0 Build 141)  -->
  <defs>
    <style>
      .st0 {
        fill: #0097d6;
      }
    </style>
  </defs>
  <g id="Layer_1-2">
    <g>
      <path class="st0" d="M235.9,62.3c.2,2.3.2,4.6.6,6.8,1.1,6.7,4.8,11.7,10.3,15.3,2.5,1.7,5.2,3,7.7,4.7,13.4,8.8,20,28,13,43.8-1.9,4.4-4.6,8.3-7.8,11.8-6.8,7.5-8.4,16-4.9,25.5,1.6,4.3,3,8.7,3.4,13.4.7,8.7-1.8,16.5-6.6,23.7-5.7,8.4-13.9,13.1-23.8,14.9-2.9.5-5.8,1-8.6,2-6.6,2.3-10.9,7-13.6,13.4-.9,2.1-1.6,4.2-2.4,6.4-4,10.1-11.3,16.8-21.4,20.6-7.3,2.7-14.7,3.1-22.2.9-3.6-1-6.8-2.7-10-4.5-2.2-1.3-4.4-2.6-6.8-3.4-6.7-2.5-13.1-1.5-19.3,1.9-3.3,1.8-6.7,3.8-10.2,5.2-7.3,3-14.9,2.9-22.4.7-5.1-1.5-9.8-3.9-13.9-7.4-5.3-4.6-8.9-10.5-11-17.2-1.2-3.9-3-7.4-5.7-10.5-3.6-4.1-8.2-6.3-13.5-7.3-3.4-.7-6.9-1.2-10.2-2.3-7.5-2.4-13.5-7-17.9-13.5-4.8-7.1-7.2-14.9-6.6-23.5.3-3.7,1.3-7.2,2.5-10.7.7-1.9,1.4-3.8,1.9-5.7,2.1-8.1.2-15.2-5.1-21.5-2-2.5-4.1-4.9-5.9-7.6-4.6-7.2-6.2-15.1-5.1-23.6,1.2-8.4,4.6-15.7,10.8-21.6,2.8-2.7,6-4.8,9.4-6.5,5-2.6,9-6.3,11.4-11.4,1.5-3.1,2.2-6.4,2.3-9.9,0-3,0-6,.3-9,1.7-14.3,9.5-24.1,22.5-29.8,6.6-2.9,13.5-3.6,20.6-2,1.9.4,3.9.7,5.9.9,6.6.6,12.5-.9,17.4-5.5,2.3-2.2,4.3-4.7,6.5-7.1C116.6,2.5,127.9-1.5,141.1.5c8.7,1.3,16,5.5,21.7,12.3,1.4,1.6,2.7,3.3,4.2,4.9,6,6.4,13.3,8.5,21.9,7.1,2.8-.5,5.5-1,8.3-1.2,7.9-.6,15.1,1.3,21.7,5.6,5.5,3.6,9.9,8.2,13,14.1,2.6,5,3.8,10.2,4,15.8,0,1.1,0,2.1,0,3.2,0,0,0,0-.1,0h0ZM70.6,35.6c-4.8,0-9,1.5-12.8,4.2-7.1,4.9-11,11.6-10.9,20.5,0,4.5-.1,8.9-1.3,13.3-1.8,6.8-5.3,12.5-10.2,17.4-2.9,2.9-6.4,4.8-9.9,6.7-5.2,2.8-9.1,6.8-11.1,12.4-3.2,8.7-2.2,16.8,3.8,24.1,1.1,1.3,2.2,2.5,3.3,3.8,5.3,6.5,8.3,13.8,8.5,22.2.1,5.4-1,10.6-3.1,15.6-2.5,6.2-3.2,12.5-.6,18.9,2.5,6,6.5,10.5,12.4,13.4,2.9,1.4,6,1.8,9.1,2.3,4.6.8,9,2,13.1,4.3,8.2,4.8,13.6,11.9,16.6,20.9,1.1,3.4,2.5,6.6,4.8,9.4,2.8,3.4,6.2,5.8,10.3,7.4,5.5,2.1,11.1,2.4,16.6.2,2.9-1.2,5.6-2.8,8.4-4.3,9.8-5.4,19.9-6.5,30.3-2.3,3.3,1.3,6.5,3.1,9.6,4.9,4.7,2.6,9.7,3.8,15.1,2.9,8.2-1.2,14.4-5.4,18.2-12.9,1.3-2.6,2.2-5.4,3.3-8.2,3.4-8.5,9.3-14.8,17.4-18.9,3.9-2,8.1-3,12.5-3.6,6.4-.8,11.9-3.3,16.1-8.4,5.8-7.2,7.3-15.1,4.4-23.9-1-3-2.3-6-3-9.1-2.3-10.9,0-21,6.9-29.9,1.4-1.9,3-3.6,4.4-5.4,1.9-2.4,3.4-5,4.2-7.9,2.5-10.1-.9-22-11.7-27.7-1.8-1-3.6-2-5.4-3.2-9.6-6.5-15.1-15.5-16.1-27.1-.2-2.8-.2-5.6-.3-8.4-.1-4.6-1.2-9-4-12.8-6.2-8.4-14.3-11.9-24.6-10.2-1.9.3-3.8.7-5.7,1-11.2,1.3-21.2-1.5-29.5-9.5-2.5-2.4-4.7-5.1-7-7.7-8.7-9.8-25.4-10.2-34.7,0-1.4,1.6-2.8,3.3-4.2,4.9-5.1,5.8-11.2,9.9-18.8,11.7-6.2,1.5-12.3,1.1-18.5,0-1.9-.3-3.8-.6-5.7-.9h0Z"/>
      <path class="st0" d="M214.7,131.6c.9,43.3-33.5,79.2-75.7,81.1-43.9,2.1-81.8-31.8-83.3-76.8-1.4-43.7,31.8-79.5,74.9-81.8,47-2.5,83,34.1,84.1,77.4ZM135,200.1c35.7.3,65.9-28.1,67-64.9,1.1-36.2-27.6-68.2-66-68.8-37.2-.5-67.2,29.5-68,65.3-.9,39.7,32.1,68.9,66.9,68.4h0Z"/>
      <path class="st0" d="M127.1,153.9c1-1.4,1.8-2.6,2.6-3.7,11.4-17,22.9-34.1,34.2-51.1,1.7-2.6,3.9-3.9,7-3.6,3.2.3,6.8,4.9,4.7,8.5-1.1,1.9-2.3,3.7-3.6,5.6-8.8,13.1-17.6,26.2-26.3,39.3-4.1,6.1-8.2,12.2-12.3,18.3-.4.6-.9,1-1.2,1.6-2.1,3.6-7.8,3-9.8,0-3.4-4.7-7-9.3-10.5-13.9-5.4-7.1-10.8-14.3-16.3-21.4-1.7-2.3-2-4.6-.7-7.1,2-3.9,7.5-4.5,10.2-1,3.5,4.5,7,9.1,10.5,13.7,3.3,4.4,6.7,8.9,10,13.3.3.5.8.9,1.4,1.5h0Z"/>
    </g>
  </g>
</svg>