<?xml version="1.0" encoding="UTF-8"?>
<svg id="Layer_2" xmlns="http://www.w3.org/2000/svg" version="1.1" viewBox="0 0 233.6 233.7">
  <!-- Generator: Adobe Illustrator 29.5.1, SVG Export Plug-In . SVG Version: 2.1.0 Build 141)  -->
  <defs>
    <style>
      .st0 {
        fill: #0097d6;
        stroke: #0097d6;
        stroke-miterlimit: 10;
        stroke-width: 2.1px;
      }
    </style>
  </defs>
  <g id="Layer_1-2">
    <g>
      <path class="st0" d="M121.6,9.9c.5-2.2,1-4.2,1.4-6.2.2-1,.6-1.9,1.8-2.5.6.5,1.2.9,1.8,1.5,3,2.6,5.9,5.2,8.9,7.8,1,.9,2.1,1.4,3.4,1.7,3.9,1,7.8,1.9,11.7,3.2,6.1,2,12,4.3,17.5,7.7,5.9,3.5,11.8,7,17.1,11.5,4.6,4,9,8.2,12.9,12.9,1,1.2,2,2.3,3,3.5,7.5,9.4,13,19.9,16.9,31.2,3.4,9.7,5.3,19.7,5.7,30,.1,2.8.1,5.6.2,8.3,0,.4,0,.8,0,1.3,1.7.4,3.4.8,5.2,1.2.8.2,1.7.4,2.5.7,1.1.4,1.2.8.6,1.8-.4.6-.9,1.2-1.4,1.8-2.2,2.5-4.4,5.1-6.7,7.5-1.3,1.4-2.2,2.9-2.6,4.7-1,4.8-2.3,9.4-4,14-2.9,7.9-6.6,15.4-11.2,22.4-5.1,7.8-11.3,14.6-18.2,20.9-7.9,7.1-16.6,12.9-26.2,17.3-9.2,4.3-18.9,7.3-29,8.8-6.2.9-12.4,1.1-18.7,1.2-.7,0-1.4,0-2.2,0-.3,1.6-.6,3.2-1,4.7-.3,1.1-.7,2.1-1.2,3.1-.4.8-.8.8-1.5.3-1.2-.9-2.3-1.8-3.5-2.8-2.5-2.1-4.9-4.3-7.4-6.5-.8-.7-1.7-1-2.7-1.2-2.7-.6-5.4-1.3-8.1-2-8.8-2.4-17.1-6.1-24.9-10.6-5.1-3-9.8-6.6-14.3-10.4-5.3-4.5-10.2-9.4-14.5-14.9-7-9-12.7-18.7-16.6-29.5-2.3-6.2-4-12.5-5.2-19-1.2-6.7-1.6-13.5-1.5-20.4,0-.9,0-1.9,0-3-1.8-.4-3.5-.7-5.3-1.1-.8-.2-1.7-.4-2.4-.8-.9-.5-1-1-.4-1.9.4-.6.9-1.2,1.5-1.8,2.4-2.7,4.7-5.4,7.1-8.1,1.1-1.2,1.7-2.5,2-4.1,1.6-8.8,4.7-17,8.7-24.9,6.2-12.2,14.2-23,24.6-32,2.7-2.4,5.5-4.7,8.3-6.9,3.4-2.7,7.3-4.8,11.1-6.9,8.2-4.6,17-8,26.1-10.4,5.3-1.4,10.7-2.4,16.1-2.9,3.9-.4,7.8-.3,11.7-.4.9,0,1.8,0,2.9,0h0ZM199.8,116.7c0-.4.1-.7.1-1-.3-3.9-.4-7.9-1-11.8-1.6-10.4-5.2-20.1-10.5-29.2-5.1-8.8-11.9-16.3-19.7-22.7-8.2-6.8-17.6-11.6-27.9-14.6-1.8-.5-3.6-.6-5.4,0-4.1,1.3-8.1,2.7-12.2,4-1.9.6-3.8,1.2-5.8,1.8-1.5.4-2.6-.6-2.4-2.1.1-1,.3-2.1.5-3.1.2-1.3.5-2.6.8-4h-1c-5.1,0-10.2.5-15.2,1.5-9.1,2-17.8,5-25.8,9.8-8.9,5.3-16.6,11.9-23.1,20-6.3,7.9-11.1,16.8-14.1,26.5-.8,2.7-.8,5.2,0,7.9,1.8,5.2,3.5,10.5,5.2,15.7.2.6.3,1.2.3,1.8,0,.9-.4,1.3-1.3,1.4-.5,0-1,0-1.4,0-1.7-.3-3.4-.7-5.1-1-.4,0-.8-.1-1.4-.2,0,.6,0,1,0,1.4,0,7.1,1.1,14,3,20.9,4.6,16.9,14,30.7,27.4,41.8,4.6,3.8,9.5,7.1,14.9,9.8,4.9,2.4,10,4.4,15.3,5.8.8.2,1.6.2,2.4,0,2.2-.7,4.5-1.4,6.7-2.1,4-1.3,8-2.6,12.1-3.9.8-.2,1.7-.4,2.4-.5.8,1.3.9,2.5.6,3.8-.3,1.4-.6,2.9-.9,4.4,0,.5,0,1-.2,1.7,3-.1,5.9-.1,8.7-.4,5.4-.6,10.7-1.6,15.9-3.3,5.9-1.9,11.6-4.4,17-7.5,6.6-3.8,12.4-8.5,17.8-13.9,5.9-5.9,10.8-12.6,14.4-20.1,2-4.1,3.8-8.4,5.3-12.7.9-2.7,1-5.2,0-7.9,0-.1-.1-.3-.1-.4-1.7-5.2-3.4-10.4-5.1-15.6-.1-.4-.2-.7-.3-1.1-.1-1.1.3-1.7,1.4-1.8.4,0,.9,0,1.3,0,1.6.3,3.3.7,4.9,1,.5,0,1,.1,1.6.2h0ZM6.8,107.7c.5.2,1,.4,1.6.6,1,.3,2.1.5,3.1.7,1.6.3,1.9.8,1.8,2.4-.6,7.6-.1,15.1,1.1,22.5,2.1,12.2,6.1,23.7,12.2,34.6,4,7.2,9,13.7,14.5,19.8,2.9,3.1,6,6,9.4,8.7,4.6,3.7,9.4,7,14.4,10,7.5,4.4,15.4,7.5,23.6,10.1.7.2,1.5.6,2.4.1-.2-.2-.4-.4-.6-.5-3.5-3.1-7-6.2-10.4-9.3-.9-.8-1.7-1.7-2.5-2.5.7-1.1,1.4-1.8,2.4-2.2.5-.2,1-.4,1.5-.6,2.6-.8,5.1-1.7,7.9-2.6-1-.4-1.9-.8-2.8-1.1-6.3-2.3-12.2-5.4-17.7-9.2-4.9-3.3-9.5-7-13.6-11.3-4.3-4.5-8.3-9.3-11.7-14.5-5.3-8.2-8.9-17.2-11.2-26.7-1.6-6.9-2.2-14-2.3-21.1,0-.2,0-.5,0-.7.1-1.3.7-1.8,2-1.5,1.5.3,3,.7,4.5,1,.5.1,1.1.2,1.7.2,0-1.2-8.7-28.5-9.8-30.8-1.6,1.2-20.9,22.5-21.5,23.9h0ZM199.4,144.5c-.3.6-.5.9-.6,1.2-1.9,4.4-3.7,9-6.1,13.2-4.1,7.2-9,13.8-14.9,19.7-7.2,7.2-15.5,13.1-24.8,17.3-5.8,2.6-11.7,4.7-18,6-6.5,1.3-13,2-19.6,1.8-.5,0-1,0-1.4-.1-.9-.2-1.2-.4-1.1-1.4,0-.9.3-1.8.5-2.7.3-1.4.5-2.7.9-4.3-10.5,3.4-20.7,6.6-31.1,10.1,8.2,7.4,16.2,14.5,24.3,21.9.6-2.5,1.2-4.8,1.7-7.2,12.2,1,24,.2,35.7-3.3,11.6-3.4,22.3-8.5,32.2-15.4,9.9-7,18.4-15.4,25.2-25.4,6.8-9.9,11.8-20.7,14.8-32.7-.5.4-.8.6-1,.8-.7.7-1.4,1.5-2.1,2.2-2.4,2.7-4.9,5.4-7.4,8.1-.6.7-1.4,1.3-2,1.9-1.4-.4-1.9-1.3-2.3-2.4-.9-3-1.9-5.9-2.9-9.2h0ZM144.3,34.6c.4.2.8.3,1.1.5,3.7,1.6,7.5,3.1,11.2,4.9,6.5,3.2,12.2,7.6,17.6,12.3,6.4,5.6,12,12,16.4,19.3,4.9,8,8.4,16.5,10.6,25.5,1.3,5.3,2,10.8,2.2,16.2,0,1.9.2,3.7.2,5.6,0,1.4-.6,1.9-2,1.7-.7,0-1.3-.3-2-.4-1.4-.3-2.9-.6-4.4-.8.4,2.3,9.4,29.7,10.2,30.8,7.2-7.9,14.4-15.9,21.6-23.9-.6-.2-1.1-.3-1.5-.4-1.4-.3-2.8-.6-4.2-1-1.2-.3-1.3-.5-1.2-1.7.3-7.5,0-15-1.1-22.4-1-6.4-2.6-12.7-4.8-18.8-3.1-8.6-7.2-16.6-12.4-24.1-2.9-4.1-6-8.1-9.4-11.8-5-5.5-10.8-10.1-16.9-14.3-4.3-2.9-8.7-5.6-13.4-8-5.3-2.6-10.8-4.7-16.6-6.2-.8-.2-1.6-.3-2.3-.4.3.7.8,1.1,1.2,1.5,3,2.7,6,5.4,9,8.1.9.8,1.7,1.8,2.5,2.7-.6,1.3-1.6,1.8-2.7,2.2-3,1-5.9,1.9-9.1,2.9h0ZM34.2,89.5c.4-.9.6-1.6.9-2.3,1.8-4.5,3.7-9,6.1-13.2,7.4-12.6,17.3-23,29.7-30.8,5.8-3.7,12-6.3,18.3-8.5,9.4-3.3,19.1-4.5,29-4.5,1.8,0,2.7,1.3,2.2,3-.5,1.8-.9,3.6-1,5.5,1.7-.2,29.8-9.5,30.6-10.1-2.2-2.6-22.6-20.7-24.1-21.4,0,.4-.2.7-.3,1.1-.3,1.4-.5,2.8-.9,4.2-.3,1.2-1,1.5-2.3,1.3-.6-.1-1.1-.3-1.7-.3-5.6,0-11.2-.2-16.7.8-4.9.9-9.8,1.5-14.5,2.8-13.8,3.9-26.4,10.2-37.7,19.2-8.4,6.7-15.4,14.5-21.4,23.4-6.2,9.2-10.7,19.2-13.7,29.8-.1.5-.2.9-.3,1.4,4.5-4.3,8.3-9.2,12.9-13.3,1,.8,1.6,1.7,1.9,2.8,1,3,1.9,5.9,3,9.1h0Z"/>
      <path class="st0" d="M50.5,117.2c-.2-9.5,1.5-18.6,5.7-27.2,2-4.3,4.3-8.3,7.1-12.2,3.4-4.6,7.4-8.6,11.7-12.2,6.2-5.3,13.3-9,20.9-11.5,7-2.3,14.2-3.4,21.7-3.3,12.3.2,23.8,3.5,34.3,9.9,2.8,1.8,5.4,3.8,7.9,6,3.4,3.1,6.7,6.3,9.5,10,2.9,3.8,5.5,7.7,7.6,12,4.2,8.7,6.1,18,6.4,27.6.2,5.7-.6,11.3-1.9,16.8-2.4,9.9-6.9,18.8-13.6,26.5-4,4.6-8.2,8.9-13.3,12.2-7.4,4.8-15.4,8.5-24.1,10.3-2.8.6-5.7.9-8.6,1.1-5.8.3-11.5.2-17.2-.8-5.6-1-10.8-2.9-15.9-5.4-6.9-3.3-13.2-7.4-18.6-12.9-5.3-5.5-9.8-11.5-13.1-18.5-3.8-8-5.8-16.4-6.3-25.3,0-1.1,0-2.1,0-3.2h0ZM53.9,118.7c0,6.5,1.5,14.1,4.3,21.4,3.4,8.8,8.8,16.3,15.5,22.8,2.9,2.8,6,5.5,9.6,7.5,3.9,2.1,7.6,4.4,11.9,5.8,4.9,1.6,10,2.8,15.2,3.4,6,.7,12.1.4,18-.9,6-1.3,11.9-3,17.4-5.9,5.9-3.1,11.2-7,15.8-11.7,5.1-5.3,9.5-11.1,12.5-17.8,3.1-6.9,4.9-14,5.4-21.5.4-5.2,0-10.3-.8-15.3-1.5-9.5-5.2-18-10.6-25.9-4.2-6.1-9.7-11.1-15.7-15.3-8.6-6-18.2-9.7-28.7-10.7-7.8-.8-15.5-.5-23.1,1.7-7.4,2.2-14.5,5.1-20.7,9.8-5,3.7-9.6,7.9-13.3,12.9-4.8,6.5-8.3,13.5-10.5,21.3-1.6,5.6-2.3,11.3-2.1,18.5h0Z"/>
      <path class="st0" d="M120.5,77.6v-9.8c0-.9,0-1.7,0-2.6,0-.9,1-1.8,1.7-1.9.8,0,1.6.8,1.8,1.8,0,.4,0,.9,0,1.3,0,3.6,0,7.2,0,10.8,0,.4,0,.8,0,1.4,1.8.7,3.7,1.4,5.5,2.2,4.8,2,8.5,5.2,10.9,9.8.8,1.4,1.1,3.2,1.6,4.8.2.7.2,1.4.3,2.1,0,.2,0,.4,0,.6,0,1.1-.6,2-1.5,2.2-.8.1-1.7-.6-2-1.5,0-.3-.1-.6-.2-.8-.3-4.3-2.4-7.7-5.6-10.5-3.1-2.7-6.8-4.1-10.7-5-6.2-1.4-12.2-.5-18,2.1-3.4,1.5-6.1,3.9-8,7-1.6,2.5-2.2,5.2-1.9,8.1.4,4.1,2.2,7.2,5.2,9.9,4.6,4,10,5.6,15.9,5.8,4.3.1,8.4.9,12.5,2.5,3.6,1.4,6.8,3.4,9.4,6.2,4.3,4.7,5.9,10.1,4.3,16.3-.8,3.3-2.6,6-5,8.4-2.6,2.5-5.5,4.4-9,5.5-.9.3-1.8.7-2.7,1-.8.3-1.1.8-1.1,1.6,0,3.6,0,7.1,0,10.7v2.4c-.6.5-1,.8-1.5,1.2-.2,0-.3-.2-.6-.3-1.2-.4-1.5-1.3-1.5-2.5,0-2.9,0-5.9,0-8.8v-3.1h-7.5v1.6c0,3.6,0,7.2,0,10.8,0,1.2-.4,1.6-1.6,1.8-1.3.1-1.8-.3-1.8-1.6,0-3.9,0-7.8-.1-11.7v-1.6c-2.3-.9-4.5-1.6-6.6-2.6-3.3-1.5-6-3.9-8.3-6.7-2.1-2.6-3.2-5.6-3.5-9,0-.7,0-1.5.3-2.2.4-1.1,1.5-1.4,2.4-.6.3.3.6.8.8,1.2.1.3.2.8.2,1.1.2,4.2,2.2,7.4,5.4,10.1,3.7,3.2,8,4.9,12.8,5.3,5.1.4,10.1.3,14.9-1.8,3-1.2,5.6-3,7.7-5.4,4.7-5.4,4.8-11.9.6-17.7-2-2.8-4.7-4.8-7.8-6.1-2.7-1.1-5.5-2.2-8.6-2.3-1.5,0-3.1-.1-4.6-.1-3.3,0-6.4-.9-9.5-2.2-1.9-.8-4-1.4-5.7-2.8-2.5-1.9-4.8-4-6.4-6.7-2.8-4.6-3.8-12.9.5-18.5,2.9-3.8,6.5-6.7,10.9-8.4,1.5-.6,3-1.2,4.6-1.8v-1.9c0-3.8,0-7.6,0-11.4,0-1.4.6-1.9,2-1.7,1,.1,1.4.5,1.5,1.6,0,.3,0,.7,0,1,0,3.4,0,6.7,0,10.1v1.4c1.1.3,5.8.4,7.5,0h0Z"/>
    </g>
  </g>
</svg>