<?xml version="1.0" encoding="UTF-8"?>
<svg id="Layer_2" xmlns="http://www.w3.org/2000/svg" version="1.1" viewBox="0 0 297 297">
  <!-- Generator: Adobe Illustrator 29.5.1, SVG Export Plug-In . SVG Version: 2.1.0 Build 141)  -->
  <defs>
    <style>
      .st0 {
        fill: #0097d6;
        stroke: #0097d6;
        stroke-miterlimit: 10;
        stroke-width: 2px;
      }
    </style>
  </defs>
  <g id="Layer_1-2">
    <g>
      <path class="st0" d="M296,122.9c-.2,2.4-.4,4.8-.7,7.2-2.2,18.5-8.8,35.3-19.9,50.4-10.3,13.9-23.2,24.7-38.7,32.4-.3.1-.6.3-.9.5,1.3,3.2,2.5,6.4,3.8,9.6.1.3.3.7.4,1,.5,1.1.8,2.2,0,3.2-.9,1.1-2,.9-3.2.6-13.3-2.9-26.5-5.8-39.8-8.6-2.4-.5-3.1-2.2-1.7-4.2,7.9-11.3,15.7-22.6,23.6-33.9.6-.9,1.3-1.4,2.5-1.3,1.1.1,1.7.9,2.1,1.9,1.2,3.2,2.5,6.4,3.8,9.6.1.4.3.7.6,1.4,3.7-2.3,7.4-4.4,10.8-6.9,16.9-12.3,28.4-28.5,32.9-48.9,6.9-31.7-2.1-58.7-25.5-80.9-2.3-2.2-5-4.1-7.6-6.1-1.7-1.3-1.9-2.4-.7-4.2,3.1-4.5,6.2-8.9,9.4-13.4,1.2-1.7,2.4-1.9,4-.7,22.9,16.6,37.4,38.7,43,66.5.9,4.5,1.2,9.2,1.8,13.8,0,.4.1.8.2,1.2v9.8h0ZM234.3,222.5c-1.2-3-2.3-5.9-3.4-8.7-.9-2.3-.6-3.1,1.6-4.2,13.4-6.3,25.1-14.9,34.5-26.3,20.1-24.1,27.8-51.9,22.6-82.8-3.6-21.7-13.8-40.1-29.6-55.4-3.2-3.1-6.7-5.9-10.2-8.9-2.6,3.7-5,7.2-7.5,10.7.4.3.7.5,1,.8,20.6,16.1,32.3,37.1,34.7,63.2,1.4,15.6-1.4,30.4-8.2,44.5-9.1,18.8-23.1,32.8-41.8,42-2.2,1.1-3.3.6-4.2-1.6-.8-1.9-1.5-3.8-2.2-5.7-.4-1-.8-1.9-1.2-3.1-6.6,9.5-13.1,18.8-19.6,28.1,11.2,2.4,22.3,4.8,33.5,7.3h0Z"/>
      <path class="st0" d="M1,106.2c.2-2.4.4-4.8.7-7.2,2-17.3,8-33.2,17.8-47.5,10.5-15.3,24.1-27,40.7-35.2.3-.1.5-.2.8-.4,0,0,0-.1.2-.3-1.4-3.6-2.8-7.2-4.2-10.8-.8-2-.5-2.8,1.3-3.8h1.5c2.8.6,5.5,1.3,8.3,1.9,10.6,2.3,21.3,4.6,31.9,6.9,2.5.6,3.2,2.2,1.7,4.3-7.8,11.2-15.6,22.4-23.4,33.7-.6.9-1.4,1.5-2.5,1.4-1.2-.1-1.7-1-2.1-2-1.4-3.5-2.7-7-4.2-10.6-.4.2-.7.3-1,.5-23.1,12.6-38.1,31.6-43.4,57.4-5.6,27.2,1.5,51.5,19.8,72.4,4,4.6,8.6,8.6,13.6,12.2,2,1.5,2.2,2.5.8,4.5-3,4.3-6,8.6-9,12.9-1.5,2.1-2.5,2.3-4.5.8C22.3,180.2,7.9,157.5,2.6,129.1c-.7-3.8-.9-7.8-1.4-11.7,0-.4-.1-.9-.2-1.3,0-3.3,0-6.6,0-9.8ZM54.5,182.2c0-.1,0-.2-.1-.2-1.2-.9-2.4-1.9-3.5-2.8-25.6-22.3-36.6-50.3-30.7-83.7,5.2-29.4,22.3-50.5,48.9-63.9,2-1,3.2-.5,4,1.6,1.1,2.9,2.3,5.8,3.5,8.9,6.6-9.4,13-18.7,19.6-28.1-11.2-2.4-22.3-4.8-33.5-7.3,1.2,3,2.2,5.7,3.3,8.5,1,2.6.8,3.3-1.8,4.5-10.5,4.9-20,11.3-28.1,19.5C11.5,64,1.5,93.9,7.3,128.5c4.3,25.8,17.6,46.7,38.2,62.8.5.4,1.1.8,1.7,1.2,2.5-3.6,4.9-7,7.3-10.4h0Z"/>
      <path class="st0" d="M108.2,296c-1.2-.5-2.5-.8-3.6-1.5-4.8-3.1-5.5-9.7-1.5-13.8.2-.2.5-.4.8-.6-5-5.1-4.2-11.8.2-15.7-5.2-4.8-4.4-11.8,0-15.8-.1-.2-.3-.4-.4-.5-3.1-3.2-4.1-7.4-2.4-11.3,1.8-4.2,5.1-6.3,9.7-6.4,8.6,0,17.1,0,25.7,0h1.1c1.4,0,1.8-.5,1.6-1.9-.5-3.9-1.1-7.9-1.3-11.8-.3-7.4.6-14.6,3.9-21.3,1.9-3.9,4.6-7.2,8.6-9.1,3.4-1.6,6.6-1.4,9.6.8,3,2.2,4.2,5.2,3.7,8.9-1,8.2-1.2,16.5-.9,24.8.1,2.6.2,5.2.3,7.7,0,1.3.5,2.4,1.5,3.1,2.6,1.8,5.2,3.4,8.1,5.3v-3.9c0-1.8.9-2.8,2.7-2.8,6,0,12,0,18.1,0,1.8,0,2.6.9,2.6,2.7v55.5c0,1.8-.9,2.6-2.6,2.7-6,0-12,0-18.1,0-1.8,0-2.6-.9-2.7-3.2-.3.2-.6.4-.8.6-4.1,4-8.9,6.5-14.6,7.1-.1,0-.2.1-.3.2h-49.2,0ZM132.8,291.3h21.8c2.6,0,5.1-.4,7.4-1.3,4.5-1.8,7.8-5.1,10.8-8.6.2-.3.3-.8.3-1.1,0-12,0-24.1,0-36.1,0-.5-.3-1.1-.7-1.4-3.1-2.3-6.4-4.5-9.6-6.7-2.5-1.7-3.9-4.1-4-7.1-.1-2.3-.3-4.7-.4-7-.2-7.6-.5-15.2.3-22.8.2-1.6.3-3.3.2-4.9-.2-3.3-3.1-5-6-3.7-1.2.6-2.4,1.4-3.4,2.3-2.4,2.2-3.8,5-4.8,8.1-2.6,7.9-2.5,15.9-1.4,24.1.2,1.7.6,3.4.5,5.1-.2,3.1-2.8,5.1-6.3,5.1-8.7,0-17.4,0-26.1,0-.6,0-1.2,0-1.8.1-2.7.4-4.6,2.8-4.6,5.5,0,2.7,2,5,4.7,5.4.8.1,1.7,0,2.6.2,1.2.1,2.1,1,2.1,2.2,0,1.1-.7,2.1-1.8,2.3-.7.1-1.5.1-2.2.1-2.8.1-5.1,2.2-5.3,4.9-.3,2.9,1.4,5.4,4.2,6,.9.2,1.8.1,2.7.2,1.4,0,2.4,1,2.4,2.3,0,1.3-1,2.3-2.3,2.4-.5,0-1.1,0-1.6,0-3.1,0-5.4,2.5-5.4,5.6s2.4,5.5,5.4,5.5c.6,0,1.2,0,1.8,0,1.2.2,2.1,1.2,2.1,2.4,0,1.2-1,2.2-2.3,2.2-.9,0-1.7,0-2.6,0-2.5.1-4.4,2-4.4,4.2,0,2.6,1.8,4.6,4.7,4.6,7.6,0,15.2,0,22.9,0h0ZM177.9,235.2v51.4h13.9v-51.4h-13.9Z"/>
      <path class="st0" d="M148.5,59h77.1c9.6,0,17.1,6.3,18.7,15.7.2,1.1.2,2.3.2,3.4,0,24.7,0,49.4,0,74.1,0,9.6-6,17.1-15.2,18.8-1.2.2-2.4.3-3.7.3-51.4,0-102.8,0-154.1,0-10.7,0-18.9-8-18.9-18.6,0-25,0-50.1,0-75.1,0-10.7,8.2-18.6,18.9-18.6h77.1,0ZM150.9,166.6h1.3c24.4,0,48.8,0,73.1,0,1.2,0,2.4-.1,3.5-.4,6.7-1.5,10.9-7,10.9-14.2v-73.9c0-1,0-2.1-.2-3.1-1.3-7-6.9-11.5-14.2-11.5-24.4,0-48.8,0-73.1,0h-1.4v34.1c0,2.7-.7,3.3-3.4,3.3s-5.3,0-8,0c-1.1,0-2.3,0-3.4.3-7.1,1.6-11.6,8.1-10.9,15.2.7,7,6.7,12.4,13.8,12.5,2.8,0,5.6,0,8.4,0,2.8,0,3.5.7,3.5,3.5v34h0ZM146.1,166.6v-32.9c-2.6,0-5.2,0-7.7,0-13.1-.5-21.7-14.2-16.3-26.2,3.2-7.2,9-10.9,16.9-11.2,2.4,0,4.7,0,7.1,0v-32.8h-74.1c-1,0-2.1,0-3.1.2-7.1,1.2-11.7,6.8-11.7,14.4v73.9c0,1,0,2.1.2,3.1,1.2,7,6.9,11.6,14.4,11.6,24.3,0,48.7,0,73,0h1.3,0Z"/>
    </g>
  </g>
</svg>