<?xml version="1.0" encoding="UTF-8"?>
<svg id="Layer_2" xmlns="http://www.w3.org/2000/svg" version="1.1" viewBox="0 0 258.3 288.2">
  <!-- Generator: Adobe Illustrator 29.5.1, SVG Export Plug-In . SVG Version: 2.1.0 Build 141)  -->
  <defs>
    <style>
      .st0 {
        fill: #0097d6;
        stroke: #0097d6;
        stroke-miterlimit: 10;
        stroke-width: 2px;
      }
    </style>
  </defs>
  <g id="Layer_1-2">
    <g>
      <path class="st0" d="M178.2,201.1c5.6-3.7,10.8-7.1,15.9-10.5,11.6-7.8,23.1-15.6,34.6-23.4,9.1-6.1,19.5-4.9,25.2,3.1,5.8,8.2,3.9,18.8-4.9,25.3-32.3,24.1-64.6,48.3-97.1,72.2-13.4,9.9-28.2,11.1-43.7,5.3-7.3-2.7-14.6-5.8-22-8.3-3.3-1.1-6.8-1.9-10.3-2.2-4.6-.5-8.4-.2-9.6,6-1.2,5.9-5.9,9.9-11.8,11.6-7.8,2.4-15.7,4.4-23.6,6.6-3.4,1-5-.4-5.8-3.7-7.9-29.8-15.8-59.7-23.8-89.5-1.1-4-.4-6.3,4.1-7.3,7.3-1.6,14.6-3.7,21.8-5.6,7.4-1.9,13.7.2,18.5,5.9,1.9,2.2,3.4,2.6,6.1,1.7,7.8-2.4,15.7-4.6,23.6-6.4,7.5-1.8,15-1.1,22.1,2,10.8,4.8,21.6,4.6,32.7.8,7.1-2.4,14.5-3.9,21.8-5.7,14-3.4,25.1,4.8,25.8,19.1,0,.8.1,1.5.2,2.9h0ZM66.5,256.5c5.3.3,9.8-.3,13.8.9,9.7,2.8,19.2,5.9,28.6,9.6,15.4,6.1,29.3,4.1,42.5-5.8,31.4-23.5,62.9-46.9,94.3-70.3,6-4.5,7.5-11.4,3.6-16.8-4.1-5.7-10.3-6.5-16.9-2-21,14.1-41.9,28.2-63,42.3-2,1.3-4.2,2.4-6.5,3-14.9,4.1-29.9,8.2-44.9,12.2-2.3.6-5.2,1.7-6-1.6-.9-3.2,2-3.7,4.4-4.4,14.8-3.9,29.7-7.9,44.5-11.9,8.5-2.3,12.7-9.4,10.6-17.6-2-7.5-9.5-11.5-17.9-9.4-4.9,1.3-9.9,2.5-14.8,4.1-15.1,5.1-30.1,7.3-45.3.2-6.2-2.9-12.7-2.3-19.2-.3-6,1.8-12.1,3.1-18.1,4.7-1.9.5-3.8,1.2-5.8,1.9,5.6,20.9,11,41.3,16.2,61.1h0ZM30.8,280.7c7.2-1.9,13.7-3.5,20.1-5.4,9-2.7,12.2-8.4,9.8-17.6-1.8-6.9-3.8-13.9-5.6-20.8-3.6-13.4-7-26.9-10.8-40.3-2-7.4-7.4-11.4-14-10.1-7.6,1.5-15.1,3.8-23.1,5.9,7.9,29.5,15.6,58.6,23.6,88.3h0Z"/>
      <path class="st0" d="M165.1,166c-2.2,0-4.5.1-6.7,0-8.2-.6-12.7-5.4-12.8-13.7,0-2.1,0-4.2,0-6.2,0-3.5-.5-6.4-2.9-9.6-2.3-3-3.3-7.7-3.2-11.6.3-7-2.1-11.4-7.8-15.6-26.4-19.3-30.5-57.5-9.1-81.9,22-25.1,60-26.2,83.1-2.4,23.9,24.6,20.1,65.9-8.2,85.4-4.7,3.2-6.8,6.8-6.3,12.3.6,6.1-.2,11.8-5.3,16.2-.9.8-1.1,2.5-1.2,3.9-.2,3.2,0,6.4,0,9.6,0,8.4-4.5,13.1-12.8,13.6-2.2.1-4.5,0-6.7,0h0ZM185.1,122.5c-1.1-8.9,4.2-13.4,10.4-18.2,23.4-18,26.6-50.2,7.9-72.8-17.9-21.7-49.9-24-71.7-5.1-23.9,20.6-22.2,60.1,3.6,78.3,6.1,4.3,10.2,9,10,16.7,0,.2.3.5.8,1.2,1.7,0,3.8-.2,5.8,0,4.2.5,5.1-1.3,5-5.2-.3-8.5,0-17,0-25.5v-19.4c-1.7.2-2.8.3-3.8.5-6.3,1.1-12.3-3-13.6-9.3-1.3-6.2,2.8-12.3,9.1-13.6,7.9-1.6,14.2,3.5,14.2,12,.1,18.2,0,36.5.1,54.8,0,1.9-1.8,5.4,2.3,5.3.8,0,2.1-3.3,2.1-5.1.2-17.6,0-35.2.1-52.8,0-2.4.2-4.8,1-7.1,1.8-5.3,6.6-8,12.1-7.3,5.7.7,9.8,4.7,10.4,10.3.6,5.4-2.7,11-7.9,12.3-3,.7-6.2.1-9.4.1v49.8h11.4,0ZM184.8,129.1h-39.5c1.3,4.4,3.8,6.8,8,6.9,8,.1,16,.2,24,0,4.1-.1,6.7-2.4,7.5-6.9h0ZM151.9,153.8c.8,5.7,4.8,6.2,8.8,6.3,14.5.4,16.3-.2,17.8-6.3h-26.6ZM178.3,142.3h-26.1v5.3c7.6,0,14.9-.2,22.2,0,4.1.1,5.1-1.4,3.9-5.3h0ZM156.9,62.3c.1-3.7-2.3-6.4-5.4-6.5-3.3-.2-6.3,2.6-6.2,5.8.1,3.6,2.2,5.6,5.7,5.7,3.5,0,5.5-2,5.9-5h0ZM185,61.2c-.3-3.5-2.4-5.5-5.9-5.4-3.5,0-5.5,2.3-5.8,5.7-.3,3.1,3.1,6.2,6.2,5.8,3.4-.4,5.4-2.4,5.4-6.2h0Z"/>
      <path class="st0" d="M123.7,108c-.7,1.2-1.1,2.2-1.9,3-4.2,4.4-8.4,8.8-12.9,12.8-1.1,1-3.5.6-5.3.8.4-1.7.3-3.8,1.3-4.9,4.1-4.5,8.4-8.8,12.8-12.9.9-.8,2.5-1.3,3.8-1.3.7,0,1.3,1.5,2.2,2.4h0Z"/>
      <path class="st0" d="M209.8,105c1.1.8,2.1,1.3,2.9,2,4.3,4.3,8.8,8.4,12.8,13,1,1.1.7,3.2.9,4.9-1.7-.3-3.8,0-4.9-1-4.5-4.1-8.7-8.5-12.9-12.9-.8-.9-1.3-2.5-1.2-3.8,0-.7,1.4-1.4,2.4-2.3h0Z"/>
      <path class="st0" d="M90.9,60.4c2.9,0,5.8-.3,8.6.1,1.3.2,2.5,1.7,3.7,2.7-1.1,1-2.2,3-3.3,3-6,.3-12.1.3-18.1,0-1.2,0-2.4-1.9-3.5-2.9,1.2-1,2.4-2.6,3.7-2.8,3-.4,6-.1,9-.1h0Z"/>
      <path class="st0" d="M121.6,16.9c-.5.6-.9,1.8-1.8,2.1-.8.4-2.4.3-3-.3-4.5-4.3-8.9-8.6-13.2-13.2-.6-.7-.3-2.8.3-3.8.4-.6,2.7-1,3.3-.5,4.8,4.5,9.3,9.2,13.9,13.9.3.3.3.9.5,1.8h0Z"/>
      <path class="st0" d="M239.2,60.4c2.9,0,5.8-.3,8.6.1,1.5.2,2.7,1.9,4.1,2.9-1.4,1-2.8,2.7-4.2,2.8-5.7.3-11.4.3-17.2,0-1.3,0-2.5-1.8-3.7-2.7,1.3-1,2.4-2.8,3.9-3,2.8-.5,5.7-.1,8.6-.1h0Z"/>
      <path class="st0" d="M227.6,3.5c-.7,1.2-1,2.3-1.7,3-3.8,3.9-7.5,7.8-11.5,11.4-1,.9-3,.6-4.5.8.1-1.6-.3-3.8.6-4.8,3.7-4.2,7.7-8.1,11.7-11.9.8-.7,2.3-1.2,3.4-1,.8.1,1.3,1.5,2.1,2.4h0Z"/>
    </g>
  </g>
</svg>