<?xml version="1.0" encoding="UTF-8"?>
<svg id="Layer_2" xmlns="http://www.w3.org/2000/svg" version="1.1" viewBox="0 0 273.1 247.8">
  <!-- Generator: Adobe Illustrator 29.5.1, SVG Export Plug-In . SVG Version: 2.1.0 Build 141)  -->
  <defs>
    <style>
      .st0 {
        fill: #0097d6;
        stroke: #0097d6;
        stroke-miterlimit: 10;
        stroke-width: 2.1px;
      }
    </style>
  </defs>
  <g id="Layer_1-2">
    <g>
      <path class="st0" d="M214.6,54c1.1-1,2.2-2,3.2-3-2-2.6-4.2-5-6-7.7-1.6-2.4-2.8-5.2-3.9-7.8-.8-1.7-1.4-3.5-1.7-5.3-.4-3-.6-6.1-.4-9.1.6-7.3,3.9-13.3,8.9-18.5,2-2.1,3.4-1.8,5.1-.1,5.1,5.1,9.1,10.8,11.2,17.8,2,6.6,2,13.1,0,19.7-.1.5-.2.9-.3,1.4,0,0,0,.2.1.4,1-.3,2-.6,3-.9,4.6-1.2,9.3-2.2,14.1-1.6,6.5.9,12.6,3,17.8,7.1,1.5,1.2,3.1,2.4,4.6,3.7,2.3,1.9,2,3.4.4,5.4-2.4,2.9-5.3,5.1-8.7,6.7-1.6.8-3.2,1.8-4.9,2.4-1.4.5-3,.8-4.6,1.1-.6.1-1.1.2-1.7.2-3.6.5-7.1-.3-10.6-.9-4.2-.8-7.8-2.9-11.3-5.2-2.1-1.4-4.3-2.9-6.3-4.3-1.2,1.1-2.4,2.2-3.5,3.4-.2.3,0,1.2.4,1.7,1.2,1.8,2.5,3.6,3.7,5.5,3.6,5.4,6.8,10.9,9.4,16.8,4.3,9.4,7.3,19.2,8.9,29.3,1.9,12.5,2.2,25,.1,37.5-1.7,9.8-4.5,19.2-8.6,28.3-2.9,6.5-6.4,12.6-10.4,18.4-6,8.6-12.9,16.5-21.1,23.1-4.1,3.3-8.2,6.5-12.6,9.3-7.5,5-15.6,8.7-24.1,11.6-10.4,3.6-21,5.8-31.9,6.4-7.9.4-15.9-.2-23.8-1.3-19.3-2.9-36.7-10.4-52.2-22.1-13.4-10.2-23.8-23-31.5-37.8-1.7-3.3-3.2-6.8-4.9-10.2-.6-1.2-1.4-2.3-2.3-3.2-5.9-6-10.8-12.6-13.8-20.5-2.8-7.3-3.6-14.9-3.5-22.7,0-9.8,2.1-19.3,5.2-28.5,4.1-12.4,9.8-24.1,16.8-35.1.6-1,1.3-2,2-2.9.9-1.2,2-1.7,3.5-1.3,1.5.4,3,.7,4.4,1.1.7.2,1.1,0,1.5-.5,1.2-1.7,2.4-3.3,3.6-4.9,5.5-7.2,12.4-13,19.4-18.7,14.2-11.3,30.6-18,48.2-21.8,8.8-1.9,17.8-2.5,26.9-2.1,17.2.8,33.4,5.3,48.4,13.7,8,4.5,15.4,9.9,22.5,15.6,3.9,3.1,7.6,6.5,10.8,10.4,0,.1.2.2.2.2h0ZM176.2,32.3c0,0-.1.3-.2.6-1,2.6-2,5.3-4,7.4-6,6-13.3,7.9-21.5,6.5-1.7-.3-3.4-.7-5-1.2-5.6-1.8-10.5-.4-14.5,3.7-2.7,2.8-5.8,4.6-9.5,5.6-3.3.9-6.6,1.6-9.9,2.5-2.9.7-5.8.9-8.8.4-8.8-1.4-15.7-9.8-15.1-18.7.2-3.4,1.4-6.8,2.1-10.2,0-.3,0-.6.2-1.1-20,7.4-36.1,19.7-49.4,36.3,2.1.6,3.9,1,5.6,1.5,9.2,2.8,18,6.3,26.5,10.8,6.1,3.2,12,6.8,17.1,11.4,4.4,3.9,8.6,8.2,12.1,13,3.1,4.4,5.8,9.1,7.3,14.3,2.2,7.6,3.1,15.4,2.5,23.3-.6,8.1-2.1,16.1-4.7,23.9-4.2,12.9-9.9,25.1-17.2,36.6-.6.9-.5,1.6-.1,2.5,2.9,6.8,5.8,13.7,8.8,20.5,3.6,8.3,9.4,14.3,18,17.3,5.6,2,11.5,1.9,17.3,1.4,5.5-.5,10.9-1.3,16.3-2.4,7.9-1.6,15.7-3.8,23.1-7.2,7.7-3.6,14.9-8.1,21.5-13.4,3.1-2.6,6.3-5.1,9.1-8,3.6-3.6,6.9-7.5,10.2-11.4.8-.9,1.4-2,2.1-3-2.1-2-4.1-3.8-6.1-5.6-1.1-1-2.2-2-3.9-2-2.3,0-4.4.6-6.2,2.1-1.8,1.5-3.9,2.4-6.2,2.7-4.3.6-8.6,1.1-13,1.6-.5,0-1.1,0-1.6-.1-2-.6-4-1.2-5.9-2-5.4-2.2-8.2-6.4-8.9-12.1-.4-3.3.3-6.4,2.3-9,2.3-3.1,5.3-5.3,9.2-6,2.2-.4,4.3-1.2,5.9-2.8,1.4-1.5,2.6-3.1,3.9-4.7,2.2-2.8,2.1-5.7.6-8.7-1.3-2.6-2.4-5.2-3.7-7.7-.8-1.6-1.9-3-3.7-3.6-1.7-.6-3.4-1-5.1-1.6-2.9-.9-5.9-1.4-8-3.9-2.1-2.4-3.6-5.1-5-7.9-3.6-6.8.7-16.1,5.5-18.8,2.1-1.2,4.3-2.3,6.5-3.2,2.5-1,5.1-1.1,7.7,0,1.9.9,3.7,2,5.6,2.7,1,.4,2.3.6,3.3.3,2.1-.6,4-1.5,6.1-2.2,3.2-1.1,4.6-3.7,5.5-6.7.5-1.8.7-3.6-.3-5.2-1.5-2.6-3.2-5-5.1-7.3-.8-1-2.1-1.7-3.4-2.3-1.3-.7-2.7-1.1-4.1-1.6-4.7-1.5-8-4.6-10.1-9.1-1.4-3.1-1.6-6.3-1-9.5.4-2.5,2-4.3,3.5-6.2,3.9-5,8.6-8.6,15.4-8.5.4,0,.8-.1,1.3-.2-3.4-2.4-6.6-4.6-9.8-6.8-2.1-1.5-4.1-3.1-6.3-4.4-1.5-.9-3.1-1.5-4.8-2.2h0ZM219.3,189.9c.5-.7.9-1,1.1-1.4,2-3.6,4.2-7.2,5.9-10.9,1.9-4.3,3.5-8.7,5.1-13.1,2.9-7.8,4.3-15.9,5.1-24.1.6-7.2.4-14.4-.3-21.7-.6-6.5-1.8-12.8-3.7-19-1.9-6-4-12-6.9-17.6-2.9-5.5-5.8-11.1-9.6-16-3.3-4.2-6.9-8.3-10.3-12.4-.8-1-1.7-1.5-3.1-1.4-2.7.1-5.4.1-8.1,0-2.2,0-4.1.7-5.5,2.2-1.6,1.6-3.1,3.4-4.5,5.2-1.6,2-1.9,4.3-1.1,6.8,1,3.2,2.6,5.8,6.1,6.9,1.9.6,3.8,1.1,5.6,1.9,1.5.7,3,1.5,4.1,2.7,2.2,2.6,4.3,5.3,6.2,8.1,4.3,6.2,1.7,14.4-2,18.7-1.7,1.9-3.8,3.1-6.1,4-3.2,1.2-6.2,2.5-9.8,2.3-2.6-.1-4.9-.9-7.1-2.2-1.9-1.2-3.9-1.8-6-1.1-1.7.6-3.3,1.5-4.8,2.5-1.7,1.2-2.9,2.9-3.5,4.9-1.3,4.2,1.5,10.9,5.6,12.7,2,.9,4,1.6,6.1,2.1,4.2,1,7.6,3.2,9.7,6.9,2,3.6,3.6,7.4,5.2,11.2.9,2.2,1.1,4.5.8,6.8-.6,4.4-3.8,7.5-6.5,10.7-1,1.3-2.6,2.1-4,3-.7.5-1.4.9-2.1,1.2-1.5.5-3.1.8-4.6,1.2-3.9,1-6.6,5.5-5.5,9.6.9,3.4,3.7,5,6.5,6.4,2.1,1.1,4.5.6,6.8.3,2.1-.2,4.2-.6,6.3-.7,2.4-.1,4.5-.9,6.4-2.4,1.8-1.4,3.9-2.3,6.1-2.6,4.8-.7,8.9,1.2,12.5,4.1,1.4,1.2,2.6,2.7,4,4.2h0ZM26.9,71c-.5.9-1,1.8-1.4,2.6-6.1,10.6-11.3,21.7-14.6,33.5-3,10.7-4.3,21.5-2.8,32.5,1.1,8,4.2,15.2,9,21.6,6.2,8.3,14.5,14.5,23.6,19.5,11.9,6.4,24.5,10.9,37.6,14.1.5.1.9,0,1.6.1-.3-.9-.5-1.6-.8-2.2-3.6-8.3-7.2-16.6-10.7-24.9-.3-.7-.7-1.1-1.4-1.2-5.3-.7-10.6-1.5-15.9-2.2-4.9-.7-9.8-1.4-14.7-2.2-.6-.1-1.3-.5-1.7-.9-1-1.1-1.1-2.1-.3-3.6.8-1.6,1.3-1.9,3.1-1.6,6.5.9,13,1.8,19.5,2.7,2.5.3,5,.7,7.8,1-.2-.6-.4-1-.5-1.4-4-9.5-8.1-19-12-28.6-.5-1.2-1.2-1.7-2.4-1.9-7.2-1-14.5-2-21.7-3-2.8-.4-5.5-.8-8.3-1.3-1.6-.3-2.2-1.2-2.3-2.7-.1-1.7.3-2.4,1.8-3,.8-.3,1.8-.4,2.6-.3,7.4,1,14.9,2.1,22.3,3.1,1.3.2,2.7.3,4.1.4-7.2-16.9-14.3-33.5-21.5-50.3h0ZM70.8,157.7c.7-1.1,1.2-2,1.7-2.8,3.8-5.4,7.6-10.8,11.4-16.2,1-1.5,2-3,3.3-4.3.6-.6,1.8-.9,2.6-.9,1.1.1,2,.8,2.4,2.1.4,1.4-.2,2.4-.9,3.4-1.2,1.7-2.5,3.4-3.7,5.2-4.2,6.1-8.4,12.1-12.7,18.1-1,1.3-1.1,2.4-.4,3.8,3.6,8.3,7.2,16.7,10.8,25,.1.3.3.6.6,1.1.3-.3.5-.4.6-.6,3.1-5,5.7-10.3,8.2-15.6,4.2-9.2,7.5-18.7,9.3-28.7,1.7-9.3,2.1-18.6-.1-27.8-1.4-6.1-4.1-11.5-7.8-16.5-2.3-3-5-5.6-7.7-8.3-4.6-4.5-9.9-8.1-15.6-11.1-9.8-5.4-20.1-9.7-30.9-12.6-2.9-.8-5.9-1.6-9.2-2.5,7.3,17,14.4,33.7,21.6,50.5,2.9-4.1,5.6-7.9,8.3-11.7,2.7-3.8,5.4-7.6,8.1-11.3.4-.6,1.2-1.2,1.7-1.2,2.2,0,4.7,2.4,3.2,5-.4.6-.7,1.2-1.1,1.8-5.4,7.7-10.9,15.3-16.3,22.9-.7.9-.8,1.7-.3,2.7,3.2,7.2,6.2,14.5,9.4,21.8,1.2,2.8,2.3,5.6,3.7,8.8h0ZM170.3,29.6c-.2-.1-.3-.2-.4-.2-4.6-1.6-9.1-3.4-13.8-4.7-4.8-1.3-9.8-2.2-14.8-2.9-10.1-1.3-20.3-1.2-30.4.5-4.2.7-8.3,1.7-12.4,2.6-.8.2-1.2.7-1.4,1.5-.9,3.7-1.8,7.4-2.6,11.1-2.2,10.2,8.1,16.1,14.6,14.2,3.7-1.1,7.3-2,11.1-2.9,2.6-.7,4.8-2,6.8-3.9,1.5-1.5,3.1-2.9,4.9-4,3.4-2.1,7.2-2.8,11.2-2.3,1.7.2,3.3.8,4.9,1.2,3.8.9,7.5,1.8,11.5.6,5.7-1.7,9.9-4.5,11.1-10.8h0ZM31.2,182.8c9.7,18.1,23.1,32.2,40.5,42.6,9.2,5.5,19,9.7,29.6,12.2,0-.3,0-.4,0-.5-.1-.2-.3-.4-.4-.6-4.2-4.1-6.9-9-9.1-14.3-2.6-6.1-5.2-12.1-7.8-18.2-.4-.9-1-1.4-2-1.6-3.1-.6-6.2-1.2-9.3-2.1-8.6-2.4-17-5.4-25.2-9.1-5.2-2.4-10.5-4.7-15.3-8.1-.2-.1-.4-.2-.9-.4h0ZM217.4,8.9c-.1.2-.3.4-.4.7-.1.2-.3.4-.5.7-4.7,6.5-5.4,13.7-3.5,21.2,1.4,5.5,4.9,9.8,8.4,14,0,0,.3,0,.4.1,7.3-12.6,5.4-26.6-4.4-36.7h0ZM227.3,51c2.3,1.6,4.3,3.3,6.6,4.5,2.5,1.3,5.1,2.8,7.9,3.3,4.9,1,10.1,1.5,14.8-1,2.4-1.3,4.7-2.8,7-4.3.2-.1.3-.4.5-.7-6.5-4.6-13.4-7.9-21.4-7.3-5.4.4-10.4,2.2-15.3,5.5h0Z"/>
      <path class="st0" d="M148.5,198.2c-.1,3.9-1.6,7.2-4.8,9.5-4.4,3.1-9.2,5.4-14.6,5.8-4.3.3-7.5-2.1-9.8-5.5-2.3-3.3-2.6-7.1-1.3-10.9,1.6-4.6,4-8.4,9-9.8,2.4-.6,4.8-.9,7.2-1.5,7.4-1.8,14.6,5.4,14.3,12.4h0ZM142.2,198.6c0-4.1-3-7-6.6-6.6-2.3.2-4.6.7-6.8,1.1-.4,0-.8.3-1.2.6-2.2,1.5-3.4,3.8-4.1,6.3-1.3,5.3,3.7,8.5,7.1,7.2,3-1.1,5.9-2.5,8.7-3.9,2-1,2.8-2.9,2.8-4.6h0Z"/>
    </g>
  </g>
</svg>