<?xml version="1.0" encoding="UTF-8"?>
<svg id="Layer_2" xmlns="http://www.w3.org/2000/svg" version="1.1" viewBox="0 0 266.1 234.7">
  <!-- Generator: Adobe Illustrator 29.5.1, SVG Export Plug-In . SVG Version: 2.1.0 Build 141)  -->
  <defs>
    <style>
      .st0 {
        fill: #0097d6;
      }
    </style>
  </defs>
  <g id="Layer_1-2">
    <g>
      <path class="st0" d="M50.2,155.5c4.9-10.5,13.7-14.6,24.7-14.8,5.6-.1,11.1,0,16.8,0-1.7-3.8-3.1-7.1-4.8-10.4-.3-.5-1.7-.7-2.5-.7-6.3,0-12.7,0-19,0-4.8,0-6.2-1.4-6.2-6.2,0-4.5-.3-9.1,0-13.5.4-5.1-1.1-9.6-3.7-14.3-4.2,5.1-9.5,8.2-16,9.1-.2,2.8-.2,5.5-.8,8.1-2,8.1-7.2,13.2-15.5,14.8-7.9,1.5-14.5-1.2-19.2-7.7-4.8-6.7-4.9-13.9-1.1-21.2.5-1,1-2.6.5-3.4-7.1-12.8-1.3-24.1,13.1-25.6,4.6-13.3,8-16.3,20.1-18-.5-1.8-1.2-3.5-1.4-5.2-.8-5.9,2.2-10.9,8.1-13.5,16.2-6.9,32.5-13.8,48.7-20.8,8.4-3.6,16.8-7.2,25.1-10.7,8.2-3.5,14.9-.8,18.4,7.2,7.4,17.1,14.8,34.2,22.2,51.2,2,4.7,1.4,6.3-3.2,8.3-5,2.2-10,4.3-15.4,6.7,1.3,2.8,2.5,5.5,3.8,8.2,2,4.4,4,8.7,6.1,13.1.4.7,1.2,1.7,1.9,1.8,6.8.1,13.6,0,20.8,0V30.9c0-6,1.1-7.1,7-7.1h56.2c11.7,0,18.8,4.8,22.3,16.1,2.5,8,4.1,16.4,6.4,24.5,1.9,6.9,2.6,13.9,2.5,21-.2,12.7,0,25.4,0,38,0,4.6-1.8,6.3-6.5,6.4-5.3,0-10.5,0-15.4,0-1.9,3.8-3.6,7.2-5.6,10.9h3.8c5.9,0,11.7,0,17.6,0,4.2,0,5.8,1.6,5.8,5.7,0,27.5,0,54.9,0,82.4,0,4.3-1.7,5.8-6.3,5.8H7.3c-6,0-7.2-1.2-7.2-7.3,0-8.7-.3-17.5.1-26.2.3-5,1.3-10.1,3-14.8,2.1-5.7,6.9-9,12.9-10.5.9-.2,2.1-1.2,2.2-2,2.4-15.3,18.7-22.8,31-18.4.2,0,.4,0,.9,0h0ZM257.1,149.8H88.8c-.4,3.5-.7,6.9-1.1,10.2-3,22.9-16.7,37.9-39.2,43.1-11.6,2.7-23.4,3.1-35.2,3.2-1.3,0-2.6,0-3.8,0v19.6h247.6v-76.1h0ZM66,96.8c27.7-12,55-23.8,82.5-35.7-.4-1-.6-1.8-.9-2.6-6.4-15.3-12.9-30.6-19.3-45.8-1.8-4.4-3.3-5-7.8-3.1-24.4,10.5-48.8,21-73.2,31.5-3.5,1.5-4.1,3-2.6,6.5,3.7,8.5,7.4,17.1,11.1,25.6,3.3,7.7,6.7,15.5,10.2,23.6ZM180.7,33.1v87.6c3.5,0,6.9,0,10.2,0,1.8,0,2.6-.4,3-2.4,2.1-9.9,10.2-17.9,20-19.5,11-1.8,19.9,1.8,26.2,11.1,2.1,3.1,3.1,6.9,4.8,10.7h12.2v-18c-.2-.2-.3-.3-.4-.3-2.3,0-4.6,0-6.9-.1-3.2,0-5.3-1.9-5.2-4.5,0-2.5,2-4.2,5.1-4.3,2.5,0,4.9,0,7.3,0v-13h-48c-4.6,0-6-1.4-6-6v-41.1h-22.2ZM79.5,149.8c-12.4-1.1-18.5,2.5-22.8,13.6-1.4,3.5-3.8,4.4-7.1,2.6-11-6.2-22.3,0-22.6,12.7,0,4.3-1.5,5.7-5.7,5.8-7.1.2-11.7,5.4-11.2,12.9,13.8,0,27.6.1,41-4.1,18.8-5.9,30.3-23.5,28.4-43.5h0ZM211.9,33v38.2h44.1c-1.8-7.2-3.4-14.2-5.2-21.2-.9-3.6-2-7.2-3.5-10.6-1.7-3.8-4.8-6.4-9.2-6.4-8.6-.1-17.3,0-26.2,0h0ZM36.5,95.8c6.6,0,12.3-4,14.2-9.6.3-1,.2-2.3-.2-3.2-2.6-6.1-5.2-12.2-8-18.2-.5-1.2-1.8-2.2-3-2.8-3.5-1.5-6.8-.8-9.7,1.7-3.3,2.8-4.5,6.4-3.6,10.6.5,2.1.6,4-1.2,5.5-1.9,1.4-3.7.9-5.6-.1-2.8-1.5-5.8-1-8,1-2,1.9-2.7,4.8-1.3,7.7.8,1.6,1.9,3.1,3.3,4.2,3,2.7,3.1,5.1,0,7.7-4.1,3.5-5.2,8.8-2.7,13.2,2.5,4.4,8.1,6.5,13,4.8,4.9-1.6,7.9-6.3,7.1-11.5-.2-1.6-1-3.1-1.7-4.5-.9-1.8-1.4-3.6,0-5.4,1.3-1.8,3.1-2,5.1-1.6,1,.2,2.1.4,2.4.4h0ZM128.8,123.9c0-9.3-7.6-16.8-16.9-16.7-9.1,0-16.6,7.6-16.7,16.7,0,9.2,7.7,16.9,16.8,16.9s16.8-7.5,16.7-16.9h0ZM218.9,140.7c9,0,16.7-7.6,16.8-16.7.1-9.1-7.6-16.9-16.9-16.9-9.1,0-16.7,7.5-16.8,16.6-.1,9.1,7.7,17,16.9,17ZM132.4,140.2h66.3c-1.5-3.3-2.9-6.5-4.4-9.6-.3-.6-1.4-1-2.1-1-17.8,0-35.5,0-53.3,0-.8,0-1.9.6-2.2,1.2-1.6,3-2.9,6.2-4.4,9.4h0ZM131.2,78.5c-15,6.5-29.8,12.8-44.6,19.2,0,.1.1.2.2.3h53.1c-2.9-6.6-5.7-12.9-8.7-19.5h0ZM171.5,107.3h-39.2c1.9,4.3,3.8,8.7,5.8,13.1h33.5v-13.1h0ZM68.5,107.3v13.2h17.5c2-4.5,4-8.8,5.9-13.2h-23.4Z"/>
      <path class="st0" d="M153.5,197.3c0,2.4-1.9,4.5-4.2,4.6-2.3,0-4.4-1.9-4.5-4.2,0-2.3,1.9-4.4,4.2-4.5,2.4,0,4.4,1.8,4.5,4.2h0Z"/>
      <path class="st0" d="M239,211.2c-2.4,0-4.4-2.1-4.2-4.5.1-2.3,2.2-4.3,4.6-4.2,2.4,0,4.3,2.2,4.2,4.5,0,2.4-2.1,4.2-4.5,4.2h0Z"/>
      <path class="st0" d="M85.2,202.8c2.4,0,4.3,2.1,4.2,4.5,0,2.4-2.2,4.4-4.5,4.3-2.3,0-4.3-2.2-4.3-4.5,0-2.4,2.1-4.3,4.5-4.3Z"/>
      <path class="st0" d="M211.2,171.8c2.4,0,4.4,2.1,4.4,4.4,0,2.3-2.2,4.3-4.5,4.3-2.3,0-4.3-2.1-4.3-4.4,0-2.4,2-4.3,4.4-4.3h0Z"/>
      <path class="st0" d="M203.5,201.9c0,2.3-2.2,4.4-4.5,4.3-2.4,0-4.3-2.1-4.3-4.5,0-2.4,2.1-4.4,4.4-4.3,2.3,0,4.4,2.2,4.3,4.5h0Z"/>
      <path class="st0" d="M122,172.9c0,2.4-1.9,4.4-4.3,4.4-2.3,0-4.4-2-4.5-4.3,0-2.3,2.1-4.4,4.4-4.4,2.3,0,4.4,2,4.4,4.4Z"/>
      <path class="st0" d="M126.2,54.1c-.6.7-1.5,2.5-2.9,3.1-14.1,6.3-28.2,12.4-42.4,18.5-2.7,1.2-5.2,0-6.2-2.4-1-2.5,0-4.6,2.7-5.8,14-6.2,28.1-12.3,42.2-18.3,3.4-1.5,6.5.4,6.7,4.9h0Z"/>
      <path class="st0" d="M117.1,32.3c0,2.5-1.5,3.7-3.6,4.7-10.7,4.6-21.5,9.3-32.2,13.9-3.1,1.3-6.1,2.7-9.2,4-2.8,1.1-5.4,0-6.4-2.5-.9-2.3.2-4.5,2.9-5.7,13.9-6.1,27.7-12.1,41.6-18.1,3.7-1.6,6.8.2,6.9,3.7h0Z"/>
      <path class="st0" d="M116.4,123.8c0,2.3-2,4.4-4.3,4.5-2.4,0-4.4-1.8-4.5-4.2,0-2.3,1.9-4.5,4.2-4.5,2.3,0,4.5,2,4.5,4.3h0Z"/>
      <path class="st0" d="M218.9,119.5c2.3,0,4.3,2.1,4.3,4.5,0,2.4-2,4.3-4.4,4.3-2.4,0-4.3-2-4.3-4.4,0-2.4,2.1-4.4,4.4-4.4Z"/>
    </g>
  </g>
</svg>