<?xml version="1.0" encoding="UTF-8"?>
<svg id="Layer_2" xmlns="http://www.w3.org/2000/svg" version="1.1" viewBox="0 0 320.9 219.4">
  <!-- Generator: Adobe Illustrator 29.5.1, SVG Export Plug-In . SVG Version: 2.1.0 Build 141)  -->
  <defs>
    <style>
      .st0 {
        fill: #0097d6;
      }
    </style>
  </defs>
  <g id="Layer_1-2">
    <g>
      <path class="st0" d="M170.2,43.5s5.4-8.2,10.6-12.5c2.2-2,4.4-3.9,6.6-5.8,1.3-1.1,2.7-2,4.3-3.1-.4,1.9-.6,3.4-.9,5,2.8.8,5.5,1.5,8.3,2.3,1.6-6.8,3.1-13.5,4.6-20.2-6.7-1.4-13.3-2.8-20-4.2-.5,2.7-1.1,5.1-1.5,7.6,0,.3.3.9.6,1.1,1.1.5,2.1.8,3.4,1.3-.3.3-.6.6-1,.9-1.3,1-2.7,2-4,3.1-5.7,4.5-10.7,9.7-15.1,15.5-.8,1-1.7,1.9-2.7,3-1.4-1.7-2.7-3.2-4-4.8-.3-.4-.6-.9-.6-1.4,0-1.7-.2-3.4-.8-5.1-2.5-6.5-6.6-11.4-13.2-13.8-2.5-.9-4.8-2.1-7.6-2.4-4.4-.4-8.4.5-12.3,2.2-4.3,2-8,4.6-10.7,8.6-2.3,3.6-3.9,7.4-3.9,11.8,0,1-.4,1.3-1.4,1.3-2.6,0-5.2,0-7.8,0-3.9,0-7.7,0-11.6,0-1.1,0-1.9-.2-2.7-1.2-1.4-1.7-3-3.2-4.4-4.8-.6-.7-1-1.5-1.3-2.4-.3-1-.4-2-.8-3-1.9-5.9-5.7-10.2-11-13.3-1.2-.7-2.8-1.7-3.8-2.1-1.6-1-3.3-1.2-5-1.6-1.9-.3-3.9-.2-5.8-.2-.9.1-1.1,0-2.4.3-1.5.4-2.8,1.2-4.2,1.9-1.3.6-2.7,1.1-3.9,1.9-5.8,3.7-9.9,8.7-11.2,15.6-.3,1.8-.4,3.7-.5,5.5,0,.7-.2,1.1-1,1.1-.7,0-1.4,0-2,0-3.2,0-6.5,0-9.7,0-.8,0-1.1.1-1.1,1.1,0,9.7,0,19.4,0,29.1,0,.3,0,.5-.1,1H0v28.6h2c5.6,0,11.2,0,16.8,0,.8,0,1.2.2,1.4,1.1.3,1.2.7,2.5,1,3.7,1.9,6.8,3.7,13.7,5.5,20.5,1.8,6.6,3.7,13.1,5.5,19.7,1.3,5,2.6,10,3.9,14.9,2.1,7.9,4.2,15.9,6.4,23.8,2,7.4,4,14.8,6.1,22.3.1.3.7.8,1,.8,4,0,7.9,0,11.9,0,.7,0,1.2.1,1.5.9.9,2.2,1.6,4.4,2.7,6.4,5.1,9.3,13.3,13.4,23.5,14,3.8.2,7.5-.8,11-2.2,5.5-2.1,9.7-5.8,12.6-10.7,1.4-2.3,2.2-5,3.2-7.5.2-.6.5-.9,1.2-.9.6,0,1.1,0,1.7,0,4.1,0,8.1.2,12.2,0,2.2-.2,2.9.7,3.5,2.6,1,3.1,2.4,6,4.4,8.6,5.4,6.9,12.7,9.8,21.1,10.2,5.3.2,10.2-1.3,14.7-4,6-3.6,10.1-8.9,11.9-15.8.3-1.1.8-1.5,2-1.5,3.8,0,7.7,0,11.5,0,.4,0,1.1-.3,1.2-.6,1.4-4.9,2.7-9.8,4-14.7,1.1-4,2.2-8,3.3-12,.3-1,.6-1.4,1.9-1.1,3.1.8,6.2,1.5,9.3,2.1,4.8,1,9.6,1.4,14.4,1.1,2.8-.1,4.8-3.2,3.9-5.4-.9-2.1-2.4-2.9-4.6-3.1-5.5-.6-10.9-1.4-16.4-2.2-2-.3-3.9-1-5.9-1.5.1-.5.2-.7.2-.9,1.1-3.8,2.1-7.6,3.2-11.4,1-3.6,2.1-7.2,3.2-10.9.3-1,.9-.9,1.5-.4.3.3.6.8.6,1.2.5,3.4,1.1,6.8,1.4,10.3.1,1.3.6,1.6,1.7,1.6,6.4,0,12.8,0,19.2-.1,1.2,0,2.4,0,3.6-.2.3,0,.8-.5.9-.9.5-3.5,1-7.1,1.4-10.7.1-.9.5-1.2,1.2-1.5,3.1-1.2,6.2-2.6,9.4-3.8.5-.2,1.3-.1,1.7.1,1.9,1.3,3.8,2.8,5.6,4.2,1.4,1,2.7,2,3.7,2.6,6-5.9,11.9-11.6,17.8-17.4-2-2.7-4-5.3-6-7.9-1.4-1.7-2.5-3.4-.6-5.4.1-.2.2-.4.3-.7,1-2.2,2-4.4,3-6.6.4-.9,1-1.3,1.9-1.4,3.3-.4,6.6-.9,9.9-1.4.6,0,1.4,0,1.4-1.1,0-7.7,0-15.3,0-23s-.2-1-.9-1.1c-3.4-.4-6.7-1-10-1.4-1.2-.2-2-.6-2.4-1.8-1.1-2.9-2.4-5.9-3.8-8.8-.4-.9-.5-1.6.2-2.4,2.2-2.8,4.4-5.7,6.6-8.5.4-.5.7-.8,0-1.4-5.7-5.6-11.3-11.2-17-16.9-.3.2-.7.4-1,.7-2.9,2.3-5.8,4.5-8.6,6.8-.5.3-.8.6-1.5.3-3.2-1.5-6.5-2.9-9.7-4.4-.4-.2-.8-.7-.9-1.1-.6-3.7-1.2-7.4-1.7-11.1-.1-.7-.3-1.1-1.1-1.1-7.7,0-15.4,0-23.1,0-.3,0-.8.5-.9.8-.5,3.6-1.1,7.2-1.4,10.9-.1.9-.5,1.3-1.2,1.6-2.1.9-4.3,1.7-6.4,2.7-1.1.5-1.9.5-2.9-.3-2.9-2.4-5.9-4.2-9.2-5.5l-10.6,8.1c-2.2,2.3-4.2,4.4-6.3,6.5-3,2.8-3,2.8-.5,6,1.7,2.2,3.2,4.4,4.8,6.7.3.4.6,1.2.4,1.5-.7.8-1.9.9-2.5.2-1.3-1.3-2.5-2.6-3.7-4-1.7-2-3.3-4.1-5.1-6-.2-.2-.3-.4-.4-.5M165.1,52.3c2.9,3.3,5.8,6.5,8.7,9.7,0,.2-.1.3-.2.5h-13c1.6-3.5,3.1-6.8,4.6-10.1ZM184.2,71.1c0,0,.1.2.2.3-.5.3-.9.8-1.4.9-3.5,1.2-7.2,1.7-10.9,1.9-.6,0-.9.3-.9.9,0,2.1-.1,4.1-.3,6.2,0,.3-.5.9-.8.9-4.3,0-8.7,0-13.3,0,.4-3.8.8-7.4,1.2-11.2h26.1,0ZM154.6,40.3c1.3,1.5,2.6,2.8,3.7,4.2.2.3.2,1,0,1.4-1.4,3.3-3,6.6-4.4,9.9-.8,1.8-1.4,3.7-2.1,5.5-.3.9-.9,1.3-1.9,1.3-2.6,0-5.2,0-7.9,0-.5,0-1.2-.2-1.5-.5-1.5-1.7-2.9-3.4-4.5-5.3,6.2-5.5,12.4-11,18.5-16.5h0ZM127.5,20c3-1.7,6.6-2.3,10.1-1.6,2.4.5,4.7,1.6,6.7,3,2.1,1.4,3.9,3.4,4.8,5.9.4,1.2.9,2.4,1.2,3.6.1.5,0,1.3-.4,1.6-3,2.8-6,5.6-9,8.4-2.8,2.6-6.3,5.8-9.5,8.7,0-1.4,0-2.7,0-3.5-.1-3.2,0-6.3,0-9.5,0-.9,0-1.9,0-2.9h-12.2c.3-6.3,3.3-10.9,8.5-13.7h0ZM99,42.8c7.8,0,15.6,0,23.4,0v19.8h-24.7c0-.3,0-.6,0-.9,0-5.8,0-11.7,0-17.5,0-1.1.3-1.4,1.4-1.4h0ZM78.8,36.6c2.2,2.5,4.2,4.9,6.3,7.3,1,1.2,2,2.3,3,3.5.3.3.5.9.5,1.3,0,4.4.1,8.8.2,13.2,0,.2,0,.4-.1.7-6.6,0-13.1,0-19.6,0-.4,0-.9-.2-1.2-.5-2-2.5-4-4.9-6-7.4-1.2-1.6-1.2-1.8.3-3.1,5.5-5,11-10,16.6-15h0ZM56.4,14.7c6.6-.4,11.7,2.5,14.9,8.3.8,1.5,1.2,3.1,1.7,4.8.4,1.5,0,2.6-1.2,3.6-3.2,2.8-6.4,5.6-9.9,8.8-.2-3-.3-5.6-.5-8.6h-19.8c0-9.9,5.3-16.2,14.9-16.9h0ZM29.9,40c6.6,0,13.2,0,19.8,0,2.7,0,2.8.1,2.8,2.8,0,6.2,0,12.5,0,18.7,0,.8-.3,1-1,1-3.8,0-7.7,0-11.5,0h0c-3.6,0-7.2,0-10.9,0-1.1,0-1.6-.2-1.6-1.5,0-6.2,0-12.5,0-18.7,0-2.2.1-2.4,2.4-2.4h0ZM10.6,82.2h-1.7v-11.1h140.5c-.4,3.5-.8,6.8-1.1,10.2,0,.9-.7.9-1.3.9-3.4,0-6.8,0-10.2,0-42.1,0-84.2,0-126.3,0h0ZM89.8,210.7c-11.1.4-18.7-8.9-18.7-17.9-.1-9.5,6.9-18.8,18.6-18.9,12.1,0,18.5,10.3,18.5,18.3s-6.7,18.9-18.4,18.5h0ZM160.3,210.7c-10.7.4-18.4-9.3-18.4-18.1,0-9.3,7-18.7,18.7-18.6,11.8,0,18.5,9.7,18.5,18.5,0,8.4-6.8,18.8-18.8,18.3h0ZM195,188c-.3,1.2-.9,1.7-2.1,1.6-1.4-.1-2.9-.1-4.4-.1-.8,0-1.1-.3-1.1-1.1-.9-6.7-3.9-12.3-8.9-16.6-5.9-5.1-13-7.5-20.9-6.5-6.3.8-12,3.2-16.4,7.9-3.9,4.2-6.7,9.2-7.5,15.1,0,.3-.1.6-.2.9-5.2,0-10.4,0-15.6,0-1,0-1.4-.5-1.5-1.5-1.2-7.6-5-13.6-11.4-17.9-5.3-3.5-11.2-5.2-17.6-4.6-6.6.6-12.3,3-16.9,7.8-3.9,4-6.8,8.7-7.5,14.4-.2,1.4-.8,2-2.2,2.1-1.2,0-2.3,0-3.5,0-1.4.1-2.1-.6-2.4-1.9-.6-2.2-1.2-4.3-1.8-6.5-2.7-10.1-5.5-20.2-8.2-30.3-5.3-19.6-10.5-39.2-15.8-58.8,0-.2,0-.3-.1-.6h119.2c1.1,16.4,6.1,31.5,15.6,45.1,9.6,13.6,22.2,23.2,37.1,30.2-2,7.2-4,14.2-5.9,21.3h0ZM203.1,157.9c-28.6-13-45.1-39.7-46.1-66.6.3,0,.6-.1.9-.1h11.7c.9,0,1.3.3,1.2,1.3-.2,2.1-.2,4.1-.4,6.4,2.2.4,4.4.8,6.7,1.1,1.9.3,3.8.6,5.6,1,.4,0,.9.5,1.1.9,1.4,3.1,2.6,6.2,4,9.3.3.7.3,1.2-.2,1.8-2.4,3.2-4.7,6.4-7.2,9.8,2.9,2.9,5.8,5.9,8.7,8.8,2.9,2.9,5.9,5.6,9,8.6,2.3-1.6,4.9-3.6,7.5-5.4.7-.5,1.4-1,2.2-1.4.4-.2.9-.2,1.9-.4-2.3,8.6-4.6,16.8-6.8,25h0ZM288.7,89.9c0,1.1-.5,1.5-1.5,1.7-2.9.5-5.8,1.1-8.6,1.7-.9.2-1.2.6-1.5,1.6-1,4.6-2.4,9.2-4.9,13.3-.7,1.2-1.5,2.3-2.1,3.5-.5.9-.6,1.7.1,2.7,1.8,2.2,3.5,4.5,5.3,6.8.3.3.5.7.8,1.2-2.1,2-4.2,4-6.4,6-.2.2-.9,0-1.2-.2-2.8-2.1-5.5-4.2-8.2-6.3-5.3,3.3-10.7,6.1-16.7,7.6-1.1.3-2.5.3-3.1,1-.6.7-.4,2.1-.5,3.2-.3,2.2-.6,4.4-.8,6.6-.1.9-.4,1.3-1.4,1.2-2.3,0-4.7,0-7,0s-1.5-.3-1.6-1.3c-.3-2.9-.8-5.7-1.1-8.5,0-.8-.4-1.2-1.1-1.4-2.8-.9-5.8-1.6-8.5-2.7-3.6-1.6-7-3.6-10.6-5.5-2.3,1.8-4.9,3.7-7.5,5.6-1.8,1.3-1.3,1.4-2.9-.2-1.5-1.4-3-3-4.4-4.4-.5-.5-.7-1-.1-1.7,1.9-2.4,3.7-5,5.6-7.4.6-.8,0-1.2-.2-1.7-1.2-2.2-2.7-4.2-3.6-6.5-1.4-3.5-2.5-7.2-3.6-10.9-.3-1.1-.7-1.7-1.9-1.8-2.8-.3-5.6-.9-8.4-1.3-.8-.1-1.1-.5-1.1-1.3,0-2.2,0-4.4-.1-6.6,0-1.2.5-1.5,1.5-1.7,2.4-.3,4.9-.7,7.3-1,.1,0,.2,0,.4,0,2.1-.4,2.1-.4,2.5-2.5,1.3-5.7,3.1-11.2,6.5-16.2.4-.6.9-1.1,1.3-1.8-1.6-2.1-3.3-4.2-4.8-6.3-2.3-3.2-2.5-2.1.3-5.2.7-.8,1.4-1.4,2.1-2.2s1.4-1.5,2.1-2.3c2.9,2.1,5.7,4.2,8.5,6.4.6.5,1,.3,1.5,0,3.1-2.1,6.3-4.1,9.9-5.3,3-1,6-1.8,9.3-2.7.4-3,.9-6.3,1.3-9.6.1-.9.4-1.2,1.3-1.2,2.3,0,4.7,0,7-.1.5,0,1,0,1.5.1.4,3.3.8,6.5,1.1,9.8,0,1,.4,1.4,1.3,1.6,6.4,1,12.1,3.5,17.4,7.1.5.3.9.6,1.4.9,3-2.2,6-4.4,9.2-6.7,2.1,2.3,4.2,4.6,6.4,7.1-1.5,1.9-3.3,4.2-5.1,6.6-1.8,2.3-2.1,1.7-.3,4.3,3.1,4.5,4.9,9.5,6.1,14.7.9,3.8.2,2.9,3.9,3.5,2.4.4,4.8.8,7.1,1.2.8.1,1.2.4,1.1,1.3-.1,2.1-.2,4.3-.1,6.4h0Z"/>
      <path class="st0" d="M284.7,156.5c1.4.3,2.4.7,3.4.7,1.3,0,1.4.7,1.2,1.8-.5,2.3-.9,4.6-1.4,7.2-6.6-1.5-13.3-3-19.9-4.4,1.4-6.5,2.8-13,4.2-19.6.9.1,1.8.2,2.6.4,1.8.4,3.6.9,5.5,1.4.8.2.9.5.6,1.3-.4,1.1-.6,2.2-1,3.5,2.8-1.2,4.8-3.2,6.7-5,4-3.8,8-7.8,11.1-12.4,2.1-3.1,4-6.2,5.6-9.6,2-4.1,3.8-8.2,5.3-12.5,1.1-3.1,1.8-6.4,2.4-9.7,1-5.9,1.4-11.8,1-17.8-.4-6.2-1.4-12.3-3.2-18.2-4.5-15.1-13-27.3-25.1-37.3-9-7.4-19.4-12.2-30.7-15.1-4.8-1.2-9.7-1.8-14.7-2.2-1.7-.1-3.4-.3-5.1-.5-1.3-.2-2.7-2.3-2.7-4.1C230.4,2,232.3-.1,234.7,0c4.3.2,8.7.4,13,.9,12.7,1.5,24.1,6.5,34.7,13.6,8.4,5.6,15.9,12.4,21.7,20.8,3.9,5.6,7.4,11.4,10,17.7,3.5,8.3,5.4,17.1,6.4,26.1.7,6.6.6,13.1-.5,19.6-.8,4.2-1.8,8.4-3.1,12.5-1.5,4.5-3.1,9-5.2,13.2-2.3,4.5-5.1,8.7-7.8,12.9-4.6,7-10.7,12.7-17.3,17.8-.5.4-1,.9-1.8,1.6h0Z"/>
      <path class="st0" d="M245.7,119.2c1.7-.5,3.4-1,5.1-1.6,0,0,0,.2,0,.3-2.2.6-4.4,1.3-6.6,1.9-4.6,1.3-9.3,1.5-14,.9-2.4-.3-4.7-1-7-1.7-6.1-1.7-10.9-5.5-15-10.2-4.2-4.9-6.9-10.6-7.9-16.9-1.5-9.2.4-17.6,5.7-25.3,4-5.9,9.2-10.2,15.8-12.7,5.6-2.1,11.4-3.1,17.3-2.2,5.3.8,10.3,2.5,14.9,5.5,8.2,5.5,12.8,13.2,14.7,22.6,1.4,6.7.8,13.3-1.8,19.7-3,7.3-7.9,12.9-14.8,16.8-2,1.1-4.3,1.9-6.4,2.8,0,0,0,0,0,.1h0ZM208.7,87.1c.3,7.2,3.2,13.1,8.3,18,5.4,5.1,11.9,7,19.1,7.4,13.1-1.9,23.6-10.1,24.6-24.9,1-14.6-9.5-26.2-23.6-27.7-7.4-.8-14.1,1.6-19.6,6.7-5.4,5.1-8.4,11.3-8.7,18.8,0-.8-.1-1.5-.1-2.3h-.1v5.6h.2v-1.6h0Z"/>
      <path class="st0" d="M160.5,203.5c-5.8.4-11.4-5.1-11.3-11,.2-6.7,4.8-10.8,11-11,6.4-.2,11.4,4.9,11.3,11.2,0,5.7-5.6,11.4-11.1,10.8h0ZM164.2,192.4c0-1.7-1.9-3.9-3.5-4-1.8,0-3.8,1.8-3.8,3.4,0,2.2,1.8,4.5,3.8,4.5,1.4,0,3.5-2.3,3.5-4Z"/>
      <path class="st0" d="M90.7,202.6c-4.9.4-10.6-4.1-10.5-9.8,0-6.5,3.7-10,10.1-10.6,4.7-.4,10.2,4,10.2,10.3,0,5.7-4.9,10.2-9.8,10.1h0ZM86.9,192.1c0,1.8,1.8,4,3.4,4.1,1.3,0,3.6-2.4,3.6-3.9,0-1.4-2.1-3.6-3.4-3.6-1.5,0-3.8,1.4-3.5,3.4Z"/>
    </g>
  </g>
</svg>