<?xml version="1.0" encoding="UTF-8"?>
<svg id="Layer_2" xmlns="http://www.w3.org/2000/svg" version="1.1" viewBox="0 0 240.4 238.9">
  <!-- Generator: Adobe Illustrator 29.5.1, SVG Export Plug-In . SVG Version: 2.1.0 Build 141)  -->
  <defs>
    <style>
      .st0 {
        fill: #0097d6;
        stroke: #0097d6;
        stroke-miterlimit: 10;
        stroke-width: 1.4px;
      }
    </style>
  </defs>
  <g id="Layer_1-2">
    <g>
      <path class="st0" d="M159.9,223c-5.5-1.9-11-3.5-15.9-6.7-2.9,2.5-5,5.6-8.3,7.7,0,1.5,0,3.1,0,4.8,0,5.4-3.8,9.3-9.3,9.4-6.2.1-12.4,0-18.7,0-31.8,0-63.5,0-95.3,0-1.6,0-3.1-.2-4.7-.2-3,0-6.4-3.7-6.9-6.5-.2-1.4-.3-2.8-.3-4.3,0-28.6,0-57.3,0-85.9s0-18.3,0-27.4c0-1.8.1-3.4,1-5.1,1.8-3.4,4.8-4.6,8.5-4.8,1.1,0,2.2,0,3.4,0,33.1,0,66.3,0,99.4,0,4.2,0,8.3,0,12.5,0,1.7,0,3.4.3,4.9.9,3.4,1.4,5.1,4.2,5.4,7.8.1,1.5,0,3,0,4.5,0,.8.3,1.3.8,1.8,2,1.9,4,3.9,6,5.8.4.4.8.8,1.2,1.2.8-.5,1.5-1,2.2-1.4,3.4-2.1,7.2-3.4,11-4.5,3.4-1,2.7-.6,2.8-3.8,0-2,.1-4,0-6-.2-3,2.6-6.2,5.9-6.3,4.1-.1,8.2-.3,12.3-.1,2.8,0,6.4,2,6.4,6.5,0,2.2,0,4.3,0,6.5v2.3c5.5,1.7,11,3.1,15.6,6.8.5-.4.9-.8,1.3-1.2,1.8-1.8,3.5-3.6,5.3-5.3,2.5-2.4,6.2-2.5,8.8-.2,3,2.8,5.9,5.7,8.8,8.6,1.1,1.1,1.8,2.3,1.8,3.9,0,1.6-.3,2.9-1.4,4.1-1.5,1.5-2.9,3.1-4.4,4.6-.8.9-1.6,1.7-2.3,2.4,2.2,5.2,4.4,10.4,6.7,15.8h3.2c1.9,0,3.7,0,5.6,0,3.8-.1,6.2,3.1,6.3,5.9,0,2.1,0,4.1,0,6.1,0,2,0,4,0,6-.1,4.1-2.4,6.4-6.5,6.6-2.3.1-4.6,0-6.9,0-.6,0-1.2,0-1.9,0-.9,2.6-1.8,5.3-2.8,7.8-1.1,2.6-2.4,5.1-3.7,7.7.4.5.9,1.1,1.4,1.6,1.7,1.8,3.4,3.6,5.2,5.4,1.9,1.9,2.4,5.8,0,8.1-3,2.9-5.9,5.9-8.9,8.7-2.9,2.6-5.8,2.5-8.7,0-2.3-2-4.4-4.2-6.8-6.5-4.5,3.1-9.8,4.9-15.4,6.4,0,.8-.1,1.5-.1,2.2,0,2.4-.2,4.9-.1,7.3,0,3.7-3.2,6.1-6.2,6-4.2-.2-8.4,0-12.7,0-2.9,0-5.4-2.3-5.5-5.2-.1-2.5,0-5,0-7.5v-2.5h0ZM91,109.7v42.5c0,.9,0,1.7,0,2.6.1,2.6-3,3.8-4.8,2.6-.8-.6-1.8-1.1-2.7-1.7-4.6-3-9.2-5.9-13.8-8.9-.9-.6-1.8-.8-2.8-.1-.3.2-.6.4-.9.6-4.9,3.1-9.9,6.3-14.8,9.4-.5.3-.9.6-1.4.9-2,.9-4.1-.3-4.2-2.5,0-1,0-2,0-3,0-13.4,0-26.8,0-40.3v-2.2H11.8c-.8,0-1.5,0-2.2,0-1.1,0-1.8.5-2.5,1.4-.8,1.1-.7,2.2-.7,3.4v106.6c0,2.7.1,5.3,0,8,0,1.7.8,2.8,2.3,3.2,1.1.4,2.3.4,3.5.4,37.5,0,75.1-.1,112.6-.2.8,0,1.6,0,2.4-.1,1.7-.3,2.6-1.3,2.8-3,0-.9,0-1.9,0-2.8.1-1.5-.4-2.5-1.5-3.6-3.1-2.8-6-5.8-8.9-8.8-2.4-2.5-2.6-4.6-.5-7.3,1.4-1.8,3-3.4,4.6-5.1.8-.9,1.7-1.8,2.6-2.7-3.1-4.9-4.9-10.1-6.6-15.6-.9,0-1.8,0-2.7,0-2.6,0-5.2,0-7.8-.3-2.8-.3-4.8-2.5-4.8-5.3,0-4.4-.2-8.7,0-13.1,0-3.7,2.3-5.8,6.1-5.9,2.4,0,4.8,0,7.3,0h1.7c2.3-5.4,4.5-10.6,6.8-15.8-.3-.3-.7-.7-1-1.1-1.9-2-3.8-3.9-5.7-5.9-2.1-2.3-2.1-4.8-.2-7.3.6-.8,1.3-1.5,2-2.2,2-2,4-3.9,6-5.9,2-1.9,2.9-4.2,2.8-6.9-.1-2.7-1.5-4.1-4.2-4.1-11.1,0-22.2,0-33.4,0-.4,0-.8,0-1.5.1h0ZM123.8,210.1c3.2,3.1,6.2,6.1,9.3,9.2,2.8-2.8,5.3-5.4,7.9-8,1.9-1.9,2.2-1.9,4.5-.6.4.2.8.4,1.1.7,3,1.8,6.1,3.4,9.4,4.5,2.4.8,4.8,1.4,7.1,2.2,2.1.7,2.3,1,2.4,3.2,0,3,0,6,0,8.9,0,.7,0,1.3,0,2h12.8c0-.7,0-1.3,0-1.8,0-3.2,0-6.5,0-9.7,0-1.3.5-2,1.6-2.4,1.1-.4,2.2-.8,3.4-1.1,5.2-1.4,10.1-3.4,14.7-6.3.8-.5,1.6-.9,2.6-1.4.9.7,1.8,1.4,2.6,2.1,2.1,1.9,4.1,3.9,6.1,5.8.6.6,1.3,1.1,2,1.6,2.9-3,5.7-5.9,8.6-8.9-.9-1-1.5-1.9-2.3-2.7-1.8-1.9-3.6-3.6-5.3-5.5-1.8-2-1.8-2.4-.5-4.8,1-1.9,2.1-3.6,3.1-5.5,1.7-3.4,2.9-7,3.7-10.7.5-2.5,1.3-3.1,3.8-3.1,2.9,0,5.8,0,8.8,0,.7,0,1.5,0,2.2-.1.1-.3.2-.5.2-.7,0-3.6,0-7.2,0-10.8,0-1.3-.3-1.5-1.8-1.6-3.1,0-6.1,0-9.1,0-3.3,0-3.5-.1-4.2-3.4-.8-3.8-2.1-7.4-3.8-10.9-1-2.1-2.2-4-3.3-6-.6-1.1-.6-2,.2-2.9.3-.4.6-.8,1-1.1,1.9-2,3.8-3.9,5.7-5.9.6-.6,1.1-1.3,1.6-1.9-3.1-3-6-5.9-9-8.9-.4.4-.9.8-1.4,1.3-2.1,2-4.2,4.1-6.3,6.1-.4.4-.8.8-1.3,1.1-.8.6-1.5.8-2.4.2-1.1-.6-2.2-1.2-3.2-1.9-4.5-2.7-9.4-4.2-14.3-5.7-1.1-.3-2.2-.8-3.5-1.2v-13.5h-13v2.6c0,3.1,0,6.2-.1,9.3,0,1.3-.5,2.1-1.8,2.4-1.6.4-3.1,1-4.6,1.4-4.5,1.3-8.8,3.1-12.7,5.6-.3.2-.5.3-.8.4-2.3,1.1-2.5,1.1-4.4-.7-2.2-2.1-4.4-4.3-6.5-6.4-.5-.5-1-.9-1.3-1.3-3.1,3.1-6.2,6-9.3,9,.4.5,1,1,1.5,1.6,2.2,2.2,4.4,4.4,6.5,6.7,1.6,1.7,1.7,2.4.4,4.4-3.1,4.9-5.4,10-6.7,15.7-.2.8-.5,1.7-.8,2.5-.3.9-.9,1.4-2,1.3-1.8,0-3.6,0-5.4,0h-7v13.1c.3,0,.6,0,.8,0,3.7,0,7.3,0,11,0,1.3,0,2.1.6,2.5,1.7.4,1.1.7,2.1,1.1,3.2,1,2.8,1.8,5.6,2.9,8.2,1,2.4,2.4,4.6,3.7,6.9,1,1.9,1,2.2-.4,3.8-1.6,1.7-3.2,3.3-4.8,4.9-1.1,1.1-2.2,2.3-3.4,3.6h0ZM51.5,109.7c-.5,3.1-.3,38.3.3,39.8,5.5-3.5,10.9-6.9,16.4-10.5,5.6,3.5,11.1,7,16.8,10.7v-40h-33.5Z"/>
      <path class="st0" d="M156.7,29.6c0-.7-.1-1.4-.1-2.2,0-7.8,0-15.5,0-23.3,0-2.6,1.3-3.7,3.9-3.4,9.1,1.1,17.9,3,26.5,6.6,8.4,3.5,15.8,8.5,23,14,1.9,1.4,2,2.8.3,4.5-3.9,4-7.9,7.9-11.8,11.9-1.8,1.8-3.6,3.5-5.4,5.2-.5.5-1.1.9-1.7,1.4-.7-.4-1.4-.8-2-1.2-1.6-1.1-3.2-2.2-4.8-3.2-7.1-4.8-15-7.4-23.3-8.8-1.2-.2-2.4-.5-3.6-.8-.3,0-.6-.3-.9-.5h0ZM203.9,23.6c-12.4-8.9-25.9-15.4-41.6-17v18.8c5.2.8,10.1,2.1,14.9,4.1,4.8,1.9,9.1,4.7,13.4,7.5,4.4-4.5,8.7-8.8,13.2-13.4h0Z"/>
      <path class="st0" d="M149.8,30c-2.1.4-4.1.8-6.1,1.2-9,1.5-17.2,5.1-24.7,10.4-.9.7-1.8,1.3-2.8,1.9-1.2.8-1.3.8-2.4-.2-2.3-2.1-4.6-4.3-6.9-6.5-3.3-3.2-6.5-6.5-9.7-9.8-.6-.6-1.2-1.3-1.7-2-.9-1.1-.8-1.7.2-2.8.4-.5,1-1,1.5-1.4,9.8-8,20.6-13.9,32.9-17.1,5.2-1.4,10.5-2,15.7-2.9.4,0,.7,0,1.1,0,1.7,0,2.9,1.2,2.9,2.9,0,4.9,0,9.8,0,14.7,0,3,0,6,0,8.9,0,.9,0,1.7-.1,2.8h0ZM144.1,25V6.7c-15.6,1.8-29.5,7.3-41.4,17.1,4.4,4.4,8.8,8.8,13.2,13.3,4.2-2.7,8.4-5.8,13.3-7.4,4.9-1.6,9.8-3,14.9-4.5h0Z"/>
      <path class="st0" d="M153.6,72.2c.4,0,.9-.1,1.3,0,2.2.8,3.7-.3,5.4-1.6,7.6-5.9,15.2-11.7,22.8-17.5.8-.6,1.6-1.2,2.4-1.8,1.2-.9,2.1-.8,3.6.5,1,.9,1.2,1.7.5,3-.5.9-1.1,1.7-1.7,2.5-6,7.7-12,15.4-18,23.1-.5.6-.8,1.2-1.3,1.8-.5.7-.6,1.4-.4,2.3.9,4.2,0,8.1-2.6,11.4-2,2.7-4.4,4.9-7.9,5.7-6.6,1.4-12.8-.3-16.7-5.8-3.4-4.7-3.6-10-1-15.3,1.2-2.5,3.1-4.5,5.5-5.9,2.5-1.5,5.3-2.4,8.3-2.3ZM169.4,71.6l-.3-.4c-.9.6-1.7,1.1-2.6,1.7-2.1,1.6-4.3,3.1-6.4,4.8-1.4,1.2-2.9,1.2-4.5.6-3.7-1.4-7.7.4-9.4,2.7-3.8,4.9-3,9.8,1.4,13.6,4.7,4.1,11.8,1.2,14-2.9,1.3-2.3,1.2-4.8.6-7.2-.5-1.9,0-3.5,1.2-5,2.1-2.6,4-5.2,6-7.8h0Z"/>
      <path class="st0" d="M110.2,49.2c-.8,1.3-1.5,2.6-2.3,3.8-4.6,6.5-8.1,13.5-10.1,21.2,0,.3-.2.6-.3.9-.8,2.4-1.4,2.8-3.9,2.8-7.7,0-15.4,0-23.1,0-.8,0-1.7-.1-2.3-.5-1.1-.7-1.4-1.8-1.2-3.1.8-5.5,2.2-10.8,4-16,2.7-7.6,6.6-14.6,11.1-21.2,1.4-2.1,3-4.1,4.7-6,1.5-1.7,3.1-1.9,4.8-.3,2.2,2,4.3,4.1,6.4,6.2,4,4,8,8.1,12.2,12.4h0ZM73.2,71.9c.4.2.6.3.8.3,5.8,0,11.6,0,17.3,0,.7,0,1-.4,1.2-1,.3-1.1.7-2.1,1.1-3.2,2-6,4.7-11.8,8.4-16.9.3-.4.6-.9.7-1-4.4-4.6-8.7-9.1-13.1-13.6-8.3,10.6-13.9,22.2-16.3,35.3h0Z"/>
      <path class="st0" d="M217.2,28.9c1,.9,1.9,1.5,2.6,2.3,9.2,11.1,15.5,23.6,18.6,37.7.4,1.8.8,3.5,1.1,5.3.3,1.9-.8,3.4-2.8,3.7-.6,0-1.1,0-1.7,0-7.6,0-15.3,0-22.9,0s-2.2,0-2.9-2.1c-.3-.9-.6-1.8-.8-2.7-1.6-6.3-4.3-12-7.9-17.4-.9-1.4-1.9-2.8-2.8-4.2-1.4-2.2-1.4-2.6.4-4.5,1.9-2,3.9-3.9,5.8-5.8,3.1-3,6.2-6.1,9.3-9.1,1.1-1.1,2.4-2.1,3.9-3.3h0ZM233.4,72c-2.9-13.1-7.8-25.1-16.5-35.4-4.4,4.5-8.7,8.9-13.1,13.4,0,0,0,.1,0,.2,4.5,6.2,7.9,13.1,10,20.5.4,1.5.5,1.5,2.1,1.5,5.3,0,10.6,0,15.8,0s.9,0,1.6-.2h0Z"/>
      <path class="st0" d="M171.5,206.3c-9.9.1-18-4.2-24.7-11-13.6-13.6-13.6-37.2,2.2-50.6,4.5-3.8,9.7-6.5,15.5-7.7,2.4-.5,4.9-.4,7.4-.6,8.2-.4,15.3,2.5,21.8,7.2,3.7,2.7,6.4,6.2,8.7,10.1,4,7,5.6,14.4,4.4,22.4-.5,3.3-1.6,6.4-2.9,9.4-4.4,9.6-11.9,15.7-21.9,18.9-1.4.4-2.7,1-4.1,1.2-2.1.3-4.3.4-6.5.5h0ZM201.4,171c0-14.9-11.8-29.7-30.4-29.2-16.5.4-28.3,14.1-28.4,28.9,0,16.9,12.7,29.3,29.3,29.7,17.8.5,29.8-14.7,29.6-29.4h0Z"/>
    </g>
  </g>
</svg>