<?xml version="1.0" encoding="UTF-8"?>
<svg id="Layer_2" xmlns="http://www.w3.org/2000/svg" version="1.1" viewBox="0 0 289 287.3">
  <!-- Generator: Adobe Illustrator 29.5.1, SVG Export Plug-In . SVG Version: 2.1.0 Build 141)  -->
  <defs>
    <style>
      .st0 {
        fill: #0097d6;
      }
    </style>
  </defs>
  <g id="Layer_1-2">
    <g>
      <path class="st0" d="M133.9,263.8c.5.6,1.1,1.2,1.6,1.8,3.8,3.8,7.6,7.6,11.3,11.4,1,1,2,2,2.9,3.2,1.4,1.7,1.2,3.9-.3,5.5-1.8,1.9-3.5,2.1-5.6.7-.5-.3-1-.7-1.4-1.1-7.6-7.7-15.2-15.3-22.8-23-1.1-1.1-1.7-2.3-1.7-4,0-1.5.9-2.4,1.8-3.3,6.8-6.8,13.6-13.7,20.4-20.5,1.2-1.2,2.3-2.4,3.6-3.4,1.4-1.1,2.9-1.2,4.4-.2,1.6,1,2.7,2.4,2.3,4.3-.2,1.1-.9,2.2-1.7,3.1-2.2,2.4-4.6,4.8-6.9,7.1-2.3,2.3-4.6,4.6-6.9,6.9s-.9,1-1.4,1.5c1.9.6,118.4,1,122.7.4,0-.6.1-1.3.1-1.9,0-22.7,0-45.4,0-68.1s0-1.1,0-1.6c.1-3.4,3.1-5.4,6.1-4.2.8.3,1.5,1.1,1.9,1.8.5,1,.7,2.2.7,3.3,0,24.6,0,49.3,0,73.9s0,.6,0,.9c-.2,3.6-1.6,5-5.2,5-15,0-30,0-45,0-26.2,0-52.5,0-78.7,0h-2.2c0,.1-.2.3-.2.4h0Z"/>
      <path class="st0" d="M155.1,23.4c-1-1-1.9-2.1-2.9-3.1-3.7-3.7-7.3-7.4-11-11.1-.7-.8-1.4-1.5-2.1-2.4-1.2-1.6-1.1-3.8.2-5.2,1.7-1.8,3.9-2.2,5.7-1,.6.4,1.2.9,1.8,1.4,7.6,7.7,15.3,15.4,22.9,23.1,1.2,1.2,1.7,2.5,1.3,4.1-.3,1-.9,1.9-1.6,2.7-1.9,2.1-4,4.1-6,6.1-5.1,5.1-10.1,10.2-15.2,15.2-1.1,1.1-2.2,2-3.4,3-.4.3-.9.7-1.4.7-2,.3-3.2-1-4.4-2.3-1-1.2-1-2.9-.1-4.2.6-.8,1.2-1.5,1.9-2.2,4.2-4.2,8.4-8.5,12.6-12.7.7-.7,1.4-1.5,2.3-2.5-.9-.1-1.5-.3-2-.3-40.3,0-80.6,0-121.1,0,0,1-.1,1.6-.1,2.3v67.2c0,1,0,2,0,2.9-.2,2.3-1.6,3.7-3.9,3.9-2.4.2-4.2-1-4.6-3.3-.2-.8-.2-1.7-.2-2.5,0-24.4,0-48.8,0-73.3,0-.8,0-1.5,0-2.3.3-2.4,1.6-3.7,4-3.7,4.4,0,8.9,0,13.3,0,36.9,0,73.7,0,110.6,0h3.1l.2-.5h0Z"/>
      <path class="st0" d="M23.3,131.1c-1,.9-1.9,1.9-2.9,2.8-4,4.1-8.1,8.1-12.1,12.2-1.3,1.3-2.6,2.2-4.6,2-3.2-.4-4.9-4.1-3-6.7.4-.6,1-1.2,1.5-1.7,7.4-7.4,14.8-14.8,22.2-22.3,1.1-1.1,2.2-2,3.9-1.9,1.3,0,2.3.4,3.2,1.3,2.7,2.7,5.4,5.3,8,8,5.1,5.1,10.1,10.2,15.2,15.2,1.1,1.1,1.8,2.3,1.7,4-.2,1.6-.6,2.9-2.3,3.6-1.7.7-3.2.7-4.7-.4-.7-.6-1.3-1.2-2-1.9-4.6-4.6-9.1-9.2-13.7-13.8-.2-.2-.6-.4-.9-.7-.5,2.1-.6,120.5,0,123.4h69.3c.8,0,1.7,0,2.5,0,2.3.2,4.4,2.5,4.2,4.6-.2,2.3-2.4,4.5-4.4,4.4-.6,0-1.2,0-1.8,0-23.8,0-47.7,0-71.5,0-1,0-2,0-2.9,0-2.6-.1-4-1.4-4.3-4-.1-1.5-.1-3-.1-4.5,0-40.3,0-80.7,0-121v-2.5c-.1,0-.3-.2-.5-.2h0Z"/>
      <path class="st0" d="M256,156.2c.5-1.9.7-120.5.2-123.3h-68c-1.2,0-2.4,0-3.6,0-2.1-.2-3.6-1.4-4.2-3.5-.5-1.9.2-3.8,2-4.9.7-.4,1.6-.5,2.4-.5,5.1,0,10.2,0,15.4,0,19.2,0,38.4,0,57.7,0,1.1,0,2.1,0,3.2,0,2.4,0,3.8,1.3,4.1,3.7.1,1.2.1,2.4.1,3.6,0,38.8,0,77.7,0,116.5v8.7c1-.9,1.7-1.4,2.3-2,3.9-3.9,7.8-7.8,11.6-11.7.9-.9,1.8-1.7,2.6-2.5,1.4-1.4,3-1.2,4.6-.7,1.7.5,2.4,1.8,2.6,3.4.3,1.8-.6,3.2-1.8,4.4-4.7,4.7-9.4,9.4-14,14.1-3,3-6.1,6.1-9.2,9-.6.6-1.5.9-2.3,1.2-1.6.4-3,0-4.1-1.2-2.6-2.6-5.3-5.2-7.9-7.8-5.1-5.1-10.2-10.2-15.4-15.4-1.1-1.1-1.7-2.3-1.7-3.8,0-1.6.4-3,2-3.7,1.6-.7,3.2-1,4.7.2,1.2.9,2.3,1.9,3.4,3,4.3,4.3,8.5,8.6,12.8,12.8.1.1.4.2.7.5h0Z"/>
    </g>
  </g>
</svg>