<?xml version="1.0" encoding="UTF-8"?>
<svg id="Layer_2" xmlns="http://www.w3.org/2000/svg" version="1.1" viewBox="0 0 249.2 249.2">
  <!-- Generator: Adobe Illustrator 29.5.1, SVG Export Plug-In . SVG Version: 2.1.0 Build 141)  -->
  <defs>
    <style>
      .st0 {
        fill: #0097d6;
      }
    </style>
  </defs>
  <g id="Layer_1-2">
    <g id="growth">
      <path class="st0" d="M151,151h-52.9c-6.2,0-11.3,5.1-11.3,11.3v7.6c0,2.8,1.1,5.5,2.9,7.6-1.9,2.1-2.9,4.8-2.9,7.6v7.6c0,2.8,1.1,5.5,2.9,7.6-1.9,2.1-2.9,4.8-2.9,7.6v7.6c0,2.8,1.1,5.5,2.9,7.6-1.9,2.1-2.9,4.8-2.9,7.6v7.6c0,6.2,5.1,11.3,11.3,11.3h52.9c6.2,0,11.3-5.1,11.3-11.3v-7.6c0-2.8-1.1-5.5-2.9-7.6,1.9-2.1,2.9-4.8,2.9-7.6v-7.6c0-2.8-1.1-5.5-2.9-7.6,1.9-2.1,2.9-4.8,2.9-7.6v-7.6c0-2.8-1.1-5.5-2.9-7.6,1.9-2.1,2.9-4.8,2.9-7.6v-7.6c0-6.2-5.1-11.3-11.3-11.3ZM94.4,162.4c0-2.1,1.7-3.8,3.8-3.8h52.9c2.1,0,3.8,1.7,3.8,3.8v7.6c0,2.1-1.7,3.8-3.8,3.8h-52.9c-2.1,0-3.8-1.7-3.8-3.8,0,0,0-7.6,0-7.6ZM154.8,185v7.6c0,2.1-1.7,3.8-3.8,3.8h-52.9c-2.1,0-3.8-1.7-3.8-3.8v-7.6c0-2.1,1.7-3.8,3.8-3.8h52.9c2.1,0,3.8,1.7,3.8,3.8ZM154.8,207.7v7.6c0,2.1-1.7,3.8-3.8,3.8h-52.9c-2.1,0-3.8-1.7-3.8-3.8v-7.6c0-2.1,1.7-3.8,3.8-3.8h52.9c2.1,0,3.8,1.7,3.8,3.8ZM154.8,237.9c0,2.1-1.7,3.8-3.8,3.8h-52.9c-2.1,0-3.8-1.7-3.8-3.8v-7.6c0-2.1,1.7-3.8,3.8-3.8h52.9c2.1,0,3.8,1.7,3.8,3.8v7.6ZM237.9,105.7h-49.1c-6.2,0-11.3,5.1-11.3,11.3v7.6c0,2.8,1.1,5.5,2.9,7.5-1.9,2.1-2.9,4.8-2.9,7.6v7.6c0,2.8,1.1,5.5,2.9,7.6-1.9,2.1-2.9,4.8-2.9,7.6v7.6c0,2.8,1.1,5.5,2.9,7.6-1.9,2.1-2.9,4.8-2.9,7.6v7.6c0,2.8,1.1,5.5,2.9,7.6-1.9,2.1-2.9,4.8-2.9,7.6v7.6c0,2.8,1.1,5.5,2.9,7.6-1.9,2.1-2.9,4.8-2.9,7.6v7.6c0,6.2,5.1,11.3,11.3,11.3h49.1c6.2,0,11.3-5.1,11.3-11.3v-7.6c0-2.8-1.1-5.5-2.9-7.6,1.9-2.1,2.9-4.8,2.9-7.6v-7.6c0-2.8-1.1-5.5-2.9-7.6,1.9-2.1,2.9-4.8,2.9-7.6v-7.6c0-2.8-1.1-5.5-2.9-7.6,1.9-2.1,2.9-4.8,2.9-7.6v-7.6c0-2.8-1.1-5.5-2.9-7.6,1.9-2.1,2.9-4.8,2.9-7.6v-7.6c0-2.8-1.1-5.5-2.9-7.6,1.9-2.1,2.9-4.8,2.9-7.6v-7.6c0-6.2-5.1-11.3-11.3-11.3ZM185,117.1c0-2.1,1.7-3.8,3.8-3.8h49.1c2.1,0,3.8,1.7,3.8,3.8v7.6c0,2.1-1.7,3.8-3.8,3.8h-49.1c-2.1,0-3.8-1.7-3.8-3.8v-7.6ZM241.7,139.7v7.6c0,2.1-1.7,3.8-3.8,3.8h-49.1c-2.1,0-3.8-1.7-3.8-3.8v-7.6c0-2.1,1.7-3.8,3.8-3.8h49.1c2.1,0,3.8,1.7,3.8,3.8ZM241.7,162.4v7.6c0,2.1-1.7,3.8-3.8,3.8h-49.1c-2.1,0-3.8-1.7-3.8-3.8v-7.6c0-2.1,1.7-3.8,3.8-3.8h49.1c2.1,0,3.8,1.7,3.8,3.8ZM241.7,185v7.6c0,2.1-1.7,3.8-3.8,3.8h-49.1c-2.1,0-3.8-1.7-3.8-3.8v-7.6c0-2.1,1.7-3.8,3.8-3.8h49.1c2.1,0,3.8,1.7,3.8,3.8ZM241.7,207.7v7.6c0,2.1-1.7,3.8-3.8,3.8h-49.1c-2.1,0-3.8-1.7-3.8-3.8v-7.6c0-2.1,1.7-3.8,3.8-3.8h49.1c2.1,0,3.8,1.7,3.8,3.8ZM241.7,237.9c0,2.1-1.7,3.8-3.8,3.8h-49.1c-2.1,0-3.8-1.7-3.8-3.8v-7.6c0-2.1,1.7-3.8,3.8-3.8h49.1c2.1,0,3.8,1.7,3.8,3.8v7.6ZM60.4,196.4H11.3c-6.2,0-11.3,5.1-11.3,11.3v7.6c0,2.8,1.1,5.5,3,7.6-1.9,2.1-2.9,4.8-3,7.6v7.6c0,6.2,5.1,11.3,11.3,11.3h49.1c6.2,0,11.3-5.1,11.3-11.3v-7.6c0-2.8-1.1-5.5-2.9-7.6,1.9-2.1,2.9-4.8,2.9-7.6v-7.6c0-6.2-5.1-11.3-11.3-11.3ZM7.6,207.7c0-2.1,1.7-3.8,3.8-3.8h49.1c2.1,0,3.8,1.7,3.8,3.8v7.6c0,2.1-1.7,3.8-3.8,3.8H11.3c-2.1,0-3.8-1.7-3.8-3.8v-7.6ZM64.2,237.9c0,2.1-1.7,3.8-3.8,3.8H11.3c-2.1,0-3.8-1.7-3.8-3.8v-7.6c0-2.1,1.7-3.8,3.8-3.8h49.1c2.1,0,3.8,1.7,3.8,3.8v7.6h0ZM235.1,0h-44.9c-7.6-.2-14,5.9-14.1,13.6.2,7.6,6.5,13.7,14.1,13.6h10.3C99.4,116.7,14,123.9,13.2,123.9c-7.6.3-13.5,6.7-13.1,14.3H0c.7,7.7,7.4,13.3,15,12.7,3.9-.2,96.3-7.1,205.9-105.1v10c.3,7.8,6.9,13.9,14.7,13.6,7.4-.3,13.2-6.2,13.6-13.5V13.6c-.2-7.6-6.5-13.7-14.1-13.6ZM241.7,56c-.3,3.6-3.6,6.3-7.2,6-3.2-.3-5.7-2.8-6-6v-18.6c0-2.1-1.7-3.8-3.8-3.8s-1.9.4-2.6,1C137.6,112.4,50.8,142.3,14.1,143.5c-3.3.1-6.2-2.3-6.6-5.6,0-3.4,2.6-6.3,6.1-6.4h0c.9,0,92.6-7.4,199.2-105.4,1.5-1.4,1.6-3.8.2-5.3-.7-.8-1.7-1.2-2.8-1.2h-20.1c-3.5.1-6.4-2.5-6.6-6,.2-3.5,3.1-6.2,6.6-6h44.9c3.5-.1,6.4,2.6,6.6,6v42.4h0ZM49.1,98.2c27.1,0,49.1-22,49.1-49.1S76.2,0,49.1,0,0,22,0,49.1c0,27.1,22,49.1,49.1,49.1ZM49.1,7.6c22.9,0,41.5,18.6,41.5,41.5s-18.6,41.5-41.5,41.5S7.6,72,7.6,49.1c0-22.9,18.6-41.5,41.5-41.5ZM56.6,60.4c0-4.2-3.4-7.5-7.5-7.5-8.3,0-15.1-6.7-15.1-15,0-6.9,4.7-12.9,11.3-14.6v-4.3c0-2.1,1.7-3.8,3.8-3.8s3.8,1.7,3.8,3.8v4.3c6.7,1.7,11.3,7.7,11.3,14.6,0,2.1-1.7,3.8-3.8,3.8s-3.8-1.7-3.8-3.8c0-4.2-3.4-7.5-7.5-7.5s-7.5,3.4-7.5,7.5,3.4,7.5,7.5,7.5c8.3,0,15.1,6.7,15.1,15,0,6.9-4.7,12.9-11.3,14.6v4.3c0,2.1-1.7,3.8-3.8,3.8s-3.8-1.7-3.8-3.8v-4.3c-6.7-1.7-11.3-7.7-11.3-14.6,0-2.1,1.7-3.8,3.8-3.8s3.8,1.7,3.8,3.8c0,4.2,3.4,7.6,7.5,7.6s7.5-3.4,7.6-7.6Z"/>
    </g>
  </g>
</svg>