<svg width="114" height="105" viewBox="0 0 114 105" fill="none" xmlns="http://www.w3.org/2000/svg">
<path d="M34.319 72.734L31.5857 68.0007L9.8524 30.334H4.38574L28.8524 72.734H34.319Z" fill="#B7B7B7"/>
<path d="M56.3848 72.734L53.5848 68.0007L50.8514 63.2673L48.1181 58.4673L45.3848 53.734L42.6514 49.0007L31.8514 30.334H26.3848L39.9181 53.734L42.6514 58.4673L45.3848 63.2673L48.1181 68.0007L50.8514 72.734H56.3848Z" fill="#B7B7B7"/>
<path d="M64.5479 68.0007L61.8146 63.2673L59.0813 58.4673L56.3479 53.734L53.5479 49.0007L50.8146 44.2673L48.0813 39.4673L42.8146 30.334H37.2812L45.3479 44.2673L50.8146 53.734L53.5479 58.4673L56.3479 63.2673L59.0813 68.0007L61.8146 72.734H67.2813L64.5479 68.0007Z" fill="#B7B7B7"/>
<path d="M76.366 0.00585938H70.8994L50.8994 34.6725L53.6327 39.4725L76.366 0.00585938Z" fill="#B7B7B7"/>
<path d="M39.9152 72.734H45.3818L42.6485 68.0007L39.9152 63.2673L37.1818 58.4673L20.8485 30.334H15.3818L34.3818 63.2673L37.1818 68.0007L39.9152 72.734Z" fill="#B7B7B7"/>
<path d="M59.0712 48.9392L87.3379 0.00585938H81.8712L56.3379 44.2058V44.2725L59.0712 48.9392Z" fill="#B7B7B7"/>
<path d="M64.5224 58.4725L98.3224 0.00585938H92.7891L61.7891 53.6725L61.8557 53.7392L64.5224 58.4725Z" fill="#B7B7B7"/>
<path d="M109.266 0.00585938H103.8L67.333 63.2059V63.2725L70.0663 67.9392L109.266 0.00585938Z" fill="#B7B7B7"/>
<path d="M7.88945 92.6187C7.35611 93.0854 6.62278 93.4187 5.82278 93.4187C4.15612 93.4187 2.75612 92.0854 2.75612 90.3521C2.75612 88.6854 4.15612 87.2854 5.82278 87.2854C6.62278 87.2854 7.35611 87.6188 7.88945 88.0854L9.35611 86.6187C8.42278 85.7521 7.22278 85.2188 5.82278 85.2188C3.02278 85.2188 0.689453 87.4854 0.689453 90.3521C0.689453 93.2187 2.95612 95.4854 5.82278 95.4854C7.15611 95.4854 8.42278 94.9521 9.35611 94.0854L7.88945 92.6187Z" fill="#B7B7B7"/>
<path d="M22.8081 85.2188C20.0081 85.2188 17.6748 87.4854 17.6748 90.3521C17.6748 93.2187 19.9415 95.4854 22.8081 95.4854C25.6081 95.4854 27.9415 93.2187 27.9415 90.3521C27.9415 87.4854 25.6081 85.2188 22.8081 85.2188ZM22.8081 93.4187C21.1415 93.4187 19.7415 92.0187 19.7415 90.3521C19.7415 88.6854 21.1415 87.2854 22.8081 87.2854C24.4748 87.2854 25.8748 88.6854 25.8748 90.3521C25.8748 92.0854 24.4748 93.4187 22.8081 93.4187Z" fill="#B7B7B7"/>
<path d="M42.1551 92.7521L39.1551 85.2188H36.9551V95.4854H39.0217V90.3521L41.0884 95.4854H43.2884L45.2884 90.3521V95.4854H47.3551V85.2188H45.1551L42.1551 92.7521Z" fill="#B7B7B7"/>
<path d="M59.2046 85.2188H56.3379V95.4188H58.4046V91.3521H59.2712C60.9379 91.3521 62.3379 89.9521 62.3379 88.2854C62.2712 86.6187 60.9379 85.2188 59.2046 85.2188ZM59.2046 89.3521H58.4046V87.2854H59.2046C59.7379 87.2854 60.2046 87.7521 60.2046 88.2854C60.2712 88.8854 59.8046 89.3521 59.2046 89.3521Z" fill="#B7B7B7"/>
<path d="M73.7038 85.2188L70.0371 95.4188H72.2371L73.3038 92.5521H76.4371L77.5038 95.4188H79.7038L76.0371 85.2188H73.7038ZM73.9704 90.5521L74.7704 88.2188L75.6371 90.5521H73.9704Z" fill="#B7B7B7"/>
<path d="M96.8368 85.2188H94.8368V92.0854L90.7034 85.2188H88.3701V95.4854H90.3701V88.6854L94.5034 95.4854H96.8368V85.2188Z" fill="#B7B7B7"/>
<path d="M110.285 95.4854V90.6187L112.952 85.2188H110.685L109.285 88.0854L107.885 85.2188H105.618L108.285 90.6187V95.4854H110.285Z" fill="#B7B7B7"/>
<path d="M0.689453 100.408H1.88945V104.208H2.55612V100.408H3.75612V99.875H0.689453V100.408Z" fill="#B7B7B7"/>
<path d="M8.50235 99.875L6.90234 104.208H7.56901L7.90234 103.208H9.56901L9.90235 104.208H10.569L8.96901 99.875H8.50235ZM8.16901 102.608L8.76901 100.742L9.36901 102.608H8.16901Z" fill="#B7B7B7"/>
<path d="M16.0043 102.394H16.871V102.594C16.871 102.861 16.8043 103.061 16.6043 103.261C16.471 103.461 16.2043 103.528 16.0043 103.528C15.871 103.528 15.7376 103.528 15.6043 103.461C15.471 103.394 15.4043 103.328 15.3376 103.261C15.271 103.194 15.2043 103.061 15.1376 102.928C15.1376 102.794 15.071 102.461 15.071 102.061C15.071 101.661 15.071 101.328 15.1376 101.194C15.1376 101.061 15.2043 100.928 15.3376 100.861C15.4043 100.794 15.471 100.728 15.6043 100.661C15.7376 100.594 15.871 100.594 16.0043 100.594C16.2043 100.594 16.4043 100.661 16.5376 100.794C16.671 100.928 16.8043 101.061 16.8043 101.261H17.471C17.4043 100.928 17.2043 100.594 17.0043 100.328C16.7376 100.061 16.4043 99.9277 16.0043 99.9277C15.671 99.9277 15.4043 99.9944 15.1376 100.194C14.9376 100.328 14.7376 100.528 14.6043 100.728C14.5376 100.861 14.471 100.994 14.471 101.128C14.471 101.328 14.4043 101.661 14.4043 102.128C14.4043 102.594 14.4043 102.928 14.471 103.128C14.471 103.194 14.5376 103.328 14.5376 103.328C14.5376 103.394 14.6043 103.461 14.6043 103.528C14.7376 103.728 14.871 103.928 15.1376 104.061C15.3376 104.194 15.671 104.328 16.0043 104.328C16.471 104.328 16.8043 104.194 17.071 103.861C17.3376 103.594 17.5376 103.194 17.5376 102.794V101.928H16.0043V102.394Z" fill="#B7B7B7"/>
<path d="M22.7116 99.875H22.0449V104.208H24.7783V103.542H22.7116V99.875Z" fill="#B7B7B7"/>
<path d="M29.6637 99.875H28.9971V104.208H29.6637V99.875Z" fill="#B7B7B7"/>
<path d="M36.8214 102.942L34.8881 99.875H34.2881V104.208H34.8881V101.075H34.9548L36.8881 104.208H37.4881V99.875H36.8214V102.942Z" fill="#B7B7B7"/>
<path d="M42.0645 104.208H44.7978V103.542H42.7311V102.275H44.5311V101.675H42.7311V100.475H44.7978V99.875H42.0645V104.208Z" fill="#B7B7B7"/>
<path d="M55.6566 102.394H56.5233V102.594C56.5233 102.861 56.4566 103.061 56.2566 103.261C56.1233 103.461 55.8566 103.528 55.6566 103.528C55.5233 103.528 55.39 103.528 55.2566 103.461C55.1233 103.394 55.0566 103.328 54.99 103.261C54.9233 103.194 54.8566 103.061 54.79 102.928C54.79 102.794 54.7233 102.461 54.7233 102.061C54.7233 101.661 54.7233 101.328 54.79 101.194C54.79 101.061 54.8566 100.928 54.99 100.861C55.0566 100.794 55.1233 100.728 55.2566 100.661C55.39 100.594 55.5233 100.594 55.6566 100.594C55.8566 100.594 56.0566 100.661 56.19 100.794C56.3233 100.928 56.4566 101.061 56.4566 101.261H57.1233C57.0566 100.928 56.8566 100.594 56.6566 100.328C56.39 100.061 56.0566 99.9277 55.6566 99.9277C55.3233 99.9277 55.0566 99.9944 54.79 100.194C54.59 100.328 54.39 100.528 54.2566 100.728C54.19 100.861 54.1233 100.994 54.1233 101.128C54.1233 101.328 54.0566 101.661 54.0566 102.128C54.0566 102.594 54.0566 102.928 54.1233 103.128C54.1233 103.194 54.19 103.328 54.19 103.328C54.19 103.394 54.2566 103.461 54.2566 103.528C54.39 103.728 54.5233 103.928 54.79 104.061C54.99 104.194 55.3233 104.328 55.6566 104.328C56.1233 104.328 56.4566 104.194 56.7233 103.861C56.99 103.594 57.19 103.194 57.19 102.794V101.928H55.6566V102.394Z" fill="#B7B7B7"/>
<path d="M64.3767 100.628C64.2434 100.428 64.11 100.228 63.91 100.095C63.71 99.9615 63.3767 99.8281 63.0434 99.8281C62.71 99.8281 62.4434 99.8948 62.1767 100.095C61.9767 100.228 61.7767 100.428 61.6434 100.628C61.5767 100.761 61.51 100.895 61.51 101.028C61.51 101.228 61.4434 101.561 61.4434 102.028C61.4434 102.495 61.4434 102.828 61.51 103.028C61.51 103.095 61.5767 103.228 61.5767 103.228C61.5767 103.295 61.6434 103.361 61.6434 103.428C61.7767 103.628 61.91 103.828 62.1767 103.961C62.3767 104.095 62.71 104.228 63.0434 104.228C63.3767 104.228 63.6434 104.161 63.91 103.961C64.11 103.828 64.31 103.628 64.3767 103.428C64.4434 103.295 64.51 103.161 64.51 103.028C64.51 102.828 64.5767 102.495 64.5767 102.028C64.5767 101.495 64.5767 101.161 64.51 101.028C64.51 100.828 64.4434 100.695 64.3767 100.628ZM63.8434 102.895C63.8434 103.028 63.7767 103.161 63.6434 103.228C63.5767 103.295 63.51 103.361 63.3767 103.428C63.2434 103.495 63.11 103.495 62.9767 103.495C62.8434 103.495 62.71 103.495 62.5767 103.428C62.4434 103.361 62.3767 103.295 62.31 103.228C62.2434 103.161 62.1767 103.028 62.11 102.895C62.11 102.761 62.0434 102.428 62.0434 102.028C62.0434 101.628 62.0434 101.295 62.11 101.161C62.11 101.028 62.1767 100.895 62.31 100.828C62.3767 100.761 62.4434 100.695 62.5767 100.628C62.71 100.561 62.8434 100.561 62.9767 100.561C63.11 100.561 63.2434 100.628 63.3767 100.628C63.51 100.695 63.5767 100.761 63.6434 100.828C63.71 100.895 63.7767 101.028 63.8434 101.161C63.8434 101.295 63.91 101.628 63.91 102.028C63.91 102.428 63.91 102.761 63.8434 102.895Z" fill="#B7B7B7"/>
<path d="M68.9863 104.208H71.7197V103.542H69.653V102.275H71.453V101.675H69.653V100.475H71.7197V99.875H68.9863V104.208Z" fill="#B7B7B7"/>
<path d="M77.6511 101.742C77.4511 101.742 77.2511 101.675 77.1844 101.675C76.9844 101.608 76.7844 101.542 76.7178 101.475C76.6511 101.342 76.5844 101.275 76.5844 101.142C76.5844 100.942 76.6511 100.808 76.7844 100.675C76.9178 100.542 77.1178 100.542 77.3178 100.542C77.7178 100.542 78.0511 100.675 78.3844 100.875L78.7178 100.342C78.3178 100.075 77.8511 99.875 77.3178 99.875C76.8511 99.875 76.5178 100.008 76.2511 100.208C75.9844 100.408 75.8511 100.742 75.8511 101.142C75.8511 101.475 75.9844 101.742 76.1844 101.942C76.3844 102.142 76.6511 102.275 77.0511 102.342C77.2511 102.342 77.4511 102.408 77.6511 102.408C78.0511 102.475 78.2511 102.675 78.1844 103.008C78.1844 103.408 77.9178 103.608 77.3178 103.608C76.8511 103.608 76.4511 103.475 76.1178 103.208L75.7178 103.675C76.1844 104.075 76.7178 104.275 77.3844 104.275C78.3844 104.275 78.8511 103.875 78.9178 103.008C78.9178 102.675 78.8511 102.408 78.6511 102.208C78.3178 101.942 78.0511 101.742 77.6511 101.742Z" fill="#B7B7B7"/>
<path d="M90.6607 101.675H88.9274V99.875H88.2607V104.208H88.9274V102.275H90.6607V104.208H91.3274V99.875H90.6607V101.675Z" fill="#B7B7B7"/>
<path d="M95.8174 104.208H98.6174V103.542H96.484V102.275H98.2841V101.675H96.484V100.475H98.6174V99.875H95.8174V104.208Z" fill="#B7B7B7"/>
<path d="M105.871 101.075C105.871 100.675 105.738 100.342 105.471 100.142C105.271 99.9417 104.938 99.875 104.604 99.875H102.871V104.208H103.538V102.342H104.404L105.271 104.208H106.071L105.071 102.275C105.604 102.075 105.871 101.675 105.871 101.075ZM103.538 101.742V100.408H104.538C104.738 100.408 104.938 100.475 105.004 100.542C105.138 100.675 105.204 100.808 105.204 101.008C105.204 101.208 105.138 101.342 105.004 101.475C104.871 101.608 104.671 101.675 104.471 101.675H103.538V101.742Z" fill="#B7B7B7"/>
<path d="M110.259 104.208H113.059V103.542H110.925V102.275H112.725V101.675H110.925V100.475H113.059V99.875H110.259V104.208Z" fill="#B7B7B7"/>
</svg>
