<svg width="46" height="46" viewBox="0 0 46 46" fill="none" xmlns="http://www.w3.org/2000/svg">
<path d="M12.7503 33.6665C-2.1992 18.7146 -1.48387 7.40705 5.3553 2.27888L6.87055 1.1503C7.25716 0.865848 7.69696 0.661952 8.16387 0.55071C8.63078 0.439468 9.11527 0.423145 9.58861 0.50271C10.0619 0.582276 10.5145 0.756108 10.9193 1.01389C11.3242 1.27168 11.6732 1.60816 11.9456 2.00338L15.7615 7.49405C16.2721 8.22888 16.4929 9.12661 16.3813 10.0145C16.2698 10.9023 15.8338 11.7175 15.1573 12.3032L11.484 15.4787C10.5656 16.2738 10.1161 17.4797 10.5294 18.6228C11.2931 20.7495 13.1466 24.5025 17.5305 28.884C21.9143 33.2678 25.665 35.1214 27.7916 35.8875C28.9371 36.2983 30.1431 35.8512 30.9381 34.9305L34.1136 31.262C34.6993 30.5854 35.5146 30.1495 36.4024 30.0379C37.2902 29.9264 38.188 30.1472 38.9228 30.6578L44.4231 34.4761C44.818 34.7476 45.1542 35.0957 45.4119 35.4996C45.6696 35.9036 45.8436 36.3552 45.9234 36.8277C46.0031 37.3001 45.9872 37.7838 45.8764 38.25C45.7657 38.7162 45.5624 39.1554 45.2786 39.5415L44.1428 41.0712C39.0171 47.9055 27.7046 48.6185 12.7503 33.6665Z" fill="#E0E0E0"/>
</svg>
