<svg width="40" height="40" viewBox="0 0 40 40" fill="none" xmlns="http://www.w3.org/2000/svg">
<circle cx="20" cy="20" r="20" fill="white"/>
<path d="M25.5099 23.1162C25.3755 22.9819 25.2907 22.798 25.2907 22.5859L25.2907 14.7511L17.4559 14.7511C17.0458 14.7511 16.7064 14.4117 16.7064 14.0016C16.7064 13.5915 17.0458 13.2521 17.4559 13.2521L26.0402 13.2521C26.4503 13.2521 26.7897 13.5915 26.7897 14.0016L26.7897 22.5859C26.7897 22.996 26.4503 23.3354 26.0402 23.3354C25.8351 23.3425 25.6442 23.2506 25.5099 23.1162Z" fill="#1B1B1B"/>
<path d="M13.2546 26.4325C12.9647 26.1426 12.9647 25.6618 13.2546 25.3719L25.1552 13.4712C25.4451 13.1813 25.926 13.1813 26.2159 13.4712C26.5058 13.7612 26.5058 14.242 26.2159 14.5319L14.3153 26.4325C14.0254 26.7224 13.5445 26.7224 13.2546 26.4325Z" fill="#1B1B1B"/>
</svg>
