<svg width="70" height="68" viewBox="0 0 70 68" fill="none" xmlns="http://www.w3.org/2000/svg">
<g clip-path="url(#clip0_989_222)">
<path d="M42.15 29.53C41.72 29.53 41.24 29.42 40.7299 29.15L40.57 29.04L37.52 26.24L38.54 25.13L41.5099 27.86C42.6199 28.39 43.25 27.4 43.32 27.29C44.0599 26.17 43.03 25.34 42.91 25.25L37.68 20.24C34.04 17.31 28.44 17.8 28.38 17.81L28.03 17.84L12.2 2L13.26 0.940002L28.6 16.28C29.99 16.21 35.0299 16.18 38.6699 19.1L43.88 24.1C44.61 24.65 45.7999 26.27 44.59 28.08C44.24 28.66 43.36 29.52 42.15 29.52V29.53Z" fill="#FCFCFC"/>
<path d="M45.43 40.74C45.03 40.74 44.6 40.68 44.13 40.55L44.55 39.11C46.36 39.64 47.33 38.35 47.34 38.34C47.79 37.79 47.97 37.28 47.92 36.74C47.81 35.61 46.72 34.7 46.71 34.69L37.51 26.25L38.52 25.14L47.68 33.55C47.68 33.55 49.23 34.82 49.4 36.58C49.49 37.53 49.2 38.43 48.51 39.25C48.48 39.29 47.4 40.73 45.41 40.73L45.43 40.74Z" fill="#FCFCFC"/>
<path d="M44.09 45.93C42.42 45.93 41.0499 44.56 40.4599 43.97C39.3099 42.82 38.29 41.85 37.15 40.76C36.22 39.87 35.2 38.9 33.95 37.68L35 36.61C36.24 37.82 37.2599 38.79 38.1899 39.68C39.3499 40.78 40.3699 41.76 41.5299 42.91C42.8699 44.24 43.8499 44.68 44.7299 44.29C45.3099 44.04 45.6 43.23 45.58 42.59C45.57 42.02 45.1799 41.54 44.5499 40.93L37.5099 34.12L38.5499 33.04L45.59 39.85C46.1 40.34 47.04 41.25 47.07 42.55C47.0999 43.67 46.56 45.12 45.31 45.66C44.89 45.84 44.48 45.92 44.09 45.92V45.93Z" fill="#FCFCFC"/>
<path d="M38.29 48.1C37.59 48.1 36.81 47.86 36 47.21L30.29 41.55L31.35 40.49L37 46.1C38.46 47.27 39.6 46.09 39.82 45.84C40.66 44.91 39.75 43.24 39.74 43.22L41.05 42.48C41.11 42.59 42.5 45.1 40.95 46.82C40.48 47.38 39.5 48.1 38.29 48.1Z" fill="#FCFCFC"/>
<path d="M33.4399 48.89C32.4099 48.89 31.2599 48.34 30.2899 47.37C28.6599 45.74 27.1199 44.14 25.6299 42.58C23.9799 40.86 22.2699 39.08 20.4499 37.28C20.2999 37.14 17.8199 34.7 18.4199 28.3L2.18994 11.19L3.27994 10.16L19.9899 27.78L19.9499 28.12C19.3199 33.96 21.4299 36.14 21.4499 36.16C23.3299 38.03 25.0499 39.81 26.7099 41.54C28.1999 43.09 29.7299 44.69 31.3499 46.3C32.0799 47.03 32.9699 47.45 33.5899 47.37C33.8999 47.33 34.1299 47.18 34.2999 46.89C34.5099 46.54 34.5899 46 34.5399 45.35L36.0299 45.23C36.0799 45.9 36.0499 46.86 35.5899 47.65C35.1899 48.33 34.5499 48.76 33.7799 48.86C33.6699 48.87 33.5499 48.88 33.4399 48.88V48.89Z" fill="#FCFCFC"/>
<path d="M44.31 16.98L43.82 16.74C43.82 16.74 41.4 15.57 38.81 16.45L38.33 15.03C40.77 14.2 43 14.81 43.98 15.18L58.82 0L59.89 1.05L44.31 16.98Z" fill="#FCFCFC"/>
<path d="M53.61 32.43L52.46 31.47C53.86 29.78 52.71 26.73 52.7 26.7L52.52 26.24L68.58 10.35L69.63 11.42L54.25 26.63C54.58 27.74 55.18 30.52 53.6 32.43H53.61Z" fill="#FCFCFC"/>
<path d="M11.68 67.97L10.61 66.92L26.24 50.93L26.76 51.28C26.76 51.28 29.31 52.96 31.48 51.95L32.11 53.31C29.86 54.35 27.51 53.39 26.47 52.84L11.68 67.96V67.97Z" fill="#FCFCFC"/>
<path d="M1.05 58.31L0 57.24L15.42 41.99C15.2 40.95 14.85 38.44 16.19 36.95L17.31 37.95C16.4 38.97 16.76 41.23 16.98 42.02L17.1 42.44L16.79 42.75L1.05 58.31Z" fill="#FCFCFC"/>
<path d="M67.72 58.65L52.28 43.15L52.39 42.73C54.3 35.57 47.85 31.25 47.78 31.2L48.6 29.94C48.67 29.99 55.77 34.74 53.94 42.69L68.78 57.59L67.72 58.65Z" fill="#FCFCFC"/>
<path d="M57.86 67.96L43.94 53.39C42.53 53.89 38.49 54.93 34.83 52L35.77 50.83C39.46 53.8 43.77 51.84 43.81 51.82L44.3 51.59L58.94 66.91L57.86 67.95V67.96Z" fill="#FCFCFC"/>
</g>
<defs>
<clipPath id="clip0_989_222">
<rect width="69.64" height="67.97" fill="white"/>
</clipPath>
</defs>
</svg>
