<svg width="22" height="22" viewBox="0 0 22 22" fill="none" xmlns="http://www.w3.org/2000/svg">
<path fill-rule="evenodd" clip-rule="evenodd" d="M21.6673 10.9878C21.6673 11.7092 21.5939 12.4295 21.4496 13.1317C21.309 13.8172 21.1006 14.4903 20.8277 15.1336C20.5611 15.7656 20.2303 16.3746 19.8438 16.9425C19.4631 17.5069 19.0245 18.0364 18.5427 18.519C18.0599 18.9996 17.5286 19.437 16.9645 19.8193C16.3947 20.2031 15.7848 20.5334 15.1525 20.8013C14.5082 21.0728 13.8336 21.2808 13.1487 21.4212C12.4456 21.5658 11.7226 21.6397 11.0002 21.6397C10.2772 21.6397 9.55427 21.5658 8.85215 21.4212C8.1662 21.2808 7.49168 21.0728 6.84788 20.8013C6.21557 20.5334 5.6051 20.2031 5.03529 19.8193C4.4712 19.437 3.93993 18.9996 3.45813 18.519C2.97583 18.0364 2.53724 17.5069 2.15597 16.9425C1.77158 16.3746 1.44029 15.7656 1.17258 15.1336C0.899619 14.4903 0.690783 13.8172 0.549625 13.1317C0.406922 12.4295 0.333984 11.7092 0.333984 10.9878C0.333984 10.2659 0.406881 9.544 0.549667 8.84336C0.690825 8.15785 0.899661 7.4838 1.17262 6.84148C1.44033 6.20904 1.77162 5.59949 2.15601 5.0315C2.53728 4.46668 2.97587 3.93822 3.45817 3.45503C3.93997 2.97442 4.47124 2.5381 5.03533 2.15634C5.60514 1.77091 6.21562 1.44069 6.84793 1.17228C7.49172 0.900214 8.16619 0.69168 8.8522 0.552309C9.55431 0.40877 10.2773 0.335938 11.0002 0.335938C11.7226 0.335938 12.4456 0.40877 13.1487 0.552309C13.8336 0.691721 14.5082 0.900256 15.1525 1.17228C15.7848 1.44064 16.3947 1.77091 16.9646 2.15634C17.5286 2.5381 18.06 2.97442 18.5428 3.45503C19.0246 3.93822 19.4631 4.46668 19.8439 5.0315C20.2303 5.59949 20.5611 6.20908 20.8277 6.84148C21.1006 7.4838 21.309 8.15785 21.4496 8.84336C21.5939 9.544 21.6673 10.2659 21.6673 10.9878ZM7.11347 2.76016C4.5732 3.958 2.67728 6.29536 2.08609 9.11228C2.32624 9.11437 6.12227 9.16223 10.4959 8.00183C8.9193 5.20467 7.23483 2.92196 7.11347 2.76016ZM11.2506 9.40254C6.56031 10.8047 2.05953 10.7038 1.89808 10.6976C1.89545 10.7954 1.89078 10.89 1.89078 10.9878C1.89078 13.3246 2.77363 15.455 4.22475 17.0658C4.22162 17.0611 6.71449 12.6449 11.6304 11.0575C11.7491 11.018 11.87 10.9826 11.9897 10.9483C11.7611 10.4313 11.5116 9.91328 11.2506 9.40254ZM17.0161 4.16084C15.4123 2.74871 13.3065 1.89214 11.0001 1.89214C10.26 1.89214 9.54171 1.98161 8.85367 2.14699C8.99011 2.3301 10.7012 4.59671 12.259 7.45311C15.6962 6.16638 16.9937 4.19411 17.0161 4.16084ZM12.6107 12.4556C12.5904 12.4623 12.5701 12.4681 12.5503 12.4753C7.1756 14.3463 5.42043 18.1169 5.40144 18.158C6.94791 19.3589 8.88759 20.0835 11.0002 20.0835C12.2617 20.0835 13.4633 19.827 14.5566 19.3626C14.4217 18.5679 13.8925 15.7822 12.6107 12.4556ZM16.0905 18.5315C18.1359 17.1532 19.5886 14.9646 19.9938 12.4295C19.8063 12.3692 17.2577 11.5635 14.3175 12.0342C15.5123 15.313 15.9978 17.9833 16.0905 18.5315ZM12.9602 8.80854C13.1716 9.24232 13.3764 9.68382 13.5654 10.1275C13.6326 10.2867 13.6983 10.4427 13.7623 10.5988C16.8916 10.2055 19.9746 10.8671 20.1064 10.8941C20.0856 8.73779 19.3131 6.75876 18.035 5.20938C18.0178 5.23377 16.5567 7.34179 12.9602 8.80854Z" fill="#1F293D"/>
</svg>
