<svg width="51" height="71" viewBox="0 0 51 71" fill="none" xmlns="http://www.w3.org/2000/svg">
<g clip-path="url(#clip0_989_205)">
<path d="M44.37 70.16H6.54C2.93 70.16 0 67.23 0 63.62V11.01C0 7.4 2.93 4.47 6.54 4.47H44.37C47.98 4.47 50.91 7.4 50.91 11.01V63.62C50.91 67.23 47.98 70.16 44.37 70.16ZM6.54 5.97C3.76 5.97 1.5 8.23 1.5 11.01V63.62C1.5 66.4 3.76 68.66 6.54 68.66H44.37C47.15 68.66 49.41 66.4 49.41 63.62V11.01C49.41 8.23 47.15 5.97 44.37 5.97H6.54Z" fill="#FCFCFC"/>
<path d="M38.42 11.62H10.97V4.32H19.67C20.03 1.88 22.15 0 24.69 0C27.23 0 29.35 1.88 29.71 4.32H38.41V11.62H38.42ZM12.47 10.12H36.91V5.82H28.26V5.07C28.26 3.1 26.66 1.5 24.69 1.5C22.72 1.5 21.12 3.1 21.12 5.07V5.82H12.47V10.12Z" fill="#FCFCFC"/>
<path d="M38.57 22.16H23.09V23.66H38.57V22.16Z" fill="#FCFCFC"/>
<path d="M38.57 29.01H23.09V30.51H38.57V29.01Z" fill="#FCFCFC"/>
<path d="M39.06 35.87H23.09V37.37H39.06V35.87Z" fill="#FCFCFC"/>
<path d="M39.06 42.72H23.09V44.22H39.06V42.72Z" fill="#FCFCFC"/>
<path d="M39.06 49.58H12.09V51.08H39.06V49.58Z" fill="#FCFCFC"/>
<path d="M39.06 56.43H12.09V57.93H39.06V56.43Z" fill="#FCFCFC"/>
</g>
<defs>
<clipPath id="clip0_989_205">
<rect width="50.91" height="70.16" fill="white"/>
</clipPath>
</defs>
</svg>
