<svg width="88" height="70" viewBox="0 0 88 70" fill="none" xmlns="http://www.w3.org/2000/svg">
<path d="M87.7728 9.83348C87.3761 7.83527 86.4901 6.00669 85.2527 4.49608C84.9918 4.16694 84.7192 3.87217 84.4238 3.57741C82.2315 1.37431 79.1546 0 75.7933 0H12.2067C8.84538 0 5.77947 1.37431 3.57689 3.57741C3.28213 3.87217 3.00953 4.16694 2.74794 4.49608C1.50992 6.00652 0.623906 7.83527 0.238219 9.83348C0.07975 10.6047 0 11.4017 0 12.2074V56.8662C0 58.5795 0.363344 60.2264 1.01131 61.7136C1.61236 63.1333 2.49855 64.4179 3.57672 65.495C3.85 65.7676 4.12139 66.0182 4.41753 66.2674C6.52919 68.0163 9.25495 69.0724 12.2067 69.0724H75.7933C78.7461 69.0724 81.4837 68.0163 83.5832 66.2564C83.8784 66.0182 84.1512 65.7676 84.4238 65.495C85.5015 64.4179 86.3875 63.1333 87.0009 61.7136V61.7026C87.6487 60.2154 87.9998 58.5795 87.9998 56.8664V12.2074C88 11.4017 87.9215 10.6047 87.7728 9.83348ZM7.99373 7.99373C9.08428 6.90439 10.5488 6.24491 12.2067 6.24491H75.7933C77.4512 6.24491 78.9286 6.90439 80.0063 7.99373C80.1991 8.18778 80.3808 8.404 80.5411 8.61884L47.2134 37.6649C46.2942 38.4704 45.1588 38.8683 44 38.8683C42.8529 38.8683 41.7182 38.4704 40.7868 37.6649L7.47175 8.60647C7.61922 8.39163 7.80089 8.18778 7.99373 7.99373ZM6.24491 56.8662V15.0688L30.3631 36.1089L6.25711 57.1266C6.24491 57.0469 6.24491 56.9571 6.24491 56.8662ZM75.7933 62.8263H12.2067C11.1272 62.8263 10.1171 62.5426 9.25495 62.044L34.6887 39.8791L37.0631 41.9447C39.0502 43.6714 41.5367 44.5459 44 44.5459C46.476 44.5459 48.9624 43.6714 50.9493 41.9447L53.3225 39.8791L78.7463 62.044C77.8829 62.5426 76.8728 62.8263 75.7933 62.8263ZM81.7551 56.8662C81.7551 56.9571 81.7551 57.0469 81.7434 57.1266L57.6376 36.1211L81.7551 15.08V56.8662Z" fill="#E0E0E0"/>
</svg>
