<?xml version="1.0" encoding="utf-8"?>
<!-- Generator: Adobe Illustrator 27.2.0, SVG Export Plug-In . SVG Version: 6.00 Build 0)  -->
<svg version="1.1" id="Layer_1" xmlns:serif="http://www.serif.com/"
	 xmlns="http://www.w3.org/2000/svg" xmlns:xlink="http://www.w3.org/1999/xlink" x="0px" y="0px" viewBox="0 0 800 800"
	 style="enable-background:new 0 0 800 800;" xml:space="preserve">
<style type="text/css">
	.st0{fill:none;}
	.st1{opacity:0.4;}
	.st2{fill-rule:evenodd;clip-rule:evenodd;}
</style>
<rect id="Icons" x="-11200" class="st0" width="16000" height="10000"/>
<g id="Icons1" serif:id="Icons" class="st1">
	<g id="Strike">
	</g>
	<g id="H1">
	</g>
	<g id="H2">
	</g>
	<g id="H3">
	</g>
	<g id="list-ul">
	</g>
	<g id="hamburger-1">
	</g>
	<g id="hamburger-2">
	</g>
	<g id="list-ol">
	</g>
	<g id="list-task">
	</g>
	<g id="trash">
	</g>
	<g id="vertical-menu">
	</g>
	<g id="horizontal-menu">
	</g>
	<g id="sidebar-2">
	</g>
	<g id="Pen">
	</g>
	<g id="Pen1" serif:id="Pen">
	</g>
	<g id="clock">
	</g>
	<g id="external-link">
		<path class="st2" d="M450.3,250.7H186.7c-20.6,0-37.4,16.7-37.4,37.4v324.5c0,20.6,16.7,37.4,37.4,37.4H512
			c20.6,0,37.4-16.7,37.4-37.4V350.7h50v274.4c0,41.3-33.6,74.9-74.9,74.9H174.3c-41.4,0-74.9-33.6-74.9-74.9V275.7
			c0-41.4,33.6-74.9,74.9-74.9h276.1V250.7L450.3,250.7z"/>
		<path class="st2" d="M699.1,316.5H649v-131L300.3,534.1l-35.4-35.4l348.7-348.7H482.6V100H699l0,0L699.1,316.5L699.1,316.5z"/>
	</g>
	<g id="hr">
	</g>
	<g id="info">
	</g>
	<g id="warning">
	</g>
	<g id="plus-circle">
	</g>
	<g id="minus-circle">
	</g>
	<g id="vue">
	</g>
	<g id="cog">
	</g>
	<g id="logo">
	</g>
	<g id="radio-check">
	</g>
	<g id="eye-slash">
	</g>
	<g id="eye">
	</g>
	<g id="toggle-off">
	</g>
	<g id="shredder">
	</g>
	<g id="spinner--loading--dots-" serif:id="spinner [loading, dots]">
	</g>
	<g id="react">
	</g>
	<g id="check-selected">
	</g>
	<g id="turn-off">
	</g>
	<g id="code-block">
	</g>
	<g id="user">
	</g>
	<g id="coffee-bean">
	</g>
	<g id="coffee-beans">
		<g id="coffee-bean1" serif:id="coffee-bean">
		</g>
	</g>
	<g id="coffee-bean-filled">
	</g>
	<g id="coffee-beans-filled">
		<g id="coffee-bean2" serif:id="coffee-bean">
		</g>
	</g>
	<g id="clipboard">
	</g>
	<g id="clipboard-paste">
	</g>
	<g id="clipboard-copy">
	</g>
	<g id="Layer1">
	</g>
</g>
</svg>
