<svg width="283" height="283" viewBox="0 0 283 283" fill="none" xmlns="http://www.w3.org/2000/svg">
<g filter="url(#filter0_d_492_572)">
<path fill-rule="evenodd" clip-rule="evenodd" d="M16 91C16 79.9543 24.9543 71 36 71C47.0457 71 56 79.9543 56 91C56 102.046 47.0457 111 36 111C24.9543 111 16 102.046 16 91Z" fill="#1F293D" fill-opacity="0.1"/>
<path d="M36.8301 86.9136C36.8301 87.0822 36.8301 87.6315 36.8301 88.4119H39.5135L39.2225 90.8039H36.8301C36.8301 94.4929 36.8301 99.4362 36.8301 99.4362H33.6547C33.6547 99.4362 33.6547 94.5583 33.6547 90.8039H32V88.4119H33.6547C33.6547 87.4633 33.6547 86.7888 33.6547 86.601C33.6547 85.7062 33.5872 85.2816 33.9675 84.5882C34.3479 83.8948 35.4209 82.9783 37.2768 83.0004C39.1331 83.0233 39.9155 83.2018 39.9155 83.2018L39.5135 85.7511C39.5135 85.7511 38.3281 85.4381 37.7463 85.5497C37.1652 85.6613 36.8301 86.0192 36.8301 86.9136Z" fill="#1F293D"/>
</g>
<defs>
<filter id="filter0_d_492_572" x="0.407196" y="0.366997" width="282.084" height="282.084" filterUnits="userSpaceOnUse" color-interpolation-filters="sRGB">
<feFlood flood-opacity="0" result="BackgroundImageFix"/>
<feColorMatrix in="SourceAlpha" type="matrix" values="0 0 0 0 0 0 0 0 0 0 0 0 0 0 0 0 0 0 127 0" result="hardAlpha"/>
<feOffset dx="105.449" dy="50.4088"/>
<feGaussianBlur stdDeviation="60.5209"/>
<feComposite in2="hardAlpha" operator="out"/>
<feColorMatrix type="matrix" values="0 0 0 0 0.172549 0 0 0 0 0.113725 0 0 0 0 0.235294 0 0 0 0.25 0"/>
<feBlend mode="normal" in2="BackgroundImageFix" result="effect1_dropShadow_492_572"/>
<feBlend mode="normal" in="SourceGraphic" in2="effect1_dropShadow_492_572" result="shape"/>
</filter>
</defs>
</svg>
