<svg width="62" height="70" viewBox="0 0 62 70" fill="none" xmlns="http://www.w3.org/2000/svg">
<g clip-path="url(#clip0_989_238)">
<path d="M54.22 69.64H7.33C3.29 69.64 0 66.35 0 62.31V7.33C0 3.29 3.29 0 7.33 0H54.22C58.26 0 61.55 3.29 61.55 7.33V62.32C61.55 66.36 58.26 69.65 54.22 69.65V69.64ZM7.33 1.5C4.11 1.5 1.5 4.11 1.5 7.33V62.32C1.5 65.53 4.11 68.15 7.33 68.15H54.22C57.43 68.15 60.05 65.54 60.05 62.32V7.33C60.05 4.12 57.44 1.5 54.22 1.5H7.33Z" fill="#FCFCFC"/>
<path d="M16.84 44.5H15.34V34.9C15.34 32.05 16.21 29.76 17.91 28.1C20.88 25.21 25.29 25.3 25.47 25.3H32.52C32.68 25.28 38.08 24.66 38.08 18.38V12.3H39.58V18.38C39.58 26.04 32.66 26.79 32.59 26.8H25.45C25.39 26.8 21.46 26.74 18.95 29.19C17.55 30.56 16.84 32.48 16.84 34.91V44.51V44.5Z" fill="#FCFCFC"/>
<path d="M35.6399 16.63L34.5699 15.58L38.8299 11.21L43.0299 15.58L41.9499 16.62L38.8199 13.37L35.6399 16.63Z" fill="#FCFCFC"/>
<path d="M13.0066 12.9405L11.906 13.9597L18.218 20.776L19.3186 19.7569L13.0066 12.9405Z" fill="#FCFCFC"/>
<path d="M18.2302 12.9277L11.54 19.7427L12.6105 20.7935L19.3006 13.9785L18.2302 12.9277Z" fill="#FCFCFC"/>
<path d="M26.4762 35.3513L25.3756 36.3705L31.6876 43.1868L32.7882 42.1677L26.4762 35.3513Z" fill="#FCFCFC"/>
<path d="M31.6885 35.3343L24.9984 42.1493L26.0688 43.2001L32.759 36.3851L31.6885 35.3343Z" fill="#FCFCFC"/>
<path d="M43.4127 27.5658L42.3121 28.585L48.6241 35.4013L49.7247 34.3822L43.4127 27.5658Z" fill="#FCFCFC"/>
<path d="M48.6407 27.5583L41.9506 34.3733L43.021 35.4241L49.7111 28.6091L48.6407 27.5583Z" fill="#FCFCFC"/>
<path d="M16.09 58.1C13.67 58.1 11.7 56.13 11.7 53.71C11.7 51.29 13.67 49.32 16.09 49.32C18.51 49.32 20.48 51.29 20.48 53.71C20.48 56.13 18.51 58.1 16.09 58.1ZM16.09 50.83C14.5 50.83 13.2 52.12 13.2 53.72C13.2 55.32 14.49 56.61 16.09 56.61C17.69 56.61 18.98 55.32 18.98 53.72C18.98 52.12 17.69 50.83 16.09 50.83Z" fill="#FCFCFC"/>
<path d="M31.47 58.1C29.05 58.1 27.08 56.13 27.08 53.71C27.08 51.29 29.05 49.32 31.47 49.32C33.89 49.32 35.86 51.29 35.86 53.71C35.86 56.13 33.89 58.1 31.47 58.1ZM31.47 50.83C29.88 50.83 28.58 52.12 28.58 53.72C28.58 55.32 29.87 56.61 31.47 56.61C33.07 56.61 34.36 55.32 34.36 53.72C34.36 52.12 33.07 50.83 31.47 50.83Z" fill="#FCFCFC"/>
<path d="M45.8299 58.1C43.4099 58.1 41.4399 56.13 41.4399 53.71C41.4399 51.29 43.4099 49.32 45.8299 49.32C48.2499 49.32 50.2199 51.29 50.2199 53.71C50.2199 56.13 48.2499 58.1 45.8299 58.1ZM45.8299 50.83C44.2399 50.83 42.9399 52.12 42.9399 53.72C42.9399 55.32 44.2299 56.61 45.8299 56.61C47.4299 56.61 48.7199 55.32 48.7199 53.72C48.7199 52.12 47.4299 50.83 45.8299 50.83Z" fill="#FCFCFC"/>
</g>
<defs>
<clipPath id="clip0_989_238">
<rect width="61.54" height="69.64" fill="white"/>
</clipPath>
</defs>
</svg>
