<svg width="16" height="15" viewBox="0 0 16 15" fill="none" xmlns="http://www.w3.org/2000/svg">
<path d="M7.86211 4.58728C6.3322 4.58728 5.08643 5.83236 5.08643 7.36227C5.08643 8.89288 6.3322 10.1383 7.86211 10.1383C9.39271 10.1383 10.6374 8.89288 10.6374 7.36227C10.6374 5.83271 9.39237 4.58728 7.86211 4.58728Z" fill="#F9F9F9"/>
<path fill-rule="evenodd" clip-rule="evenodd" d="M12.486 0.0621338H3.23884C1.76285 0.0621338 0.562012 1.26297 0.562012 2.73896V11.9862C0.562012 13.4622 1.76285 14.6633 3.23884 14.6633H12.486C13.962 14.6633 15.1632 13.4625 15.1632 11.9862V2.73896C15.1632 1.26297 13.9624 0.0621338 12.486 0.0621338ZM7.86237 12.1695C5.21216 12.1695 3.05591 10.0133 3.05591 7.36272C3.05591 4.71251 5.21216 2.55626 7.86237 2.55626C10.5129 2.55626 12.6692 4.71251 12.6692 7.36272C12.6692 10.0129 10.5126 12.1695 7.86237 12.1695ZM11.6861 2.41274C11.6861 3.03978 12.1963 3.54998 12.8237 3.54998C13.4507 3.54998 13.9609 3.03978 13.9609 2.41274C13.9609 1.78571 13.4507 1.27551 12.8237 1.27551C12.1963 1.27551 11.6861 1.78571 11.6861 2.41274Z" fill="#F9F9F9"/>
</svg>
