<svg width="36" height="36" viewBox="0 0 36 36" fill="none" xmlns="http://www.w3.org/2000/svg">
<g filter="url(#filter0_b_295_79)">
<path d="M17.8235 35.7955C27.6672 35.7955 35.6471 27.8156 35.6471 17.972C35.6471 8.1283 27.6672 0.148438 17.8235 0.148438C7.97987 0.148438 0 8.1283 0 17.972C0 27.8156 7.97987 35.7955 17.8235 35.7955Z" fill="#F9F9F9" fill-opacity="0.15"/>
</g>
<path d="M18.3001 15.8789C16.7702 15.8789 15.5244 17.124 15.5244 18.6539C15.5244 20.1845 16.7702 21.4299 18.3001 21.4299C19.8307 21.4299 21.0754 20.1845 21.0754 18.6539C21.0754 17.1243 19.8304 15.8789 18.3001 15.8789Z" fill="#F9F9F9"/>
<path fill-rule="evenodd" clip-rule="evenodd" d="M22.924 11.3555H13.6768C12.2008 11.3555 11 12.5563 11 14.0323V23.2795C11 24.7555 12.2008 25.9567 13.6768 25.9567H22.924C24.4 25.9567 25.6012 24.7558 25.6012 23.2795V14.0323C25.6012 12.5563 24.4004 11.3555 22.924 11.3555ZM18.3004 23.4629C15.6501 23.4629 13.4939 21.3066 13.4939 18.6561C13.4939 16.0058 15.6501 13.8496 18.3004 13.8496C20.9509 13.8496 23.1072 16.0058 23.1072 18.6561C23.1072 21.3063 20.9506 23.4629 18.3004 23.4629ZM22.1241 13.7061C22.1241 14.3331 22.6343 14.8433 23.2617 14.8433C23.8887 14.8433 24.3989 14.3331 24.3989 13.7061C24.3989 13.079 23.8887 12.5688 23.2617 12.5688C22.6343 12.5688 22.1241 13.079 22.1241 13.7061Z" fill="#F9F9F9"/>
<defs>
<filter id="filter0_b_295_79" x="-15" y="-14.8516" width="65.6475" height="65.6484" filterUnits="userSpaceOnUse" color-interpolation-filters="sRGB">
<feFlood flood-opacity="0" result="BackgroundImageFix"/>
<feGaussianBlur in="BackgroundImageFix" stdDeviation="7.5"/>
<feComposite in2="SourceAlpha" operator="in" result="effect1_backgroundBlur_295_79"/>
<feBlend mode="normal" in="SourceGraphic" in2="effect1_backgroundBlur_295_79" result="shape"/>
</filter>
</defs>
</svg>
