<svg width="22" height="22" viewBox="0 0 22 22" fill="none" xmlns="http://www.w3.org/2000/svg">
<path fill-rule="evenodd" clip-rule="evenodd" d="M11.0017 0.335938C8.10473 0.335938 7.74117 0.348604 6.60338 0.400383C5.46782 0.452383 4.6927 0.632163 4.01447 0.895943C3.3129 1.16839 2.71779 1.53284 2.12489 2.12596C1.53155 2.71885 1.1671 3.31397 0.893768 4.01531C0.629321 4.69376 0.449319 5.4691 0.398207 6.60422C0.347318 7.74201 0.333984 8.1058 0.333984 11.0027C0.333984 13.8996 0.346873 14.2621 0.398429 15.3999C0.450652 16.5354 0.630432 17.3106 0.89399 17.9888C1.16666 18.6904 1.53111 19.2855 2.12423 19.8784C2.7169 20.4717 3.31202 20.837 4.01313 21.1095C4.69181 21.3733 5.46715 21.553 6.60249 21.605C7.74028 21.6568 8.10362 21.6695 11.0003 21.6695C13.8975 21.6695 14.2599 21.6568 15.3977 21.605C16.5333 21.553 17.3093 21.3733 17.9879 21.1095C18.6893 20.837 19.2835 20.4717 19.8762 19.8784C20.4695 19.2855 20.834 18.6903 21.1073 17.989C21.3695 17.3106 21.5495 16.5352 21.6029 15.4001C21.654 14.2623 21.6673 13.8996 21.6673 11.0027C21.6673 8.1058 21.654 7.74224 21.6029 6.60445C21.5495 5.46888 21.3695 4.69376 21.1073 4.01553C20.834 3.31397 20.4695 2.71885 19.8762 2.12596C19.2828 1.53262 18.6895 1.16817 17.9873 0.895943C17.3073 0.632163 16.5317 0.452383 15.3961 0.400383C14.2584 0.348604 13.8961 0.335938 10.9983 0.335938H11.0017ZM10.0447 2.25815C10.3287 2.25771 10.6456 2.25815 11.0016 2.25815C13.8496 2.25815 14.1872 2.26837 15.3119 2.31948C16.3519 2.36704 16.9163 2.54082 17.2923 2.68682C17.7901 2.88016 18.145 3.11127 18.5181 3.48461C18.8915 3.85794 19.1226 4.2135 19.3164 4.71129C19.4624 5.08685 19.6364 5.6513 19.6837 6.69131C19.7348 7.81576 19.7459 8.15355 19.7459 11.0002C19.7459 13.8469 19.7348 14.1847 19.6837 15.3092C19.6361 16.3492 19.4624 16.9136 19.3164 17.2892C19.123 17.787 18.8915 18.1414 18.5181 18.5145C18.1448 18.8879 17.7903 19.119 17.2923 19.3123C16.9168 19.459 16.3519 19.6323 15.3119 19.6799C14.1874 19.731 13.8496 19.7421 11.0016 19.7421C8.15335 19.7421 7.81579 19.731 6.69134 19.6799C5.65133 19.6319 5.08688 19.4581 4.71065 19.3121C4.21287 19.1188 3.85731 18.8877 3.48397 18.5143C3.11063 18.141 2.87952 17.7863 2.68574 17.2883C2.53974 16.9127 2.36574 16.3483 2.3184 15.3083C2.26729 14.1838 2.25707 13.846 2.25707 10.9976C2.25707 8.1491 2.26729 7.8131 2.3184 6.68864C2.36596 5.64863 2.53974 5.08418 2.68574 4.70818C2.87908 4.21039 3.11063 3.85483 3.48397 3.4815C3.85731 3.10816 4.21287 2.87704 4.71065 2.68327C5.08665 2.5366 5.65133 2.36326 6.69134 2.31548C7.67535 2.27104 8.05668 2.25771 10.0447 2.25548V2.25815ZM16.6954 4.02928C15.9888 4.02928 15.4154 4.60196 15.4154 5.30885C15.4154 6.01553 15.9888 6.58887 16.6954 6.58887C17.4021 6.58887 17.9755 6.01553 17.9755 5.30885C17.9755 4.60218 17.4021 4.02928 16.6954 4.02928ZM11.0017 5.52485C7.97653 5.52485 5.52383 7.97754 5.52383 11.0027C5.52383 14.0278 7.97653 16.4794 11.0017 16.4794C14.0268 16.4794 16.4786 14.0278 16.4786 11.0027C16.4786 7.97754 14.0268 5.52485 11.0017 5.52485ZM11.0016 7.44709C12.9652 7.44709 14.5572 9.03889 14.5572 11.0027C14.5572 12.9663 12.9652 14.5583 11.0016 14.5583C9.03783 14.5583 7.44603 12.9663 7.44603 11.0027C7.44603 9.03889 9.03783 7.44709 11.0016 7.44709Z" fill="#1F293D"/>
</svg>
