<svg width="17" height="17" viewBox="0 0 17 17" fill="none" xmlns="http://www.w3.org/2000/svg">
<path fill-rule="evenodd" clip-rule="evenodd" d="M4.14898 5.78924H4.1317C3.26739 5.78924 2.70703 5.22377 2.70703 4.507C2.70703 3.77627 3.28396 3.22266 4.16555 3.22266C5.04642 3.22266 5.58806 3.77488 5.60534 4.5049C5.60534 5.22168 5.04642 5.78924 4.14898 5.78924ZM14.9571 14.1116H12.2497V10.2837C12.2497 9.28171 11.8261 8.5977 10.8949 8.5977C10.1825 8.5977 9.78638 9.05928 9.60199 9.50413C9.54111 9.64472 9.54221 9.83395 9.54334 10.029C9.5435 10.0555 9.54365 10.0821 9.54365 10.1087V14.1116H6.86141C6.86141 14.1116 6.89599 7.3308 6.86141 6.71442H9.54365V7.87535C9.70211 7.36775 10.5592 6.6433 11.927 6.6433C13.6239 6.6433 14.9571 7.70731 14.9571 9.99848V14.1116ZM5.40364 6.71443H3.01599V14.1116H5.40364V6.71443Z" fill="#1F293D"/>
</svg>
