<svg width="24" height="24" viewBox="0 0 24 24" fill="none" xmlns="http://www.w3.org/2000/svg">
<path d="M22.6802 21.8402L17.8802 17.0402C19.4402 15.3602 20.2802 13.2002 20.2802 10.6802C20.2802 5.4002 15.9602 1.2002 10.8002 1.2002C5.5202 1.2002 1.2002 5.4002 1.2002 10.6802C1.2002 15.9602 5.52019 20.1602 10.6802 20.1602C13.0802 20.1602 15.2402 19.3202 16.9202 17.8802L21.7202 22.6802C21.8402 22.8002 21.9602 22.8002 22.0802 22.8002C22.2002 22.8002 22.3202 22.8002 22.4402 22.6802C22.8002 22.4402 22.8002 22.0802 22.6802 21.8402ZM2.4002 10.6802C2.4002 6.12019 6.12019 2.4002 10.6802 2.4002C15.2402 2.4002 19.0802 6.12019 19.0802 10.6802C19.0802 15.2402 15.3602 18.9602 10.6802 18.9602C6.12019 18.9602 2.4002 15.2402 2.4002 10.6802Z" fill="white"/>
</svg>
