<svg width="36" height="37" viewBox="0 0 36 37" fill="none" xmlns="http://www.w3.org/2000/svg">
<g filter="url(#filter0_b_295_87)">
<path d="M17.8235 36.44C27.6672 36.44 35.6471 28.4602 35.6471 18.6165C35.6471 8.77284 27.6672 0.792969 17.8235 0.792969C7.97987 0.792969 0 8.77284 0 18.6165C0 28.4602 7.97987 36.44 17.8235 36.44Z" fill="#F9F9F9" fill-opacity="0.15"/>
</g>
<path d="M26 13.3019C25.3747 13.5829 24.7021 13.7729 23.9967 13.8578C24.7169 13.4205 25.2696 12.7286 25.5305 11.9028C24.8566 12.308 24.1098 12.6019 23.3157 12.7603C22.6795 12.0736 21.773 11.6445 20.7693 11.6445C18.8434 11.6445 17.2815 13.2273 17.2815 15.1789C17.2815 15.4559 17.3125 15.7255 17.3723 15.9844C14.4737 15.837 11.9036 14.43 10.1832 12.2911C9.88306 12.813 9.71087 13.4205 9.71087 14.0681C9.71087 15.294 10.3271 16.3763 11.2624 17.0099C10.6909 16.9918 10.1528 16.8328 9.68278 16.5674C9.68252 16.5824 9.68252 16.5974 9.68252 16.6122C9.68252 18.3247 10.8852 19.753 12.4805 20.0775C12.1881 20.1587 11.8794 20.2016 11.5618 20.2016C11.3365 20.2016 11.1183 20.1797 10.9055 20.1386C11.3493 21.5425 12.6371 22.5643 14.1636 22.5931C12.9697 23.5412 11.4661 24.106 9.83156 24.106C9.55064 24.106 9.27233 24.0894 9 24.0565C10.5427 25.0597 12.3764 25.6445 14.346 25.6445C20.7612 25.6445 24.2695 20.2591 24.2695 15.5882C24.2695 15.4351 24.2661 15.2824 24.2594 15.1312C24.9414 14.633 25.5326 14.0107 26 13.3019Z" fill="#F9F9F9"/>
<defs>
<filter id="filter0_b_295_87" x="-15" y="-14.207" width="65.6475" height="65.6484" filterUnits="userSpaceOnUse" color-interpolation-filters="sRGB">
<feFlood flood-opacity="0" result="BackgroundImageFix"/>
<feGaussianBlur in="BackgroundImageFix" stdDeviation="7.5"/>
<feComposite in2="SourceAlpha" operator="in" result="effect1_backgroundBlur_295_87"/>
<feBlend mode="normal" in="SourceGraphic" in2="effect1_backgroundBlur_295_87" result="shape"/>
</filter>
</defs>
</svg>
