<?xml version="1.0" encoding="UTF-8"?>
<svg id="Layer_1" xmlns="http://www.w3.org/2000/svg" version="1.1" viewBox="0 0 800 800">
  <!-- Generator: Adobe Illustrator 29.1.0, SVG Export Plug-In . SVG Version: 2.1.0 Build 142)  -->
  <defs>
    <style>
      .st0 {
        fill: #e0e0e0;
      }
    </style>
  </defs>
  <path class="st0" d="M674.9,118.5c-36-36.6-78.8-65.6-125.9-85.4C501.9,13.4,451.3,3.3,400.2,3.5c-68.2,0-135.3,18.2-194.3,52.7-59.1,34.5-108.2,84-142.4,143.7-34.2,59.7-52.2,127.4-52.4,196.3-.1,68.9,17.7,136.7,51.6,196.5L7.9,796.5l206-54.5c56.9,32,120.8,49,185.9,49.6,103.5,0,202.8-41.3,276.3-114.9,73.5-73.6,115.2-173.6,116.1-278.1-.3-52.2-10.9-103.8-31-151.8-20.1-48.1-49.4-91.6-86.2-128.2ZM400.2,723.6c-58,0-114.9-15.7-164.8-45.6l-11.8-7.4-122.1,32.7,32.4-120.4-7.8-12.4c-41.7-68.1-57.3-149.2-43.8-228.1,13.5-78.9,55.2-150,117.2-199.9,62-49.9,139.9-75.1,219-70.8,79.1,4.3,154,37.7,210.3,94,61.6,60.9,96.9,143.9,98.1,231-.8,87-35.5,170.2-96.7,231.5-61.2,61.3-143.8,95.6-229.9,95.6ZM577.3,478.8c-9.8-5-57.4-28.7-66.2-31.7-8.8-3-15.7-5-22.1,5-9.6,13.3-19.9,26-30.9,38.2-5.4,6.9-11.3,7.4-21.1,0-55.9-22.3-102.5-63.5-131.9-116.5-10.3-17.3,9.8-16.4,28.4-53.5,1.4-2.7,2.1-5.7,2.1-8.7s-.7-6-2.1-8.7c0-5-22.1-53.5-29.9-72.9-7.8-19.3-15.7-16.4-22.1-16.9h-19.1c-5,0-9.8,1.2-14.3,3.4s-8.5,5.2-11.7,9c-11,10.8-19.6,23.9-25.2,38.3-5.6,14.4-8,29.9-7.2,45.4,3.1,37.1,16.9,72.4,39.7,101.6,41.8,63.2,99.1,114.5,166.3,148.7,35.2,20.8,76.2,29.5,116.7,24.8,13.5-2.7,26.3-8.3,37.5-16.3,11.2-8,20.7-18.4,27.7-30.3,6.5-14.6,8.6-30.8,5.9-46.6-4.4-5-10.8-7.4-20.6-12.4Z"/>
</svg>