<svg width="22" height="16" viewBox="0 0 22 16" fill="none" xmlns="http://www.w3.org/2000/svg">
<path fill-rule="evenodd" clip-rule="evenodd" d="M19.3353 1.12184C20.2533 1.37372 20.9762 2.11591 21.2215 3.05841C21.6673 4.7666 21.6673 8.33073 21.6673 8.33073C21.6673 8.33073 21.6673 11.8947 21.2215 13.603C20.9762 14.5456 20.2533 15.2877 19.3353 15.5397C17.6718 15.9974 11.0007 15.9974 11.0007 15.9974C11.0007 15.9974 4.3295 15.9974 2.66586 15.5397C1.74792 15.2877 1.02501 14.5456 0.779681 13.603C0.333984 11.8947 0.333984 8.33073 0.333984 8.33073C0.333984 8.33073 0.333984 4.7666 0.779681 3.05841C1.02501 2.11591 1.74792 1.37372 2.66586 1.12184C4.3295 0.664062 11.0007 0.664062 11.0007 0.664062C11.0007 0.664062 17.6718 0.664062 19.3353 1.12184ZM9.00067 5.33066V11.9973L14.334 8.66412L9.00067 5.33066Z" fill="#1F293D"/>
</svg>
